<svg width="69" height="14" viewBox="0 0 69 14" fill="none" xmlns="http://www.w3.org/2000/svg">
<path d="M64.2032 10.1069V8.92447C64.8034 9.36787 65.464 9.58958 66.1851 9.58958C67.1525 9.58958 67.6362 9.2671 67.6362 8.62214C67.6362 8.43851 67.5937 8.28399 67.5086 8.15858C67.428 8.0287 67.316 7.91448 67.1727 7.81595C67.0338 7.71741 66.8681 7.63008 66.6755 7.55394C66.4874 7.47332 66.2836 7.39046 66.0642 7.30536C65.7596 7.18443 65.4909 7.0635 65.258 6.94257C65.0295 6.81716 64.8369 6.67832 64.6802 6.52604C64.5279 6.36928 64.4115 6.19236 64.3308 5.99529C64.2547 5.79822 64.2166 5.56756 64.2166 5.30331C64.2166 4.98083 64.2905 4.69642 64.4383 4.45009C64.5861 4.19927 64.7832 3.991 65.0295 3.82529C65.2759 3.65509 65.5558 3.52744 65.8693 3.44234C66.1873 3.35725 66.5143 3.3147 66.8502 3.3147C67.4459 3.3147 67.9789 3.41771 68.4491 3.62374V4.73897C67.943 4.40754 67.3608 4.24182 66.7024 4.24182C66.4964 4.24182 66.3105 4.26645 66.1448 4.31572C65.9791 4.36051 65.8357 4.42545 65.7148 4.51055C65.5984 4.59565 65.5065 4.69866 65.4394 4.81959C65.3766 4.93604 65.3453 5.06593 65.3453 5.20925C65.3453 5.38841 65.3766 5.53845 65.4394 5.65938C65.5065 5.78031 65.6028 5.8878 65.7282 5.98186C65.8536 6.07591 66.0059 6.16101 66.1851 6.23715C66.3642 6.31329 66.568 6.39615 66.7964 6.48573C67.101 6.60218 67.3742 6.72311 67.6161 6.84852C67.8579 6.96945 68.064 7.10829 68.2342 7.26505C68.4044 7.41733 68.5342 7.59425 68.6238 7.79579C68.7179 7.99734 68.7649 8.23696 68.7649 8.51465C68.7649 8.85504 68.6888 9.15065 68.5365 9.40146C68.3887 9.65228 68.1894 9.86055 67.9386 10.0263C67.6877 10.192 67.3989 10.3152 67.0719 10.3958C66.7449 10.4764 66.4023 10.5167 66.044 10.5167C65.3363 10.5167 64.7227 10.3801 64.2032 10.1069Z" fill="#797979"/>
<path d="M59.433 10.5167C58.4163 10.5167 57.6033 10.1965 56.9942 9.55599C56.3896 8.91103 56.0872 8.05781 56.0872 6.99632C56.0872 5.84077 56.403 4.93828 57.0345 4.28885C57.666 3.63941 58.5193 3.3147 59.5942 3.3147C60.6199 3.3147 61.4193 3.63046 61.9926 4.26198C62.5704 4.89349 62.8593 5.76911 62.8593 6.88883C62.8593 7.98615 62.548 8.86624 61.9254 9.52911C61.3074 10.1875 60.4765 10.5167 59.433 10.5167ZM59.5136 4.24182C58.8059 4.24182 58.2461 4.48368 57.834 4.9674C57.4219 5.44663 57.2159 6.1095 57.2159 6.95601C57.2159 7.77116 57.4242 8.41388 57.8407 8.88416C58.2573 9.35444 58.8149 9.58958 59.5136 9.58958C60.2257 9.58958 60.7721 9.35892 61.1528 8.89759C61.538 8.43627 61.7306 7.78012 61.7306 6.92914C61.7306 6.06919 61.538 5.40632 61.1528 4.94052C60.7721 4.47472 60.2257 4.24182 59.5136 4.24182Z" fill="#797979"/>
<path d="M54.4745 10.3555H53.3727V6.40511C53.3727 5.6437 53.254 5.0928 53.0167 4.75241C52.7838 4.41202 52.3896 4.24182 51.8342 4.24182C51.364 4.24182 50.9631 4.45681 50.6317 4.88678C50.3047 5.31675 50.1412 5.83182 50.1412 6.43198V10.3555H49.0394V6.27074C49.0394 4.91813 48.5177 4.24182 47.4741 4.24182C46.9904 4.24182 46.5917 4.44561 46.2782 4.85318C45.9647 5.25628 45.8079 5.78255 45.8079 6.43198V10.3555H44.7061V3.47594H45.8079V4.5643H45.8348C46.323 3.73123 47.0352 3.3147 47.9712 3.3147C48.4415 3.3147 48.8513 3.44682 49.2007 3.71108C49.55 3.97085 49.7897 4.31348 49.9195 4.73897C50.4301 3.78946 51.1915 3.3147 52.2038 3.3147C53.7176 3.3147 54.4745 4.24854 54.4745 6.11622V10.3555Z" fill="#797979"/>
<path d="M38.8006 7.62794C38.8006 8.06239 38.7178 8.45877 38.5521 8.81708C38.3908 9.17091 38.1602 9.47547 37.8601 9.73076C37.5645 9.98158 37.2084 10.1764 36.7919 10.3153C36.3753 10.4541 35.9163 10.5235 35.4146 10.5235C34.4965 10.5235 33.7664 10.3488 33.2245 9.9995V8.81708C33.8739 9.32767 34.6174 9.58296 35.4549 9.58296C35.7908 9.58296 36.0932 9.54041 36.3619 9.45531C36.6351 9.37022 36.868 9.24705 37.0606 9.08581C37.2577 8.92457 37.4077 8.72974 37.5107 8.50132C37.6182 8.2729 37.672 8.01536 37.672 7.72872C37.672 6.47016 36.7762 5.84088 34.9846 5.84088H34.1852V4.90703H34.9443C36.5299 4.90703 37.3226 4.31583 37.3226 3.13341C37.3226 2.04057 36.718 1.49414 35.5087 1.49414C34.8279 1.49414 34.1897 1.72257 33.594 2.17941V1.1112C34.2076 0.743936 34.9376 0.560303 35.7841 0.560303C36.1872 0.560303 36.5522 0.616288 36.8792 0.72826C37.2062 0.840231 37.4861 0.996991 37.719 1.19854C37.9519 1.40009 38.131 1.64195 38.2565 1.92412C38.3863 2.20628 38.4513 2.51756 38.4513 2.85796C38.4513 4.12547 37.8108 4.94063 36.5299 5.30341V5.33029C36.8568 5.36612 37.1591 5.44674 37.4368 5.57214C37.7145 5.69307 37.9541 5.85207 38.1557 6.04914C38.3572 6.24621 38.514 6.47911 38.626 6.74785C38.7424 7.0121 38.8006 7.30546 38.8006 7.62794Z" fill="#797979"/>
<path d="M23.4764 10.1069V8.92447C24.0766 9.36787 24.7372 9.58958 25.4583 9.58958C26.4258 9.58958 26.9095 9.2671 26.9095 8.62214C26.9095 8.43851 26.8669 8.28399 26.7818 8.15858C26.7012 8.0287 26.5892 7.91448 26.4459 7.81595C26.3071 7.71741 26.1414 7.63008 25.9488 7.55394C25.7607 7.47332 25.5569 7.39046 25.3374 7.30536C25.0328 7.18443 24.7641 7.0635 24.5312 6.94257C24.3028 6.81716 24.1102 6.67832 23.9534 6.52604C23.8012 6.36928 23.6847 6.19236 23.6041 5.99529C23.5279 5.79822 23.4899 5.56756 23.4899 5.30331C23.4899 4.98083 23.5638 4.69642 23.7116 4.45009C23.8594 4.19927 24.0565 3.991 24.3028 3.82529C24.5491 3.65509 24.8291 3.52744 25.1426 3.44234C25.4606 3.35725 25.7875 3.3147 26.1234 3.3147C26.7191 3.3147 27.2521 3.41771 27.7224 3.62374V4.73897C27.2163 4.40754 26.634 4.24182 25.9756 4.24182C25.7696 4.24182 25.5837 4.26645 25.418 4.31572C25.2523 4.36051 25.109 4.42545 24.9881 4.51055C24.8716 4.59565 24.7798 4.69866 24.7126 4.81959C24.6499 4.93604 24.6185 5.06593 24.6185 5.20925C24.6185 5.38841 24.6499 5.53845 24.7126 5.65938C24.7798 5.78031 24.8761 5.8878 25.0015 5.98186C25.1269 6.07591 25.2792 6.16101 25.4583 6.23715C25.6375 6.31329 25.8413 6.39615 26.0697 6.48573C26.3743 6.60218 26.6475 6.72311 26.8893 6.84852C27.1312 6.96945 27.3372 7.10829 27.5074 7.26505C27.6776 7.41733 27.8075 7.59425 27.8971 7.79579C27.9911 7.99734 28.0382 8.23696 28.0382 8.51465C28.0382 8.85504 27.962 9.15065 27.8097 9.40146C27.6619 9.65228 27.4626 9.86055 27.2118 10.0263C26.961 10.192 26.6721 10.3152 26.3451 10.3958C26.0182 10.4764 25.6756 10.5167 25.3173 10.5167C24.6096 10.5167 23.996 10.3801 23.4764 10.1069Z" fill="#797979"/>
<path d="M22.697 4.59115C22.5044 4.44334 22.2267 4.36944 21.8639 4.36944C21.3937 4.36944 20.9995 4.59115 20.6815 5.03455C20.368 5.47796 20.2112 6.0826 20.2112 6.84849V10.3554H19.1094V3.47591H20.2112V4.89347H20.2381C20.3949 4.40975 20.6345 4.03353 20.957 3.7648C21.2794 3.49159 21.64 3.35498 22.0386 3.35498C22.3253 3.35498 22.5447 3.38633 22.697 3.44904V4.59115Z" fill="#797979"/>
<path d="M17.9203 3.47607L14.7559 11.4574C14.1916 12.8817 13.3989 13.5938 12.3777 13.5938C12.091 13.5938 11.8514 13.5647 11.6588 13.5065V12.5189C11.8962 12.5995 12.1134 12.6398 12.3105 12.6398C12.8659 12.6398 13.2824 12.3084 13.5601 11.6455L14.111 10.3422L11.4237 3.47607H12.6464L14.5074 8.77008C14.5298 8.83727 14.5768 9.01194 14.6485 9.29411H14.6888C14.7112 9.18662 14.7559 9.01642 14.8231 8.78352L16.7782 3.47607H17.9203Z" fill="#797979"/>
<path d="M6.53913 7.62794C6.53913 8.06239 6.45627 8.45877 6.29055 8.81708C6.12931 9.17091 5.89865 9.47547 5.59857 9.73076C5.30297 9.98158 4.9469 10.1764 4.53036 10.3153C4.11383 10.4541 3.65475 10.5235 3.15311 10.5235C2.23495 10.5235 1.50489 10.3488 0.962952 9.9995V8.81708C1.61239 9.32767 2.35588 9.58296 3.19342 9.58296C3.52934 9.58296 3.83166 9.54041 4.10039 9.45531C4.3736 9.37022 4.6065 9.24705 4.79909 9.08581C4.99616 8.92457 5.1462 8.72974 5.24922 8.50132C5.35671 8.2729 5.41046 8.01536 5.41046 7.72872C5.41046 6.47016 4.51469 5.84088 2.72314 5.84088H1.92367V4.90703H2.68283C4.26835 4.90703 5.06111 4.31583 5.06111 3.13341C5.06111 2.04057 4.45646 1.49414 3.24717 1.49414C2.56638 1.49414 1.92815 1.72257 1.33246 2.17941V1.1112C1.94606 0.743936 2.67611 0.560303 3.52262 0.560303C3.92572 0.560303 4.29074 0.616288 4.6177 0.72826C4.94466 0.840231 5.22459 0.996991 5.45749 1.19854C5.69039 1.40009 5.86954 1.64195 5.99495 1.92412C6.12484 2.20628 6.18978 2.51756 6.18978 2.85796C6.18978 4.12547 5.5493 4.94063 4.26835 5.30341V5.33029C4.59531 5.36612 4.89763 5.44674 5.17532 5.57214C5.45301 5.69307 5.69263 5.85207 5.89417 6.04914C6.09572 6.24621 6.25248 6.47911 6.36445 6.74785C6.48091 7.0121 6.53913 7.30546 6.53913 7.62794Z" fill="#797979"/>
</svg>
