<svg width="124" height="16" viewBox="0 0 124 16" fill="none" xmlns="http://www.w3.org/2000/svg">
<path d="M117.271 11.2227H117.241V15.9011H116.001V4.6018H117.241V5.96226H117.271C117.881 4.93436 118.773 4.42041 119.947 4.42041C120.944 4.42041 121.723 4.76808 122.282 5.46342C122.841 6.15373 123.121 7.08085 123.121 8.24479C123.121 9.53974 122.806 10.5777 122.176 11.3587C121.546 12.1347 120.685 12.5227 119.591 12.5227C118.589 12.5227 117.815 12.0893 117.271 11.2227ZM117.241 8.10119V9.182C117.241 9.82191 117.447 10.3661 117.861 10.8145C118.279 11.2579 118.808 11.4797 119.448 11.4797C120.199 11.4797 120.786 11.1924 121.209 10.618C121.637 10.0436 121.851 9.24498 121.851 8.22212C121.851 7.3605 121.652 6.68531 121.254 6.19656C120.856 5.7078 120.317 5.46342 119.637 5.46342C118.916 5.46342 118.337 5.71536 117.898 6.21923C117.46 6.71806 117.241 7.34538 117.241 8.10119Z" fill="#202244"/>
<path d="M110.166 12.5227C109.023 12.5227 108.108 12.1624 107.423 11.4419C106.743 10.7163 106.402 9.75641 106.402 8.56223C106.402 7.26225 106.758 6.24694 107.468 5.51633C108.179 4.78572 109.138 4.42041 110.348 4.42041C111.502 4.42041 112.401 4.77564 113.046 5.4861C113.696 6.19656 114.021 7.18163 114.021 8.4413C114.021 9.67579 113.671 10.6659 112.97 11.4116C112.275 12.1523 111.34 12.5227 110.166 12.5227ZM110.257 5.46342C109.461 5.46342 108.831 5.73551 108.368 6.2797C107.904 6.81884 107.672 7.56457 107.672 8.51688C107.672 9.43393 107.907 10.157 108.375 10.6861C108.844 11.2151 109.471 11.4796 110.257 11.4796C111.058 11.4796 111.673 11.2202 112.101 10.7012C112.535 10.1822 112.751 9.44401 112.751 8.48665C112.751 7.51922 112.535 6.77349 112.101 6.24946C111.673 5.72544 111.058 5.46342 110.257 5.46342Z" fill="#202244"/>
<path d="M104.589 12.3411H103.349V7.88183C103.349 6.26944 102.75 5.46325 101.55 5.46325C100.946 5.46325 100.437 5.69755 100.024 6.16615C99.6105 6.62971 99.404 7.2268 99.404 7.95741V12.3411H98.1644V0.883057H99.404V5.8865H99.4342C100.029 4.90899 100.875 4.42023 101.974 4.42023C103.717 4.42023 104.589 5.47081 104.589 7.57195V12.3411Z" fill="#202244"/>
<path d="M91.1201 12.0616V10.7314C91.7952 11.2302 92.5385 11.4796 93.3497 11.4796C94.4381 11.4796 94.9822 11.1169 94.9822 10.3913C94.9822 10.1847 94.9344 10.0109 94.8386 9.86978C94.7479 9.72366 94.622 9.59517 94.4607 9.48432C94.3045 9.37347 94.1181 9.27521 93.9014 9.18955C93.6898 9.09886 93.4605 9.00564 93.2136 8.9099C92.871 8.77386 92.5687 8.63781 92.3067 8.50177C92.0497 8.36068 91.833 8.20448 91.6567 8.03317C91.4854 7.85681 91.3544 7.65778 91.2637 7.43608C91.178 7.21438 91.1352 6.95488 91.1352 6.6576C91.1352 6.29481 91.2183 5.97485 91.3846 5.69772C91.5509 5.41556 91.7726 5.18126 92.0497 4.99482C92.3268 4.80335 92.6417 4.65975 92.9945 4.56401C93.3522 4.46828 93.72 4.42041 94.0979 4.42041C94.7681 4.42041 95.3677 4.5363 95.8968 4.76808V6.02272C95.3274 5.64986 94.6724 5.46342 93.9317 5.46342C93.6999 5.46342 93.4908 5.49114 93.3043 5.54656C93.1179 5.59695 92.9567 5.67001 92.8206 5.76575C92.6896 5.86148 92.5863 5.97737 92.5107 6.11342C92.4402 6.24442 92.4049 6.39055 92.4049 6.55179C92.4049 6.75333 92.4402 6.92213 92.5107 7.05818C92.5863 7.19422 92.6947 7.31515 92.8357 7.42096C92.9768 7.52678 93.1481 7.62251 93.3497 7.70817C93.5512 7.79383 93.7805 7.88705 94.0375 7.98782C94.3801 8.11883 94.6875 8.25487 94.9596 8.39596C95.2316 8.532 95.4634 8.6882 95.6549 8.86456C95.8464 9.03587 95.9925 9.2349 96.0933 9.46164C96.1991 9.68839 96.252 9.95796 96.252 10.2704C96.252 10.6533 96.1663 10.9859 95.995 11.268C95.8287 11.5502 95.6045 11.7845 95.3223 11.9709C95.0402 12.1574 94.7152 12.2959 94.3474 12.3866C93.9795 12.4773 93.5941 12.5227 93.191 12.5227C92.3949 12.5227 91.7045 12.369 91.1201 12.0616Z" fill="#202244"/>
<path d="M85.7535 12.5227C84.6098 12.5227 83.6952 12.1624 83.01 11.4419C82.3297 10.7163 81.9896 9.75641 81.9896 8.56223C81.9896 7.26225 82.3449 6.24694 83.0553 5.51633C83.7658 4.78572 84.7256 4.42041 85.9349 4.42041C87.0888 4.42041 87.9882 4.77564 88.6332 5.4861C89.2832 6.19656 89.6082 7.18163 89.6082 8.4413C89.6082 9.67579 89.258 10.6659 88.5576 11.4116C87.8622 12.1523 86.9276 12.5227 85.7535 12.5227ZM85.8442 5.46342C85.0481 5.46342 84.4183 5.73551 83.9547 6.2797C83.4912 6.81884 83.2594 7.56457 83.2594 8.51688C83.2594 9.43393 83.4937 10.157 83.9623 10.6861C84.4309 11.2151 85.0582 11.4796 85.8442 11.4796C86.6454 11.4796 87.2601 11.2202 87.6884 10.7012C88.1217 10.1822 88.3384 9.44401 88.3384 8.48665C88.3384 7.51922 88.1217 6.77349 87.6884 6.24946C87.2601 5.72544 86.6454 5.46342 85.8442 5.46342Z" fill="#202244"/>
<path d="M80.985 12.2655C80.6928 12.4267 80.3073 12.5074 79.8286 12.5074C78.4732 12.5074 77.7955 11.7516 77.7955 10.2399V5.65975H76.4653V4.60162H77.7955V2.7121L79.035 2.31152V4.60162H80.985V5.65975H79.035V10.0208C79.035 10.5397 79.1232 10.9101 79.2995 11.1318C79.4759 11.3535 79.7681 11.4643 80.1763 11.4643C80.4887 11.4643 80.7583 11.3787 80.985 11.2074V12.2655Z" fill="#202244"/>
<path d="M71.5597 12.5227C70.4159 12.5227 69.5014 12.1624 68.8161 11.4419C68.1359 10.7163 67.7958 9.75641 67.7958 8.56223C67.7958 7.26225 68.151 6.24694 68.8615 5.51633C69.5719 4.78572 70.5318 4.42041 71.7411 4.42041C72.895 4.42041 73.7944 4.77564 74.4393 5.4861C75.0893 6.19656 75.4143 7.18163 75.4143 8.4413C75.4143 9.67579 75.0641 10.6659 74.3637 11.4116C73.6684 12.1523 72.7337 12.5227 71.5597 12.5227ZM71.6504 5.46342C70.8543 5.46342 70.2244 5.73551 69.7609 6.2797C69.2973 6.81884 69.0655 7.56457 69.0655 8.51688C69.0655 9.43393 69.2998 10.157 69.7684 10.6861C70.237 11.2151 70.8644 11.4796 71.6504 11.4796C72.4515 11.4796 73.0663 11.2202 73.4946 10.7012C73.9279 10.1822 74.1446 9.44401 74.1446 8.48665C74.1446 7.51922 73.9279 6.77349 73.4946 6.24946C73.0663 5.72544 72.4515 5.46342 71.6504 5.46342Z" fill="#202244"/>
<path d="M65.9821 12.3411H64.7426V7.88183C64.7426 6.26944 64.143 5.46325 62.9438 5.46325C62.3391 5.46325 61.8302 5.69755 61.4171 6.16615C61.0039 6.62971 60.7973 7.2268 60.7973 7.95741V12.3411H59.5578V0.883057H60.7973V5.8865H60.8275C61.4221 4.90899 62.2686 4.42023 63.367 4.42023C65.1104 4.42023 65.9821 5.47081 65.9821 7.57195V12.3411Z" fill="#202244"/>
<path d="M52.3172 8.24473V12.3412H51.0475V1.50293H54.0253C55.1842 1.50293 56.0811 1.7851 56.716 2.34943C57.3559 2.91377 57.6759 3.70989 57.6759 4.73778C57.6759 5.76568 57.3207 6.60715 56.6102 7.26218C55.9048 7.91721 54.9499 8.24473 53.7457 8.24473H52.3172ZM52.3172 2.65176V7.0959H53.6474C54.5242 7.0959 55.1918 6.89687 55.6503 6.49882C56.1139 6.09572 56.3457 5.52886 56.3457 4.79825C56.3457 3.36725 55.4992 2.65176 53.8062 2.65176H52.3172Z" fill="#202244"/>
<path d="M44.7516 8.78142H39.2871C39.3073 9.64304 39.539 10.3081 39.9824 10.7767C40.4258 11.2453 41.0355 11.4796 41.8115 11.4796C42.6832 11.4796 43.4844 11.1924 44.215 10.618V11.782C43.5347 12.2758 42.6353 12.5227 41.5167 12.5227C40.4233 12.5227 39.5642 12.1725 38.9394 11.4721C38.3146 10.7667 38.0022 9.77656 38.0022 8.50177C38.0022 7.29752 38.3423 6.31749 39.0226 5.56168C39.7078 4.80083 40.5569 4.42041 41.5696 4.42041C42.5824 4.42041 43.3659 4.74793 43.9202 5.40296C44.4745 6.05799 44.7516 6.96748 44.7516 8.13142V8.78142ZM43.4818 7.73085C43.4768 7.01535 43.303 6.45857 42.9603 6.06051C42.6227 5.66245 42.1516 5.46342 41.547 5.46342C40.9625 5.46342 40.4662 5.67253 40.058 6.09074C39.6499 6.50896 39.398 7.05566 39.3022 7.73085H43.4818Z" fill="#202244"/>
<path d="M30.7016 11.2225H30.6714V12.3411H29.4319V0.883057H30.6714V5.96208H30.7016C31.3113 4.93418 32.2031 4.42023 33.3772 4.42023C34.3698 4.42023 35.1458 4.76791 35.7051 5.46325C36.2694 6.15355 36.5516 7.08068 36.5516 8.24462C36.5516 9.53957 36.2366 10.5775 35.6068 11.3585C34.977 12.1345 34.1153 12.5225 33.0219 12.5225C31.9991 12.5225 31.2256 12.0892 30.7016 11.2225ZM30.6714 8.10102V9.18182C30.6714 9.82174 30.878 10.3659 31.2911 10.8144C31.7094 11.2578 32.2384 11.4795 32.8783 11.4795C33.6291 11.4795 34.2161 11.1923 34.6394 10.6179C35.0677 10.0434 35.2818 9.2448 35.2818 8.22195C35.2818 7.36032 35.0828 6.68514 34.6847 6.19638C34.2867 5.70763 33.7475 5.46325 33.0673 5.46325C32.3468 5.46325 31.7673 5.71518 31.3289 6.21906C30.8906 6.71789 30.6714 7.34521 30.6714 8.10102Z" fill="#202244"/>
<path d="M23.5964 12.5227C22.4526 12.5227 21.5381 12.1624 20.8528 11.4419C20.1726 10.7163 19.8325 9.75641 19.8325 8.56223C19.8325 7.26225 20.1877 6.24694 20.8982 5.51633C21.6086 4.78572 22.5685 4.42041 23.7778 4.42041C24.9317 4.42041 25.8311 4.77564 26.476 5.4861C27.126 6.19656 27.451 7.18163 27.451 8.4413C27.451 9.67579 27.1008 10.6659 26.4005 11.4116C25.7051 12.1523 24.7704 12.5227 23.5964 12.5227ZM23.6871 5.46342C22.891 5.46342 22.2611 5.73551 21.7976 6.2797C21.334 6.81884 21.1022 7.56457 21.1022 8.51688C21.1022 9.43393 21.3365 10.157 21.8051 10.6861C22.2737 11.2151 22.9011 11.4796 23.6871 11.4796C24.4883 11.4796 25.103 11.2202 25.5313 10.7012C25.9646 10.1822 26.1813 9.44401 26.1813 8.48665C26.1813 7.51922 25.9646 6.77349 25.5313 6.24946C25.103 5.72544 24.4883 5.46342 23.6871 5.46342Z" fill="#202244"/>
<path d="M17.8519 12.3411H16.6124V11.026H16.5822C16.0078 12.0237 15.1209 12.5225 13.9217 12.5225C12.9493 12.5225 12.1708 12.1773 11.5863 11.487C11.0068 10.7917 10.7171 9.84693 10.7171 8.65276C10.7171 7.37292 11.0396 6.34754 11.6845 5.57662C12.3295 4.8057 13.1886 4.42023 14.2618 4.42023C15.325 4.42023 16.0985 4.83845 16.5822 5.67487H16.6124V0.883057H17.8519V12.3411ZM16.6124 8.84171V7.70044C16.6124 7.07564 16.4058 6.54657 15.9926 6.11324C15.5795 5.67991 15.0554 5.46325 14.4206 5.46325C13.6648 5.46325 13.0702 5.74038 12.6369 6.29464C12.2035 6.8489 11.9869 7.61478 11.9869 8.59229C11.9869 9.48414 12.1934 10.1896 12.6066 10.7086C13.0248 11.2225 13.5841 11.4795 14.2845 11.4795C14.9748 11.4795 15.5341 11.2301 15.9624 10.7312C16.3957 10.2324 16.6124 9.60255 16.6124 8.84171Z" fill="#202244"/>
<path d="M9.81042 12.3412H8.40462L7.25579 9.30286H2.66049L1.57968 12.3412H0.166321L4.32326 1.50293H5.63837L9.81042 12.3412ZM6.8401 8.16159L5.13953 3.54361C5.08411 3.39245 5.02868 3.15059 4.97326 2.81803H4.94302C4.89264 3.1254 4.83469 3.36725 4.76919 3.54361L3.08374 8.16159H6.8401Z" fill="#202244"/>
</svg>
