<svg width="13" height="14" viewBox="0 0 13 14" fill="none" xmlns="http://www.w3.org/2000/svg">
<path fill-rule="evenodd" clip-rule="evenodd" d="M4.39535 0C4.66507 0 4.88372 0.218652 4.88372 0.488372V1.30923C5.3195 1.30233 5.80371 1.30233 6.34164 1.30233H6.35604C6.89397 1.30233 7.37817 1.30233 7.81395 1.30923V0.488372C7.81395 0.218652 8.03261 0 8.30233 0C8.57205 0 8.7907 0.218652 8.7907 0.488372V1.34373C9.7752 1.40545 10.5315 1.56497 11.1543 2.0174C11.4721 2.24834 11.7517 2.52787 11.9826 2.84573C12.3641 3.37078 12.5349 3.98573 12.6171 4.74468C12.6977 5.4884 12.6977 6.42581 12.6977 7.62168V7.65863C12.6977 8.4139 12.6977 9.06326 12.6786 9.62137C12.6368 10.8413 12.5047 11.7379 11.9826 12.4566C11.7517 12.7745 11.4721 13.054 11.1543 13.2849C10.4356 13.8071 9.53896 13.9391 8.31905 13.9809C7.76083 14 7.11132 14 6.35586 14H6.31936C5.12348 14 4.18607 14 3.44236 13.9194C2.6834 13.8372 2.06846 13.6664 1.54341 13.2849C1.22555 13.054 0.946016 12.7745 0.715076 12.4566C0.333606 11.9315 0.162795 11.3166 0.0805671 10.5576C-9.53813e-06 9.81393 -5.30686e-06 8.87651 8.80532e-08 7.68063V7.6217C-5.30686e-06 6.42581 -9.53813e-06 5.4884 0.0805671 4.74468C0.162795 3.98573 0.333606 3.37078 0.715076 2.84573C0.946016 2.52787 1.22555 2.24834 1.54341 2.0174C2.16613 1.56497 2.92247 1.40545 3.90698 1.34373V0.488372C3.90698 0.218652 4.12563 0 4.39535 0ZM3.90698 2.32286C3.02006 2.38386 2.50813 2.52381 2.11752 2.8076C1.88258 2.9783 1.67597 3.18491 1.50528 3.41985C1.26494 3.75064 1.12485 4.17404 1.05163 4.84989C0.977415 5.53488 0.976744 6.41944 0.976744 7.65116C0.976744 8.88288 0.977415 9.76745 1.05163 10.4524C1.12485 11.1283 1.26494 11.5517 1.50528 11.8825C1.67597 12.1174 1.88258 12.324 2.11752 12.4947C2.44832 12.7351 2.87172 12.8751 3.54756 12.9484C4.23255 13.0226 5.11712 13.0233 6.34884 13.0233C6.90125 13.0233 7.38535 13.0232 7.81514 13.0162C7.81799 12.7071 7.8276 12.4796 7.86005 12.2747C8.1138 10.6726 9.37031 9.41613 10.9724 9.16238C11.1773 9.12993 11.4048 9.12031 11.7139 9.11747C11.7209 8.68767 11.7209 8.20358 11.7209 7.65116C11.7209 6.41944 11.7203 5.53488 11.646 4.84989C11.5728 4.17404 11.4327 3.75064 11.1924 3.41985C11.0217 3.18491 10.8151 2.9783 10.5801 2.8076C10.1895 2.52381 9.67762 2.38386 8.7907 2.32286V2.44186C8.7907 2.71158 8.57205 2.93023 8.30233 2.93023C8.03261 2.93023 7.81395 2.71158 7.81395 2.44186V2.28609C7.38446 2.2791 6.90074 2.27907 6.34884 2.27907C5.79693 2.27907 5.31322 2.2791 4.88372 2.28609V2.44186C4.88372 2.71158 4.66507 2.93023 4.39535 2.93023C4.12563 2.93023 3.90698 2.71158 3.90698 2.44186V2.32286ZM11.677 10.0948C11.4133 10.0979 11.2587 10.1059 11.1252 10.1271C9.94105 10.3146 9.01232 11.2434 8.82477 12.4275C8.80362 12.5611 8.79556 12.7157 8.79251 12.9793C9.67831 12.9183 10.1898 12.7783 10.5801 12.4947C10.8151 12.324 11.0217 12.1174 11.1924 11.8825C11.476 11.4921 11.616 10.9806 11.677 10.0948Z" fill="#2D264B"/>
<path d="M3.74419 5.04651C3.74419 5.40614 3.45265 5.69767 3.09302 5.69767C2.7334 5.69767 2.44186 5.40614 2.44186 5.04651C2.44186 4.68688 2.7334 4.39535 3.09302 4.39535C3.45265 4.39535 3.74419 4.68688 3.74419 5.04651Z" fill="#2D264B"/>
<path d="M3.74419 7.65116C3.74419 8.01079 3.45265 8.30233 3.09302 8.30233C2.7334 8.30233 2.44186 8.01079 2.44186 7.65116C2.44186 7.29154 2.7334 7 3.09302 7C3.45265 7 3.74419 7.29154 3.74419 7.65116Z" fill="#2D264B"/>
<path d="M7 5.04651C7 5.40614 6.70846 5.69767 6.34884 5.69767C5.98921 5.69767 5.69767 5.40614 5.69767 5.04651C5.69767 4.68688 5.98921 4.39535 6.34884 4.39535C6.70846 4.39535 7 4.68688 7 5.04651Z" fill="#2D264B"/>
<path d="M7 7.65116C7 8.01079 6.70846 8.30233 6.34884 8.30233C5.98921 8.30233 5.69767 8.01079 5.69767 7.65116C5.69767 7.29154 5.98921 7 6.34884 7C6.70846 7 7 7.29154 7 7.65116Z" fill="#2D264B"/>
<path d="M7 10.2558C7 10.6154 6.70846 10.907 6.34884 10.907C5.98921 10.907 5.69767 10.6154 5.69767 10.2558C5.69767 9.89619 5.98921 9.60465 6.34884 9.60465C6.70846 9.60465 7 9.89619 7 10.2558Z" fill="#2D264B"/>
<path d="M10.2558 5.04651C10.2558 5.40614 9.96428 5.69767 9.60465 5.69767C9.24502 5.69767 8.95349 5.40614 8.95349 5.04651C8.95349 4.68688 9.24502 4.39535 9.60465 4.39535C9.96428 4.39535 10.2558 4.68688 10.2558 5.04651Z" fill="#2D264B"/>
<path d="M10.2558 7.65116C10.2558 8.01079 9.96428 8.30233 9.60465 8.30233C9.24502 8.30233 8.95349 8.01079 8.95349 7.65116C8.95349 7.29154 9.24502 7 9.60465 7C9.96428 7 10.2558 7.29154 10.2558 7.65116Z" fill="#2D264B"/>
<path d="M3.74419 10.2558C3.74419 10.6154 3.45265 10.907 3.09302 10.907C2.7334 10.907 2.44186 10.6154 2.44186 10.2558C2.44186 9.89619 2.7334 9.60465 3.09302 9.60465C3.45265 9.60465 3.74419 9.89619 3.74419 10.2558Z" fill="#2D264B"/>
</svg>
