<svg width="17" height="18" viewBox="0 0 17 18" fill="none" xmlns="http://www.w3.org/2000/svg">
<path d="M5.06909 2.532C5.06909 2.253 5.06909 1.997 5.06909 1.741C5.06211 1.51605 5.10046 1.29201 5.18185 1.08218C5.26324 0.872358 5.38601 0.681044 5.54284 0.519636C5.69968 0.358229 5.88738 0.230019 6.09478 0.142638C6.30218 0.0552565 6.52503 0.0104895 6.75009 0.011C7.73942 -0.00366667 8.72876 -0.00366667 9.71809 0.011C9.94157 0.0109734 10.1628 0.0554064 10.369 0.141707C10.5751 0.228007 10.762 0.354455 10.9188 0.513686C11.0757 0.672917 11.1992 0.861753 11.2824 1.0692C11.3655 1.27664 11.4065 1.49854 11.4031 1.722C11.4031 1.985 11.4031 2.24701 11.4031 2.53401H11.6461C13.0051 2.53401 14.3631 2.534 15.7221 2.546C15.8788 2.54654 16.0332 2.58351 16.1731 2.65401C16.2887 2.72045 16.3785 2.82383 16.4282 2.94754C16.4779 3.07124 16.4846 3.20806 16.4471 3.336C16.4163 3.46561 16.3439 3.58156 16.241 3.66609C16.138 3.75062 16.0102 3.79907 15.8771 3.804C15.5611 3.814 15.2444 3.814 14.9271 3.804C14.7851 3.804 14.7351 3.838 14.7271 3.988C14.5491 6.89001 14.3674 9.792 14.1821 12.694C14.1321 13.484 14.1141 14.277 14.0211 15.061C13.9561 15.682 13.6629 16.2568 13.1982 16.6738C12.7335 17.0908 12.1305 17.3204 11.5061 17.318C9.33608 17.336 7.16609 17.336 4.99609 17.318C4.33527 17.3098 3.7029 17.0478 3.22976 16.5864C2.75663 16.125 2.47892 15.4994 2.45408 14.839C2.33808 12.911 2.20108 10.984 2.07508 9.056C1.96442 7.372 1.85609 5.68767 1.75009 4.003C1.74109 3.852 1.70309 3.79601 1.54509 3.80301C1.25509 3.81601 0.965091 3.81001 0.675091 3.80301C0.587837 3.80867 0.500346 3.79623 0.418133 3.76646C0.335919 3.73669 0.260765 3.69024 0.197369 3.63002C0.133972 3.5698 0.0837105 3.49712 0.0497552 3.41655C0.0157999 3.33597 -0.00111852 3.24923 5.73474e-05 3.1618C0.00123322 3.07437 0.0204812 2.98814 0.0565912 2.90851C0.0927011 2.82887 0.144888 2.75757 0.209881 2.69908C0.274874 2.64059 0.351262 2.59617 0.434246 2.56862C0.517231 2.54107 0.60502 2.53099 0.692089 2.539C1.83309 2.533 2.97409 2.532 4.11509 2.53L5.06909 2.532ZM3.04709 3.845C3.04709 3.899 3.04709 3.95 3.04709 4.002C3.11375 5.22666 3.18408 6.451 3.25808 7.675C3.39675 10.0117 3.53608 12.3483 3.67608 14.685C3.66945 14.874 3.70316 15.0622 3.77496 15.2371C3.84676 15.412 3.955 15.5696 4.09248 15.6994C4.22996 15.8292 4.3935 15.9283 4.57225 15.9899C4.75099 16.0516 4.94081 16.0745 5.12909 16.057H7.40409C8.73609 16.057 10.0691 16.057 11.4041 16.057C11.5846 16.0668 11.7651 16.0393 11.9346 15.9763C12.104 15.9133 12.2586 15.8161 12.3889 15.6908C12.5192 15.5655 12.6223 15.4148 12.6918 15.2479C12.7613 15.0811 12.7958 14.9017 12.7931 14.721C12.8061 14.451 12.8281 14.181 12.8451 13.912C12.9458 12.3067 13.0458 10.701 13.1451 9.095C13.2324 7.70633 13.3194 6.31767 13.4061 4.929C13.4281 4.577 13.4461 4.22901 13.4681 3.84801L3.04709 3.845ZM6.33609 2.517H10.1361V1.931C10.1361 1.399 10.0531 1.317 9.5121 1.317H7.15709C7.01209 1.317 6.86609 1.311 6.72209 1.317C6.67223 1.31552 6.6226 1.3241 6.57612 1.34219C6.52965 1.36029 6.48728 1.38755 6.45155 1.42235C6.41582 1.45714 6.38745 1.49877 6.36813 1.54475C6.34881 1.59073 6.33894 1.64013 6.33909 1.69C6.33009 1.962 6.33709 2.23201 6.33709 2.51401L6.33609 2.517Z" fill="#E8425E"/>
<path d="M5.06776 9.91293C5.06776 8.79793 5.06776 7.68293 5.06776 6.56793C5.06402 6.41117 5.11879 6.25863 5.22139 6.14004C5.32398 6.02146 5.46705 5.9453 5.62272 5.92645C5.7784 5.9076 5.93552 5.94741 6.06346 6.03808C6.19139 6.12876 6.28098 6.2638 6.31477 6.41693C6.33193 6.52099 6.33796 6.62659 6.33276 6.73193C6.33276 8.49327 6.33276 10.2546 6.33276 12.0159C6.33276 12.4249 6.33276 12.8339 6.33276 13.2429C6.34094 13.3313 6.33054 13.4203 6.30224 13.5044C6.27394 13.5885 6.22837 13.6658 6.16844 13.7312C6.10851 13.7966 6.03557 13.8487 5.95428 13.8843C5.873 13.9198 5.78517 13.938 5.69645 13.9376C5.60774 13.9371 5.52009 13.9181 5.43914 13.8818C5.3582 13.8455 5.28576 13.7927 5.22645 13.7267C5.16715 13.6607 5.1223 13.5831 5.0948 13.4987C5.0673 13.4144 5.05775 13.3252 5.06677 13.2369C5.06677 12.1289 5.06709 11.0209 5.06776 9.91293Z" fill="#E8425E"/>
<path d="M7.60258 9.91303C7.60258 8.79803 7.60258 7.68303 7.60258 6.56903C7.6001 6.41285 7.65554 6.2613 7.75822 6.14359C7.86089 6.02587 8.00351 5.95034 8.15858 5.93158C8.31365 5.91282 8.47018 5.95213 8.59797 6.04196C8.72575 6.13179 8.81572 6.26576 8.85056 6.41803C8.86615 6.50881 8.87184 6.60101 8.86756 6.69302C8.86756 8.85036 8.86756 11.0074 8.86756 13.164C8.86756 13.204 8.86756 13.243 8.86756 13.283C8.86717 13.3661 8.85042 13.4484 8.81824 13.5251C8.78607 13.6017 8.73912 13.6713 8.68006 13.7298C8.621 13.7883 8.55099 13.8346 8.47404 13.866C8.39709 13.8974 8.3147 13.9134 8.23157 13.913C8.14845 13.9126 8.06622 13.8959 7.98957 13.8637C7.91292 13.8315 7.84336 13.7846 7.78486 13.7255C7.72636 13.6665 7.68004 13.5965 7.6486 13.5195C7.61715 13.4426 7.60118 13.3602 7.60157 13.277C7.60157 12.156 7.60157 11.034 7.60157 9.91303H7.60258Z" fill="#E8425E"/>
<path d="M11.4009 9.91098C11.4009 11.031 11.4009 12.1513 11.4009 13.272C11.4063 13.4115 11.3664 13.549 11.2871 13.6638C11.2077 13.7787 11.0933 13.8647 10.9609 13.909C10.8384 13.9514 10.7054 13.953 10.5819 13.9135C10.4584 13.874 10.3511 13.7956 10.2759 13.69C10.1949 13.5716 10.1482 13.4332 10.1409 13.29C10.1322 11.0493 10.1305 8.80866 10.1359 6.56799C10.1359 6.40024 10.2025 6.23937 10.3211 6.12076C10.4397 6.00214 10.6006 5.93549 10.7684 5.93549C10.9361 5.93549 11.097 6.00214 11.2156 6.12076C11.3342 6.23937 11.4009 6.40024 11.4009 6.56799C11.4039 7.68399 11.4009 8.79798 11.4009 9.91098Z" fill="#E8425E"/>
</svg>
