<svg width="18" height="21" viewBox="0 0 18 21" fill="none" xmlns="http://www.w3.org/2000/svg">
<path d="M5.28964 6.3171C4.90859 6.3171 4.59968 6.62601 4.59968 7.00706C4.59968 7.38811 4.90859 7.69701 5.28964 7.69701H12.6491C13.0302 7.69701 13.3391 7.38811 13.3391 7.00706C13.3391 6.62601 13.0302 6.3171 12.6491 6.3171H5.28964Z" fill="#5475A2"/>
<path d="M5.28964 9.99685C4.90859 9.99685 4.59968 10.3058 4.59968 10.6868C4.59968 11.0679 4.90859 11.3768 5.28964 11.3768H12.6491C13.0302 11.3768 13.3391 11.0679 13.3391 10.6868C13.3391 10.3058 13.0302 9.99685 12.6491 9.99685H5.28964Z" fill="#5475A2"/>
<path d="M9.88932 13.6766C9.50827 13.6766 9.19937 13.9855 9.19937 14.3665C9.19937 14.7476 9.50827 15.0565 9.88932 15.0565H12.6491C13.0302 15.0565 13.3391 14.7476 13.3391 14.3665C13.3391 13.9855 13.0302 13.6766 12.6491 13.6766H9.88932Z" fill="#5475A2"/>
<path fill-rule="evenodd" clip-rule="evenodd" d="M13.0755 0.911307C12.0249 0.797472 10.7005 0.797478 9.01101 0.797485H8.92776C7.23826 0.797478 5.91392 0.797472 4.86322 0.911307C3.791 1.02748 2.92223 1.26879 2.18047 1.80772C1.7314 2.13398 1.33649 2.52889 1.01023 2.97795C0.471306 3.71972 0.22999 4.58849 0.113822 5.66071C-1.33651e-05 6.7114 -7.39031e-06 8.03574 1.21741e-07 9.72524V11.6484C-7.39031e-06 13.3379 -1.33651e-05 14.6622 0.113822 15.7129C0.22999 16.7851 0.471306 17.6539 1.01023 18.3957C1.33649 18.8447 1.7314 19.2396 2.18047 19.5659C2.92223 20.1048 3.791 20.3461 4.86322 20.4623C5.9139 20.5761 7.23821 20.5761 8.92767 20.5761H9.01103C10.7005 20.5761 12.0249 20.5761 13.0755 20.4623C14.1478 20.3461 15.0165 20.1048 15.7583 19.5659C16.2074 19.2396 16.6023 18.8447 16.9285 18.3957C17.4675 17.6539 17.7088 16.7851 17.8249 15.7129C17.9388 14.6622 17.9388 13.3379 17.9388 11.6485V9.72522C17.9388 8.03577 17.9388 6.71138 17.8249 5.66071C17.7088 4.58849 17.4675 3.71972 16.9285 2.97795C16.6023 2.52889 16.2074 2.13398 15.7583 1.80772C15.0165 1.26879 14.1478 1.02748 13.0755 0.911307ZM2.99155 2.92408C3.45889 2.58455 4.05704 2.38663 5.01186 2.28318C5.97958 2.17834 7.22926 2.17739 8.96938 2.17739C10.7095 2.17739 11.9592 2.17834 12.9269 2.28318C13.8817 2.38663 14.4799 2.58455 14.9472 2.92408C15.2791 3.16523 15.571 3.45712 15.8122 3.78904C16.1517 4.25637 16.3496 4.85453 16.4531 5.80934C16.5579 6.77707 16.5589 8.02674 16.5589 9.76687V11.6067C16.5589 13.3469 16.5579 14.5965 16.4531 15.5643C16.3496 16.5191 16.1517 17.1172 15.8122 17.5846C15.571 17.9165 15.2791 18.2084 14.9472 18.4495C14.4799 18.7891 13.8817 18.987 12.9269 19.0904C11.9592 19.1953 10.7095 19.1962 8.96938 19.1962C7.22926 19.1962 5.97958 19.1953 5.01186 19.0904C4.05704 18.987 3.45889 18.7891 2.99155 18.4495C2.65964 18.2084 2.36775 17.9165 2.1266 17.5846C1.78706 17.1172 1.58915 16.5191 1.4857 15.5643C1.38085 14.5965 1.37991 13.3469 1.37991 11.6067V9.76687C1.37991 8.02674 1.38085 6.77707 1.4857 5.80934C1.58915 4.85453 1.78706 4.25637 2.1266 3.78904C2.36775 3.45712 2.65964 3.16523 2.99155 2.92408Z" fill="#5475A2"/>
</svg>
