<svg width="96" height="14" viewBox="0 0 96 14" fill="none" xmlns="http://www.w3.org/2000/svg">
<path d="M95.0673 5.35811C94.8792 5.21031 94.6082 5.13641 94.2544 5.13641C93.7931 5.13641 93.4079 5.34468 93.0989 5.76121C92.7898 6.17774 92.6353 6.74432 92.6353 7.46094V10.7529H91.0767V3.87337H92.6353V5.29093H92.6622C92.8145 4.80721 93.0474 4.43099 93.3609 4.16226C93.6789 3.88905 94.0327 3.75244 94.4224 3.75244C94.7045 3.75244 94.9195 3.79499 95.0673 3.88009V5.35811Z" fill="#202244"/>
<path d="M89.5918 7.73666H84.9024C84.9203 8.37265 85.1152 8.86309 85.4869 9.20796C85.8631 9.55283 86.3782 9.72527 87.0321 9.72527C87.7666 9.72527 88.4407 9.50581 89.0543 9.06688V10.3232C88.4273 10.7173 87.5987 10.9144 86.5685 10.9144C85.5563 10.9144 84.7613 10.6031 84.1835 9.98056C83.6103 9.35352 83.3236 8.47343 83.3236 7.34028C83.3236 6.26983 83.6394 5.39869 84.2709 4.72686C84.9069 4.05056 85.6952 3.7124 86.6357 3.7124C87.5763 3.7124 88.3041 4.01473 88.8192 4.61937C89.3342 5.22402 89.5918 6.0638 89.5918 7.13873V7.73666ZM88.0869 6.63486C88.0824 6.075 87.9503 5.64055 87.6905 5.33151C87.4307 5.01799 87.0724 4.86123 86.6156 4.86123C86.1677 4.86123 85.787 5.02471 85.4735 5.35166C85.1644 5.67862 84.9741 6.10635 84.9024 6.63486H88.0869Z" fill="#202244"/>
<path d="M81.8729 10.753H80.3142V6.9908C80.3142 5.62922 79.8596 4.94844 78.9504 4.94844C78.4936 4.94844 78.1084 5.14551 77.7949 5.53965C77.4813 5.93379 77.3246 6.43766 77.3246 7.05126V10.753H75.7592V0.568115H77.3246V5.01562H77.3515C77.871 4.14672 78.6145 3.71227 79.5819 3.71227C81.1092 3.71227 81.8729 4.64611 81.8729 6.5138V10.753Z" fill="#202244"/>
<path d="M74.2066 10.4374C73.6557 10.7554 73.0041 10.9144 72.2516 10.9144C71.2304 10.9144 70.4063 10.5964 69.7793 9.96041C69.1522 9.31993 68.8387 8.49134 68.8387 7.47464C68.8387 6.34149 69.1746 5.43228 69.8465 4.74702C70.5228 4.05727 71.4253 3.7124 72.5539 3.7124C73.181 3.7124 73.7341 3.82213 74.2133 4.0416V5.49275C73.7341 5.13444 73.2235 4.95529 72.6816 4.95529C72.0232 4.95529 71.4835 5.17923 71.0625 5.62711C70.6415 6.07052 70.4309 6.65277 70.4309 7.37387C70.4309 8.08601 70.628 8.6481 71.0222 9.06016C71.4208 9.47221 71.9538 9.67824 72.6211 9.67824C73.181 9.67824 73.7095 9.47893 74.2066 9.08031V10.4374Z" fill="#202244"/>
<path d="M67.3751 10.7532H65.8634V9.67824H65.8366C65.3618 10.5024 64.6653 10.9144 63.7472 10.9144C63.0709 10.9144 62.5401 10.7308 62.1549 10.3635C61.7742 9.99624 61.5839 9.51028 61.5839 8.90564C61.5839 7.60677 62.3319 6.84984 63.8278 6.63486L65.8702 6.34597C65.8702 5.3651 65.4044 4.87467 64.4728 4.87467C63.6531 4.87467 62.9141 5.15683 62.2557 5.72117V4.35736C62.9813 3.92739 63.8188 3.7124 64.7684 3.7124C66.5062 3.7124 67.3751 4.56786 67.3751 6.27879V10.7532ZM65.8702 7.37387L64.4257 7.57542C63.9778 7.63364 63.6397 7.74337 63.4113 7.90461C63.1873 8.06137 63.0754 8.33906 63.0754 8.73768C63.0754 9.02881 63.1784 9.26843 63.3844 9.45654C63.5949 9.64017 63.8748 9.73199 64.2242 9.73199C64.6989 9.73199 65.0908 9.56627 65.3999 9.23483C65.7134 8.89892 65.8702 8.47791 65.8702 7.9718V7.37387Z" fill="#202244"/>
<path d="M60.6095 7.73666H55.9201C55.938 8.37265 56.1329 8.86309 56.5046 9.20796C56.8808 9.55283 57.3959 9.72527 58.0498 9.72527C58.7843 9.72527 59.4584 9.50581 60.072 9.06688V10.3232C59.445 10.7173 58.6164 10.9144 57.5862 10.9144C56.574 10.9144 55.779 10.6031 55.2012 9.98056C54.628 9.35352 54.3413 8.47343 54.3413 7.34028C54.3413 6.26983 54.6571 5.39869 55.2886 4.72686C55.9246 4.05056 56.7129 3.7124 57.6534 3.7124C58.594 3.7124 59.3218 4.01473 59.8369 4.61937C60.3519 5.22402 60.6095 6.0638 60.6095 7.13873V7.73666ZM59.1046 6.63486C59.1001 6.075 58.968 5.64055 58.7082 5.33151C58.4484 5.01799 58.0901 4.86123 57.6333 4.86123C57.1854 4.86123 56.8047 5.02471 56.4912 5.35166C56.1821 5.67862 55.9918 6.10635 55.9201 6.63486H59.1046Z" fill="#202244"/>
<path d="M54.892 2.47623H52.1241V10.7532H50.5251V2.47623H47.7639V1.11914H54.892V2.47623Z" fill="#202244"/>
<path d="M42.8533 10.753H41.2947V6.9908C41.2947 5.62922 40.84 4.94844 39.9308 4.94844C39.474 4.94844 39.0888 5.14551 38.7753 5.53965C38.4618 5.93379 38.305 6.43766 38.305 7.05126V10.753H36.7397V0.568115H38.305V5.01562H38.3319C38.8514 4.14672 39.5949 3.71227 40.5624 3.71227C42.0897 3.71227 42.8533 4.64611 42.8533 6.5138V10.753Z" fill="#202244"/>
<path d="M30.3704 10.5382V9.09375C30.9527 9.53716 31.5954 9.75886 32.2986 9.75886C33.2391 9.75886 33.7094 9.48117 33.7094 8.92579C33.7094 8.76903 33.6691 8.63691 33.5885 8.52941C33.5079 8.41744 33.3981 8.31891 33.2593 8.23381C33.1249 8.14871 32.9637 8.07257 32.7756 8.00539C32.5919 7.9382 32.3859 7.86206 32.1575 7.77697C31.8753 7.66499 31.62 7.5463 31.3916 7.4209C31.1677 7.29549 30.9795 7.1544 30.8273 6.99764C30.6795 6.83641 30.5675 6.65501 30.4914 6.45346C30.4152 6.25191 30.3771 6.01677 30.3771 5.74804C30.3771 5.41661 30.4555 5.12548 30.6123 4.87467C30.769 4.61937 30.9795 4.40663 31.2438 4.23643C31.5081 4.06175 31.8081 3.93187 32.1441 3.84677C32.48 3.75719 32.8271 3.7124 33.1854 3.7124C33.8214 3.7124 34.3902 3.8087 34.8918 4.00129V5.3651C34.4081 5.03367 33.8527 4.86795 33.2257 4.86795C33.0286 4.86795 32.8495 4.8881 32.6882 4.92841C32.5315 4.96872 32.3971 5.02471 32.2851 5.09637C32.1732 5.16803 32.0858 5.25537 32.0231 5.35838C31.9604 5.45692 31.9291 5.56665 31.9291 5.68758C31.9291 5.83538 31.9604 5.96079 32.0231 6.0638C32.0858 6.16682 32.1776 6.25863 32.2986 6.33925C32.424 6.41539 32.5718 6.48705 32.742 6.55424C32.9167 6.61694 33.116 6.68636 33.3399 6.7625C33.6355 6.88343 33.8998 7.0066 34.1327 7.13201C34.37 7.25742 34.5716 7.40074 34.7373 7.56198C34.903 7.71874 35.0307 7.90237 35.1203 8.11288C35.2098 8.31891 35.2546 8.56524 35.2546 8.85189C35.2546 9.20124 35.174 9.50581 35.0128 9.76558C34.8515 10.0254 34.6365 10.2403 34.3678 10.4105C34.0991 10.5807 33.7878 10.7061 33.434 10.7868C33.0846 10.8719 32.7151 10.9144 32.3254 10.9144C31.573 10.9144 30.9213 10.789 30.3704 10.5382Z" fill="#202244"/>
<path d="M27.9856 2.42915C27.7303 2.42915 27.5108 2.34629 27.3272 2.18057C27.148 2.01485 27.0584 1.80434 27.0584 1.54905C27.0584 1.29375 27.148 1.08101 27.3272 0.910812C27.5108 0.740616 27.7303 0.655518 27.9856 0.655518C28.2498 0.655518 28.4738 0.740616 28.6574 0.910812C28.841 1.08101 28.9328 1.29375 28.9328 1.54905C28.9328 1.79091 28.841 1.99917 28.6574 2.17385C28.4738 2.34405 28.2498 2.42915 27.9856 2.42915ZM28.7582 10.7531H27.1995V3.87358H28.7582V10.7531Z" fill="#202244"/>
<path d="M25.1637 10.753H23.5983V0.568115H25.1637V10.753Z" fill="#202244"/>
<path d="M21.5697 10.2023C21.5697 12.7283 20.2999 13.9914 17.7604 13.9914C16.8646 13.9914 16.0831 13.8413 15.4157 13.5413V12.117C16.1682 12.5469 16.8825 12.7619 17.5588 12.7619C19.1936 12.7619 20.011 11.958 20.011 10.3501V9.59762H19.9841C19.4691 10.4755 18.6942 10.9144 17.6596 10.9144C16.8221 10.9144 16.1458 10.6098 15.6307 10.0007C15.1201 9.38711 14.8648 8.56524 14.8648 7.53511C14.8648 6.36613 15.1403 5.43676 15.6912 4.74702C16.2421 4.05727 16.999 3.7124 17.9619 3.7124C18.8711 3.7124 19.5452 4.08415 19.9841 4.82764H20.011V3.87364H21.5697V10.2023ZM20.0245 7.60229V6.70876C20.0245 6.22504 19.8632 5.81299 19.5407 5.47259C19.2227 5.12772 18.8241 4.95529 18.3449 4.95529C17.7537 4.95529 17.2901 5.17475 16.9542 5.61368C16.6228 6.04813 16.457 6.65725 16.457 7.44105C16.457 8.11736 16.616 8.6593 16.934 9.06688C17.2565 9.46997 17.682 9.67152 18.2105 9.67152C18.748 9.67152 19.1847 9.47893 19.5206 9.09375C19.8565 8.70409 20.0245 8.20694 20.0245 7.60229Z" fill="#202244"/>
<path d="M13.3995 10.7532H11.8408V6.87672C11.8408 5.59128 11.3862 4.94857 10.477 4.94857C10.0023 4.94857 9.61036 5.12772 9.30132 5.48603C8.99228 5.83986 8.83776 6.28775 8.83776 6.82969V10.7532H7.2724V3.87364H8.83776V5.01575H8.86463C9.3797 4.14685 10.1232 3.7124 11.0951 3.7124C11.8431 3.7124 12.4141 3.9565 12.8083 4.4447C13.2024 4.92841 13.3995 5.62935 13.3995 6.54752V10.7532Z" fill="#202244"/>
<path d="M5.73433 10.7532H0.326111V1.11914H5.51935V2.47623H1.92506V5.20386H5.23718V6.55423H1.92506V9.40279H5.73433V10.7532Z" fill="#202244"/>
</svg>
