<svg width="75" height="16" viewBox="0 0 75 16" fill="none" xmlns="http://www.w3.org/2000/svg">
<path d="M74.3387 8.64569H69.0632C69.0834 9.36119 69.3025 9.91293 69.7207 10.3009C70.144 10.6889 70.7235 10.8829 71.4591 10.8829C72.2855 10.8829 73.0438 10.636 73.7341 10.1422V11.5556C73.0287 11.999 72.0965 12.2207 70.9376 12.2207C69.7988 12.2207 68.9045 11.8705 68.2545 11.1701C67.6095 10.4647 67.287 9.47456 67.287 8.19977C67.287 6.99551 67.6423 6.01548 68.3527 5.25968C69.0682 4.49883 69.955 4.11841 71.0132 4.11841C72.0713 4.11841 72.8901 4.45852 73.4696 5.13875C74.049 5.81897 74.3387 6.76373 74.3387 7.97302V8.64569ZM72.6457 7.40617C72.6407 6.77633 72.492 6.28757 72.1998 5.9399C71.9075 5.58719 71.5045 5.41084 70.9905 5.41084C70.4866 5.41084 70.0583 5.59475 69.7056 5.96258C69.358 6.3304 69.1438 6.8116 69.0632 7.40617H72.6457Z" fill="#202244"/>
<path d="M66.0403 11.684C65.4206 12.0418 64.6874 12.2207 63.8409 12.2207C62.6921 12.2207 61.765 11.8629 61.0596 11.1474C60.3541 10.4269 60.0014 9.49472 60.0014 8.35093C60.0014 7.07613 60.3793 6.05327 61.1351 5.28235C61.896 4.50639 62.9113 4.11841 64.181 4.11841C64.8865 4.11841 65.5088 4.24186 66.0479 4.48875V6.1213C65.5088 5.7182 64.9343 5.51665 64.3247 5.51665C63.584 5.51665 62.9768 5.76859 62.5032 6.27246C62.0295 6.77129 61.7927 7.42632 61.7927 8.23756C61.7927 9.03871 62.0144 9.67107 62.4578 10.1346C62.9063 10.5982 63.5059 10.83 64.2566 10.83C64.8865 10.83 65.481 10.6058 66.0403 10.1573V11.684Z" fill="#202244"/>
<path d="M58.3536 12.0393H56.6001V7.67826C56.6001 6.23215 56.0887 5.50909 55.0658 5.50909C54.5317 5.50909 54.0908 5.71064 53.7431 6.11374C53.3955 6.5118 53.2216 7.01567 53.2216 7.62535V12.0393H51.4606V4.2998H53.2216V5.58467H53.2519C53.8313 4.60716 54.6677 4.11841 55.7611 4.11841C56.6026 4.11841 57.245 4.39302 57.6885 4.94224C58.1319 5.48642 58.3536 6.27498 58.3536 7.30791V12.0393Z" fill="#202244"/>
<path d="M49.7903 8.64569H44.5147C44.5349 9.36119 44.7541 9.91293 45.1723 10.3009C45.5955 10.6889 46.175 10.8829 46.9106 10.8829C47.737 10.8829 48.4953 10.636 49.1856 10.1422V11.5556C48.4802 11.999 47.548 12.2207 46.3891 12.2207C45.2504 12.2207 44.356 11.8705 43.706 11.1701C43.0611 10.4647 42.7386 9.47456 42.7386 8.19977C42.7386 6.99551 43.0938 6.01548 43.8043 5.25968C44.5198 4.49883 45.4066 4.11841 46.4647 4.11841C47.5228 4.11841 48.3416 4.45852 48.9211 5.13875C49.5005 5.81897 49.7903 6.76373 49.7903 7.97302V8.64569ZM48.0973 7.40617C48.0922 6.77633 47.9436 6.28757 47.6513 5.9399C47.3591 5.58719 46.956 5.41084 46.442 5.41084C45.9382 5.41084 45.5099 5.59475 45.1572 5.96258C44.8095 6.3304 44.5954 6.8116 44.5147 7.40617H48.0973Z" fill="#202244"/>
<path d="M40.0705 2.67477C39.7833 2.67477 39.5364 2.58156 39.3298 2.39513C39.1282 2.20869 39.0275 1.97187 39.0275 1.68467C39.0275 1.39746 39.1282 1.15812 39.3298 0.96665C39.5364 0.775179 39.7833 0.679443 40.0705 0.679443C40.3678 0.679443 40.6197 0.775179 40.8263 0.96665C41.0329 1.15812 41.1362 1.39746 41.1362 1.68467C41.1362 1.95676 41.0329 2.19106 40.8263 2.38757C40.6197 2.57904 40.3678 2.67477 40.0705 2.67477ZM40.9397 12.0392H39.1862V4.29976H40.9397V12.0392Z" fill="#202244"/>
<path d="M37.9465 5.9702C37.7349 5.80392 37.4301 5.72078 37.032 5.72078C36.513 5.72078 36.0797 5.95508 35.732 6.42368C35.3843 6.89228 35.2105 7.52968 35.2105 8.33587V12.0393H33.457V4.29986H35.2105V5.89462H35.2407C35.4121 5.35044 35.6741 4.92718 36.0268 4.62486C36.3845 4.3175 36.7826 4.16382 37.221 4.16382C37.5384 4.16382 37.7802 4.21169 37.9465 4.30742V5.9702Z" fill="#202244"/>
<path d="M31.7869 8.64569H26.5114C26.5316 9.36119 26.7507 9.91293 27.169 10.3009C27.5922 10.6889 28.1717 10.8829 28.9073 10.8829C29.7337 10.8829 30.492 10.636 31.1823 10.1422V11.5556C30.4769 11.999 29.5447 12.2207 28.3858 12.2207C27.2471 12.2207 26.3527 11.8705 25.7027 11.1701C25.0577 10.4647 24.7353 9.47456 24.7353 8.19977C24.7353 6.99551 25.0905 6.01548 25.8009 5.25968C26.5164 4.49883 27.4033 4.11841 28.4614 4.11841C29.5195 4.11841 30.3383 4.45852 30.9178 5.13875C31.4972 5.81897 31.7869 6.76373 31.7869 7.97302V8.64569ZM30.0939 7.40617C30.0889 6.77633 29.9403 6.28757 29.648 5.9399C29.3558 5.58719 28.9527 5.41084 28.4387 5.41084C27.9348 5.41084 27.5066 5.59475 27.1538 5.96258C26.8062 6.3304 26.592 6.8116 26.5114 7.40617H30.0939Z" fill="#202244"/>
<path d="M17.6911 10.898H17.6609V15.5991H15.9074V4.2998H17.6609V5.66026H17.6911C18.2907 4.63236 19.1675 4.11841 20.3213 4.11841C21.3039 4.11841 22.0698 4.46356 22.619 5.15386C23.1682 5.84417 23.4428 6.77129 23.4428 7.93523C23.4428 9.22515 23.1329 10.2581 22.5132 11.034C21.8934 11.81 21.0469 12.198 19.9737 12.198C18.9861 12.198 18.2252 11.7647 17.6911 10.898ZM17.6458 7.84454V8.80441C17.6458 9.36875 17.8246 9.84743 18.1824 10.2404C18.5452 10.6335 19.0037 10.83 19.558 10.83C20.208 10.83 20.7169 10.578 21.0847 10.0742C21.4576 9.56526 21.644 8.85732 21.644 7.95035C21.644 7.18951 21.4702 6.59494 21.1225 6.16665C20.7798 5.73332 20.3138 5.51665 19.7242 5.51665C19.0994 5.51665 18.5956 5.73836 18.2126 6.18176C17.8347 6.62517 17.6458 7.17943 17.6458 7.84454Z" fill="#202244"/>
<path d="M14.6224 4.2998L12.0451 8.21489L14.5921 12.0393H12.559L11.1985 9.64336C11.1129 9.49724 11.0121 9.31081 10.8962 9.08406H10.866C10.8458 9.12941 10.74 9.31585 10.5486 9.64336L9.16543 12.0393H7.13986L9.77007 8.24512L7.27591 4.2998H9.31659L10.6544 6.81664C10.7551 7.00308 10.8534 7.19455 10.9491 7.39106H10.9718L12.7026 4.2998H14.6224Z" fill="#202244"/>
<path d="M6.42196 12.0392H0.337708V1.20093H6.1801V2.72766H2.13653V5.79624H5.86266V7.31541H2.13653V10.52H6.42196V12.0392Z" fill="#202244"/>
</svg>
