<svg width="100" height="15" viewBox="0 0 100 15" fill="none" xmlns="http://www.w3.org/2000/svg">
<path d="M99.0967 11.1086H97.8955V6.8313C97.8955 5.2395 97.3145 4.4436 96.1523 4.4436C95.5518 4.4436 95.0537 4.67065 94.6582 5.12476C94.2676 5.57397 94.0723 6.14282 94.0723 6.8313V11.1086H92.8711V3.60864H94.0723V4.85376H94.1016C94.668 3.90649 95.4883 3.43286 96.5625 3.43286C97.3828 3.43286 98.0103 3.69897 98.4448 4.2312C98.8794 4.75854 99.0967 5.52271 99.0967 6.52368V11.1086Z" fill="#5475A2"/>
<path d="M90.4395 10.5081C90.4395 13.262 89.1211 14.6389 86.4844 14.6389C85.5566 14.6389 84.7461 14.4631 84.0527 14.1116V12.9104C84.8975 13.3792 85.7031 13.6135 86.4697 13.6135C88.3154 13.6135 89.2383 12.6321 89.2383 10.6692V9.84888H89.209C88.6377 10.8059 87.7783 11.2844 86.6309 11.2844C85.6982 11.2844 84.9463 10.9524 84.375 10.2883C83.8086 9.61938 83.5254 8.72339 83.5254 7.60034C83.5254 6.32593 83.8306 5.31274 84.4409 4.56079C85.0562 3.80884 85.896 3.43286 86.9604 3.43286C87.9712 3.43286 88.7207 3.83813 89.209 4.64868H89.2383V3.60864H90.4395V10.5081ZM89.2383 7.71753V6.61157C89.2383 6.01587 89.0356 5.50562 88.6304 5.08081C88.23 4.65601 87.7295 4.4436 87.1289 4.4436C86.3867 4.4436 85.8057 4.7146 85.3857 5.25659C84.9658 5.7937 84.7559 6.5481 84.7559 7.51978C84.7559 8.35474 84.9561 9.02368 85.3564 9.52661C85.7617 10.0247 86.2964 10.2737 86.9604 10.2737C87.6343 10.2737 88.1812 10.0344 88.6011 9.55591C89.0259 9.07739 89.2383 8.4646 89.2383 7.71753Z" fill="#5475A2"/>
<path d="M81.0205 1.70435C80.8057 1.70435 80.6226 1.6311 80.4712 1.48462C80.3198 1.33813 80.2441 1.15259 80.2441 0.927979C80.2441 0.703369 80.3198 0.517822 80.4712 0.371338C80.6226 0.219971 80.8057 0.144287 81.0205 0.144287C81.2402 0.144287 81.4258 0.219971 81.5771 0.371338C81.7334 0.517822 81.8115 0.703369 81.8115 0.927979C81.8115 1.14282 81.7334 1.32593 81.5771 1.47729C81.4258 1.62866 81.2402 1.70435 81.0205 1.70435ZM81.6064 11.1086H80.4053V3.60864H81.6064V11.1086Z" fill="#5475A2"/>
<path d="M73.5791 10.8376V9.54858C74.2334 10.032 74.9536 10.2737 75.7397 10.2737C76.7944 10.2737 77.3218 9.92212 77.3218 9.21899C77.3218 9.0188 77.2754 8.85034 77.1826 8.71362C77.0947 8.57202 76.9727 8.44751 76.8164 8.34009C76.665 8.23267 76.4844 8.13745 76.2744 8.05444C76.0693 7.96655 75.8472 7.87622 75.6079 7.78345C75.2759 7.65161 74.9829 7.51978 74.729 7.38794C74.48 7.25122 74.27 7.09985 74.0991 6.93384C73.9331 6.76294 73.8062 6.57007 73.7183 6.35522C73.6353 6.14038 73.5938 5.88892 73.5938 5.60083C73.5938 5.24927 73.6743 4.93921 73.8354 4.67065C73.9966 4.39722 74.2114 4.17017 74.48 3.9895C74.7485 3.80396 75.0537 3.66479 75.3955 3.57202C75.7422 3.47925 76.0986 3.43286 76.4648 3.43286C77.1143 3.43286 77.6953 3.54517 78.208 3.76978V4.9856C77.6562 4.62427 77.0215 4.4436 76.3037 4.4436C76.0791 4.4436 75.8765 4.47046 75.6958 4.52417C75.5151 4.573 75.3589 4.6438 75.2271 4.73657C75.1001 4.82935 75 4.94165 74.9268 5.07349C74.8584 5.20044 74.8242 5.34204 74.8242 5.49829C74.8242 5.6936 74.8584 5.85718 74.9268 5.98901C75 6.12085 75.105 6.23804 75.2417 6.34058C75.3784 6.44312 75.5444 6.53589 75.7397 6.6189C75.9351 6.7019 76.1572 6.79224 76.4062 6.88989C76.7383 7.01685 77.0361 7.14868 77.2998 7.2854C77.5635 7.41724 77.7881 7.5686 77.9736 7.7395C78.1592 7.90552 78.3008 8.09839 78.3984 8.31812C78.501 8.53784 78.5522 8.79907 78.5522 9.10181C78.5522 9.4729 78.4692 9.79517 78.3032 10.0686C78.1421 10.342 77.9248 10.5691 77.6514 10.7498C77.3779 10.9304 77.063 11.0647 76.7065 11.1526C76.3501 11.2405 75.9766 11.2844 75.5859 11.2844C74.8145 11.2844 74.1455 11.1355 73.5791 10.8376Z" fill="#5475A2"/>
<path d="M72.2095 7.65894H66.9141C66.9336 8.4939 67.1582 9.13843 67.5879 9.59253C68.0176 10.0466 68.6084 10.2737 69.3604 10.2737C70.2051 10.2737 70.9814 9.99536 71.6895 9.43872V10.5667C71.0303 11.0452 70.1587 11.2844 69.0747 11.2844C68.0151 11.2844 67.1826 10.9451 66.5771 10.2664C65.9717 9.58276 65.6689 8.62329 65.6689 7.38794C65.6689 6.22095 65.9985 5.27124 66.6577 4.53882C67.3218 3.80151 68.1445 3.43286 69.126 3.43286C70.1074 3.43286 70.8667 3.75024 71.4038 4.38501C71.9409 5.01978 72.2095 5.90112 72.2095 7.02905V7.65894ZM70.979 6.64087C70.9741 5.94751 70.8057 5.40796 70.4736 5.02222C70.1465 4.63647 69.6899 4.4436 69.104 4.4436C68.5376 4.4436 68.0566 4.64624 67.6611 5.05151C67.2656 5.45679 67.0215 5.98657 66.9287 6.64087H70.979Z" fill="#5475A2"/>
<path d="M55.8252 11.1086V0.605713H58.7256C62.4268 0.605713 64.2773 2.31226 64.2773 5.72534C64.2773 7.34644 63.7622 8.65015 62.7319 9.63647C61.7065 10.6179 60.332 11.1086 58.6084 11.1086H55.8252ZM57.0557 1.71899V9.99536H58.623C60 9.99536 61.0718 9.62671 61.8384 8.8894C62.605 8.1521 62.9883 7.10718 62.9883 5.75464C62.9883 3.06421 61.5576 1.71899 58.6963 1.71899H57.0557Z" fill="#5475A2"/>
<path d="M49.7314 10.7644C49.1553 11.1111 48.4717 11.2844 47.6807 11.2844C46.6113 11.2844 45.7471 10.9377 45.0879 10.2444C44.4336 9.54614 44.1064 8.64282 44.1064 7.53442C44.1064 6.29907 44.4604 5.30786 45.1685 4.56079C45.8765 3.80884 46.8213 3.43286 48.0029 3.43286C48.6621 3.43286 49.2432 3.55493 49.7461 3.79907V5.02954C49.1895 4.63892 48.5938 4.4436 47.959 4.4436C47.1924 4.4436 46.5625 4.71948 46.0693 5.27124C45.5811 5.81812 45.3369 6.53833 45.3369 7.43188C45.3369 8.31079 45.5664 9.00415 46.0254 9.51196C46.4893 10.0198 47.1094 10.2737 47.8857 10.2737C48.54 10.2737 49.1553 10.0564 49.7314 9.62183V10.7644Z" fill="#5475A2"/>
<path d="M41.6016 1.70435C41.3867 1.70435 41.2036 1.6311 41.0522 1.48462C40.9009 1.33813 40.8252 1.15259 40.8252 0.927979C40.8252 0.703369 40.9009 0.517822 41.0522 0.371338C41.2036 0.219971 41.3867 0.144287 41.6016 0.144287C41.8213 0.144287 42.0068 0.219971 42.1582 0.371338C42.3145 0.517822 42.3926 0.703369 42.3926 0.927979C42.3926 1.14282 42.3145 1.32593 42.1582 1.47729C42.0068 1.62866 41.8213 1.70435 41.6016 1.70435ZM42.1875 11.1086H40.9863V3.60864H42.1875V11.1086Z" fill="#5475A2"/>
<path d="M38.7158 11.1086H37.5146V6.78735C37.5146 5.22485 36.9336 4.4436 35.7715 4.4436C35.1855 4.4436 34.6924 4.67065 34.292 5.12476C33.8916 5.57397 33.6914 6.15259 33.6914 6.8606V11.1086H32.4902V0.00512695H33.6914V4.85376H33.7207C34.2969 3.90649 35.1172 3.43286 36.1816 3.43286C37.8711 3.43286 38.7158 4.45093 38.7158 6.48706V11.1086Z" fill="#5475A2"/>
<path d="M24.9023 10.0247H24.873V14.5583H23.6719V3.60864H24.873V4.927H24.9023C25.4932 3.93091 26.3574 3.43286 27.4951 3.43286C28.4619 3.43286 29.2163 3.76978 29.7583 4.4436C30.3003 5.11255 30.5713 6.01099 30.5713 7.13892C30.5713 8.3938 30.2661 9.39966 29.6558 10.1565C29.0454 10.9084 28.2104 11.2844 27.1509 11.2844C26.1792 11.2844 25.4297 10.8645 24.9023 10.0247ZM24.873 6.99976V8.04712C24.873 8.66724 25.0732 9.19458 25.4736 9.62915C25.8789 10.0588 26.3916 10.2737 27.0117 10.2737C27.7393 10.2737 28.3081 9.99536 28.7183 9.43872C29.1333 8.88208 29.3408 8.10815 29.3408 7.11694C29.3408 6.28198 29.1479 5.62769 28.7622 5.15405C28.3765 4.68042 27.854 4.4436 27.1948 4.4436C26.4966 4.4436 25.9351 4.68774 25.5103 5.17603C25.0854 5.65942 24.873 6.26733 24.873 6.99976Z" fill="#5475A2"/>
<path d="M21.4087 11.1086H20.2075V9.93677H20.1782C19.6558 10.8352 18.8867 11.2844 17.8711 11.2844C17.124 11.2844 16.5381 11.0867 16.1133 10.6912C15.6934 10.2957 15.4834 9.77075 15.4834 9.11646C15.4834 7.71509 16.3086 6.89966 17.959 6.67017L20.2075 6.35522C20.2075 5.08081 19.6924 4.4436 18.6621 4.4436C17.7588 4.4436 16.9434 4.75122 16.2158 5.36646V4.13599C16.9531 3.66724 17.8027 3.43286 18.7646 3.43286C20.5273 3.43286 21.4087 4.36548 21.4087 6.23071V11.1086ZM20.2075 7.3147L18.3984 7.56372C17.8418 7.64185 17.4219 7.78101 17.1387 7.9812C16.8555 8.17651 16.7139 8.52563 16.7139 9.02856C16.7139 9.39478 16.8433 9.69507 17.1021 9.92944C17.3657 10.1589 17.7148 10.2737 18.1494 10.2737C18.7451 10.2737 19.2358 10.0662 19.6216 9.65112C20.0122 9.2312 20.2075 8.70142 20.2075 8.06177V7.3147Z" fill="#5475A2"/>
<path d="M14.7363 4.82446C14.5264 4.66333 14.2236 4.58276 13.8281 4.58276C13.3154 4.58276 12.8857 4.82446 12.5391 5.30786C12.1973 5.79126 12.0264 6.45044 12.0264 7.2854V11.1086H10.8252V3.60864H12.0264V5.15405H12.0557C12.2266 4.62671 12.4878 4.21655 12.8394 3.92358C13.1909 3.62573 13.584 3.47681 14.0186 3.47681C14.3311 3.47681 14.5703 3.51099 14.7363 3.57935V4.82446Z" fill="#5475A2"/>
<path d="M8.54004 10.3909C7.48535 10.9866 6.31348 11.2844 5.02441 11.2844C3.52539 11.2844 2.31201 10.801 1.38428 9.83423C0.461426 8.86743 0 7.58813 0 5.99634C0 4.37036 0.512695 3.03735 1.53809 1.99731C2.56836 0.952393 3.87207 0.429932 5.44922 0.429932C6.5918 0.429932 7.55127 0.615479 8.32764 0.986572V2.34888C7.47803 1.81177 6.47217 1.54321 5.31006 1.54321C4.1333 1.54321 3.16895 1.94849 2.41699 2.75903C1.66504 3.56958 1.28906 4.61938 1.28906 5.90845C1.28906 7.23657 1.63818 8.28149 2.33643 9.04321C3.03467 9.80005 3.98193 10.1785 5.17822 10.1785C5.99854 10.1785 6.70898 10.0149 7.30957 9.68774V6.74341H5.00977V5.63013H8.54004V10.3909Z" fill="#5475A2"/>
</svg>
