<svg width="5" height="86" viewBox="0 0 5 86" fill="none" xmlns="http://www.w3.org/2000/svg">
<path d="M4.7788 2.14399C4.7788 3.33132 3.81628 4.29384 2.62895 4.29384C1.44162 4.29384 0.479095 3.33132 0.479095 2.14399C0.479095 0.956662 1.44162 -0.00585938 2.62895 -0.00585938C3.81628 -0.00585938 4.7788 0.956662 4.7788 2.14399Z" fill="#D9D9D9"/>
<path d="M4.77889 83.8383C4.77889 85.0257 3.81637 85.9882 2.62904 85.9882C1.44171 85.9882 0.479187 85.0257 0.479187 83.8383C0.479187 82.651 1.44171 81.6885 2.62904 81.6885C3.81637 81.6885 4.77889 82.651 4.77889 83.8383Z" fill="#D9D9D9"/>
<path d="M2.19888 9.45337H3.05882V76.5287H2.19888V9.45337Z" fill="#D9D9D9"/>
</svg>
