<svg width="20" height="19" viewBox="0 0 20 19" fill="none" xmlns="http://www.w3.org/2000/svg">
<path d="M4.29235 18.3017C3.87331 18.3073 3.52789 18.1771 3.19946 18.0072C2.49729 17.6505 1.90271 17.1578 1.35344 16.5972C0.928738 16.1612 0.549341 15.6969 0.254883 15.1589C0.135968 14.9437 0.0340396 14.7172 0.00572637 14.4624C-0.0282495 14.117 0.0906662 13.8225 0.317172 13.5677C0.509702 13.3582 0.74187 13.1996 0.974039 13.0354C1.20054 12.8825 1.39308 12.6957 1.55163 12.4748C1.73283 12.22 1.80645 11.9255 1.81211 11.6198C1.81211 11.3593 1.80079 11.0931 1.76681 10.8383C1.67621 10.2154 1.67621 9.59253 1.82344 8.9753C1.95368 8.43169 2.12356 7.8994 2.36139 7.39542C2.62753 6.81783 2.905 6.2459 3.17681 5.67398C3.22777 5.57205 3.27874 5.47012 3.34103 5.37952C3.4203 5.27193 3.51091 5.18133 3.60151 5.08506C3.82801 4.84157 4.06584 4.60374 4.28102 4.35458C4.63211 3.94121 4.97753 3.51651 5.31729 3.09181C5.37958 3.0182 5.42488 2.93326 5.47584 2.85398C5.57211 2.69543 5.69102 2.5482 5.84958 2.44061C6.08175 2.28771 6.34223 2.28771 6.56307 2.46326C6.8009 2.65012 6.93114 2.89928 6.98777 3.19374C7.05006 3.55615 6.95946 3.88458 6.78392 4.19603C6.39319 4.88687 6.00247 5.58338 5.61741 6.27988C5.56078 6.38747 5.50982 6.49506 5.46452 6.60831C5.44753 6.64229 5.44187 6.68759 5.43621 6.72723C5.42488 6.80651 5.44187 6.87446 5.52114 6.91976C5.59476 6.9594 5.66271 6.94807 5.73066 6.89711C6.01946 6.6706 6.30259 6.4441 6.59138 6.21759C7.20861 5.72494 7.82584 5.22663 8.44307 4.72832C8.57897 4.61506 8.69789 4.48482 8.8168 4.36024C9.93801 3.18241 11.0592 2.00458 12.1861 0.826752C12.5938 0.402053 13.262 0.385065 13.698 0.781451C13.7546 0.838077 13.7546 0.86639 13.7037 0.92868C12.6448 2.11217 11.5858 3.29 10.5382 4.47916C9.61524 5.52675 8.70922 6.59133 7.79753 7.64458C7.7409 7.71253 7.70126 7.78048 7.7409 7.87108C7.80319 8.00133 7.95608 8.01831 8.05801 7.8994C8.25054 7.67856 8.43741 7.45771 8.62994 7.24253C9.19054 6.59133 9.74548 5.93446 10.3174 5.28892C11.2064 4.28097 12.1011 3.27868 12.9958 2.27073C13.5338 1.66482 14.0717 1.05892 14.6097 0.45868C14.7456 0.311451 14.9268 0.260487 15.1137 0.243499C15.7819 0.169885 16.4048 0.713499 16.3425 1.42699C16.3255 1.62519 16.2462 1.80639 16.1046 1.95362C15.1986 2.89928 14.3039 3.85061 13.3922 4.78494C12.4862 5.71928 11.6425 6.71024 10.7817 7.68988C10.4193 8.10325 10.0569 8.52229 9.68885 8.93566C9.63789 8.99229 9.59825 9.05458 9.62656 9.13952C9.67753 9.28675 9.84174 9.31506 9.94933 9.19048C10.1079 9.01494 10.2551 8.8394 10.4137 8.66385C11.1668 7.79747 11.9143 6.92542 12.6844 6.07036C13.2393 5.45313 13.8226 4.86422 14.3945 4.26398C14.9551 3.67506 15.5214 3.08615 16.082 2.49723C16.1273 2.44627 16.1669 2.43494 16.2349 2.45193C16.9993 2.65012 17.3447 3.57314 16.8011 4.16771C16.1329 4.89819 15.4761 5.63434 14.8022 6.35349C13.7093 7.51434 12.6617 8.71482 11.6142 9.92096C11.5349 10.0116 11.4556 10.1022 11.3763 10.1928C11.2857 10.3004 11.2801 10.4079 11.3593 10.4816C11.4499 10.5665 11.5462 10.5495 11.6481 10.4306C12.1578 9.84735 12.6617 9.2641 13.1714 8.68651C13.6527 8.14855 14.1397 7.6106 14.6267 7.07831C14.9155 6.76121 15.2099 6.45542 15.4987 6.13831C15.5497 6.08735 15.5837 6.07603 15.6516 6.10434C16.1329 6.27988 16.3991 6.88578 16.082 7.3841C15.3628 8.5053 14.6607 9.63217 13.9642 10.7647C13.6301 11.314 13.2223 11.8066 12.826 12.3049C12.3333 12.9335 11.835 13.562 11.3367 14.1849C10.9686 14.6436 10.5666 15.0683 10.1192 15.459C9.78512 15.7535 9.3944 15.963 8.98102 16.1159C8.46006 16.3084 7.93343 16.4783 7.40681 16.6595C6.68199 16.9087 5.97416 17.2031 5.35693 17.6675C5.20404 17.7807 5.06247 17.9053 4.9209 18.0355C4.71705 18.2111 4.50187 18.3073 4.29235 18.3017Z" fill="#797979"/>
<path d="M5.2832 18.4261C5.43609 18.2959 5.57766 18.1657 5.72489 18.0467C6.20055 17.673 6.73284 17.4069 7.29911 17.203C7.88236 16.9935 8.46561 16.7953 9.05453 16.6028C9.90959 16.3253 10.6118 15.8327 11.2233 15.1758C11.8632 14.4906 12.4181 13.7375 13.0071 13.007C13.3751 12.5483 13.7489 12.0953 14.0999 11.6253C14.3038 11.3478 14.4793 11.0477 14.6662 10.7589C15.3401 9.69434 16.0083 8.6241 16.6764 7.55386C17.0502 6.95362 16.8916 6.18916 16.3027 5.77579C16.2801 5.7588 16.2518 5.74182 16.2121 5.7135C16.2857 5.6229 16.3593 5.54362 16.4273 5.45868C16.7501 5.09061 17.0785 4.7282 17.3843 4.3488C17.8486 3.77121 17.8203 2.98977 17.3333 2.43483C17.1974 2.28194 17.0389 2.1517 16.852 2.06109C16.7954 2.03278 16.784 2.01013 16.818 1.94218C17.1295 1.36459 17.0275 0.685071 16.5745 0.203746C16.5519 0.175433 16.5236 0.152783 16.4839 0.107482C16.5349 0.090494 16.5745 0.0735056 16.6085 0.0621803C17.3277 -0.175651 18.1431 0.294349 18.3016 1.03616C18.3922 1.44953 18.2903 1.81194 18.0185 2.12905C17.9619 2.197 17.9675 2.20832 18.0525 2.23097C19.0038 2.48013 19.3662 3.59567 18.7546 4.29218C18.3243 4.78483 17.8996 5.28314 17.4692 5.77579C17.4013 5.85507 17.4013 5.86639 17.4975 5.90603C18.0298 6.10989 18.3186 6.65916 18.1714 7.2141C18.1431 7.32736 18.0808 7.43495 18.0185 7.53121C17.2144 8.81663 16.4103 10.1021 15.6005 11.3818C15.425 11.6593 15.1985 11.9084 14.9946 12.1689C14.4737 12.8314 13.9527 13.4883 13.4374 14.1508C13.0977 14.5869 12.7749 15.0399 12.4181 15.4702C11.8575 16.1441 11.1554 16.6367 10.3456 16.9708C9.79067 17.203 9.21874 17.4069 8.65814 17.622C8.00694 17.8712 7.35573 18.1317 6.73284 18.4488C6.47802 18.579 6.20621 18.6243 5.92874 18.5904C5.74188 18.5677 5.56067 18.5167 5.37947 18.4714C5.35115 18.4601 5.3285 18.4488 5.2832 18.4261Z" fill="#797979"/>
<path d="M6.76117 5.41897C6.84611 5.27741 6.93105 5.13584 7.01033 4.98861C7.18587 4.67717 7.38406 4.37138 7.53129 4.04295C7.77478 3.49367 7.71249 2.95572 7.40671 2.44042C7.37273 2.37813 7.3784 2.34982 7.42936 2.30452C7.75779 2.03837 8.13153 2.03271 8.50526 2.29319C8.86767 2.54235 9.03189 2.89343 9.00358 3.32946C8.99791 3.39175 8.9696 3.4597 8.92996 3.505C8.47695 4.03162 7.93334 4.46765 7.40105 4.90933C7.21418 5.06789 7.02165 5.22644 6.83478 5.39066C6.8178 5.40765 6.80081 5.41897 6.78382 5.4303C6.77249 5.42464 6.76683 5.41897 6.76117 5.41897Z" fill="#797979"/>
</svg>
