<svg width="55" height="55" viewBox="0 0 55 55" fill="none" xmlns="http://www.w3.org/2000/svg">
<rect width="55" height="55" rx="4" fill="#D9D9D9"/>
<path d="M37 0H55V18H45C40.5817 18 37 14.4183 37 10V0Z" fill="#E4E4E4"/>
<path d="M43.9248 5.46092C43.9248 5.29994 43.9248 5.15223 43.9248 5.00453C43.9208 4.87474 43.9429 4.74547 43.9898 4.6244C44.0368 4.50334 44.1076 4.39295 44.1981 4.29982C44.2886 4.20669 44.3969 4.13272 44.5166 4.0823C44.6363 4.03188 44.7648 4.00605 44.8947 4.00635C45.4655 3.99788 46.0364 3.99788 46.6072 4.00635C46.7361 4.00633 46.8638 4.03197 46.9827 4.08176C47.1017 4.13156 47.2095 4.20451 47.3 4.29639C47.3905 4.38826 47.4618 4.49722 47.5097 4.61691C47.5577 4.7366 47.5814 4.86464 47.5794 4.99357C47.5794 5.14531 47.5794 5.29649 47.5794 5.46208H47.7196C48.5037 5.46208 49.2873 5.46208 50.0714 5.469C50.1618 5.46931 50.2509 5.49064 50.3316 5.53132C50.3983 5.56965 50.4502 5.62931 50.4788 5.70068C50.5075 5.77206 50.5113 5.851 50.4897 5.92482C50.472 5.9996 50.4302 6.0665 50.3708 6.11527C50.3114 6.16405 50.2376 6.192 50.1608 6.19485C49.9785 6.20062 49.7958 6.20062 49.6127 6.19485C49.5308 6.19485 49.5019 6.21447 49.4973 6.30101C49.3946 7.97542 49.2898 9.64983 49.1828 11.3242C49.154 11.78 49.1436 12.2376 49.0899 12.69C49.0525 13.0483 48.8833 13.3799 48.6151 13.6205C48.347 13.8611 47.9991 13.9936 47.6388 13.9922C46.3868 14.0026 45.1347 14.0026 43.8827 13.9922C43.5014 13.9874 43.1365 13.8363 42.8635 13.5701C42.5905 13.3039 42.4303 12.9429 42.416 12.5619C42.349 11.4494 42.27 10.3376 42.1973 9.22516C42.1334 8.25352 42.0709 7.28169 42.0098 6.30967C42.0046 6.22254 41.9827 6.19023 41.8915 6.19427C41.7242 6.20177 41.5568 6.19831 41.3895 6.19427C41.3392 6.19754 41.2887 6.19036 41.2413 6.17319C41.1938 6.15601 41.1505 6.12921 41.1139 6.09446C41.0773 6.05972 41.0483 6.01778 41.0287 5.97129C41.0091 5.9248 40.9994 5.87475 41 5.82431C41.0007 5.77386 41.0118 5.72411 41.0327 5.67816C41.0535 5.63221 41.0836 5.59107 41.1211 5.55733C41.1586 5.52358 41.2027 5.49795 41.2506 5.48205C41.2984 5.46616 41.3491 5.46034 41.3993 5.46496C42.0577 5.4615 42.716 5.46092 43.3743 5.45977L43.9248 5.46092ZM42.7581 6.2185C42.7581 6.24966 42.7581 6.27908 42.7581 6.30909C42.7966 7.0157 42.8372 7.72212 42.8799 8.42835C42.9599 9.77657 43.0403 11.1248 43.121 12.473C43.1172 12.582 43.1367 12.6906 43.1781 12.7916C43.2195 12.8925 43.282 12.9834 43.3613 13.0583C43.4406 13.1332 43.535 13.1904 43.6381 13.2259C43.7412 13.2615 43.8508 13.2747 43.9594 13.2646H45.272C46.0406 13.2646 46.8097 13.2646 47.58 13.2646C47.6841 13.2703 47.7883 13.2544 47.8861 13.2181C47.9838 13.1817 48.073 13.1257 48.1482 13.0534C48.2234 12.9811 48.2829 12.8941 48.323 12.7978C48.3631 12.7015 48.383 12.5981 48.3814 12.4938C48.3889 12.338 48.4016 12.1822 48.4114 12.027C48.4695 11.1007 48.5272 10.1743 48.5845 9.24767C48.6349 8.44643 48.6851 7.64519 48.7351 6.84395C48.7478 6.64085 48.7582 6.44007 48.7709 6.22024L42.7581 6.2185ZM44.6558 5.45227H46.8484V5.11415C46.8484 4.8072 46.8005 4.75989 46.4883 4.75989H45.1295C45.0459 4.75989 44.9616 4.75643 44.8785 4.75989C44.8498 4.75904 44.8211 4.76398 44.7943 4.77442C44.7675 4.78486 44.7431 4.80059 44.7224 4.82067C44.7018 4.84075 44.6855 4.86477 44.6743 4.8913C44.6632 4.91783 44.6575 4.94633 44.6576 4.9751C44.6524 5.13204 44.6564 5.28783 44.6564 5.45054L44.6558 5.45227Z" fill="#E8425E"/>
<path d="M43.9239 9.71958C43.9239 9.07625 43.9239 8.43291 43.9239 7.78957C43.9217 7.69912 43.9533 7.61111 44.0125 7.54269C44.0717 7.47427 44.1542 7.43033 44.2441 7.41945C44.3339 7.40857 44.4245 7.43154 44.4984 7.48386C44.5722 7.53618 44.6239 7.6141 44.6434 7.70245C44.6533 7.76249 44.6567 7.82342 44.6537 7.8842C44.6537 8.90046 44.6537 9.91672 44.6537 10.933C44.6537 11.169 44.6537 11.4049 44.6537 11.6409C44.6585 11.6919 44.6525 11.7433 44.6361 11.7918C44.6198 11.8403 44.5935 11.8849 44.5589 11.9226C44.5244 11.9604 44.4823 11.9905 44.4354 12.011C44.3885 12.0315 44.3378 12.042 44.2866 12.0417C44.2354 12.0415 44.1848 12.0305 44.1381 12.0096C44.0914 11.9886 44.0496 11.9581 44.0154 11.9201C43.9812 11.882 43.9553 11.8372 43.9395 11.7885C43.9236 11.7399 43.9181 11.6884 43.9233 11.6375C43.9233 10.9982 43.9235 10.3589 43.9239 9.71958Z" fill="#E8425E"/>
<path d="M45.3863 9.71967C45.3863 9.07633 45.3863 8.433 45.3863 7.79024C45.3849 7.70013 45.4169 7.61269 45.4761 7.54477C45.5354 7.47685 45.6177 7.43327 45.7071 7.42244C45.7966 7.41162 45.8869 7.4343 45.9607 7.48613C46.0344 7.53796 46.0863 7.61526 46.1064 7.70312C46.1154 7.7555 46.1187 7.80869 46.1162 7.86178C46.1162 9.10653 46.1162 10.3511 46.1162 11.5954C46.1162 11.6185 46.1162 11.641 46.1162 11.6641C46.116 11.7121 46.1063 11.7595 46.0877 11.8038C46.0692 11.848 46.0421 11.8881 46.008 11.9219C45.9739 11.9556 45.9335 11.9823 45.8891 12.0005C45.8447 12.0186 45.7972 12.0278 45.7492 12.0276C45.7013 12.0274 45.6538 12.0177 45.6096 11.9992C45.5654 11.9806 45.5253 11.9535 45.4915 11.9194C45.4577 11.8853 45.431 11.8449 45.4129 11.8005C45.3947 11.7562 45.3855 11.7086 45.3857 11.6607C45.3857 11.0139 45.3857 10.3665 45.3857 9.71967H45.3863Z" fill="#E8425E"/>
<path d="M47.5783 9.71854C47.5783 10.3648 47.5783 11.0112 47.5783 11.6578C47.5815 11.7383 47.5584 11.8176 47.5127 11.8839C47.4669 11.9502 47.4008 11.9998 47.3245 12.0253C47.2538 12.0498 47.177 12.0507 47.1058 12.0279C47.0345 12.0051 46.9726 11.9599 46.9292 11.899C46.8825 11.8307 46.8556 11.7508 46.8513 11.6682C46.8463 10.3754 46.8454 9.08252 46.8484 7.78969C46.8484 7.6929 46.8869 7.60008 46.9553 7.53164C47.0238 7.4632 47.1166 7.42474 47.2134 7.42474C47.3102 7.42474 47.403 7.4632 47.4714 7.53164C47.5399 7.60008 47.5783 7.6929 47.5783 7.78969C47.5801 8.4336 47.5783 9.07636 47.5783 9.71854Z" fill="#E8425E"/>
</svg>
