<svg width="139" height="27" viewBox="0 0 139 27" fill="none" xmlns="http://www.w3.org/2000/svg">
<path d="M24.7124 7.05255C25.6845 7.05255 26.149 7.54026 26.1258 8.48913V9.35174H23.1863V7.05255H24.7124ZM24.7124 10.3902C25.6613 10.3902 26.1258 10.8547 26.1258 11.8035V22.0785H23.1863V10.3902H24.7124Z" fill="#A9BFD7"/>
<path d="M36.2484 22.0785C35.2763 22.0122 34.7886 21.5477 34.7886 20.6187V14.607C34.7223 13.3927 34.0587 12.7955 32.7549 12.7955C31.451 12.7955 30.7875 13.3927 30.7675 14.607V22.0752H27.7849V15.2042C27.7849 11.8665 29.4637 10.211 32.8013 10.211C36.139 10.211 37.7746 11.8699 37.7514 15.2042V22.0752H36.2484V22.0785Z" fill="#A9BFD7"/>
<path d="M38.8989 16.2459C38.8989 12.3576 40.7104 10.4134 44.3334 10.347C47.9795 10.3238 49.8142 12.049 49.8142 15.5625V22.48C49.8142 25.4195 47.9596 26.8992 44.2239 26.9655C41.573 26.9655 39.8942 25.728 39.2075 23.253H42.4555C42.6546 24.0924 43.338 24.4905 44.5556 24.4905C46.1017 24.4905 46.898 23.5848 46.898 21.7733C46.898 21.7733 46.898 21.7965 46.898 20.5789C46.1482 21.7268 45.0201 22.3041 43.5603 22.3041C40.4483 22.3008 38.8989 20.267 38.8989 16.2459ZM46.898 16.3322C46.9212 13.9667 46.1017 12.7955 44.4229 12.7955C42.7442 12.7955 41.9247 13.9667 41.9247 16.3322C41.991 18.5849 42.7873 19.713 44.3765 19.713C45.9723 19.713 46.8117 18.5883 46.898 16.3322Z" fill="#A9BFD7"/>
<path d="M61.9707 8.53226V17.019C61.9707 20.5325 60.136 22.2776 56.4899 22.2577C52.8669 22.1913 51.0554 20.2239 51.0554 16.3356C51.0554 12.3576 52.6015 10.3238 55.7168 10.2143C57.1766 10.2143 58.3013 10.8115 59.0545 12.0258V7.05255H60.5143C61.3072 7.05255 61.9707 7.73601 61.9707 8.53226ZM54.0812 16.1995C54.058 18.5651 54.8542 19.7561 56.533 19.7561C58.2118 19.7561 59.0511 18.5618 59.0511 16.1995C58.9848 13.9468 58.1686 12.842 56.5761 12.842C54.9869 12.842 54.1708 13.9468 54.0812 16.1995Z" fill="#A9BFD7"/>
<path d="M73.838 16.2891C73.838 20.3102 72.0498 22.3439 68.5131 22.3439C64.9764 22.3439 63.208 20.3102 63.208 16.2891C63.208 12.2215 64.9764 10.211 68.5131 10.211C72.0464 10.211 73.838 12.2215 73.838 16.2891ZM66.1906 16.2891C66.2139 18.565 66.9869 19.713 68.4898 19.713C69.9928 19.713 70.7426 18.5186 70.7658 16.1995C70.7658 13.9235 70.016 12.7955 68.5131 12.7955C66.9637 12.7988 66.1906 13.97 66.1906 16.2891Z" fill="#A9BFD7"/>
<path d="M78.2343 14.6103V22.0786H75.2517V15.2075C75.2517 11.8699 76.9305 10.2144 80.2681 10.2144C81.771 10.2144 82.919 10.5461 83.7584 11.2097C84.5977 10.5694 85.749 10.2608 87.2486 10.2608C90.5862 10.2608 92.2418 11.9197 92.2219 15.254V22.125H90.6957C89.7236 22.0586 89.2359 21.5942 89.2359 20.6652V14.6535C89.1696 13.4392 88.506 12.842 87.2022 12.842C85.8983 12.842 85.2348 13.4392 85.2148 14.6535V22.0786H82.2554V14.6103C82.1891 13.3961 81.5255 12.7989 80.2217 12.7989C78.9178 12.7989 78.2576 13.3927 78.2343 14.6103Z" fill="#A9BFD7"/>
<path d="M96.9065 14.6103V22.0786H93.9238V15.2075C93.9238 11.8699 95.6026 10.2144 98.9402 10.2144C100.443 10.2144 101.591 10.5461 102.43 11.2097C103.27 10.5694 104.421 10.2608 105.921 10.2608C109.258 10.2608 110.914 11.9197 110.894 15.254V22.125H109.368C108.396 22.0586 107.908 21.5942 107.908 20.6652V14.6535C107.842 13.4392 107.178 12.842 105.874 12.842C104.57 12.842 103.907 13.4392 103.887 14.6535V22.0786H100.928V14.6103C100.861 13.3961 100.198 12.7989 98.8938 12.7989C97.5932 12.7989 96.9297 13.3927 96.9065 14.6103Z" fill="#647D93"/>
<path d="M114.122 7.05255C115.094 7.05255 115.558 7.54026 115.535 8.48913V9.35174H112.596V7.05255H114.122ZM114.122 10.3902C115.071 10.3902 115.535 10.8547 115.535 11.8035V22.0785H112.596V10.3902H114.122Z" fill="#647D93"/>
<path d="M125.654 22.0785C124.682 22.0122 124.195 21.5477 124.195 20.6187V14.607C124.128 13.3927 123.465 12.7955 122.161 12.7955C120.857 12.7955 120.193 13.3927 120.174 14.607V22.0752H117.191V15.2042C117.191 11.8665 118.87 10.211 122.207 10.211C125.545 10.211 127.181 11.8699 127.157 15.2042V22.0752H125.654V22.0785Z" fill="#647D93"/>
<path d="M133.7 22.3439C130.163 22.2344 128.395 20.1775 128.395 16.1995C128.395 12.2215 130.187 10.2342 133.743 10.211C137.456 10.211 139.201 12.487 138.982 17.0621H131.424C131.534 18.8504 132.307 19.7594 133.743 19.7594C134.43 19.7594 135.07 19.4708 135.644 18.92C135.91 18.6314 136.241 18.4987 136.64 18.4987H138.806C138.162 20.9737 136.573 22.3439 133.7 22.3439ZM131.467 14.962H135.863C135.687 13.4159 134.957 12.6197 133.697 12.6197C132.439 12.6197 131.69 13.4159 131.467 14.962Z" fill="#647D93"/>
<path d="M12.0865 0.323908C12.1528 0.539351 12.0302 0.771367 11.8147 0.837657C11.5993 0.903947 11.3673 0.781308 11.301 0.565865C11.2347 0.350422 11.3573 0.118411 11.5728 0.0521209C11.7882 -0.0141692 12.0202 0.108465 12.0865 0.323908Z" fill="#647D93"/>
<path d="M10.5704 1.35907C10.6268 1.54468 10.524 1.74024 10.3384 1.79659C10.1528 1.85293 9.95726 1.75018 9.90092 1.56457C9.84457 1.37896 9.94732 1.1834 10.1329 1.12705C10.3152 1.07071 10.5108 1.17346 10.5704 1.35907Z" fill="#647D93"/>
<path d="M9.60501 2.79566C9.65141 2.94482 9.56855 3.10392 9.4194 3.147C9.27025 3.19341 9.11115 3.11054 9.06806 2.96139C9.02166 2.81224 9.10452 2.65314 9.25367 2.61005C9.40283 2.56365 9.55861 2.64651 9.60501 2.79566Z" fill="#647D93"/>
<path d="M13.1355 0.565847C13.1919 0.75146 13.3874 0.854213 13.5731 0.797867C13.7587 0.74152 13.8614 0.545962 13.8051 0.360349C13.7487 0.174737 13.5532 0.0719884 13.3676 0.128335C13.1819 0.184682 13.0792 0.380235 13.1355 0.565847Z" fill="#647D93"/>
<path d="M14.7414 1.21298C14.7878 1.36213 14.9469 1.44499 15.0927 1.39859C15.2419 1.35219 15.3248 1.19309 15.2783 1.04725C15.2319 0.898102 15.0728 0.815235 14.927 0.861638C14.7779 0.904727 14.695 1.06383 14.7414 1.21298Z" fill="#647D93"/>
<path d="M10.6041 4.74343C10.8496 4.64058 11.0951 4.54105 11.3439 4.44483L11.6591 4.32539C12.7042 3.92395 13.8422 3.48933 14.9968 3.32344C14.884 2.81251 14.7513 1.92668 14.9835 1.21337C14.9835 1.21337 14.2835 1.95322 14.0479 2.66653L13.4374 0.473511L13.0459 2.48737L11.7454 0.616176L11.7421 0.606223V0.609539L11.7388 0.606223L11.7421 0.616176L11.7222 2.89214L10.2624 1.44892L10.9956 3.60545C10.3984 3.1476 9.40308 2.93195 9.40308 2.93195C10.0202 3.41302 10.4183 4.26568 10.6041 4.74343Z" fill="#647D93"/>
<path d="M7.32956 7.11888C7.16035 7.22504 6.99447 7.33453 6.82858 7.44402C4.01515 9.32849 1.35101 12.0424 0.312563 15.6687C-0.480374 18.439 0.236255 21.4747 2.4525 23.0772C3.92225 24.1388 5.84985 24.3313 7.45895 23.5748C8.93866 22.8814 10.0667 21.4946 11.1151 20.1211C12.8735 17.8119 14.539 15.4099 16.1083 12.9315C16.7784 11.8699 17.4453 11.1698 18.2947 10.347C19.071 9.59722 19.6052 8.2834 19.5089 7.11888C19.3762 5.46997 17.9828 4.22914 16.5429 3.97036C14.8907 3.67508 13.046 4.45142 11.4867 5.0453C10.0501 5.59272 8.65333 6.28281 7.32956 7.11888Z" fill="white"/>
<path d="M11.4567 20.4661C12.6942 20.1708 14.008 20.267 15.2854 20.2836C17.495 20.3135 19.0941 19.912 20.5373 18.001C22.4019 15.5293 22.6673 12.0922 20.7198 9.57069C19.5719 8.08435 17.767 7.28477 16.0352 7.49379C11.8515 8.00472 7.87023 9.99536 4.84447 13.3794C3.49415 14.889 2.1737 16.9029 2.0244 19.1258C1.89832 20.9538 3.14579 23.263 4.82124 23.5317C5.86301 23.7009 6.90146 23.1999 7.80388 22.5828C8.7063 21.9624 9.54569 21.2093 10.5277 20.7747C10.8296 20.642 11.1415 20.5391 11.4567 20.4661Z" fill="white"/>
<path d="M14.934 7.77909C12.9566 6.15341 10.4915 5.29412 8.05299 5.46996C6.09553 5.61262 4.13807 6.42878 2.71808 7.96821C1.29809 9.51095 0.475298 11.8168 0.777211 14.0231C0.913238 15.0151 2.00145 16.0834 2.86074 16.2227C5.14334 16.5976 6.77235 17.3242 8.58714 19.0527C10.2526 20.6386 11.7821 22.4866 13.7528 23.5317C16.3108 24.8919 18.3379 23.6212 18.9949 20.5955C19.7977 16.9062 19.0015 12.8088 16.8881 9.86926C16.3208 9.07964 15.6605 8.37628 14.934 7.77909Z" fill="white"/>
<path d="M11.0155 24.7227C13.0127 23.8635 11.5164 21.5875 9.90402 22.6691C9.3964 23.0108 8.17216 24.0426 8.97173 24.7227C9.3964 25.0811 10.2955 25.0313 11.0155 24.7227Z" fill="white"/>
<path d="M7.32956 7.11888C7.16035 7.22504 6.99447 7.33453 6.82858 7.44402C4.01515 9.32849 1.35101 12.0424 0.312563 15.6687C-0.480374 18.439 0.236255 21.4747 2.4525 23.0772C3.92225 24.1388 5.84985 24.3313 7.45895 23.5748C8.93866 22.8814 10.0667 21.4946 11.1151 20.1211C12.8735 17.8119 14.539 15.4099 16.1083 12.9315C16.7784 11.8699 17.4453 11.1698 18.2947 10.347C19.071 9.59722 19.6052 8.2834 19.5089 7.11888C19.3762 5.46997 17.9828 4.22914 16.5429 3.97036C14.8907 3.67508 13.046 4.45142 11.4867 5.0453C10.0501 5.59272 8.65333 6.28281 7.32956 7.11888Z" fill="#8AA0BA"/>
<path d="M11.4567 20.4661C12.6942 20.1708 14.008 20.267 15.2854 20.2836C17.495 20.3135 19.0941 19.912 20.5373 18.001C22.4019 15.5293 22.6673 12.0922 20.7198 9.57069C19.5719 8.08435 17.767 7.28477 16.0352 7.49379C11.8515 8.00472 7.87023 9.99536 4.84447 13.3794C3.49415 14.889 2.1737 16.9029 2.0244 19.1258C1.89832 20.9538 3.14579 23.263 4.82124 23.5317C5.86301 23.7009 6.90146 23.1999 7.80388 22.5828C8.7063 21.9624 9.54569 21.2093 10.5277 20.7747C10.8296 20.642 11.1415 20.5391 11.4567 20.4661Z" fill="#DEEBFB"/>
<path d="M14.934 7.77909C12.9566 6.15341 10.4915 5.29412 8.05299 5.46996C6.09553 5.61262 4.13807 6.42878 2.71808 7.96821C1.29809 9.51095 0.475298 11.8168 0.777211 14.0231C0.913238 15.0151 2.00145 16.0834 2.86074 16.2227C5.14334 16.5976 6.77235 17.3242 8.58714 19.0527C10.2526 20.6386 11.7821 22.4866 13.7528 23.5317C16.3108 24.8919 18.3379 23.6212 18.9949 20.5955C19.7977 16.9062 19.0015 12.8088 16.8881 9.86926C16.3208 9.07964 15.6605 8.37628 14.934 7.77909Z" fill="#B3C9E1"/>
<path d="M11.0155 24.7227C13.0127 23.8635 11.5164 21.5875 9.90402 22.6691C9.3964 23.0108 8.17216 24.0426 8.97173 24.7227C9.3964 25.0811 10.2955 25.0313 11.0155 24.7227Z" fill="#8AA0BA"/>
<path d="M18.8719 21.0932L12.6777 12.6131L19.1937 5.97762C18.6794 4.91595 17.6244 4.16614 16.5428 3.97371C16.4499 3.95712 16.3537 3.94385 16.2575 3.9339L7.93663 12.7259V5.48328C6.583 5.5994 5.23268 6.04066 4.06816 6.82032C4.06484 6.86677 4.06152 6.9099 4.06152 6.95635V23.8535C5.18292 24.1621 6.39057 24.0825 7.45888 23.5815C7.62144 23.5052 7.7807 23.4189 7.93663 23.326V17.2479C7.93663 16.6076 8.29826 16.1332 9.02484 15.881C9.74811 15.6289 10.5311 16.0768 11.3672 17.1915L16.2475 24.0294C17.4651 23.7872 18.3941 22.7521 18.8719 21.0932Z" fill="white"/>
</svg>
