<svg width="191" height="98" viewBox="0 0 191 98" fill="none" xmlns="http://www.w3.org/2000/svg">
<path d="M134.484 10.2879H132.925V6.52571C132.925 5.16414 132.47 4.48335 131.561 4.48335C131.104 4.48335 130.719 4.68042 130.406 5.07456C130.092 5.4687 129.935 5.97257 129.935 6.58617V10.2879H128.37V0.103027H129.935V4.55053H129.962C130.482 3.68163 131.225 3.24719 132.193 3.24719C133.72 3.24719 134.484 4.18103 134.484 6.04871V10.2879Z" fill="#202244"/>
<path d="M126.818 9.97208C126.267 10.2901 125.616 10.4491 124.863 10.4491C123.842 10.4491 123.018 10.1311 122.391 9.49508C121.764 8.8546 121.45 8.02601 121.45 7.00931C121.45 5.87616 121.786 4.96695 122.458 4.28169C123.134 3.59194 124.037 3.24707 125.165 3.24707C125.792 3.24707 126.346 3.3568 126.825 3.57627V5.02742C126.346 4.66911 125.835 4.48995 125.293 4.48995C124.635 4.48995 124.095 4.7139 123.674 5.16178C123.253 5.60519 123.042 6.18744 123.042 6.90854C123.042 7.62068 123.239 8.18277 123.634 8.59483C124.032 9.00688 124.565 9.21291 125.233 9.21291C125.792 9.21291 126.321 9.0136 126.818 8.61498V9.97208Z" fill="#202244"/>
<path d="M119.985 10.2878H118.474V9.21291H118.447C117.972 10.037 117.276 10.4491 116.357 10.4491C115.681 10.4491 115.15 10.2654 114.765 9.89817C114.384 9.53091 114.194 9.04495 114.194 8.44031C114.194 7.14144 114.942 6.38451 116.438 6.16953L118.48 5.88064C118.48 4.89977 118.015 4.40933 117.083 4.40933C116.263 4.40933 115.524 4.6915 114.866 5.25584V3.89203C115.592 3.46206 116.429 3.24707 117.379 3.24707C119.116 3.24707 119.985 4.10253 119.985 5.81346V10.2878ZM118.48 6.90854L117.036 7.11009C116.588 7.16831 116.25 7.27804 116.021 7.43928C115.798 7.59604 115.686 7.87373 115.686 8.27235C115.686 8.56347 115.789 8.80309 115.995 8.99121C116.205 9.17484 116.485 9.26666 116.834 9.26666C117.309 9.26666 117.701 9.10094 118.01 8.7695C118.324 8.43359 118.48 8.01258 118.48 7.50646V6.90854Z" fill="#202244"/>
<path d="M109.693 10.4491C108.631 10.4491 107.783 10.1288 107.147 9.48836C106.515 8.8434 106.199 7.99018 106.199 6.92869C106.199 5.77315 106.529 4.87066 107.187 4.22122C107.85 3.57179 108.741 3.24707 109.861 3.24707C110.936 3.24707 111.773 3.56283 112.373 4.19435C112.974 4.82587 113.274 5.70148 113.274 6.8212C113.274 7.91852 112.949 8.79861 112.3 9.46149C111.655 10.1199 110.786 10.4491 109.693 10.4491ZM109.767 4.48995C109.158 4.48995 108.676 4.7027 108.322 5.12819C107.968 5.55368 107.792 6.14041 107.792 6.88838C107.792 7.60948 107.971 8.17829 108.329 8.59483C108.687 9.00688 109.167 9.21291 109.767 9.21291C110.38 9.21291 110.851 9.00912 111.178 8.60154C111.509 8.19397 111.675 7.61396 111.675 6.86151C111.675 6.10458 111.509 5.52009 111.178 5.10804C110.851 4.69598 110.38 4.48995 109.767 4.48995Z" fill="#202244"/>
<path d="M104.99 9.88484C104.265 10.2611 103.362 10.4492 102.283 10.4492C100.885 10.4492 99.7656 10.008 98.9235 9.12567C98.0815 8.24334 97.6605 7.08555 97.6605 5.65232C97.6605 4.11159 98.133 2.86647 99.0781 1.91695C100.028 0.967435 101.226 0.492676 102.672 0.492676C103.604 0.492676 104.377 0.624802 104.99 0.889055V2.47457C104.341 2.08939 103.624 1.8968 102.84 1.8968C101.797 1.8968 100.95 2.23047 100.301 2.89782C99.6558 3.56517 99.3333 4.45647 99.3333 5.5717C99.3333 6.63319 99.6357 7.47969 100.24 8.11121C100.845 8.73825 101.64 9.05177 102.625 9.05177C103.535 9.05177 104.323 8.83679 104.99 8.40682V9.88484Z" fill="#202244"/>
<path d="M92.407 10.2878H90.8484V6.53903C90.8484 5.81793 90.7454 5.29615 90.5394 4.97367C90.3378 4.65119 89.9952 4.48995 89.5115 4.48995C89.1039 4.48995 88.7568 4.69374 88.4701 5.10132C88.188 5.50889 88.0469 5.99709 88.0469 6.5659V10.2878H86.4815V6.41138C86.4815 5.13043 86.0291 4.48995 85.1244 4.48995C84.7034 4.48995 84.3563 4.68254 84.0831 5.06773C83.8143 5.45291 83.68 5.9523 83.68 6.5659V10.2878H82.1213V3.40831H83.68V4.49667H83.7069C84.204 3.6636 84.9273 3.24707 85.8769 3.24707C86.3516 3.24707 86.7659 3.3792 87.1197 3.64345C87.4781 3.90322 87.7221 4.24586 87.852 4.67135C88.3626 3.72183 89.124 3.24707 90.1363 3.24707C91.6501 3.24707 92.407 4.18091 92.407 6.0486V10.2878Z" fill="#202244"/>
<path d="M79.3063 1.96406C79.051 1.96406 78.8315 1.8812 78.6479 1.71548C78.4688 1.54976 78.3792 1.33926 78.3792 1.08396C78.3792 0.828667 78.4688 0.615921 78.6479 0.445725C78.8315 0.275528 79.051 0.19043 79.3063 0.19043C79.5706 0.19043 79.7945 0.275528 79.9781 0.445725C80.1618 0.615921 80.2536 0.828667 80.2536 1.08396C80.2536 1.32582 80.1618 1.53409 79.9781 1.70876C79.7945 1.87896 79.5706 1.96406 79.3063 1.96406ZM80.0789 10.288H78.5203V3.40849H80.0789V10.288Z" fill="#202244"/>
<path d="M77.3575 3.40845L75.3285 10.288H73.696L72.4464 5.62548C72.3971 5.44633 72.3658 5.24478 72.3523 5.02084H72.3255C72.3165 5.17312 72.2762 5.37019 72.2045 5.61205L70.8474 10.288H69.2485L67.2263 3.40845H68.8387L70.0883 8.36654C70.1286 8.51434 70.1555 8.71141 70.1689 8.95775H70.2159C70.2294 8.76964 70.2652 8.56809 70.3234 8.35311L71.7141 3.40845H73.1787L74.4149 8.3867C74.4552 8.54346 74.4843 8.74053 74.5022 8.97791H74.5492C74.5582 8.81219 74.5918 8.61512 74.65 8.3867L75.8727 3.40845H77.3575Z" fill="#202244"/>
<path d="M60.5014 9.905V8.25902C60.6492 8.39338 60.8239 8.51431 61.0255 8.6218C61.2315 8.7293 61.4487 8.82111 61.6771 8.89725C61.9056 8.96891 62.134 9.0249 62.3624 9.06521C62.5908 9.10552 62.8013 9.12567 62.9939 9.12567C63.6658 9.12567 64.1651 9.0137 64.4921 8.78976C64.8235 8.56582 64.9893 8.2411 64.9893 7.81561C64.9893 7.58719 64.9333 7.39012 64.8213 7.2244C64.7138 7.0542 64.5615 6.89968 64.3645 6.76084C64.1674 6.62199 63.9345 6.48987 63.6658 6.36446C63.4015 6.23457 63.1171 6.10021 62.8125 5.96136C62.4856 5.78669 62.181 5.60977 61.8988 5.43062C61.6167 5.25146 61.3703 5.05439 61.1598 4.83941C60.9538 4.61994 60.7903 4.37361 60.6694 4.1004C60.5529 3.82719 60.4947 3.50695 60.4947 3.13968C60.4947 2.68732 60.5955 2.29542 60.797 1.96398C61.0031 1.62807 61.2718 1.35262 61.6032 1.13763C61.9392 0.918167 62.3199 0.756928 62.7453 0.653915C63.1708 0.546422 63.6053 0.492676 64.0487 0.492676C65.0564 0.492676 65.791 0.606887 66.2523 0.835308V2.41411C65.7059 2.01997 65.0027 1.8229 64.1428 1.8229C63.9054 1.8229 63.668 1.84529 63.4306 1.89008C63.1977 1.93487 62.9872 2.00877 62.7991 2.11178C62.6155 2.2148 62.4654 2.34692 62.349 2.50816C62.2325 2.6694 62.1743 2.86423 62.1743 3.09265C62.1743 3.30764 62.2191 3.49351 62.3087 3.65027C62.3982 3.80703 62.5281 3.95035 62.6983 4.08024C62.873 4.21013 63.0835 4.33778 63.3298 4.46318C63.5807 4.58411 63.8695 4.71624 64.1965 4.85956C64.5324 5.03424 64.8482 5.21787 65.1438 5.41046C65.4439 5.60305 65.7059 5.8158 65.9298 6.0487C66.1582 6.2816 66.3374 6.54137 66.4673 6.82802C66.6016 7.11019 66.6688 7.43267 66.6688 7.79545C66.6688 8.28365 66.5703 8.6957 66.3732 9.03162C66.1762 9.36753 65.9097 9.64074 65.5737 9.85125C65.2423 10.0618 64.8594 10.214 64.4249 10.3081C63.9905 10.4021 63.5314 10.4492 63.0477 10.4492C62.8864 10.4492 62.6871 10.4357 62.4497 10.4089C62.2168 10.3865 61.9772 10.3506 61.7309 10.3014C61.4845 10.2566 61.2516 10.2006 61.0322 10.1334C60.8127 10.0662 60.6358 9.99009 60.5014 9.905Z" fill="#202244"/>
<path d="M55.6377 10.2141C55.3331 10.3663 54.9323 10.4425 54.4351 10.4425C53.1004 10.4425 52.4331 9.80201 52.4331 8.52106V4.63117H51.2842V3.40844H52.4331V1.81621L53.9917 1.3728V3.40844H55.6377V4.63117H53.9917V8.07093C53.9917 8.47851 54.0656 8.76964 54.2134 8.94431C54.3612 9.11899 54.6076 9.20633 54.9524 9.20633C55.2167 9.20633 55.4451 9.13018 55.6377 8.9779V10.2141Z" fill="#202244"/>
<path d="M50.1017 10.2878H48.543V6.41138C48.543 5.12595 48.0884 4.48324 47.1792 4.48324C46.7045 4.48324 46.3126 4.66239 46.0035 5.0207C45.6945 5.37453 45.54 5.82241 45.54 6.36436V10.2878H43.9746V3.40831H45.54V4.55042H45.5668C46.0819 3.68152 46.8254 3.24707 47.7973 3.24707C48.5453 3.24707 49.1163 3.49117 49.5105 3.97936C49.9046 4.46308 50.1017 5.16402 50.1017 6.08219V10.2878Z" fill="#202244"/>
<path d="M42.0668 10.2878H40.5552V9.21291H40.5283C40.0535 10.037 39.3571 10.4491 38.4389 10.4491C37.7626 10.4491 37.2318 10.2654 36.8467 9.89817C36.466 9.53091 36.2756 9.04495 36.2756 8.44031C36.2756 7.14144 37.0236 6.38451 38.5195 6.16953L40.5619 5.88064C40.5619 4.89977 40.0961 4.40933 39.1645 4.40933C38.3448 4.40933 37.6058 4.6915 36.9474 5.25584V3.89203C37.673 3.46206 38.5106 3.24707 39.4601 3.24707C41.1979 3.24707 42.0668 4.10253 42.0668 5.81346V10.2878ZM40.5619 6.90854L39.1174 7.11009C38.6696 7.16831 38.3314 7.27804 38.103 7.43928C37.879 7.59604 37.7671 7.87373 37.7671 8.27235C37.7671 8.56347 37.8701 8.80309 38.0761 8.99121C38.2866 9.17484 38.5665 9.26666 38.9159 9.26666C39.3907 9.26666 39.7826 9.10094 40.0916 8.7695C40.4051 8.43359 40.5619 8.01258 40.5619 7.50646V6.90854Z" fill="#202244"/>
<path d="M35.4425 10.2141C35.1379 10.3663 34.7371 10.4425 34.2399 10.4425C32.9052 10.4425 32.2379 9.80201 32.2379 8.52106V4.63117H31.0891V3.40844H32.2379V1.81621L33.7965 1.3728V3.40844H35.4425V4.63117H33.7965V8.07093C33.7965 8.47851 33.8704 8.76964 34.0182 8.94431C34.166 9.11899 34.4124 9.20633 34.7572 9.20633C35.0215 9.20633 35.2499 9.13018 35.4425 8.9779V10.2141Z" fill="#202244"/>
<path d="M25.4455 10.0728V8.62842C26.0278 9.07183 26.6705 9.29353 27.3737 9.29353C28.3142 9.29353 28.7845 9.01584 28.7845 8.46046C28.7845 8.3037 28.7442 8.17157 28.6636 8.06408C28.583 7.95211 28.4732 7.85358 28.3344 7.76848C28.2 7.68338 28.0388 7.60724 27.8507 7.54006C27.667 7.47287 27.461 7.39673 27.2326 7.31163C26.9504 7.19966 26.6951 7.08097 26.4667 6.95556C26.2428 6.83016 26.0547 6.68907 25.9024 6.53231C25.7546 6.37107 25.6426 6.18968 25.5665 5.98813C25.4903 5.78658 25.4522 5.55144 25.4522 5.28271C25.4522 4.95128 25.5306 4.66015 25.6874 4.40933C25.8441 4.15404 26.0547 3.94129 26.3189 3.7711C26.5832 3.59642 26.8832 3.46653 27.2192 3.38144C27.5551 3.29186 27.9022 3.24707 28.2605 3.24707C28.8965 3.24707 29.4653 3.34337 29.9669 3.53596V4.89977C29.4832 4.56833 28.9278 4.40262 28.3008 4.40262C28.1037 4.40262 27.9246 4.42277 27.7633 4.46308C27.6066 4.50339 27.4722 4.55938 27.3602 4.63104C27.2483 4.7027 27.1609 4.79004 27.0982 4.89305C27.0355 4.99159 27.0042 5.10132 27.0042 5.22225C27.0042 5.37005 27.0355 5.49546 27.0982 5.59847C27.1609 5.70148 27.2527 5.7933 27.3737 5.87392C27.4991 5.95006 27.6469 6.02172 27.8171 6.08891C27.9918 6.15161 28.1911 6.22103 28.415 6.29717C28.7106 6.4181 28.9749 6.54127 29.2078 6.66668C29.4451 6.79209 29.6467 6.93541 29.8124 7.09665C29.9781 7.25341 30.1058 7.43704 30.1954 7.64755C30.2849 7.85358 30.3297 8.09991 30.3297 8.38656C30.3297 8.73591 30.2491 9.04047 30.0879 9.30025C29.9266 9.56002 29.7116 9.77501 29.4429 9.9452C29.1742 10.1154 28.8629 10.2408 28.5091 10.3214C28.1597 10.4065 27.7902 10.4491 27.4005 10.4491C26.6481 10.4491 25.9964 10.3237 25.4455 10.0728Z" fill="#202244"/>
<path d="M23.0609 1.96406C22.8056 1.96406 22.5862 1.8812 22.4025 1.71548C22.2234 1.54976 22.1338 1.33926 22.1338 1.08396C22.1338 0.828667 22.2234 0.615921 22.4025 0.445725C22.5862 0.275528 22.8056 0.19043 23.0609 0.19043C23.3252 0.19043 23.5491 0.275528 23.7327 0.445725C23.9164 0.615921 24.0082 0.828667 24.0082 1.08396C24.0082 1.32582 23.9164 1.53409 23.7327 1.70876C23.5491 1.87896 23.3252 1.96406 23.0609 1.96406ZM23.8335 10.288H22.2749V3.40849H23.8335V10.288Z" fill="#202244"/>
<path d="M15.9057 10.0728V8.62842C16.488 9.07183 17.1307 9.29353 17.8339 9.29353C18.7744 9.29353 19.2447 9.01584 19.2447 8.46046C19.2447 8.3037 19.2044 8.17157 19.1238 8.06408C19.0432 7.95211 18.9334 7.85358 18.7946 7.76848C18.6602 7.68338 18.499 7.60724 18.3109 7.54006C18.1272 7.47287 17.9212 7.39673 17.6928 7.31163C17.4106 7.19966 17.1553 7.08097 16.9269 6.95556C16.703 6.83016 16.5149 6.68907 16.3626 6.53231C16.2148 6.37107 16.1028 6.18968 16.0267 5.98813C15.9505 5.78658 15.9124 5.55144 15.9124 5.28271C15.9124 4.95128 15.9908 4.66015 16.1476 4.40933C16.3043 4.15404 16.5149 3.94129 16.7791 3.7711C17.0434 3.59642 17.3434 3.46653 17.6794 3.38144C18.0153 3.29186 18.3624 3.24707 18.7207 3.24707C19.3567 3.24707 19.9255 3.34337 20.4271 3.53596V4.89977C19.9434 4.56833 19.388 4.40262 18.761 4.40262C18.5639 4.40262 18.3848 4.42277 18.2235 4.46308C18.0668 4.50339 17.9324 4.55938 17.8204 4.63104C17.7085 4.7027 17.6211 4.79004 17.5584 4.89305C17.4957 4.99159 17.4644 5.10132 17.4644 5.22225C17.4644 5.37005 17.4957 5.49546 17.5584 5.59847C17.6211 5.70148 17.713 5.7933 17.8339 5.87392C17.9593 5.95006 18.1071 6.02172 18.2773 6.08891C18.452 6.15161 18.6513 6.22103 18.8752 6.29717C19.1708 6.4181 19.4351 6.54127 19.668 6.66668C19.9054 6.79209 20.1069 6.93541 20.2726 7.09665C20.4383 7.25341 20.566 7.43704 20.6556 7.64755C20.7451 7.85358 20.7899 8.09991 20.7899 8.38656C20.7899 8.73591 20.7093 9.04047 20.5481 9.30025C20.3868 9.56002 20.1718 9.77501 19.9031 9.9452C19.6344 10.1154 19.3231 10.2408 18.9693 10.3214C18.6199 10.4065 18.2504 10.4491 17.8608 10.4491C17.1083 10.4491 16.4566 10.3237 15.9057 10.0728Z" fill="#202244"/>
<path d="M9.96643 10.0728V8.62842C10.5487 9.07183 11.1914 9.29353 11.8946 9.29353C12.8351 9.29353 13.3054 9.01584 13.3054 8.46046C13.3054 8.3037 13.2651 8.17157 13.1845 8.06408C13.1039 7.95211 12.9941 7.85358 12.8553 7.76848C12.7209 7.68338 12.5597 7.60724 12.3716 7.54006C12.1879 7.47287 11.9819 7.39673 11.7535 7.31163C11.4713 7.19966 11.216 7.08097 10.9876 6.95556C10.7637 6.83016 10.5756 6.68907 10.4233 6.53231C10.2755 6.37107 10.1635 6.18968 10.0874 5.98813C10.0112 5.78658 9.97315 5.55144 9.97315 5.28271C9.97315 4.95128 10.0515 4.66015 10.2083 4.40933C10.365 4.15404 10.5756 3.94129 10.8398 3.7711C11.1041 3.59642 11.4041 3.46653 11.7401 3.38144C12.076 3.29186 12.4231 3.24707 12.7814 3.24707C13.4174 3.24707 13.9862 3.34337 14.4878 3.53596V4.89977C14.0041 4.56833 13.4487 4.40262 12.8217 4.40262C12.6246 4.40262 12.4455 4.42277 12.2842 4.46308C12.1275 4.50339 11.9931 4.55938 11.8811 4.63104C11.7692 4.7027 11.6818 4.79004 11.6191 4.89305C11.5564 4.99159 11.5251 5.10132 11.5251 5.22225C11.5251 5.37005 11.5564 5.49546 11.6191 5.59847C11.6818 5.70148 11.7736 5.7933 11.8946 5.87392C12.02 5.95006 12.1678 6.02172 12.338 6.08891C12.5127 6.15161 12.712 6.22103 12.9359 6.29717C13.2315 6.4181 13.4958 6.54127 13.7287 6.66668C13.9661 6.79209 14.1676 6.93541 14.3333 7.09665C14.499 7.25341 14.6267 7.43704 14.7163 7.64755C14.8058 7.85358 14.8506 8.09991 14.8506 8.38656C14.8506 8.73591 14.77 9.04047 14.6088 9.30025C14.4475 9.56002 14.2325 9.77501 13.9638 9.9452C13.6951 10.1154 13.3838 10.2408 13.03 10.3214C12.6806 10.4065 12.3111 10.4491 11.9215 10.4491C11.169 10.4491 10.5173 10.3237 9.96643 10.0728Z" fill="#202244"/>
<path d="M9.24102 10.2881H7.48755L6.62089 7.8359H2.83178L1.99871 10.2881H0.251953L3.85967 0.654053H5.66017L9.24102 10.2881ZM6.19764 6.53255L4.8607 2.68969C4.82039 2.56429 4.77784 2.36274 4.73305 2.08505H4.70618C4.66587 2.34034 4.62108 2.54189 4.57181 2.68969L3.24831 6.53255H6.19764Z" fill="#202244"/>
<path d="M184.528 75.9525C184.528 78.4786 183.318 79.7416 180.9 79.7416C180.049 79.7416 179.305 79.5804 178.669 79.2579V78.1561C179.444 78.5861 180.183 78.8011 180.886 78.8011C182.579 78.8011 183.426 77.9008 183.426 76.1003V75.3479H183.399C182.875 76.2257 182.087 76.6646 181.034 76.6646C180.179 76.6646 179.489 76.3601 178.965 75.751C178.445 75.1374 178.186 74.3155 178.186 73.2854C178.186 72.1164 178.466 71.187 179.025 70.4973C179.59 69.8075 180.36 69.4626 181.337 69.4626C182.264 69.4626 182.951 69.8344 183.399 70.5779H183.426V69.6239H184.528V75.9525ZM183.426 73.3928V72.3784C183.426 71.832 183.24 71.3639 182.868 70.9743C182.501 70.5846 182.042 70.3898 181.491 70.3898C180.81 70.3898 180.277 70.6383 179.892 71.1355C179.507 71.6282 179.314 72.3202 179.314 73.2115C179.314 73.9773 179.498 74.5909 179.865 75.0523C180.237 75.5091 180.727 75.7375 181.337 75.7375C181.955 75.7375 182.456 75.5181 182.841 75.0791C183.231 74.6402 183.426 74.0781 183.426 73.3928Z" fill="#202244"/>
<path d="M176.573 76.5034H175.471V72.5799C175.471 71.1198 174.938 70.3898 173.872 70.3898C173.321 70.3898 172.865 70.598 172.502 71.0146C172.143 71.4266 171.964 71.9484 171.964 72.5799V76.5034H170.863V69.6239H171.964V70.766H171.991C172.511 69.8971 173.263 69.4626 174.249 69.4626C175.001 69.4626 175.577 69.7067 175.975 70.1949C176.374 70.6787 176.573 71.3796 176.573 72.2978V76.5034Z" fill="#202244"/>
<path d="M168.095 67.877C167.898 67.877 167.73 67.8099 167.591 67.6755C167.452 67.5411 167.383 67.3709 167.383 67.1649C167.383 66.9589 167.452 66.7887 167.591 66.6543C167.73 66.5155 167.898 66.446 168.095 66.446C168.296 66.446 168.467 66.5155 168.605 66.6543C168.749 66.7887 168.82 66.9589 168.82 67.1649C168.82 67.362 168.749 67.5299 168.605 67.6688C168.467 67.8076 168.296 67.877 168.095 67.877ZM168.632 76.5033H167.53V69.6238H168.632V76.5033Z" fill="#202244"/>
<path d="M165.3 76.5033H164.198V75.3343H164.171C163.661 76.2211 162.872 76.6645 161.806 76.6645C160.942 76.6645 160.25 76.3577 159.731 75.7441C159.215 75.126 158.958 74.2862 158.958 73.2248C158.958 72.0871 159.245 71.1757 159.818 70.4904C160.391 69.8052 161.155 69.4625 162.109 69.4625C163.054 69.4625 163.741 69.8343 164.171 70.5778H164.198V66.3184H165.3V76.5033ZM164.198 73.3927V72.3783C164.198 71.8229 164.015 71.3526 163.647 70.9674C163.28 70.5822 162.814 70.3896 162.25 70.3896C161.578 70.3896 161.05 70.636 160.664 71.1287C160.279 71.6213 160.087 72.3021 160.087 73.171C160.087 73.9638 160.27 74.5908 160.637 75.0521C161.009 75.509 161.506 75.7374 162.129 75.7374C162.743 75.7374 163.24 75.5157 163.62 75.0723C164.006 74.6289 164.198 74.069 164.198 73.3927Z" fill="#202244"/>
<path d="M157.197 76.5033H156.096V66.3184H157.197V76.5033Z" fill="#202244"/>
<path d="M153.328 67.877C153.131 67.877 152.963 67.8099 152.824 67.6755C152.685 67.5411 152.616 67.3709 152.616 67.1649C152.616 66.9589 152.685 66.7887 152.824 66.6543C152.963 66.5155 153.131 66.446 153.328 66.446C153.529 66.446 153.7 66.5155 153.838 66.6543C153.982 66.7887 154.053 66.9589 154.053 67.1649C154.053 67.362 153.982 67.5299 153.838 67.6688C153.7 67.8076 153.529 67.877 153.328 67.877ZM153.865 76.5033H152.764V69.6238H153.865V76.5033Z" fill="#202244"/>
<path d="M150.533 76.5033H149.431V75.4149H149.404C148.947 76.248 148.239 76.6645 147.281 76.6645C145.642 76.6645 144.822 75.6882 144.822 73.7354V69.6238H145.917V73.5607C145.917 75.0118 146.473 75.7374 147.583 75.7374C148.121 75.7374 148.562 75.5404 148.907 75.1462C149.256 74.7476 149.431 74.228 149.431 73.5876V69.6238H150.533V76.5033Z" fill="#202244"/>
<path d="M137.231 76.5032V66.8691H139.972C140.805 66.8691 141.465 67.0729 141.954 67.4805C142.442 67.8881 142.686 68.4188 142.686 69.0727C142.686 69.6192 142.538 70.0939 142.243 70.497C141.947 70.9001 141.539 71.1868 141.02 71.357V71.3838C141.669 71.46 142.189 71.7063 142.578 72.1228C142.968 72.5349 143.163 73.0724 143.163 73.7352C143.163 74.5593 142.867 75.2267 142.276 75.7373C141.685 76.2479 140.939 76.5032 140.039 76.5032H137.231ZM138.359 67.8903V71.0009H139.515C140.133 71.0009 140.619 70.8531 140.973 70.5575C141.327 70.2574 141.504 69.8364 141.504 69.2944C141.504 68.3584 140.888 67.8903 139.656 67.8903H138.359ZM138.359 72.0153V75.482H139.891C140.554 75.482 141.067 75.3252 141.43 75.0117C141.797 74.6982 141.981 74.2682 141.981 73.7218C141.981 72.5842 141.206 72.0153 139.656 72.0153H138.359Z" fill="#202244"/>
<path d="M131.225 76.5034H130.123V72.5531C130.123 71.7917 130.004 71.2408 129.767 70.9004C129.534 70.56 129.14 70.3898 128.584 70.3898C128.114 70.3898 127.713 70.6048 127.382 71.0347C127.055 71.4647 126.891 71.9798 126.891 72.5799V76.5034H125.79V72.4187C125.79 71.0661 125.268 70.3898 124.224 70.3898C123.741 70.3898 123.342 70.5936 123.028 71.0011C122.715 71.4042 122.558 71.9305 122.558 72.5799V76.5034H121.456V69.6239H122.558V70.7122H122.585C123.073 69.8792 123.785 69.4626 124.721 69.4626C125.192 69.4626 125.602 69.5948 125.951 69.859C126.3 70.1188 126.54 70.4614 126.67 70.8869C127.18 69.9374 127.942 69.4626 128.954 69.4626C130.468 69.4626 131.225 70.3965 131.225 72.2642V76.5034Z" fill="#202244"/>
<path d="M119.381 76.5034H118.279V75.4285H118.252C117.773 76.2526 117.067 76.6646 116.136 76.6646C115.45 76.6646 114.913 76.4833 114.523 76.1205C114.138 75.7577 113.945 75.2762 113.945 74.676C113.945 73.3906 114.702 72.6426 116.216 72.4321L118.279 72.1432C118.279 70.9743 117.806 70.3898 116.861 70.3898C116.033 70.3898 115.285 70.6719 114.617 71.2363V70.1076C115.294 69.6776 116.073 69.4626 116.955 69.4626C118.572 69.4626 119.381 70.3181 119.381 72.029V76.5034ZM118.279 73.0233L116.619 73.2518C116.109 73.3234 115.724 73.4511 115.464 73.6347C115.204 73.8139 115.074 74.1341 115.074 74.5954C115.074 74.9313 115.193 75.2068 115.43 75.4218C115.672 75.6323 115.992 75.7375 116.391 75.7375C116.937 75.7375 117.387 75.5472 117.741 75.1665C118.1 74.7813 118.279 74.2953 118.279 73.7086V73.0233Z" fill="#202244"/>
<path d="M112.783 73.3391H107.926C107.944 74.105 108.15 74.6962 108.544 75.1127C108.938 75.5293 109.48 75.7375 110.17 75.7375C110.944 75.7375 111.657 75.4822 112.306 74.9716V76.0063C111.701 76.4452 110.902 76.6646 109.908 76.6646C108.936 76.6646 108.172 76.3534 107.617 75.7308C107.061 75.1038 106.784 74.2237 106.784 73.0905C106.784 72.0201 107.086 71.1489 107.69 70.4771C108.3 69.8008 109.054 69.4626 109.955 69.4626C110.855 69.4626 111.551 69.7538 112.044 70.336C112.537 70.9183 112.783 71.7267 112.783 72.7613V73.3391ZM111.654 72.4053C111.65 71.7693 111.495 71.2743 111.191 70.9205C110.891 70.5667 110.472 70.3898 109.934 70.3898C109.415 70.3898 108.974 70.5756 108.611 70.9474C108.248 71.3191 108.024 71.8051 107.939 72.4053H111.654Z" fill="#202244"/>
<path d="M107.227 67.8903H104.446V76.5032H103.317V67.8903H100.542V66.8691H107.227V67.8903Z" fill="#202244"/>
<path d="M95.0065 76.651C94.8005 76.651 94.6236 76.5771 94.4758 76.4293C94.3325 76.2815 94.2608 76.1046 94.2608 75.8986C94.2608 75.6925 94.3325 75.5156 94.4758 75.3678C94.6236 75.2155 94.8005 75.1394 95.0065 75.1394C95.217 75.1394 95.3962 75.2155 95.544 75.3678C95.6918 75.5156 95.7657 75.6925 95.7657 75.8986C95.7657 76.1046 95.6918 76.2815 95.544 76.4293C95.3962 76.5771 95.217 76.651 95.0065 76.651Z" fill="#202244"/>
<path d="M88.6177 75.9525C88.6177 78.4786 87.4084 79.7416 84.9898 79.7416C84.1388 79.7416 83.3953 79.5804 82.7593 79.2579V78.1561C83.5342 78.5861 84.2732 78.8011 84.9764 78.8011C86.6694 78.8011 87.5159 77.9008 87.5159 76.1003V75.3479H87.489C86.965 76.2257 86.1767 76.6646 85.1242 76.6646C84.2687 76.6646 83.579 76.3601 83.0549 75.751C82.5354 75.1374 82.2756 74.3155 82.2756 73.2854C82.2756 72.1164 82.5555 71.187 83.1154 70.4973C83.6797 69.8075 84.4501 69.4626 85.4265 69.4626C86.3536 69.4626 87.0411 69.8344 87.489 70.5779H87.5159V69.6239H88.6177V75.9525ZM87.5159 73.3928V72.3784C87.5159 71.832 87.33 71.3639 86.9583 70.9743C86.591 70.5846 86.1319 70.3898 85.581 70.3898C84.9002 70.3898 84.3672 70.6383 83.982 71.1355C83.5969 71.6282 83.4043 72.3202 83.4043 73.2115C83.4043 73.9773 83.5879 74.5909 83.9552 75.0523C84.3269 75.5091 84.8174 75.7375 85.4265 75.7375C86.0446 75.7375 86.5462 75.5181 86.9314 75.0791C87.321 74.6402 87.5159 74.0781 87.5159 73.3928Z" fill="#202244"/>
<path d="M80.663 76.5034H79.5612V72.5799C79.5612 71.1198 79.0282 70.3898 77.9622 70.3898C77.4113 70.3898 76.9545 70.598 76.5917 71.0146C76.2334 71.4266 76.0543 71.9484 76.0543 72.5799V76.5034H74.9525V69.6239H76.0543V70.766H76.0811C76.6007 69.8971 77.3531 69.4626 78.3385 69.4626C79.0909 69.4626 79.6665 69.7067 80.0651 70.1949C80.4637 70.6787 80.663 71.3796 80.663 72.2978V76.5034Z" fill="#202244"/>
<path d="M72.1842 67.877C71.9871 67.877 71.8192 67.8099 71.6803 67.6755C71.5415 67.5411 71.4721 67.3709 71.4721 67.1649C71.4721 66.9589 71.5415 66.7887 71.6803 66.6543C71.8192 66.5155 71.9871 66.446 72.1842 66.446C72.3858 66.446 72.556 66.5155 72.6948 66.6543C72.8381 66.7887 72.9098 66.9589 72.9098 67.1649C72.9098 67.362 72.8381 67.5299 72.6948 67.6688C72.556 67.8076 72.3858 67.877 72.1842 67.877ZM72.7217 76.5033H71.6199V69.6238H72.7217V76.5033Z" fill="#202244"/>
<path d="M69.5371 76.5033H68.4353V72.5395C68.4353 71.1063 67.9024 70.3896 66.8364 70.3896C66.2989 70.3896 65.8466 70.5979 65.4793 71.0144C65.112 71.4265 64.9284 71.9572 64.9284 72.6067V76.5033H63.8266V66.3184H64.9284V70.7659H64.9553C65.4838 69.897 66.2362 69.4625 67.2126 69.4625C68.7623 69.4625 69.5371 70.3964 69.5371 72.264V76.5033Z" fill="#202244"/>
<path d="M62.1611 76.1877C61.6326 76.5057 61.0056 76.6646 60.28 76.6646C59.2991 76.6646 58.5064 76.3467 57.9017 75.7107C57.3015 75.0702 57.0015 74.2416 57.0015 73.2249C57.0015 72.0917 57.3262 71.1825 57.9756 70.4973C58.6251 69.8075 59.4917 69.4626 60.5756 69.4626C61.1802 69.4626 61.7132 69.5746 62.1745 69.7986V70.9272C61.664 70.5689 61.1175 70.3898 60.5353 70.3898C59.8321 70.3898 59.2543 70.6428 58.802 71.1489C58.3541 71.6506 58.1301 72.3112 58.1301 73.1308C58.1301 73.937 58.3406 74.573 58.7617 75.0388C59.1871 75.5046 59.756 75.7375 60.4681 75.7375C61.0683 75.7375 61.6326 75.5382 62.1611 75.1396V76.1877Z" fill="#202244"/>
<path d="M55.3957 76.5034H54.2939V75.4285H54.267C53.7878 76.2526 53.0823 76.6646 52.1507 76.6646C51.4655 76.6646 50.928 76.4833 50.5383 76.1205C50.1532 75.7577 49.9606 75.2762 49.9606 74.676C49.9606 73.3906 50.7175 72.6426 52.2314 72.4321L54.2939 72.1432C54.2939 70.9743 53.8213 70.3898 52.8763 70.3898C52.0477 70.3898 51.2997 70.6719 50.6324 71.2363V70.1076C51.3087 69.6776 52.088 69.4626 52.9704 69.4626C54.5872 69.4626 55.3957 70.3181 55.3957 72.029V76.5034ZM54.2939 73.0233L52.6344 73.2518C52.1239 73.3234 51.7387 73.4511 51.4789 73.6347C51.2191 73.8139 51.0892 74.1341 51.0892 74.5954C51.0892 74.9313 51.2079 75.2068 51.4453 75.4218C51.6872 75.6323 52.0074 75.7375 52.406 75.7375C52.9524 75.7375 53.4026 75.5472 53.7564 75.1665C54.1147 74.7813 54.2939 74.2953 54.2939 73.7086V73.0233Z" fill="#202244"/>
<path d="M45.2845 76.6646C44.2678 76.6646 43.4548 76.3444 42.8457 75.7039C42.2411 75.059 41.9388 74.2058 41.9388 73.1443C41.9388 71.9887 42.2545 71.0862 42.886 70.4368C43.5175 69.7874 44.3708 69.4626 45.4457 69.4626C46.4714 69.4626 47.2708 69.7784 47.8441 70.4099C48.4219 71.0414 48.7108 71.9171 48.7108 73.0368C48.7108 74.1341 48.3995 75.0142 47.7769 75.6771C47.1589 76.3355 46.328 76.6646 45.2845 76.6646ZM45.3651 70.3898C44.6574 70.3898 44.0976 70.6316 43.6855 71.1153C43.2735 71.5946 43.0674 72.2575 43.0674 73.104C43.0674 73.9191 43.2757 74.5618 43.6922 75.0321C44.1088 75.5024 44.6664 75.7375 45.3651 75.7375C46.0772 75.7375 46.6236 75.5069 47.0043 75.0455C47.3895 74.5842 47.5821 73.9281 47.5821 73.0771C47.5821 72.2171 47.3895 71.5543 47.0043 71.0885C46.6236 70.6227 46.0772 70.3898 45.3651 70.3898Z" fill="#202244"/>
<path d="M40.595 76.1002C39.8829 76.4764 38.996 76.6645 37.9346 76.6645C36.564 76.6645 35.4667 76.2233 34.6426 75.341C33.8185 74.4587 33.4064 73.3009 33.4064 71.8677C33.4064 70.3269 33.87 69.0818 34.7971 68.1323C35.7242 67.1828 36.8999 66.708 38.3242 66.708C39.2379 66.708 39.9948 66.8401 40.595 67.1044V68.307C39.9053 67.9218 39.1439 67.7292 38.3108 67.7292C37.2045 67.7292 36.3065 68.0987 35.6167 68.8377C34.9315 69.5767 34.5889 70.5643 34.5889 71.8005C34.5889 72.9739 34.9091 73.91 35.5496 74.6087C36.1945 75.3029 37.0388 75.65 38.0824 75.65C39.0498 75.65 39.8873 75.4351 40.595 75.0051V76.1002Z" fill="#202244"/>
<path d="M27.3265 76.6511C27.0578 76.6511 26.8293 76.5637 26.6412 76.389C26.4531 76.2099 26.3591 75.9971 26.3591 75.7508C26.3591 75.5 26.4531 75.285 26.6412 75.1058C26.8293 74.9267 27.0578 74.8371 27.3265 74.8371C27.5997 74.8371 27.8304 74.9267 28.0185 75.1058C28.2111 75.285 28.3074 75.5 28.3074 75.7508C28.3074 75.9971 28.2111 76.2099 28.0185 76.389C27.8304 76.5637 27.5997 76.6511 27.3265 76.6511ZM27.3265 71.3369C27.0578 71.3369 26.8293 71.2495 26.6412 71.0749C26.4531 70.8957 26.3591 70.683 26.3591 70.4366C26.3591 70.1858 26.4531 69.9708 26.6412 69.7917C26.8293 69.6125 27.0578 69.5229 27.3265 69.5229C27.5997 69.5229 27.8304 69.6125 28.0185 69.7917C28.2111 69.9708 28.3074 70.1858 28.3074 70.4366C28.3074 70.683 28.2111 70.8957 28.0185 71.0749C27.8304 71.2495 27.5997 71.3369 27.3265 71.3369Z" fill="#202244"/>
<path d="M24.6457 76.5033H23.0804V66.3184H24.6457V76.5033Z" fill="#202244"/>
<path d="M21.0447 76.5033H19.4793V66.3184H21.0447V76.5033Z" fill="#202244"/>
<path d="M16.6648 68.1791C16.4095 68.1791 16.1901 68.0963 16.0064 67.9306C15.8273 67.7649 15.7377 67.5543 15.7377 67.299C15.7377 67.0438 15.8273 66.831 16.0064 66.6608C16.1901 66.4906 16.4095 66.4055 16.6648 66.4055C16.9291 66.4055 17.153 66.4906 17.3367 66.6608C17.5203 66.831 17.6121 67.0438 17.6121 67.299C17.6121 67.5409 17.5203 67.7492 17.3367 67.9239C17.153 68.094 16.9291 68.1791 16.6648 68.1791ZM17.4374 76.5031H15.8788V69.6236H17.4374V76.5031Z" fill="#202244"/>
<path d="M14.8906 76.5033H12.9154L10.2415 73.1979H10.2147V76.5033H8.64929V66.3184H10.2147V72.7746H10.2415L12.7676 69.6238H14.642L11.8002 72.9426L14.8906 76.5033Z" fill="#202244"/>
<path d="M0.883427 76.1203V74.4743C1.03123 74.6087 1.20591 74.7296 1.40745 74.8371C1.61348 74.9446 1.83071 75.0364 2.05913 75.1126C2.28755 75.1842 2.51597 75.2402 2.74439 75.2805C2.97281 75.3209 3.18332 75.341 3.37591 75.341C4.04774 75.341 4.54713 75.229 4.87409 75.0051C5.20553 74.7811 5.37124 74.4564 5.37124 74.0309C5.37124 73.8025 5.31526 73.6054 5.20329 73.4397C5.09579 73.2695 4.94351 73.115 4.74644 72.9762C4.54937 72.8373 4.31647 72.7052 4.04774 72.5798C3.78349 72.4499 3.49908 72.3155 3.19452 72.1767C2.86756 72.002 2.563 71.8251 2.28083 71.6459C1.99866 71.4668 1.75233 71.2697 1.54182 71.0547C1.33579 70.8353 1.17231 70.5889 1.05138 70.3157C0.934934 70.0425 0.876709 69.7223 0.876709 69.355C0.876709 68.9026 0.977483 68.5107 1.17903 68.1793C1.38506 67.8434 1.65379 67.5679 1.98523 67.353C2.32114 67.1335 2.70184 66.9723 3.12734 66.8692C3.55283 66.7618 3.98728 66.708 4.43068 66.708C5.43843 66.708 6.17296 66.8222 6.63428 67.0506V68.6294C6.08786 68.2353 5.38468 68.0382 4.52474 68.0382C4.28736 68.0382 4.04998 68.0606 3.8126 68.1054C3.5797 68.1502 3.36919 68.2241 3.18108 68.3271C2.99745 68.4301 2.84741 68.5623 2.73096 68.7235C2.61451 68.8847 2.55628 69.0796 2.55628 69.308C2.55628 69.523 2.60107 69.7088 2.69065 69.8656C2.78022 70.0224 2.91011 70.1657 3.08031 70.2956C3.25498 70.4255 3.46549 70.5531 3.71183 70.6785C3.96264 70.7994 4.25153 70.9316 4.57849 71.0749C4.9144 71.2496 5.23016 71.4332 5.52576 71.6258C5.82585 71.8184 6.08786 72.0311 6.3118 72.264C6.54023 72.4969 6.71938 72.7567 6.84927 73.0434C6.98363 73.3255 7.05082 73.648 7.05082 74.0108C7.05082 74.499 6.95228 74.911 6.75521 75.247C6.55814 75.5829 6.29165 75.8561 5.95573 76.0666C5.6243 76.2771 5.24136 76.4294 4.80691 76.5234C4.37246 76.6175 3.91337 76.6645 3.42966 76.6645C3.26842 76.6645 3.06911 76.6511 2.83173 76.6242C2.59883 76.6018 2.35921 76.566 2.11287 76.5167C1.86654 76.4719 1.63364 76.4159 1.41417 76.3487C1.19471 76.2816 1.01779 76.2054 0.883427 76.1203Z" fill="#202244"/>
<path d="M52.5672 30.9266H51.4654V20.7417H52.5672V30.9266Z" fill="#797979"/>
<path d="M49.3894 30.9265H48.2876V29.8516H48.2607C47.7815 30.6757 47.076 31.0877 46.1444 31.0877C45.4592 31.0877 44.9217 30.9064 44.5321 30.5436C44.1469 30.1808 43.9543 29.6993 43.9543 29.0991C43.9543 27.8137 44.7112 27.0657 46.2251 26.8552L48.2876 26.5663C48.2876 25.3974 47.8151 24.8129 46.87 24.8129C46.0414 24.8129 45.2935 25.095 44.6261 25.6594V24.5307C45.3024 24.1007 46.0817 23.8857 46.9641 23.8857C48.5809 23.8857 49.3894 24.7412 49.3894 26.4521V30.9265ZM48.2876 27.4464L46.6282 27.6749C46.1176 27.7465 45.7324 27.8742 45.4726 28.0578C45.2128 28.237 45.083 28.5572 45.083 29.0185C45.083 29.3544 45.2016 29.6299 45.439 29.8449C45.6809 30.0554 46.0011 30.1606 46.3997 30.1606C46.9462 30.1606 47.3963 29.9703 47.7501 29.5896C48.1084 29.2044 48.2876 28.7184 48.2876 28.1317V27.4464Z" fill="#797979"/>
<path d="M42.382 30.9265H41.2802V27.003C41.2802 25.5429 40.7472 24.8129 39.6812 24.8129C39.1303 24.8129 38.6735 25.0211 38.3107 25.4377C37.9524 25.8497 37.7732 26.3715 37.7732 27.003V30.9265H36.6714V24.047H37.7732V25.1891H37.8001C38.3196 24.3202 39.0721 23.8857 40.0574 23.8857C40.8099 23.8857 41.3854 24.1298 41.784 24.618C42.1827 25.1018 42.382 25.8027 42.382 26.7209V30.9265Z" fill="#797979"/>
<path d="M31.4853 31.0877C30.4686 31.0877 29.6557 30.7675 29.0466 30.127C28.4419 29.4821 28.1396 28.6289 28.1396 27.5674C28.1396 26.4118 28.4553 25.5093 29.0869 24.8599C29.7184 24.2105 30.5716 23.8857 31.6465 23.8857C32.6722 23.8857 33.4717 24.2015 34.045 24.833C34.6227 25.4645 34.9116 26.3402 34.9116 27.4599C34.9116 28.5572 34.6003 29.4373 33.9778 30.1002C33.3597 30.7585 32.5289 31.0877 31.4853 31.0877ZM31.5659 24.8129C30.8583 24.8129 30.2984 25.0547 29.8863 25.5384C29.4743 26.0177 29.2683 26.6805 29.2683 27.5271C29.2683 28.3422 29.4765 28.9849 29.8931 29.4552C30.3096 29.9255 30.8672 30.1606 31.5659 30.1606C32.2781 30.1606 32.8245 29.93 33.2052 29.4686C33.5904 29.0073 33.7829 28.3512 33.7829 27.5002C33.7829 26.6402 33.5904 25.9774 33.2052 25.5116C32.8245 25.0458 32.2781 24.8129 31.5659 24.8129Z" fill="#797979"/>
<path d="M22.3484 30.6779V29.4955C22.9486 29.9389 23.6092 30.1606 24.3303 30.1606C25.2978 30.1606 25.7815 29.8381 25.7815 29.1932C25.7815 29.0096 25.7389 28.855 25.6538 28.7296C25.5732 28.5997 25.4613 28.4855 25.3179 28.387C25.1791 28.2885 25.0134 28.2011 24.8208 28.125C24.6327 28.0444 24.4289 27.9615 24.2094 27.8764C23.9049 27.7555 23.6361 27.6345 23.4032 27.5136C23.1748 27.3882 22.9822 27.2494 22.8254 27.0971C22.6732 26.9403 22.5567 26.7634 22.4761 26.5663C22.4 26.3693 22.3619 26.1386 22.3619 25.8744C22.3619 25.5519 22.4358 25.2675 22.5836 25.0211C22.7314 24.7703 22.9285 24.562 23.1748 24.3963C23.4211 24.2261 23.7011 24.0985 24.0146 24.0134C24.3326 23.9283 24.6595 23.8857 24.9955 23.8857C25.5911 23.8857 26.1241 23.9888 26.5944 24.1948V25.31C26.0883 24.9786 25.506 24.8129 24.8477 24.8129C24.6416 24.8129 24.4558 24.8375 24.29 24.8868C24.1243 24.9316 23.981 24.9965 23.8601 25.0816C23.7436 25.1667 23.6518 25.2697 23.5846 25.3906C23.5219 25.5071 23.4906 25.637 23.4906 25.7803C23.4906 25.9595 23.5219 26.1095 23.5846 26.2304C23.6518 26.3514 23.7481 26.4588 23.8735 26.5529C23.9989 26.647 24.1512 26.7321 24.3303 26.8082C24.5095 26.8843 24.7133 26.9672 24.9417 27.0568C25.2463 27.1732 25.5195 27.2942 25.7613 27.4196C26.0032 27.5405 26.2092 27.6793 26.3794 27.8361C26.5496 27.9884 26.6795 28.1653 26.7691 28.3668C26.8631 28.5684 26.9102 28.808 26.9102 29.0857C26.9102 29.4261 26.834 29.7217 26.6817 29.9725C26.5339 30.2233 26.3346 30.4316 26.0838 30.5973C25.833 30.763 25.5441 30.8862 25.2172 30.9668C24.8902 31.0474 24.5476 31.0877 24.1893 31.0877C23.4816 31.0877 22.868 30.9511 22.3484 30.6779Z" fill="#797979"/>
<path d="M20.6891 30.9265H19.5873V29.8516H19.5605C19.0812 30.6757 18.3758 31.0877 17.4442 31.0877C16.7589 31.0877 16.2215 30.9064 15.8318 30.5436C15.4466 30.1808 15.254 29.6993 15.254 29.0991C15.254 27.8137 16.011 27.0657 17.5248 26.8552L19.5873 26.5663C19.5873 25.3974 19.1148 24.8129 18.1698 24.8129C17.3412 24.8129 16.5932 25.095 15.9259 25.6594V24.5307C16.6022 24.1007 17.3815 23.8857 18.2638 23.8857C19.8807 23.8857 20.6891 24.7412 20.6891 26.4521V30.9265ZM19.5873 27.4464L17.9279 27.6749C17.4173 27.7465 17.0321 27.8742 16.7724 28.0578C16.5126 28.237 16.3827 28.5572 16.3827 29.0185C16.3827 29.3544 16.5014 29.6299 16.7388 29.8449C16.9806 30.0554 17.3009 30.1606 17.6995 30.1606C18.2459 30.1606 18.696 29.9703 19.0499 29.5896C19.4082 29.2044 19.5873 28.7184 19.5873 28.1317V27.4464Z" fill="#797979"/>
<path d="M14.092 27.7622H9.23464C9.25255 28.5281 9.45858 29.1193 9.85272 29.5358C10.2469 29.9524 10.7888 30.1606 11.4785 30.1606C12.2534 30.1606 12.9655 29.9053 13.615 29.3947V30.4294C13.0103 30.8683 12.2108 31.0877 11.2165 31.0877C10.2446 31.0877 9.48098 30.7765 8.9256 30.1539C8.37022 29.5269 8.09253 28.6468 8.09253 27.5136C8.09253 26.4432 8.39485 25.572 8.9995 24.9002C9.60862 24.2239 10.3633 23.8857 11.2636 23.8857C12.1638 23.8857 12.8603 24.1769 13.3529 24.7591C13.8456 25.3414 14.092 26.1498 14.092 27.1844V27.7622ZM12.9633 26.8284C12.9588 26.1924 12.8043 25.6974 12.4997 25.3436C12.1996 24.9898 11.7809 24.8129 11.2434 24.8129C10.7239 24.8129 10.2827 24.9987 9.9199 25.3705C9.55712 25.7422 9.33317 26.2282 9.24807 26.8284H12.9633Z" fill="#797979"/>
<path d="M0.950562 30.5369V29.2067C1.10284 29.3411 1.28424 29.462 1.49474 29.5695C1.70973 29.677 1.93367 29.7688 2.16657 29.845C2.40395 29.9166 2.64133 29.9726 2.87871 30.0129C3.11609 30.0532 3.33555 30.0734 3.5371 30.0734C4.23133 30.0734 4.74863 29.9457 5.08903 29.6904C5.4339 29.4307 5.60633 29.0589 5.60633 28.5752C5.60633 28.3154 5.54811 28.0893 5.43166 27.8967C5.31969 27.7041 5.16293 27.5294 4.96138 27.3726C4.75983 27.2114 4.52021 27.0591 4.24252 26.9158C3.96931 26.768 3.67371 26.6135 3.35571 26.4522C3.01979 26.282 2.70627 26.1096 2.41515 25.9349C2.12402 25.7602 1.87097 25.5677 1.65598 25.3572C1.441 25.1466 1.2708 24.9093 1.14539 24.645C1.02446 24.3763 0.963998 24.0628 0.963998 23.7045C0.963998 23.2655 1.06029 22.8848 1.25288 22.5623C1.44548 22.2354 1.69853 21.9667 2.01205 21.7561C2.32557 21.5456 2.68164 21.3889 3.08026 21.2859C3.48336 21.1829 3.89317 21.1313 4.30971 21.1313C5.25922 21.1313 5.95121 21.2456 6.38566 21.474V22.7437C5.81684 22.3496 5.08679 22.1525 4.19549 22.1525C3.94916 22.1525 3.70282 22.1794 3.45648 22.2331C3.21015 22.2824 2.99068 22.3653 2.79809 22.4817C2.6055 22.5982 2.44874 22.7482 2.32781 22.9318C2.20688 23.1155 2.14642 23.3394 2.14642 23.6037C2.14642 23.85 2.19121 24.0628 2.28078 24.2419C2.37484 24.4211 2.51144 24.5845 2.6906 24.7323C2.86975 24.8802 3.08698 25.0235 3.34227 25.1623C3.60205 25.3012 3.89989 25.4534 4.2358 25.6192C4.58068 25.7894 4.90763 25.9685 5.21667 26.1566C5.52572 26.3447 5.79669 26.553 6.02959 26.7814C6.26249 27.0098 6.44612 27.2629 6.58049 27.5406C6.71933 27.8183 6.78875 28.1363 6.78875 28.4946C6.78875 28.9693 6.6947 29.3724 6.50659 29.7039C6.32295 30.0308 6.07214 30.2973 5.75414 30.5034C5.44062 30.7094 5.07783 30.8572 4.66577 30.9468C4.25372 31.0408 3.81927 31.0878 3.36243 31.0878C3.21015 31.0878 3.02203 31.0744 2.79809 31.0475C2.57415 31.0251 2.34573 30.9893 2.11283 30.94C1.87992 30.8953 1.65822 30.8393 1.44771 30.7721C1.24169 30.7004 1.07597 30.622 0.950562 30.5369Z" fill="#797979"/>
<path d="M52.5672 97.142H51.4654V86.957H52.5672V97.142Z" fill="#797979"/>
<path d="M49.3894 97.1418H48.2876V96.0669H48.2607C47.7815 96.891 47.076 97.3031 46.1444 97.3031C45.4592 97.3031 44.9217 97.1217 44.5321 96.7589C44.1469 96.3961 43.9543 95.9146 43.9543 95.3145C43.9543 94.029 44.7112 93.2811 46.2251 93.0706L48.2876 92.7817C48.2876 91.6127 47.8151 91.0282 46.87 91.0282C46.0414 91.0282 45.2935 91.3104 44.6261 91.8747V90.746C45.3024 90.3161 46.0817 90.1011 46.9641 90.1011C48.5809 90.1011 49.3894 90.9565 49.3894 92.6675V97.1418ZM48.2876 93.6618L46.6282 93.8902C46.1176 93.9618 45.7324 94.0895 45.4726 94.2731C45.2128 94.4523 45.083 94.7725 45.083 95.2338C45.083 95.5698 45.2016 95.8452 45.439 96.0602C45.6809 96.2707 46.0011 96.376 46.3997 96.376C46.9462 96.376 47.3963 96.1856 47.7501 95.8049C48.1084 95.4197 48.2876 94.9338 48.2876 94.347V93.6618Z" fill="#797979"/>
<path d="M42.382 97.1421H41.2802V93.2186C41.2802 91.7585 40.7472 91.0284 39.6812 91.0284C39.1303 91.0284 38.6735 91.2367 38.3107 91.6532C37.9524 92.0653 37.7732 92.5871 37.7732 93.2186V97.1421H36.6714V90.2626H37.7732V91.4047H37.8001C38.3196 90.5358 39.0721 90.1013 40.0574 90.1013C40.8099 90.1013 41.3854 90.3454 41.784 90.8336C42.1827 91.3173 42.382 92.0183 42.382 92.9364V97.1421Z" fill="#797979"/>
<path d="M31.4853 97.3033C30.4686 97.3033 29.6557 96.9831 29.0466 96.3426C28.4419 95.6977 28.1396 94.8444 28.1396 93.7829C28.1396 92.6274 28.4553 91.7249 29.0869 91.0755C29.7184 90.426 30.5716 90.1013 31.6465 90.1013C32.6722 90.1013 33.4717 90.4171 34.045 91.0486C34.6227 91.6801 34.9116 92.5557 34.9116 93.6754C34.9116 94.7728 34.6003 95.6529 33.9778 96.3157C33.3597 96.9741 32.5289 97.3033 31.4853 97.3033ZM31.5659 91.0284C30.8583 91.0284 30.2984 91.2703 29.8863 91.754C29.4743 92.2333 29.2683 92.8961 29.2683 93.7426C29.2683 94.5578 29.4765 95.2005 29.8931 95.6708C30.3096 96.1411 30.8672 96.3762 31.5659 96.3762C32.2781 96.3762 32.8245 96.1455 33.2052 95.6842C33.5904 95.2229 33.7829 94.5667 33.7829 93.7158C33.7829 92.8558 33.5904 92.1929 33.2052 91.7271C32.8245 91.2613 32.2781 91.0284 31.5659 91.0284Z" fill="#797979"/>
<path d="M22.3484 96.8935V95.7111C22.9486 96.1545 23.6092 96.3762 24.3303 96.3762C25.2978 96.3762 25.7815 96.0537 25.7815 95.4088C25.7815 95.2251 25.7389 95.0706 25.6538 94.9452C25.5732 94.8153 25.4613 94.7011 25.3179 94.6026C25.1791 94.504 25.0134 94.4167 24.8208 94.3406C24.6327 94.2599 24.4289 94.1771 24.2094 94.092C23.9049 93.9711 23.6361 93.8501 23.4032 93.7292C23.1748 93.6038 22.9822 93.4649 22.8254 93.3127C22.6732 93.1559 22.5567 92.979 22.4761 92.7819C22.4 92.5848 22.3619 92.3542 22.3619 92.0899C22.3619 91.7675 22.4358 91.483 22.5836 91.2367C22.7314 90.9859 22.9285 90.7776 23.1748 90.6119C23.4211 90.4417 23.7011 90.3141 24.0146 90.229C24.3326 90.1439 24.6595 90.1013 24.9955 90.1013C25.5911 90.1013 26.1241 90.2043 26.5944 90.4104V91.5256C26.0883 91.1942 25.506 91.0284 24.8477 91.0284C24.6416 91.0284 24.4558 91.0531 24.29 91.1023C24.1243 91.1471 23.981 91.2121 23.8601 91.2972C23.7436 91.3823 23.6518 91.4853 23.5846 91.6062C23.5219 91.7227 23.4906 91.8526 23.4906 91.9959C23.4906 92.175 23.5219 92.3251 23.5846 92.446C23.6518 92.5669 23.7481 92.6744 23.8735 92.7685C23.9989 92.8625 24.1512 92.9476 24.3303 93.0238C24.5095 93.0999 24.7133 93.1828 24.9417 93.2723C25.2463 93.3888 25.5195 93.5097 25.7613 93.6351C26.0032 93.7561 26.2092 93.8949 26.3794 94.0517C26.5496 94.204 26.6795 94.3809 26.7691 94.5824C26.8631 94.784 26.9102 95.0236 26.9102 95.3013C26.9102 95.6417 26.834 95.9373 26.6817 96.1881C26.5339 96.4389 26.3346 96.6472 26.0838 96.8129C25.833 96.9786 25.5441 97.1018 25.2172 97.1824C24.8902 97.263 24.5476 97.3033 24.1893 97.3033C23.4816 97.3033 22.868 97.1667 22.3484 96.8935Z" fill="#797979"/>
<path d="M20.6891 97.1421H19.5873V96.0672H19.5605C19.0812 96.8913 18.3758 97.3033 17.4442 97.3033C16.7589 97.3033 16.2215 97.1219 15.8318 96.7591C15.4466 96.3964 15.254 95.9149 15.254 95.3147C15.254 94.0293 16.011 93.2813 17.5248 93.0708L19.5873 92.7819C19.5873 91.6129 19.1148 91.0284 18.1698 91.0284C17.3412 91.0284 16.5932 91.3106 15.9259 91.8749V90.7463C16.6022 90.3163 17.3815 90.1013 18.2638 90.1013C19.8807 90.1013 20.6891 90.9568 20.6891 92.6677V97.1421ZM19.5873 93.662L17.9279 93.8904C17.4173 93.9621 17.0321 94.0897 16.7724 94.2734C16.5126 94.4525 16.3827 94.7728 16.3827 95.2341C16.3827 95.57 16.5014 95.8455 16.7388 96.0604C16.9806 96.2709 17.3009 96.3762 17.6995 96.3762C18.2459 96.3762 18.696 96.1858 19.0499 95.8051C19.4082 95.42 19.5873 94.934 19.5873 94.3473V93.662Z" fill="#797979"/>
<path d="M14.092 93.9778H9.23464C9.25255 94.7437 9.45858 95.3349 9.85272 95.7514C10.2469 96.1679 10.7888 96.3762 11.4785 96.3762C12.2534 96.3762 12.9655 96.1209 13.615 95.6103V96.6449C13.0103 97.0839 12.2108 97.3033 11.2165 97.3033C10.2446 97.3033 9.48098 96.992 8.9256 96.3695C8.37022 95.7424 8.09253 94.8623 8.09253 93.7292C8.09253 92.6587 8.39485 91.7876 8.9995 91.1158C9.60862 90.4395 10.3633 90.1013 11.2636 90.1013C12.1638 90.1013 12.8603 90.3924 13.3529 90.9747C13.8456 91.5569 14.092 92.3654 14.092 93.4V93.9778ZM12.9633 93.0439C12.9588 92.4079 12.8043 91.913 12.4997 91.5592C12.1996 91.2054 11.7809 91.0284 11.2434 91.0284C10.7239 91.0284 10.2827 91.2143 9.9199 91.5861C9.55712 91.9578 9.33317 92.4438 9.24807 93.0439H12.9633Z" fill="#797979"/>
<path d="M0.950562 96.7523V95.4221C1.10284 95.5564 1.28424 95.6774 1.49474 95.7848C1.70973 95.8923 1.93367 95.9842 2.16657 96.0603C2.40395 96.132 2.64133 96.1879 2.87871 96.2283C3.11609 96.2686 3.33555 96.2887 3.5371 96.2887C4.23133 96.2887 4.74863 96.1611 5.08903 95.9058C5.4339 95.646 5.60633 95.2743 5.60633 94.7905C5.60633 94.5308 5.54811 94.3046 5.43166 94.112C5.31969 93.9194 5.16293 93.7447 4.96138 93.588C4.75983 93.4267 4.52021 93.2744 4.24252 93.1311C3.96931 92.9833 3.67371 92.8288 3.35571 92.6676C3.01979 92.4974 2.70627 92.3249 2.41515 92.1503C2.12402 91.9756 1.87097 91.783 1.65598 91.5725C1.441 91.362 1.2708 91.1246 1.14539 90.8603C1.02446 90.5916 0.963998 90.2781 0.963998 89.9198C0.963998 89.4809 1.06029 89.1002 1.25288 88.7777C1.44548 88.4507 1.69853 88.182 2.01205 87.9715C2.32557 87.761 2.68164 87.6042 3.08026 87.5012C3.48336 87.3982 3.89317 87.3467 4.30971 87.3467C5.25922 87.3467 5.95121 87.4609 6.38566 87.6893V88.9591C5.81684 88.5649 5.08679 88.3679 4.19549 88.3679C3.94916 88.3679 3.70282 88.3947 3.45648 88.4485C3.21015 88.4977 2.99068 88.5806 2.79809 88.6971C2.6055 88.8135 2.44874 88.9635 2.32781 89.1472C2.20688 89.3308 2.14642 89.5548 2.14642 89.819C2.14642 90.0653 2.19121 90.2781 2.28078 90.4572C2.37484 90.6364 2.51144 90.7999 2.6906 90.9477C2.86975 91.0955 3.08698 91.2388 3.34227 91.3777C3.60205 91.5165 3.89989 91.6688 4.2358 91.8345C4.58068 92.0047 4.90763 92.1838 5.21667 92.372C5.52572 92.5601 5.79669 92.7683 6.02959 92.9968C6.26249 93.2252 6.44612 93.4782 6.58049 93.7559C6.71933 94.0336 6.78875 94.3516 6.78875 94.7099C6.78875 95.1847 6.6947 95.5878 6.50659 95.9192C6.32295 96.2462 6.07214 96.5127 5.75414 96.7187C5.44062 96.9247 5.07783 97.0725 4.66577 97.1621C4.25372 97.2562 3.81927 97.3032 3.36243 97.3032C3.21015 97.3032 3.02203 97.2897 2.79809 97.2629C2.57415 97.2405 2.34573 97.2046 2.11283 97.1554C1.87992 97.1106 1.65822 97.0546 1.44771 96.9874C1.24169 96.9158 1.07597 96.8374 0.950562 96.7523Z" fill="#797979"/>
<path d="M185.468 50.4567V49.2743C186.068 49.7177 186.729 49.9394 187.45 49.9394C188.417 49.9394 188.901 49.617 188.901 48.972C188.901 48.7884 188.858 48.6338 188.773 48.5084C188.693 48.3785 188.581 48.2643 188.437 48.1658C188.298 48.0673 188.133 47.9799 187.94 47.9038C187.752 47.8232 187.548 47.7403 187.329 47.6552C187.024 47.5343 186.756 47.4134 186.523 47.2924C186.294 47.167 186.102 47.0282 185.945 46.8759C185.793 46.7191 185.676 46.5422 185.595 46.3451C185.519 46.1481 185.481 45.9174 185.481 45.6532C185.481 45.3307 185.555 45.0463 185.703 44.7999C185.851 44.5491 186.048 44.3409 186.294 44.1751C186.541 44.0049 186.82 43.8773 187.134 43.7922C187.452 43.7071 187.779 43.6646 188.115 43.6646C188.711 43.6646 189.244 43.7676 189.714 43.9736V45.0888C189.208 44.7574 188.625 44.5917 187.967 44.5917C187.761 44.5917 187.575 44.6163 187.409 44.6656C187.244 44.7104 187.1 44.7753 186.979 44.8604C186.863 44.9455 186.771 45.0485 186.704 45.1694C186.641 45.2859 186.61 45.4158 186.61 45.5591C186.61 45.7383 186.641 45.8883 186.704 46.0092C186.771 46.1302 186.867 46.2377 186.993 46.3317C187.118 46.4258 187.271 46.5109 187.45 46.587C187.629 46.6631 187.833 46.746 188.061 46.8356C188.366 46.952 188.639 47.073 188.881 47.1984C189.123 47.3193 189.329 47.4581 189.499 47.6149C189.669 47.7672 189.799 47.9441 189.888 48.1456C189.983 48.3472 190.03 48.5868 190.03 48.8645C190.03 49.2049 189.953 49.5005 189.801 49.7513C189.653 50.0021 189.454 50.2104 189.203 50.3761C188.952 50.5418 188.664 50.665 188.337 50.7456C188.01 50.8262 187.667 50.8666 187.309 50.8666C186.601 50.8666 185.987 50.7299 185.468 50.4567Z" fill="#797979"/>
<path d="M180.698 50.8666C179.681 50.8666 178.869 50.5463 178.259 49.9058C177.655 49.2609 177.352 48.4077 177.352 47.3462C177.352 46.1906 177.668 45.2881 178.3 44.6387C178.931 43.9893 179.784 43.6646 180.859 43.6646C181.885 43.6646 182.685 43.9803 183.258 44.6118C183.836 45.2433 184.124 46.119 184.124 47.2387C184.124 48.336 183.813 49.2161 183.191 49.879C182.573 50.5374 181.742 50.8666 180.698 50.8666ZM180.779 44.5917C180.071 44.5917 179.511 44.8335 179.099 45.3172C178.687 45.7965 178.481 46.4594 178.481 47.3059C178.481 48.121 178.689 48.7637 179.106 49.234C179.522 49.7043 180.08 49.9394 180.779 49.9394C181.491 49.9394 182.037 49.7088 182.418 49.2474C182.803 48.7861 182.996 48.13 182.996 47.279C182.996 46.419 182.803 45.7562 182.418 45.2904C182.037 44.8246 181.491 44.5917 180.779 44.5917Z" fill="#797979"/>
<path d="M175.74 50.7053H174.638V46.755C174.638 45.9936 174.519 45.4427 174.282 45.1023C174.049 44.7619 173.655 44.5917 173.099 44.5917C172.629 44.5917 172.228 44.8067 171.897 45.2366C171.57 45.6666 171.406 46.1817 171.406 46.7818V50.7053H170.305V46.6206C170.305 45.268 169.783 44.5917 168.739 44.5917C168.256 44.5917 167.857 44.7955 167.543 45.203C167.23 45.6061 167.073 46.1324 167.073 46.7818V50.7053H165.971V43.8258H167.073V44.9142H167.1C167.588 44.0811 168.3 43.6646 169.236 43.6646C169.707 43.6646 170.117 43.7967 170.466 44.0609C170.815 44.3207 171.055 44.6633 171.185 45.0888C171.695 44.1393 172.457 43.6646 173.469 43.6646C174.983 43.6646 175.74 44.5984 175.74 46.4661V50.7053Z" fill="#797979"/>
<path d="M158.528 50.7052H157.426V42.3813C157.341 42.4664 157.215 42.5649 157.05 42.6769C156.888 42.7843 156.705 42.8918 156.499 42.9993C156.297 43.1068 156.082 43.2076 155.854 43.3017C155.63 43.3957 155.41 43.4696 155.195 43.5234V42.4081C155.437 42.3409 155.692 42.2514 155.961 42.1394C156.234 42.0229 156.501 41.8953 156.761 41.7565C157.025 41.6131 157.274 41.4653 157.506 41.313C157.739 41.1563 157.941 41.004 158.111 40.8562H158.528V50.7052Z" fill="#797979"/>
<path d="M144.742 50.4567V49.2743C145.342 49.7177 146.002 49.9394 146.724 49.9394C147.691 49.9394 148.175 49.617 148.175 48.972C148.175 48.7884 148.132 48.6338 148.047 48.5084C147.966 48.3785 147.854 48.2643 147.711 48.1658C147.572 48.0673 147.407 47.9799 147.214 47.9038C147.026 47.8232 146.822 47.7403 146.603 47.6552C146.298 47.5343 146.029 47.4134 145.796 47.2924C145.568 47.167 145.375 47.0282 145.219 46.8759C145.066 46.7191 144.95 46.5422 144.869 46.3451C144.793 46.1481 144.755 45.9174 144.755 45.6532C144.755 45.3307 144.829 45.0463 144.977 44.7999C145.125 44.5491 145.322 44.3409 145.568 44.1751C145.814 44.0049 146.094 43.8773 146.408 43.7922C146.726 43.7071 147.053 43.6646 147.389 43.6646C147.984 43.6646 148.517 43.7676 148.988 43.9736V45.0888C148.481 44.7574 147.899 44.5917 147.241 44.5917C147.035 44.5917 146.849 44.6163 146.683 44.6656C146.517 44.7104 146.374 44.7753 146.253 44.8604C146.137 44.9455 146.045 45.0485 145.978 45.1694C145.915 45.2859 145.884 45.4158 145.884 45.5591C145.884 45.7383 145.915 45.8883 145.978 46.0092C146.045 46.1302 146.141 46.2377 146.267 46.3317C146.392 46.4258 146.544 46.5109 146.724 46.587C146.903 46.6631 147.106 46.746 147.335 46.8356C147.639 46.952 147.913 47.073 148.154 47.1984C148.396 47.3193 148.602 47.4581 148.773 47.6149C148.943 47.7672 149.073 47.9441 149.162 48.1456C149.256 48.3472 149.303 48.5868 149.303 48.8645C149.303 49.2049 149.227 49.5005 149.075 49.7513C148.927 50.0021 148.728 50.2104 148.477 50.3761C148.226 50.5418 147.937 50.665 147.61 50.7456C147.283 50.8262 146.941 50.8666 146.582 50.8666C145.875 50.8666 145.261 50.7299 144.742 50.4567Z" fill="#797979"/>
<path d="M143.963 44.941C143.77 44.7932 143.493 44.7193 143.13 44.7193C142.66 44.7193 142.265 44.941 141.947 45.3844C141.634 45.8278 141.477 46.4325 141.477 47.1983V50.7053H140.375V43.8258H141.477V45.2433H141.504C141.661 44.7596 141.9 44.3834 142.223 44.1146C142.545 43.8414 142.906 43.7048 143.305 43.7048C143.591 43.7048 143.811 43.7362 143.963 43.7989V44.941Z" fill="#797979"/>
<path d="M139.186 43.8257L136.022 51.807C135.457 53.2313 134.665 53.9434 133.643 53.9434C133.357 53.9434 133.117 53.9143 132.925 53.8561V52.8685C133.162 52.9491 133.379 52.9894 133.576 52.9894C134.132 52.9894 134.548 52.658 134.826 51.9951L135.377 50.6918L132.689 43.8257H133.912L135.773 49.1197C135.795 49.1869 135.842 49.3616 135.914 49.6437H135.954C135.977 49.5362 136.022 49.366 136.089 49.1331L138.044 43.8257H139.186Z" fill="#797979"/>
<path d="M126.267 50.7052H125.165V42.3813C125.08 42.4664 124.954 42.5649 124.789 42.6769C124.627 42.7843 124.444 42.8918 124.238 42.9993C124.036 43.1068 123.821 43.2076 123.593 43.3017C123.369 43.3957 123.149 43.4696 122.934 43.5234V42.4081C123.176 42.3409 123.431 42.2514 123.7 42.1394C123.973 42.0229 124.24 41.8953 124.5 41.7565C124.764 41.6131 125.013 41.4653 125.245 41.313C125.478 41.1563 125.68 41.004 125.85 40.8562H126.267V50.7052Z" fill="#797979"/>
<path d="M113.495 50.638C113.235 50.7813 112.893 50.853 112.467 50.853C111.263 50.853 110.66 50.1812 110.66 48.8375V44.7662H109.478V43.8257H110.66V42.1461L111.762 41.79V43.8257H113.495V44.7662H111.762V48.6427C111.762 49.104 111.84 49.4332 111.997 49.6303C112.154 49.8273 112.414 49.9259 112.776 49.9259C113.054 49.9259 113.294 49.8497 113.495 49.6975V50.638Z" fill="#797979"/>
<path d="M108.221 50.7053H107.12V46.7818C107.12 45.3217 106.587 44.5917 105.521 44.5917C104.97 44.5917 104.513 44.7999 104.15 45.2165C103.792 45.6285 103.613 46.1503 103.613 46.7818V50.7053H102.511V43.8258H103.613V44.9679H103.64C104.159 44.099 104.912 43.6646 105.897 43.6646C106.649 43.6646 107.225 43.9086 107.624 44.3968C108.022 44.8806 108.221 45.5815 108.221 46.4997V50.7053Z" fill="#797979"/>
<path d="M100.838 47.541H95.9805C95.9985 48.3069 96.2045 48.8981 96.5986 49.3146C96.9928 49.7312 97.5347 49.9394 98.2245 49.9394C98.9993 49.9394 99.7114 49.6841 100.361 49.1735V50.2082C99.7562 50.6471 98.9567 50.8666 97.9624 50.8666C96.9905 50.8666 96.2269 50.5553 95.6715 49.9327C95.1161 49.3057 94.8384 48.4256 94.8384 47.2924C94.8384 46.222 95.1408 45.3508 95.7454 44.679C96.3545 44.0027 97.1092 43.6646 98.0095 43.6646C98.9097 43.6646 99.6062 43.9557 100.099 44.5379C100.592 45.1202 100.838 45.9286 100.838 46.9632V47.541ZM99.7092 46.6072C99.7047 45.9712 99.5502 45.4762 99.2456 45.1224C98.9456 44.7686 98.5268 44.5917 97.9893 44.5917C97.4698 44.5917 97.0286 44.7775 96.6658 45.1493C96.303 45.521 96.0791 46.007 95.994 46.6072H99.7092Z" fill="#797979"/>
<path d="M89.0473 50.4567V49.2743C89.6474 49.7177 90.3081 49.9394 91.0292 49.9394C91.9966 49.9394 92.4803 49.617 92.4803 48.972C92.4803 48.7884 92.4378 48.6338 92.3527 48.5084C92.272 48.3785 92.1601 48.2643 92.0168 48.1658C91.8779 48.0673 91.7122 47.9799 91.5196 47.9038C91.3315 47.8232 91.1277 47.7403 90.9082 47.6552C90.6037 47.5343 90.3349 47.4134 90.102 47.2924C89.8736 47.167 89.681 47.0282 89.5243 46.8759C89.372 46.7191 89.2555 46.5422 89.1749 46.3451C89.0988 46.1481 89.0607 45.9174 89.0607 45.6532C89.0607 45.3307 89.1346 45.0463 89.2824 44.7999C89.4302 44.5491 89.6273 44.3409 89.8736 44.1751C90.12 44.0049 90.3999 43.8773 90.7134 43.7922C91.0314 43.7071 91.3584 43.6646 91.6943 43.6646C92.29 43.6646 92.8229 43.7676 93.2932 43.9736V45.0888C92.7871 44.7574 92.2049 44.5917 91.5465 44.5917C91.3404 44.5917 91.1546 44.6163 90.9889 44.6656C90.8231 44.7104 90.6798 44.7753 90.5589 44.8604C90.4424 44.9455 90.3506 45.0485 90.2834 45.1694C90.2207 45.2859 90.1894 45.4158 90.1894 45.5591C90.1894 45.7383 90.2207 45.8883 90.2834 46.0092C90.3506 46.1302 90.4469 46.2377 90.5723 46.3317C90.6977 46.4258 90.85 46.5109 91.0292 46.587C91.2083 46.6631 91.4121 46.746 91.6405 46.8356C91.9451 46.952 92.2183 47.073 92.4602 47.1984C92.702 47.3193 92.908 47.4581 93.0782 47.6149C93.2484 47.7672 93.3783 47.9441 93.4679 48.1456C93.562 48.3472 93.609 48.5868 93.609 48.8645C93.609 49.2049 93.5328 49.5005 93.3806 49.7513C93.2328 50.0021 93.0335 50.2104 92.7826 50.3761C92.5318 50.5418 92.2429 50.665 91.916 50.7456C91.589 50.8262 91.2464 50.8666 90.8881 50.8666C90.1804 50.8666 89.5668 50.7299 89.0473 50.4567Z" fill="#797979"/>
<path d="M87.7911 47.541H82.9338C82.9517 48.3069 83.1577 48.8981 83.5519 49.3146C83.946 49.7312 84.488 49.9394 85.1777 49.9394C85.9525 49.9394 86.6647 49.6841 87.3141 49.1735V50.2082C86.7095 50.6471 85.91 50.8666 84.9157 50.8666C83.9438 50.8666 83.1801 50.5553 82.6248 49.9327C82.0694 49.3057 81.7917 48.4256 81.7917 47.2924C81.7917 46.222 82.094 45.3508 82.6987 44.679C83.3078 44.0027 84.0625 43.6646 84.9627 43.6646C85.863 43.6646 86.5594 43.9557 87.0521 44.5379C87.5448 45.1202 87.7911 45.9286 87.7911 46.9632V47.541ZM86.6624 46.6072C86.658 45.9712 86.5034 45.4762 86.1989 45.1224C85.8988 44.7686 85.48 44.5917 84.9426 44.5917C84.423 44.5917 83.9818 44.7775 83.6191 45.1493C83.2563 45.521 83.0323 46.007 82.9472 46.6072H86.6624Z" fill="#797979"/>
<path d="M81.0656 44.941C80.873 44.7932 80.5953 44.7193 80.2325 44.7193C79.7622 44.7193 79.3681 44.941 79.0501 45.3844C78.7366 45.8278 78.5798 46.4325 78.5798 47.1983V50.7053H77.478V43.8258H78.5798V45.2433H78.6067C78.7634 44.7596 79.003 44.3834 79.3255 44.1146C79.648 43.8414 80.0086 43.7048 80.4072 43.7048C80.6938 43.7048 80.9133 43.7362 81.0656 43.7989V44.941Z" fill="#797979"/>
<path d="M71.0423 47.064V50.7053H69.9136V41.0713H72.5606C73.5907 41.0713 74.388 41.3221 74.9523 41.8237C75.5211 42.3254 75.8055 43.033 75.8055 43.9467C75.8055 44.8604 75.4898 45.6084 74.8583 46.1906C74.2312 46.7729 73.3825 47.064 72.312 47.064H71.0423ZM71.0423 42.0925V46.0428H72.2247C73.004 46.0428 73.5975 45.8659 74.005 45.5121C74.4171 45.1538 74.6231 44.6499 74.6231 44.0005C74.6231 42.7285 73.8707 42.0925 72.3658 42.0925H71.0423Z" fill="#797979"/>
<path d="M64.0014 47.3059H60.3333V46.4392H64.0014V47.3059Z" fill="#797979"/>
<path d="M53.0372 50.7052H51.9354V42.3813C51.8503 42.4664 51.7249 42.5649 51.5591 42.6769C51.3979 42.7843 51.2143 42.8918 51.0082 42.9993C50.8067 43.1068 50.5917 43.2076 50.3633 43.3017C50.1393 43.3957 49.9199 43.4696 49.7049 43.5234V42.4081C49.9468 42.3409 50.202 42.2514 50.4708 42.1394C50.744 42.0229 51.0105 41.8953 51.2703 41.7565C51.5345 41.6131 51.7831 41.4653 52.016 41.313C52.2489 41.1563 52.4504 41.004 52.6206 40.8562H53.0372V50.7052Z" fill="#797979"/>
<path d="M45.9431 43.5972C45.9431 43.3016 45.8961 43.0441 45.802 42.8246C45.7125 42.6052 45.587 42.4238 45.4258 42.2804C45.269 42.1326 45.0832 42.0229 44.8682 41.9512C44.6532 41.8796 44.4203 41.8438 44.1695 41.8438C43.9545 41.8438 43.744 41.8729 43.538 41.9311C43.3319 41.9893 43.1304 42.0699 42.9333 42.173C42.7407 42.276 42.5526 42.3991 42.369 42.5425C42.1898 42.6858 42.0219 42.8448 41.8651 43.0195V41.837C42.1742 41.537 42.519 41.3085 42.8997 41.1518C43.2849 40.9905 43.753 40.9099 44.3039 40.9099C44.698 40.9099 45.063 40.9681 45.3989 41.0846C45.7348 41.1966 46.026 41.3623 46.2723 41.5817C46.5186 41.8012 46.7112 42.0722 46.8501 42.3947C46.9934 42.7171 47.0651 43.0866 47.0651 43.5032C47.0651 43.8839 47.0203 44.2287 46.9307 44.5378C46.8456 44.8468 46.7135 45.138 46.5343 45.4112C46.3596 45.6844 46.1379 45.9464 45.8692 46.1972C45.6005 46.448 45.2847 46.7033 44.9219 46.9631C44.4696 47.2856 44.0956 47.561 43.8 47.7894C43.5089 48.0179 43.276 48.2328 43.1013 48.4344C42.9311 48.6315 42.8102 48.8308 42.7385 49.0323C42.6713 49.2294 42.6377 49.4578 42.6377 49.7176H47.4346V50.7052H41.4889V50.2282C41.4889 49.8161 41.5337 49.4533 41.6233 49.1398C41.7128 48.8263 41.8606 48.5284 42.0667 48.2463C42.2727 47.9641 42.5414 47.6819 42.8729 47.3998C43.2088 47.1176 43.6186 46.7996 44.1023 46.4458C44.4517 46.195 44.7428 45.9553 44.9757 45.7269C45.2131 45.4985 45.4034 45.2701 45.5467 45.0417C45.6901 44.8132 45.7908 44.5826 45.8491 44.3497C45.9118 44.1123 45.9431 43.8615 45.9431 43.5972Z" fill="#797979"/>
<path d="M40.1919 45.8479C40.1919 46.654 40.118 47.3684 39.9702 47.991C39.8268 48.6135 39.6163 49.1398 39.3386 49.5698C39.0654 49.9953 38.7273 50.32 38.3242 50.5439C37.9256 50.7634 37.471 50.8731 36.9604 50.8731C36.4767 50.8731 36.0444 50.7679 35.6637 50.5574C35.2875 50.3424 34.9695 50.0311 34.7098 49.6235C34.45 49.216 34.2529 48.7166 34.1185 48.1254C33.9842 47.5297 33.917 46.8489 33.917 46.083C33.917 45.241 33.9864 44.4975 34.1253 43.8525C34.2686 43.2076 34.4768 42.6679 34.7501 42.2334C35.0233 41.7945 35.3614 41.4653 35.7645 41.2458C36.1721 41.0219 36.6379 40.9099 37.1619 40.9099C39.1819 40.9099 40.1919 42.5559 40.1919 45.8479ZM39.0632 45.9553C39.0632 43.2143 38.4115 41.8438 37.1082 41.8438C35.7332 41.8438 35.0457 43.2389 35.0457 46.0292C35.0457 48.6315 35.7197 49.9326 37.0679 49.9326C38.3981 49.9326 39.0632 48.6068 39.0632 45.9553Z" fill="#797979"/>
<path d="M31.1086 43.5972C31.1086 43.3016 31.0616 43.0441 30.9676 42.8246C30.878 42.6052 30.7526 42.4238 30.5913 42.2804C30.4346 42.1326 30.2487 42.0229 30.0337 41.9512C29.8187 41.8796 29.5858 41.8438 29.335 41.8438C29.12 41.8438 28.9095 41.8729 28.7035 41.9311C28.4975 41.9893 28.2959 42.0699 28.0989 42.173C27.9063 42.276 27.7181 42.3991 27.5345 42.5425C27.3554 42.6858 27.1874 42.8448 27.0306 43.0195V41.837C27.3397 41.537 27.6846 41.3085 28.0653 41.1518C28.4504 40.9905 28.9185 40.9099 29.4694 40.9099C29.8635 40.9099 30.2285 40.9681 30.5645 41.0846C30.9004 41.1966 31.1915 41.3623 31.4378 41.5817C31.6842 41.8012 31.8768 42.0722 32.0156 42.3947C32.1589 42.7171 32.2306 43.0866 32.2306 43.5032C32.2306 43.8839 32.1858 44.2287 32.0962 44.5378C32.0111 44.8468 31.879 45.138 31.6999 45.4112C31.5252 45.6844 31.3035 45.9464 31.0347 46.1972C30.766 46.448 30.4503 46.7033 30.0875 46.9631C29.6351 47.2856 29.2611 47.561 28.9655 47.7894C28.6744 48.0179 28.4415 48.2328 28.2668 48.4344C28.0966 48.6315 27.9757 48.8308 27.904 49.0323C27.8368 49.2294 27.8032 49.4578 27.8032 49.7176H32.6001V50.7052H26.6544V50.2282C26.6544 49.8161 26.6992 49.4533 26.7888 49.1398C26.8784 48.8263 27.0262 48.5284 27.2322 48.2463C27.4382 47.9641 27.707 47.6819 28.0384 47.3998C28.3743 47.1176 28.7841 46.7996 29.2678 46.4458C29.6172 46.195 29.9083 45.9553 30.1412 45.7269C30.3786 45.4985 30.5689 45.2701 30.7123 45.0417C30.8556 44.8132 30.9564 44.5826 31.0146 44.3497C31.0773 44.1123 31.1086 43.8615 31.1086 43.5972Z" fill="#797979"/>
<path d="M16.3019 49.7109H16.275V50.7052H15.1732V40.5203H16.275V45.035H16.3019C16.8438 44.1213 17.6366 43.6644 18.6802 43.6644C19.5625 43.6644 20.2522 43.9735 20.7494 44.5915C21.251 45.2051 21.5018 46.0293 21.5018 47.0639C21.5018 48.2149 21.2219 49.1376 20.6621 49.8318C20.1022 50.5216 19.3363 50.8664 18.3644 50.8664C17.4552 50.8664 16.7677 50.4812 16.3019 49.7109ZM16.275 46.9362V47.8969C16.275 48.4658 16.4587 48.9495 16.8259 49.3481C17.1977 49.7422 17.6679 49.9393 18.2368 49.9393C18.9041 49.9393 19.4259 49.684 19.8021 49.1734C20.1828 48.6628 20.3732 47.9529 20.3732 47.0437C20.3732 46.2778 20.1963 45.6777 19.8424 45.2432C19.4886 44.8088 19.0094 44.5915 18.4047 44.5915C17.7642 44.5915 17.2492 44.8155 16.8595 45.2634C16.4698 45.7068 16.275 46.2644 16.275 46.9362Z" fill="#797979"/>
<path d="M13.4996 47.541H8.64232C8.66024 48.3069 8.86627 48.8981 9.2604 49.3146C9.65454 49.7312 10.1965 49.9394 10.8862 49.9394C11.6611 49.9394 12.3732 49.6841 13.0226 49.1735V50.2082C12.418 50.6471 11.6185 50.8666 10.6242 50.8666C9.6523 50.8666 8.88866 50.5553 8.33328 49.9327C7.7779 49.3057 7.50021 48.4256 7.50021 47.2924C7.50021 46.222 7.80254 45.3508 8.40718 44.679C9.01631 44.0027 9.77099 43.6646 10.6712 43.6646C11.5715 43.6646 12.268 43.9557 12.7606 44.5379C13.2533 45.1202 13.4996 45.9286 13.4996 46.9632V47.541ZM12.371 46.6072C12.3665 45.9712 12.212 45.4762 11.9074 45.1224C11.6073 44.7686 11.1886 44.5917 10.6511 44.5917C10.1315 44.5917 9.69038 44.7775 9.32759 45.1493C8.9648 45.521 8.74086 46.007 8.65576 46.6072H12.371Z" fill="#797979"/>
<path d="M6.29167 42.0925H2.52943V45.4247H6.0095V46.4392H2.52943V50.7053H1.40076V41.0713H6.29167V42.0925Z" fill="#797979"/>
</svg>
