<svg width="34" height="38" viewBox="0 0 34 38" fill="none" xmlns="http://www.w3.org/2000/svg">
<path d="M18.3731 0.538831C18.474 0.86664 18.2874 1.21967 17.9596 1.32053C17.6318 1.42139 17.2788 1.23479 17.1779 0.906983C17.077 0.579175 17.2636 0.226156 17.5914 0.125292C17.9193 0.0244276 18.2723 0.211022 18.3731 0.538831Z" fill="#647D93"/>
<path d="M16.0681 2.11233C16.1539 2.39475 15.9975 2.6923 15.7151 2.77803C15.4327 2.86377 15.1351 2.70743 15.0494 2.42501C14.9637 2.14259 15.12 1.84504 15.4024 1.7593C15.6798 1.67357 15.9774 1.82991 16.0681 2.11233Z" fill="#647D93"/>
<path d="M14.6008 4.29592C14.6714 4.52286 14.5454 4.76494 14.3184 4.8305C14.0915 4.90111 13.8494 4.77502 13.7838 4.54808C13.7132 4.32113 13.8393 4.07906 14.0662 4.0135C14.2932 3.94289 14.5302 4.06897 14.6008 4.29592Z" fill="#647D93"/>
<path d="M19.9672 0.906936C20.053 1.18936 20.3505 1.3457 20.6329 1.25997C20.9153 1.17423 21.0717 0.876679 20.9859 0.594259C20.9002 0.311839 20.6027 0.155501 20.3202 0.241236C20.0378 0.32697 19.8815 0.624516 19.9672 0.906936Z" fill="#647D93"/>
<path d="M22.4082 1.89037C22.4788 2.11732 22.7209 2.24339 22.9428 2.17279C23.1698 2.10218 23.2958 1.86011 23.2252 1.63821C23.1546 1.41127 22.9126 1.28518 22.6907 1.35578C22.4637 1.42135 22.3376 1.66343 22.4082 1.89037Z" fill="#647D93"/>
<path d="M16.1189 7.25624C16.4921 7.0999 16.8653 6.9486 17.2435 6.80235L17.7226 6.62079C19.3112 6.01056 21.0411 5.34991 22.7961 5.09775C22.6246 4.32109 22.4229 2.97456 22.7759 1.89027C22.7759 1.89027 21.7118 3.0149 21.3537 4.09919L20.4258 0.765625L19.8307 3.82686L17.8537 0.982487L17.8487 0.967358V0.972398L17.8437 0.967358L17.8487 0.982487L17.8184 4.44213L15.5994 2.24833L16.714 5.52642C15.8062 4.83045 14.2932 4.50265 14.2932 4.50265C15.2313 5.23391 15.8365 6.53002 16.1189 7.25624Z" fill="#647D93"/>
<path d="M11.1415 10.8674C10.8843 11.0288 10.6321 11.1952 10.38 11.3616C6.10334 14.2262 2.05364 18.3515 0.47512 23.8637C-0.730207 28.0748 0.359127 32.6894 3.72799 35.1252C5.96213 36.7391 8.89224 37.0316 11.3382 35.8817C13.5875 34.8277 15.3022 32.7196 16.8958 30.6317C19.5687 27.1217 22.1004 23.4704 24.4858 19.7031C25.5046 18.0893 26.5183 17.0251 27.8093 15.7744C28.9894 14.6347 29.8014 12.6375 29.6551 10.8674C29.4534 8.3609 27.3353 6.47475 25.1465 6.08138C22.635 5.63253 19.831 6.81264 17.4607 7.71537C15.2769 8.5475 13.1537 9.59649 11.1415 10.8674Z" fill="white"/>
<path d="M17.4152 31.1563C19.2963 30.7075 21.2934 30.8538 23.235 30.879C26.5938 30.9244 29.0246 30.3141 31.2184 27.4092C34.0527 23.652 34.4562 18.4273 31.4958 14.5944C29.7509 12.3351 27.0074 11.1197 24.3748 11.4374C18.0153 12.214 11.9635 15.24 7.36406 20.384C5.31147 22.6787 3.30427 25.7399 3.07733 29.1189C2.88569 31.8977 4.78193 35.4078 7.32875 35.8163C8.91232 36.0735 10.4908 35.3119 11.8626 34.3739C13.2344 33.4308 14.5103 32.286 16.0031 31.6254C16.462 31.4236 16.9361 31.2673 17.4152 31.1563Z" fill="white"/>
<path d="M22.6999 11.871C19.6941 9.39987 15.947 8.09368 12.2403 8.36097C9.26476 8.57783 6.28926 9.81846 4.13077 12.1585C1.97227 14.5036 0.72156 18.0086 1.18049 21.3624C1.38726 22.8703 3.04144 24.4942 4.34763 24.706C7.81736 25.2759 10.2936 26.3804 13.0522 29.0079C15.5839 31.4185 17.9088 34.2276 20.9045 35.8162C24.7928 37.8839 27.8742 35.9524 28.8728 31.353C30.0932 25.7449 28.8828 19.5165 25.6703 15.0483C24.8079 13.848 23.8043 12.7788 22.6999 11.871Z" fill="white"/>
<path d="M16.7448 37.6267C19.7808 36.3205 17.5063 32.8609 15.0553 34.505C14.2837 35.0244 12.4227 36.5928 13.6382 37.6267C14.2837 38.1714 15.6504 38.0957 16.7448 37.6267Z" fill="white"/>
<path d="M11.1415 10.8674C10.8843 11.0288 10.6321 11.1952 10.38 11.3616C6.10334 14.2262 2.05364 18.3515 0.47512 23.8637C-0.730207 28.0748 0.359127 32.6894 3.72799 35.1252C5.96213 36.7391 8.89224 37.0316 11.3382 35.8817C13.5875 34.8277 15.3022 32.7196 16.8958 30.6317C19.5687 27.1217 22.1004 23.4704 24.4858 19.7031C25.5046 18.0893 26.5183 17.0251 27.8093 15.7744C28.9894 14.6347 29.8014 12.6375 29.6551 10.8674C29.4534 8.3609 27.3353 6.47475 25.1465 6.08138C22.635 5.63253 19.831 6.81264 17.4607 7.71537C15.2769 8.5475 13.1537 9.59649 11.1415 10.8674Z" fill="#8AA0BA"/>
<path d="M17.4152 31.1563C19.2963 30.7075 21.2934 30.8538 23.235 30.879C26.5938 30.9244 29.0246 30.3141 31.2184 27.4092C34.0527 23.652 34.4562 18.4273 31.4958 14.5944C29.7509 12.3351 27.0074 11.1197 24.3748 11.4374C18.0153 12.214 11.9635 15.24 7.36406 20.384C5.31147 22.6787 3.30427 25.7399 3.07733 29.1189C2.88569 31.8977 4.78193 35.4078 7.32875 35.8163C8.91232 36.0735 10.4908 35.3119 11.8626 34.3739C13.2344 33.4308 14.5103 32.286 16.0031 31.6254C16.462 31.4236 16.9361 31.2673 17.4152 31.1563Z" fill="#DEEBFB"/>
<path d="M22.6999 11.871C19.6941 9.39987 15.947 8.09368 12.2403 8.36097C9.26476 8.57783 6.28926 9.81846 4.13077 12.1585C1.97227 14.5036 0.72156 18.0086 1.18049 21.3624C1.38726 22.8703 3.04144 24.4942 4.34763 24.706C7.81736 25.2759 10.2936 26.3804 13.0522 29.0079C15.5839 31.4185 17.9088 34.2276 20.9045 35.8162C24.7928 37.8839 27.8742 35.9524 28.8728 31.353C30.0932 25.7449 28.8828 19.5165 25.6703 15.0483C24.8079 13.848 23.8043 12.7788 22.6999 11.871Z" fill="#B3C9E1"/>
<path d="M16.7448 37.6267C19.7808 36.3205 17.5063 32.8609 15.0553 34.505C14.2837 35.0244 12.4227 36.5928 13.6382 37.6267C14.2837 38.1714 15.6504 38.0957 16.7448 37.6267Z" fill="#8AA0BA"/>
<path d="M27.6729 32.1094L18.2573 19.2189L28.1621 9.1325C27.3804 7.51867 25.7767 6.3789 24.1326 6.08639C23.9914 6.06118 23.8451 6.04101 23.6989 6.02588L11.0505 19.3904V8.38106C8.99287 8.55757 6.94029 9.22832 5.17012 10.4135C5.16508 10.4841 5.16003 10.5496 5.16003 10.6202V36.3053C6.86464 36.7743 8.70037 36.6533 10.3243 35.8918C10.5714 35.7758 10.8135 35.6447 11.0505 35.5034V26.2643C11.0505 25.2909 11.6002 24.5698 12.7047 24.1865C13.8041 23.8032 14.9943 24.484 16.2652 26.1785L23.6837 36.5726C25.5346 36.2045 26.9467 34.631 27.6729 32.1094Z" fill="white"/>
</svg>
