<svg width="97" height="23" viewBox="0 0 97 23" fill="none" xmlns="http://www.w3.org/2000/svg">
<path d="M11.2791 0.357178C8.27132 0.357178 5.37099 1.53879 3.33001 3.68719C1.18162 5.83558 0 8.6285 0 11.6363C0 14.644 1.18162 17.5443 3.33001 19.5853C5.47841 21.7337 8.27132 22.9153 11.2791 22.9153C14.2868 22.9153 17.1872 21.7337 19.2281 19.5853C21.2691 17.4369 22.5581 14.644 22.5581 11.6363C22.5581 8.6285 21.3765 5.72816 19.2281 3.68719C17.0797 1.53879 14.2868 0.357178 11.2791 0.357178Z" fill="white"/>
<path d="M11.2791 2.07593C8.70103 2.07593 6.3378 3.04271 4.51166 4.86884C2.68553 6.69498 1.71875 9.05821 1.71875 11.6363C1.71875 14.2144 2.68553 16.5776 4.51166 18.4037C6.3378 20.2299 8.70103 21.1966 11.2791 21.1966C13.8572 21.1966 16.2204 20.2299 18.0465 18.4037C19.8727 16.5776 20.8395 14.2144 20.8395 11.6363C20.8395 9.05821 19.8727 6.69498 18.0465 4.86884C16.2204 3.15013 13.7498 2.07593 11.2791 2.07593Z" fill="url(#paint0_linear_2_4205)"/>
<path d="M16.2204 10.8847C16.4352 10.9921 16.65 11.2069 16.65 11.6366C16.65 12.1737 16.3278 12.3885 16.1129 12.496C16.2204 12.7108 16.2204 12.9256 16.2204 13.1405C16.1129 13.5702 15.7907 13.8924 15.4684 13.9998C15.5758 14.2147 15.6833 14.4295 15.4684 14.7518C15.2536 15.074 15.0387 15.2889 14.1794 15.2889H10.742C9.56034 15.2889 8.91582 14.6444 8.91582 14.1073V11.3143C8.91582 9.81047 10.6345 8.62885 10.6345 7.55465L10.5271 6.26561C10.5271 6.15819 10.5271 6.05078 10.6345 5.94336C10.742 5.83594 10.9568 5.72852 11.3865 5.72852C11.6013 5.72852 11.8162 5.72851 12.031 5.83593C12.6755 6.15819 12.8904 7.01755 12.8904 7.66207C12.8904 7.98433 12.3533 8.95111 12.3533 9.27337C12.3533 9.27337 13.4275 9.05853 14.6091 9.05853C15.8981 9.05853 16.65 9.27337 16.65 10.0253C16.65 10.3476 16.3278 10.6698 16.2204 10.8847ZM6.01549 10.455H6.98226C7.1971 10.455 7.30452 10.5624 7.51936 10.6698C7.7342 10.7772 7.7342 10.9921 7.7342 11.2069V15.7186C7.7342 15.9334 7.62678 16.0408 7.51936 16.2556C7.41194 16.3631 7.1971 16.4705 6.98226 16.4705H6.01549C5.80065 16.4705 5.69323 16.3631 5.47839 16.2556C5.37097 16.1482 5.26355 15.9334 5.26355 15.7186V11.2069C5.26355 10.9921 5.37097 10.8847 5.47839 10.6698C5.69323 10.5624 5.80065 10.455 6.01549 10.455Z" fill="white"/>
<path d="M85.721 0.357178C82.7132 0.357178 79.8129 1.53879 77.7719 3.68719C75.6235 5.83558 74.4419 8.6285 74.4419 11.6363C74.4419 14.644 75.6235 17.5443 77.7719 19.5853C79.9203 21.7337 82.7132 22.9153 85.721 22.9153C88.7287 22.9153 91.6291 21.7337 93.67 19.5853C95.711 17.4369 97 14.644 97 11.6363C97 8.6285 95.8184 5.72816 93.67 3.68719C91.5216 1.53879 88.7287 0.357178 85.721 0.357178Z" fill="white"/>
<path fill-rule="evenodd" clip-rule="evenodd" d="M95.2814 11.6363C95.2814 16.8999 90.9846 21.1966 85.721 21.1966C80.4574 21.1966 76.1606 16.8999 76.1606 11.6363C76.1606 6.37272 80.4574 2.07593 85.721 2.07593C90.9846 2.07593 95.2814 6.37272 95.2814 11.6363Z" fill="url(#paint1_linear_2_4205)"/>
<path fill-rule="evenodd" clip-rule="evenodd" d="M95.2814 11.6363C95.2814 16.8999 90.9846 21.1966 85.721 21.1966C80.4574 21.1966 76.1606 16.8999 76.1606 11.6363C76.1606 6.37272 80.4574 2.07593 85.721 2.07593C90.9846 2.07593 95.2814 6.37272 95.2814 11.6363Z" fill="url(#paint2_radial_2_4205)"/>
<path fill-rule="evenodd" clip-rule="evenodd" d="M95.2814 11.6363C95.2814 16.8999 90.9846 21.1966 85.721 21.1966C80.4574 21.1966 76.1606 16.8999 76.1606 11.6363C76.1606 6.37272 80.4574 2.07593 85.721 2.07593C90.9846 2.07593 95.2814 6.37272 95.2814 11.6363Z" fill="url(#paint3_radial_2_4205)"/>
<path fill-rule="evenodd" clip-rule="evenodd" d="M95.2814 11.6363C95.2814 16.8999 90.9846 21.1966 85.721 21.1966C80.4574 21.1966 76.1606 16.8999 76.1606 11.6363C76.1606 6.37272 80.4574 2.07593 85.721 2.07593C90.9846 2.07593 95.2814 6.37272 95.2814 11.6363Z" fill="url(#paint4_radial_2_4205)"/>
<path fill-rule="evenodd" clip-rule="evenodd" d="M95.2814 11.6363C95.2814 16.8999 90.9846 21.1966 85.721 21.1966C80.4574 21.1966 76.1606 16.8999 76.1606 11.6363C76.1606 6.37272 80.4574 2.07593 85.721 2.07593C90.9846 2.07593 95.2814 6.37272 95.2814 11.6363Z" fill="url(#paint5_radial_2_4205)"/>
<path fill-rule="evenodd" clip-rule="evenodd" d="M95.2814 11.6363C95.2814 16.8999 90.9846 21.1966 85.721 21.1966C80.4574 21.1966 76.1606 16.8999 76.1606 11.6363C76.1606 6.37272 80.4574 2.07593 85.721 2.07593C90.9846 2.07593 95.2814 6.37272 95.2814 11.6363Z" fill="url(#paint6_radial_2_4205)"/>
<path fill-rule="evenodd" clip-rule="evenodd" d="M87.762 9.16528C87.6546 8.84302 83.7875 8.84302 83.6801 9.16528C83.5726 9.48754 84.432 10.0246 85.721 10.0246C87.0101 10.0246 87.9769 9.48754 87.762 9.16528Z" fill="url(#paint7_linear_2_4205)"/>
<path fill-rule="evenodd" clip-rule="evenodd" d="M83.3577 7.01706C83.3577 7.87642 82.9281 8.09125 82.1761 8.19867C81.4242 8.30609 80.8871 7.98384 80.8871 7.01706C80.8871 6.26512 81.2093 5.29834 82.1761 5.29834C83.0355 5.29834 83.3577 6.26512 83.3577 7.01706Z" fill="url(#paint8_radial_2_4205)"/>
<path fill-rule="evenodd" clip-rule="evenodd" d="M82.0687 5.83594C82.1761 5.94336 82.1761 6.26562 81.9613 6.48046C81.8539 6.58788 81.639 6.6953 81.5316 6.48046C81.4242 6.26562 81.4242 6.1582 81.5316 5.83594C81.7465 5.72852 81.9613 5.72852 82.0687 5.83594Z" fill="#4E506A"/>
<path fill-rule="evenodd" clip-rule="evenodd" d="M88.1917 7.01706C88.1917 7.87642 88.6213 8.09125 89.4807 8.19867C90.2326 8.30609 90.7697 7.98384 90.7697 7.01706C90.7697 6.26512 90.4475 5.29834 89.4807 5.29834C88.5139 5.29834 88.1917 6.26512 88.1917 7.01706Z" fill="url(#paint9_radial_2_4205)"/>
<path fill-rule="evenodd" clip-rule="evenodd" d="M89.3733 5.83569C89.4808 5.94311 89.3733 6.15795 89.2659 6.48021C89.1585 6.58763 88.9437 6.58763 88.8362 6.48021C88.7288 6.37279 88.8362 6.15795 88.9437 5.83569C89.1585 5.51343 89.2659 5.51343 89.3733 5.83569Z" fill="#4E506A"/>
<path fill-rule="evenodd" clip-rule="evenodd" d="M80.35 4.65426C80.1352 4.8691 80.35 5.29877 80.6723 5.08394C81.4242 4.76168 82.8207 4.332 84.0023 4.43942C84.3246 4.43942 84.432 4.43942 84.3246 4.00974C84.3246 3.68748 83.8949 3.36522 82.9281 3.58006C81.5316 3.68748 80.5649 4.332 80.35 4.65426Z" fill="url(#paint10_radial_2_4205)"/>
<path fill-rule="evenodd" clip-rule="evenodd" d="M88.6213 3.58019C87.6545 3.47277 87.2249 3.68761 87.2249 4.00987C87.1174 4.43954 87.2249 4.43955 87.5471 4.43955C88.8362 4.33213 90.34 4.65438 90.8771 5.08406C91.3068 5.2989 91.5216 4.86923 91.1994 4.65439C90.9845 4.33213 90.1252 3.68761 88.6213 3.58019Z" fill="url(#paint11_radial_2_4205)"/>
<path fill-rule="evenodd" clip-rule="evenodd" d="M87.762 12.2809C85.2913 11.529 84.432 13.2477 84.432 13.2477C84.432 13.2477 84.6468 11.3142 82.1762 10.4548C79.8129 9.70287 78.309 11.9587 78.2016 13.3551C77.9868 16.3629 80.5649 19.6929 81.5316 20.8745C81.6391 21.1968 81.9613 21.1968 82.391 21.1968C83.7875 20.8745 87.8694 19.4781 89.3733 16.9C90.1252 15.611 90.2326 12.9255 87.762 12.2809Z" fill="url(#paint12_linear_2_4205)"/>
<path fill-rule="evenodd" clip-rule="evenodd" d="M87.762 12.2809C85.2913 11.529 84.432 13.2477 84.432 13.2477C84.432 13.2477 84.6468 11.3142 82.1762 10.4548C79.8129 9.70287 78.309 11.9587 78.2016 13.3551C77.9868 16.3629 80.5649 19.6929 81.5316 20.8745C81.6391 21.1968 81.9613 21.1968 82.391 21.1968C83.7875 20.8745 87.8694 19.4781 89.3733 16.9C90.1252 15.611 90.2326 12.9255 87.762 12.2809Z" fill="url(#paint13_radial_2_4205)"/>
<path fill-rule="evenodd" clip-rule="evenodd" d="M87.762 12.2809C85.2913 11.529 84.432 13.2477 84.432 13.2477C84.432 13.2477 84.6468 11.3142 82.1762 10.4548C79.8129 9.70287 78.309 11.9587 78.2016 13.3551C77.9868 16.3629 80.5649 19.6929 81.5316 20.8745C81.6391 21.1968 81.9613 21.1968 82.391 21.1968C83.7875 20.8745 87.8694 19.4781 89.3733 16.9C90.1252 15.611 90.2326 12.9255 87.762 12.2809Z" fill="url(#paint14_radial_2_4205)"/>
<path fill-rule="evenodd" clip-rule="evenodd" d="M87.762 12.2809C85.2913 11.529 84.432 13.2477 84.432 13.2477C84.432 13.2477 84.6468 11.3142 82.1762 10.4548C79.8129 9.70287 78.309 11.9587 78.2016 13.3551C77.9868 16.3629 80.5649 19.6929 81.5316 20.8745C81.6391 21.1968 81.9613 21.1968 82.391 21.1968C83.7875 20.8745 87.8694 19.4781 89.3733 16.9C90.1252 15.611 90.2326 12.9255 87.762 12.2809Z" fill="url(#paint15_radial_2_4205)"/>
<path fill-rule="evenodd" clip-rule="evenodd" d="M87.762 12.2809C85.2913 11.529 84.432 13.2477 84.432 13.2477C84.432 13.2477 84.6468 11.3142 82.1762 10.4548C79.8129 9.70287 78.309 11.9587 78.2016 13.3551C77.9868 16.3629 80.5649 19.6929 81.5316 20.8745C81.6391 21.1968 81.9613 21.1968 82.391 21.1968C83.7875 20.8745 87.8694 19.4781 89.3733 16.9C90.1252 15.611 90.2326 12.9255 87.762 12.2809Z" fill="url(#paint16_radial_2_4205)"/>
<path fill-rule="evenodd" clip-rule="evenodd" d="M87.762 12.2809C85.2913 11.529 84.432 13.2477 84.432 13.2477C84.432 13.2477 84.6468 11.3142 82.1762 10.4548C79.8129 9.70287 78.309 11.9587 78.2016 13.3551C77.9868 16.3629 80.5649 19.6929 81.5316 20.8745C81.6391 21.1968 81.9613 21.1968 82.391 21.1968C83.7875 20.8745 87.8694 19.4781 89.3733 16.9C90.1252 15.611 90.2326 12.9255 87.762 12.2809Z" fill="url(#paint17_radial_2_4205)"/>
<path fill-rule="evenodd" clip-rule="evenodd" d="M87.762 12.2809C85.2913 11.529 84.432 13.2477 84.432 13.2477C84.432 13.2477 84.6468 11.3142 82.1762 10.4548C79.8129 9.70287 78.309 11.9587 78.2016 13.3551C77.9868 16.3629 80.5649 19.6929 81.5316 20.8745C81.6391 21.1968 81.9613 21.1968 82.391 21.1968C83.7875 20.8745 87.8694 19.4781 89.3733 16.9C90.1252 15.611 90.2326 12.9255 87.762 12.2809Z" fill="url(#paint18_radial_2_4205)"/>
<path fill-rule="evenodd" clip-rule="evenodd" d="M77.7719 11.3138C77.1274 10.6692 76.0532 10.347 75.9458 11.7434C75.8383 12.8176 76.268 14.7512 77.6645 15.8254C80.9945 18.4035 84.0022 17.007 84.1097 15.0734C84.2171 13.677 82.3909 13.7844 81.9613 13.7844V13.677C82.0687 13.5696 82.2835 13.4621 82.3909 13.3547C82.8206 13.0325 82.6058 12.388 82.0687 12.4954C81.9613 12.4954 80.5648 12.925 79.598 12.6028C78.6313 12.2805 78.5238 11.8509 77.7719 11.3138Z" fill="url(#paint19_radial_2_4205)"/>
<path d="M93.2404 11.4219C93.5626 10.6699 94.2071 10.9922 94.5294 11.0996C94.9591 11.207 95.3888 11.5293 95.3888 12.2812C95.3888 14.1074 95.1739 15.7187 93.5626 17.4374C90.7697 20.5525 86.1507 20.0154 85.721 18.1893C85.3987 16.7929 87.01 16.4706 87.6545 16.4706V16.2558C87.4397 16.1483 87.3323 16.0409 87.01 15.9335C86.5803 15.6112 86.6878 14.8593 87.2249 14.9667C87.9768 15.0741 88.9436 15.289 89.5881 15.1816C91.9513 14.9667 92.381 13.248 93.2404 11.4219Z" fill="url(#paint20_radial_2_4205)"/>
<path d="M67.1373 0.357178C64.1296 0.357178 61.2293 1.53879 59.1883 3.68719C57.0399 5.83558 55.8583 8.6285 55.8583 11.6363C55.8583 14.644 57.0399 17.5443 59.1883 19.5853C61.3367 21.7337 64.1296 22.9153 67.1373 22.9153C70.1451 22.9153 73.0454 21.7337 75.0864 19.5853C77.2348 17.4369 78.4164 14.644 78.4164 11.6363C78.4164 8.6285 77.2348 5.72816 75.0864 3.68719C72.938 1.53879 70.1451 0.357178 67.1373 0.357178Z" fill="white"/>
<path d="M76.5903 11.6363C76.5903 12.9253 76.3755 14.1069 75.8384 15.2886C75.3013 16.4702 74.7642 17.5444 73.7974 18.4037C72.938 19.2631 71.8638 20.015 70.6822 20.4447C69.5006 20.8744 68.319 21.1966 67.03 21.1966C65.7409 21.1966 64.5593 20.9818 63.3777 20.4447C62.1961 20.015 61.1219 19.2631 60.2625 18.4037C59.4032 17.5444 58.6512 16.4702 58.2215 15.2886C57.7919 14.1069 57.4696 12.9253 57.4696 11.6363C57.4696 9.05821 58.4364 6.69498 60.2625 4.86884C62.0887 3.04271 64.4519 2.07593 67.03 2.07593C69.608 2.07593 71.9713 3.04271 73.7974 4.86884C75.6235 6.69498 76.5903 9.16563 76.5903 11.6363Z" fill="url(#paint21_linear_2_4205)"/>
<path d="M64.3445 15.0737C64.1297 17.2221 65.2039 18.8334 67.1374 18.8334C69.071 18.8334 70.1452 17.3295 69.9303 15.0737C69.7155 12.9253 68.6413 11.6362 67.1374 11.6362C65.6335 11.6362 64.4519 12.9253 64.3445 15.0737Z" fill="url(#paint22_linear_2_4205)"/>
<path d="M61.7664 8.62863C61.7664 7.66185 62.4109 6.80249 63.2702 6.80249C64.1296 6.80249 64.7741 7.55443 64.7741 8.62863C64.7741 9.5954 64.1296 10.4548 63.2702 10.4548C62.4109 10.4548 61.7664 9.70282 61.7664 8.62863ZM69.5006 8.62863C69.5006 7.66185 70.1451 6.80249 71.0045 6.80249C71.8638 6.80249 72.5083 7.55443 72.5083 8.62863C72.5083 9.5954 71.8638 10.4548 71.0045 10.4548C70.1451 10.4548 69.5006 9.70282 69.5006 8.62863Z" fill="url(#paint23_linear_2_4205)"/>
<path d="M61.7664 8.62863C61.7664 7.66185 62.4109 6.80249 63.2702 6.80249C64.1296 6.80249 64.7741 7.55443 64.7741 8.62863C64.7741 9.5954 64.1296 10.4548 63.2702 10.4548C62.4109 10.4548 61.7664 9.70282 61.7664 8.62863ZM69.5006 8.62863C69.5006 7.66185 70.1451 6.80249 71.0045 6.80249C71.8638 6.80249 72.5083 7.55443 72.5083 8.62863C72.5083 9.5954 71.8638 10.4548 71.0045 10.4548C70.1451 10.4548 69.5006 9.70282 69.5006 8.62863Z" fill="black"/>
<path d="M62.9481 7.55469C63.1629 7.55469 63.2704 7.87695 63.2704 8.09179C63.1629 8.30663 62.9481 8.52146 62.7333 8.52146C62.5184 8.52146 62.411 8.1992 62.411 7.98436C62.411 7.6621 62.7333 7.55469 62.9481 7.55469ZM70.8972 7.66211C71.112 7.76953 71.3268 7.98436 71.2194 8.30662C71.112 8.62888 70.8972 8.7363 70.6823 8.7363C70.4675 8.62888 70.2527 8.41405 70.3601 8.09179C70.3601 7.76953 70.5749 7.55469 70.8972 7.66211Z" fill="#4E506A"/>
<path d="M70.7896 4.11646C70.897 4.11646 70.8971 4.11646 71.0045 4.11646C71.5416 4.11646 72.1861 4.33129 72.6158 4.76097C72.6158 4.76097 72.7232 4.86839 72.7232 4.97581C72.7232 5.08323 72.7232 5.08323 72.7232 5.19065C72.7232 5.29807 72.7232 5.29807 72.6158 5.40549C72.6158 5.51291 72.5084 5.51291 72.5084 5.51291C72.4009 5.51291 72.4009 5.51291 72.2935 5.51291C72.1861 5.51291 72.1861 5.51291 72.0787 5.40549C71.7564 5.08323 71.3267 4.97581 70.8971 4.97581C70.7896 4.97581 70.5748 4.97581 70.4674 5.08323C70.36 5.19065 70.2525 5.29807 70.1451 5.40549L70.0377 5.51291C70.0377 5.51291 69.9303 5.51291 69.9303 5.62033C69.8229 5.62033 69.8229 5.62033 69.7154 5.62033C69.7154 5.62033 69.608 5.62033 69.608 5.51291C69.5006 5.40549 69.5006 5.29807 69.3932 5.19065C69.3932 5.08323 69.3932 4.97581 69.5006 4.86839C69.608 4.65355 69.8229 4.43872 70.0377 4.3313C70.2525 4.22388 70.4674 4.11646 70.7896 4.11646ZM61.6589 4.76097C62.0886 4.33129 62.7331 4.11646 63.2702 4.11646C63.5925 4.11646 63.8073 4.22388 64.1296 4.3313C64.3444 4.43872 64.5593 4.65355 64.7741 4.86839C64.8815 4.97581 64.8815 5.08323 64.8815 5.19065C64.8815 5.29807 64.7741 5.40549 64.7741 5.51291L64.6667 5.62033C64.6667 5.62033 64.5593 5.62033 64.4519 5.62033C64.3445 5.62033 64.3444 5.62033 64.3444 5.51291L64.237 5.40549C64.1296 5.29807 64.0222 5.19065 63.9148 5.08323C63.8074 4.97581 63.6999 4.97581 63.4851 4.97581C63.0554 4.97581 62.6257 5.08323 62.3035 5.40549L62.196 5.51291C62.196 5.51291 62.0886 5.51291 61.9812 5.51291C61.8738 5.51291 61.8738 5.51291 61.8738 5.51291L61.7664 5.40549C61.659 5.29807 61.6589 5.19065 61.6589 5.08323C61.4441 4.97581 61.5515 4.86839 61.6589 4.76097Z" fill="black"/>
<path d="M70.7896 4.11646C70.897 4.11646 70.8971 4.11646 71.0045 4.11646C71.5416 4.11646 72.1861 4.33129 72.6158 4.76097C72.6158 4.76097 72.7232 4.86839 72.7232 4.97581C72.7232 5.08323 72.7232 5.08323 72.7232 5.19065C72.7232 5.29807 72.7232 5.29807 72.6158 5.40549C72.6158 5.51291 72.5084 5.51291 72.5084 5.51291C72.4009 5.51291 72.4009 5.51291 72.2935 5.51291C72.1861 5.51291 72.1861 5.51291 72.0787 5.40549C71.7564 5.08323 71.3267 4.97581 70.8971 4.97581C70.7896 4.97581 70.5748 4.97581 70.4674 5.08323C70.36 5.19065 70.2525 5.29807 70.1451 5.40549L70.0377 5.51291C70.0377 5.51291 69.9303 5.51291 69.9303 5.62033C69.8229 5.62033 69.8229 5.62033 69.7154 5.62033C69.7154 5.62033 69.608 5.62033 69.608 5.51291C69.5006 5.40549 69.5006 5.29807 69.3932 5.19065C69.3932 5.08323 69.3932 4.97581 69.5006 4.86839C69.608 4.65355 69.8229 4.43872 70.0377 4.3313C70.2525 4.22388 70.4674 4.11646 70.7896 4.11646ZM61.6589 4.76097C62.0886 4.33129 62.7331 4.11646 63.2702 4.11646C63.5925 4.11646 63.8073 4.22388 64.1296 4.3313C64.3444 4.43872 64.5593 4.65355 64.7741 4.86839C64.8815 4.97581 64.8815 5.08323 64.8815 5.19065C64.8815 5.29807 64.7741 5.40549 64.7741 5.51291L64.6667 5.62033C64.6667 5.62033 64.5593 5.62033 64.4519 5.62033C64.3445 5.62033 64.3444 5.62033 64.3444 5.51291L64.237 5.40549C64.1296 5.29807 64.0222 5.19065 63.9148 5.08323C63.8074 4.97581 63.6999 4.97581 63.4851 4.97581C63.0554 4.97581 62.6257 5.08323 62.3035 5.40549L62.196 5.51291C62.196 5.51291 62.0886 5.51291 61.9812 5.51291C61.8738 5.51291 61.8738 5.51291 61.8738 5.51291L61.7664 5.40549C61.659 5.29807 61.6589 5.19065 61.6589 5.08323C61.4441 4.97581 61.5515 4.86839 61.6589 4.76097Z" fill="url(#paint24_linear_2_4205)"/>
<path d="M48.5537 0.357178C45.546 0.357178 42.6456 1.53879 40.6047 3.68719C38.4563 5.83558 37.2747 8.6285 37.2747 11.6363C37.2747 14.644 38.4563 17.5443 40.6047 19.5853C42.7531 21.7337 45.546 22.9153 48.5537 22.9153C51.5615 22.9153 54.4618 21.7337 56.5028 19.5853C58.5438 17.4369 59.8328 14.644 59.8328 11.6363C59.8328 8.6285 58.6512 5.72816 56.5028 3.68719C54.4618 1.53879 51.5615 0.357178 48.5537 0.357178Z" fill="white"/>
<path d="M48.5538 21.1966C53.8338 21.1966 58.1141 16.9163 58.1141 11.6363C58.1141 6.35625 53.8338 2.07593 48.5538 2.07593C43.2737 2.07593 38.9934 6.35625 38.9934 11.6363C38.9934 16.9163 43.2737 21.1966 48.5538 21.1966Z" fill="#A5C896"/>
<path d="M44.2569 14.2143C44.2569 14.2143 45.0089 13.4624 44.9014 12.2808C44.9014 12.2808 46.1905 10.562 46.4053 9.38043C46.6202 8.19881 47.8018 8.62849 47.8018 9.16559C47.8018 9.70269 47.3721 11.9585 47.3721 11.9585C48.124 11.314 48.9834 10.6695 49.7353 10.0249C50.0576 9.81011 50.3799 9.48785 50.7021 9.16559C51.0244 8.84333 51.3466 8.52107 51.8837 8.62849C51.9911 8.62849 52.206 8.73591 52.3134 8.84333C52.4208 8.95075 52.5282 9.38043 52.4208 9.48785C52.4208 9.48785 53.1728 8.95075 53.6024 9.38043C54.0321 9.81011 53.6024 10.4546 53.3876 10.6695C53.3876 10.6695 53.8173 10.562 54.1395 11.0991C54.3544 11.5288 53.6024 12.2808 53.2802 12.4956C53.2802 12.4956 53.7099 12.4956 53.9247 12.9253C54.1395 13.355 53.6024 13.7846 53.2802 14.1069C52.9579 14.3217 48.876 17.2221 48.876 17.2221C48.876 17.2221 47.5869 17.2221 47.0498 17.7592C46.9424 17.6517 44.1495 16.8998 44.2569 14.2143Z" fill="#639E47"/>
<path d="M46.9424 17.8668C47.4795 17.3297 48.7686 17.3297 48.7686 17.3297C48.7686 17.3297 48.7686 17.3297 48.876 17.3297C49.0908 17.2222 52.8505 14.5367 53.2802 14.2145C53.4951 13.9996 54.1396 13.57 53.9247 12.9255C53.8173 12.6032 53.6025 12.4958 53.495 12.3884C53.8173 12.0661 54.3544 11.529 54.247 10.9919C54.1396 10.6696 53.9247 10.5622 53.7099 10.5622C53.9247 10.24 54.1396 9.70286 53.7099 9.27318C53.3876 8.95092 52.8505 9.05834 52.6357 9.27318C52.6357 9.05834 52.5283 8.8435 52.4208 8.8435C52.3134 8.73608 52.0986 8.62866 51.8838 8.62866C51.4541 8.62866 51.1318 8.8435 50.8096 9.05834L50.7021 9.16576C50.3799 9.3806 50.0576 9.70286 49.7354 10.0251C49.3057 10.3474 48.9834 10.6696 48.5537 10.9919C48.2315 11.2067 47.9092 11.4216 47.587 11.7438C47.6944 11.0993 48.0166 9.70286 48.0166 9.27318C48.0166 8.95092 47.587 8.62866 47.2647 8.62866C47.0499 8.62866 46.5128 8.62866 46.4053 9.48802C46.1905 10.6696 45.0089 12.3884 45.0089 12.3884V12.4958C45.1163 13.57 44.4718 14.3219 44.4718 14.3219C44.4718 14.3219 44.4718 14.3219 44.4718 14.4293C44.4718 15.3961 44.6866 16.2555 45.4386 16.9C45.8682 17.5445 46.835 17.8668 46.9424 17.8668ZM48.7686 17.0074C48.5537 17.0074 47.4795 17.0074 46.9424 17.5445C46.5128 17.4371 44.3644 16.5777 44.4718 14.3219C44.5792 14.1071 45.1163 13.4626 45.1163 12.3884C45.3312 12.1735 46.4053 10.5622 46.6202 9.48802C46.7276 9.05834 46.9424 8.8435 47.2647 8.8435C47.587 8.8435 47.8018 9.05834 47.8018 9.27318C47.8018 9.81028 47.3721 11.9587 47.3721 12.0661V12.1735H47.4795C47.9092 11.8513 48.2315 11.529 48.6612 11.2067C49.0908 10.8845 49.4131 10.5622 49.8428 10.24C50.165 9.9177 50.5947 9.70286 50.8096 9.3806L50.917 9.27318C51.2392 9.05834 51.4541 8.8435 51.7763 8.8435C51.8838 8.8435 51.9912 8.95092 52.0986 8.95092C52.206 9.05834 52.3134 9.3806 52.206 9.3806C52.206 9.3806 52.206 9.48802 52.206 9.59544C52.206 9.59544 52.3134 9.70286 52.4208 9.59544C52.4208 9.59544 53.0654 9.05834 53.3876 9.48802C53.7099 9.9177 53.2802 10.4548 53.1728 10.5622V10.6696L53.2802 10.7771C53.2802 10.7771 53.7099 10.6696 53.8173 11.0993C53.9247 11.4216 53.3876 12.0661 52.9579 12.2809C52.9579 12.2809 52.8505 12.3884 52.9579 12.3884L53.0654 12.4958C53.0654 12.4958 53.3876 12.4958 53.6025 12.9255C53.7099 13.2477 53.495 13.57 52.9579 13.8922C52.7431 14.2145 49.0908 16.7926 48.7686 17.0074Z" fill="#18510F"/>
<path d="M48.2316 12.8182C48.339 12.8182 48.339 12.8182 48.2316 12.8182L52.4209 9.59559C52.4209 9.59559 52.5284 9.48817 52.4209 9.38075C52.4209 9.38075 52.3135 9.27333 52.2061 9.38075L48.1241 12.6033C48.1241 12.6033 48.1241 12.7108 48.2316 12.8182Z" fill="#18510F"/>
<path d="M49.4131 13.6771L53.3876 10.8842C53.3876 10.8842 53.495 10.7767 53.3876 10.6693C53.3876 10.6693 53.2802 10.5619 53.1728 10.6693L49.1982 13.4622C49.3057 13.4622 49.3057 13.5697 49.4131 13.6771C49.3057 13.6771 49.3057 13.5697 49.4131 13.6771Z" fill="#18510F"/>
<path d="M49.8428 14.8586L53.2802 12.6028C53.3876 12.6028 53.3876 12.4954 53.2802 12.3879C53.2802 12.2805 53.1728 12.2805 53.0654 12.3879L49.7354 14.6438C49.6279 14.6438 49.6279 14.7512 49.8428 14.8586C49.7354 14.8586 49.7354 14.8586 49.8428 14.8586Z" fill="#18510F"/>
<path d="M42.4309 14.2143C42.4309 14.2143 43.1828 13.4624 43.0754 12.2808C43.0754 12.2808 44.3644 10.562 44.5793 9.38043C44.7941 8.19881 45.9757 8.62849 45.9757 9.16559C45.9757 9.70269 45.546 11.9585 45.546 11.9585C46.298 11.314 47.1573 10.6695 47.9093 10.0249C48.2315 9.81011 48.5538 9.48785 48.8761 9.16559C49.1983 8.84333 49.5206 8.52107 50.0577 8.62849C50.1651 8.62849 50.3799 8.73591 50.4874 8.84333C50.5948 8.95075 50.7022 9.38043 50.5948 9.48785C50.5948 9.48785 51.3467 8.95075 51.7764 9.38043C52.2061 9.81011 51.7764 10.4546 51.5616 10.6695C51.5616 10.6695 51.9912 10.562 52.3135 11.0991C52.5283 11.5288 51.7764 12.2808 51.4541 12.4956C51.4541 12.4956 51.8838 12.4956 52.0987 12.9253C52.3135 13.355 51.7764 13.7846 51.4541 14.1069C51.1319 14.3217 47.0499 17.2221 47.0499 17.2221C47.0499 17.2221 45.7609 17.2221 45.2238 17.7592C45.1164 17.6517 42.3235 16.8998 42.4309 14.2143Z" fill="#6FAD54"/>
<path d="M45.1164 17.8668C45.6535 17.2222 46.9425 17.3297 46.9425 17.3297C46.9425 17.3297 46.9425 17.3297 47.0499 17.3297C47.2648 17.2222 51.0245 14.5367 51.4542 14.2145C51.669 13.9996 52.3135 13.57 52.0987 12.9255C51.9913 12.6032 51.7764 12.4958 51.669 12.3884C51.9913 12.0661 52.5284 11.529 52.4209 10.9919C52.3135 10.6696 52.0987 10.5622 51.8838 10.5622C52.0987 10.24 52.3135 9.70286 51.8838 9.27318C51.5616 8.95092 51.0245 9.05834 50.8096 9.27318C50.8096 9.05834 50.7022 8.8435 50.5948 8.8435C50.4874 8.73608 50.2725 8.62866 50.0577 8.62866C49.628 8.62866 49.3058 8.8435 48.9835 9.05834L48.8761 9.16576C48.5538 9.3806 48.2316 9.70286 47.9093 10.0251C47.4796 10.3474 47.1574 10.6696 46.7277 10.9919C46.4054 11.2067 46.0832 11.4216 45.7609 11.7438C45.8683 11.0993 46.1906 9.70286 46.1906 9.27318C46.1906 8.95092 45.7609 8.62866 45.4386 8.62866C45.2238 8.62866 44.6867 8.62866 44.5793 9.48802C44.3645 10.6696 43.1828 12.3884 43.1828 12.3884V12.4958C43.2903 13.57 42.6457 14.3219 42.6457 14.3219C42.6457 14.3219 42.6457 14.3219 42.6457 14.4293C42.6457 15.3961 42.8606 16.2555 43.5051 16.9C44.0422 17.5445 45.009 17.8668 45.1164 17.8668ZM46.9425 17.0074C46.7277 17.0074 45.6535 17.0074 45.1164 17.5445C44.6867 17.4371 42.5383 16.5777 42.6457 14.3219C42.7532 14.1071 43.2903 13.4626 43.2903 12.3884C43.5051 12.1735 44.5793 10.5622 44.7941 9.48802C44.9016 9.05834 45.1164 8.8435 45.4386 8.8435C45.7609 8.8435 45.9757 9.05834 45.9757 9.27318C45.9757 9.81028 45.5461 11.9587 45.5461 12.0661V12.1735H45.6535C46.0832 11.8513 46.4054 11.529 46.8351 11.2067C47.2648 10.8845 47.587 10.5622 48.0167 10.24C48.339 9.9177 48.7687 9.70286 48.9835 9.3806L49.0909 9.27318C49.4132 9.05834 49.628 8.8435 49.9503 8.8435C50.0577 8.8435 50.1651 8.95092 50.2725 8.95092C50.38 9.05834 50.4874 9.3806 50.38 9.3806C50.38 9.3806 50.38 9.48802 50.38 9.59544C50.38 9.59544 50.4874 9.70286 50.5948 9.59544C50.5948 9.59544 51.2393 9.05834 51.5616 9.48802C51.8838 9.9177 51.4542 10.4548 51.3467 10.5622V10.6696L51.4542 10.7771C51.4542 10.7771 51.8838 10.6696 51.9913 11.0993C52.0987 11.4216 51.5616 12.0661 51.1319 12.2809C51.1319 12.2809 51.0245 12.3884 51.1319 12.3884L51.2393 12.4958C51.2393 12.4958 51.5616 12.4958 51.7764 12.9255C51.8838 13.2477 51.669 13.57 51.1319 13.8922C50.9171 14.2145 47.2648 16.7926 46.9425 17.0074Z" fill="#18510F"/>
<path d="M46.4054 12.8182C46.5128 12.8182 46.5128 12.8182 46.4054 12.8182L50.5948 9.59559C50.5948 9.59559 50.7022 9.48817 50.5948 9.38075C50.5948 9.38075 50.4873 9.27333 50.3799 9.38075L46.298 12.6033C46.298 12.6033 46.298 12.7108 46.4054 12.8182Z" fill="#18510F"/>
<path d="M47.587 13.6771L51.5616 10.8842C51.5616 10.8842 51.669 10.7767 51.5616 10.6693C51.5616 10.6693 51.4541 10.5619 51.3467 10.6693L47.3722 13.4622C47.4796 13.4622 47.3722 13.5697 47.587 13.6771C47.4796 13.6771 47.4796 13.5697 47.587 13.6771Z" fill="#18510F"/>
<path d="M48.0166 14.8586L51.454 12.6028C51.5614 12.6028 51.5614 12.4954 51.454 12.3879C51.454 12.2805 51.3466 12.2805 51.2392 12.3879L47.9092 14.6438C47.8018 14.6438 47.8018 14.7512 48.0166 14.8586C47.9092 14.8586 47.9092 14.8586 48.0166 14.8586Z" fill="#18510F"/>
<path d="M51.3467 7.44723L52.4209 5.94336C52.4209 5.83594 52.4209 5.83594 52.4209 5.72852C52.3135 5.72852 52.3135 5.72852 52.206 5.72852L51.2393 7.23239C51.2393 7.23239 51.2393 7.33981 51.3467 7.44723Z" fill="#18510F"/>
<path d="M50.2725 7.33956C50.3799 7.33956 50.3799 7.23214 50.3799 7.23214L50.2725 5.29858C50.2725 5.19116 50.165 5.19116 50.165 5.19116C50.0576 5.19116 50.0576 5.29858 50.0576 5.29858L50.165 7.23214C50.165 7.23214 50.165 7.33956 50.2725 7.33956Z" fill="#18510F"/>
<path d="M49.1983 7.44723C49.3058 7.33981 49.3058 7.33981 49.3058 7.23239L48.339 5.83594C48.339 5.72852 48.2316 5.72852 48.1241 5.83594C48.0167 5.83594 48.0167 5.94336 48.1241 6.05078L49.1983 7.44723Z" fill="#18510F"/>
<path d="M30.0775 0.357178C27.0698 0.357178 24.1695 1.53879 22.1285 3.68719C19.9801 5.83558 18.7985 8.6285 18.7985 11.6363C18.7985 14.644 19.9801 17.5443 22.1285 19.5853C24.2769 21.7337 27.0698 22.9153 30.0775 22.9153C33.0853 22.9153 35.9856 21.7337 38.0266 19.5853C40.175 17.4369 41.3566 14.644 41.3566 11.6363C41.3566 8.6285 40.175 5.72816 38.0266 3.68719C35.9856 1.53879 33.0853 0.357178 30.0775 0.357178Z" fill="white"/>
<path d="M30.0776 2.07593C27.4995 2.07593 25.1363 3.04271 23.3101 4.86884C21.484 6.69498 20.5172 9.05821 20.5172 11.6363C20.5172 14.2144 21.484 16.5776 23.3101 18.4037C25.1363 20.2299 27.4995 21.1966 30.0776 21.1966C32.6556 21.1966 35.0189 20.2299 36.845 18.4037C38.6711 16.5776 39.6379 14.2144 39.6379 11.6363C39.6379 9.05821 38.6711 6.69498 36.845 4.86884C35.0189 3.15013 32.6556 2.07593 30.0776 2.07593Z" fill="url(#paint25_linear_2_4205)"/>
<path d="M32.9779 6.90967C30.3998 6.90967 30.0776 9.05806 30.0776 9.05806C30.0776 9.05806 29.7553 6.90967 27.1772 6.90967C24.7066 6.90967 23.9546 9.59516 24.2769 10.9916C25.1362 14.7513 30.185 17.3294 30.185 17.3294C30.185 17.3294 35.2337 14.7513 36.0931 10.9916C36.3079 9.48774 35.556 6.90967 32.9779 6.90967Z" fill="white"/>
<defs>
<linearGradient id="paint0_linear_2_4205" x1="11.263" y1="2.10955" x2="11.263" y2="21.1826" gradientUnits="userSpaceOnUse">
<stop stop-color="#18AFFF"/>
<stop offset="1" stop-color="#0062DF"/>
</linearGradient>
<linearGradient id="paint1_linear_2_4205" x1="85.7811" y1="20.2385" x2="85.7811" y2="3.5305" gradientUnits="userSpaceOnUse">
<stop stop-color="#F28A2D"/>
<stop offset="1" stop-color="#FDE86F"/>
</linearGradient>
<radialGradient id="paint2_radial_2_4205" cx="0" cy="0" r="1" gradientUnits="userSpaceOnUse" gradientTransform="translate(85.7748 11.6361) scale(9.53693 9.53693)">
<stop stop-color="#F28A2D" stop-opacity="0"/>
<stop offset="1" stop-color="#F08423" stop-opacity="0.34"/>
</radialGradient>
<radialGradient id="paint3_radial_2_4205" cx="0" cy="0" r="1" gradientUnits="userSpaceOnUse" gradientTransform="translate(78.3143 12.0281) rotate(24.1488) scale(1.92647 1.49011)">
<stop stop-color="#F28A2D" stop-opacity="0.5"/>
<stop offset="1" stop-color="#F28A2D" stop-opacity="0"/>
</radialGradient>
<radialGradient id="paint4_radial_2_4205" cx="0" cy="0" r="1" gradientUnits="userSpaceOnUse" gradientTransform="translate(90.3915 16.1507) rotate(-38.243) scale(5.3979 1.96375)">
<stop stop-color="#F28A2D" stop-opacity="0.5"/>
<stop offset="1" stop-color="#F28A2D" stop-opacity="0"/>
</radialGradient>
<radialGradient id="paint5_radial_2_4205" cx="0" cy="0" r="1" gradientUnits="userSpaceOnUse" gradientTransform="translate(82.32 4.50102) rotate(-10.3548) scale(2.04086 0.405806)">
<stop stop-color="#D45F00" stop-opacity="0.15"/>
<stop offset="1" stop-color="#F28A2D" stop-opacity="0"/>
</radialGradient>
<radialGradient id="paint6_radial_2_4205" cx="0" cy="0" r="1" gradientUnits="userSpaceOnUse" gradientTransform="translate(89.2277 4.67367) rotate(11.5356) scale(2.02183 0.402088)">
<stop stop-color="#D45F00" stop-opacity="0.15"/>
<stop offset="1" stop-color="#D45F00" stop-opacity="0"/>
</radialGradient>
<linearGradient id="paint7_linear_2_4205" x1="85.7812" y1="8.43837" x2="85.7812" y2="10.1357" gradientUnits="userSpaceOnUse">
<stop stop-color="#482314"/>
<stop offset="1" stop-color="#9A4111"/>
</linearGradient>
<radialGradient id="paint8_radial_2_4205" cx="0" cy="0" r="1" gradientUnits="userSpaceOnUse" gradientTransform="translate(82.1984 7.19782) rotate(-90) scale(2.21687 2.21697)">
<stop stop-color="#3B446B"/>
<stop offset="0.688" stop-color="#202340"/>
</radialGradient>
<radialGradient id="paint9_radial_2_4205" cx="0" cy="0" r="1" gradientUnits="userSpaceOnUse" gradientTransform="translate(89.3669 7.19631) rotate(-90) scale(2.21687 2.21697)">
<stop stop-color="#3B446B"/>
<stop offset="0.688" stop-color="#202340"/>
</radialGradient>
<radialGradient id="paint10_radial_2_4205" cx="0" cy="0" r="1" gradientUnits="userSpaceOnUse" gradientTransform="translate(82.177 4.16126) rotate(-104.423) scale(0.483476 2.24106)">
<stop stop-color="#E38200"/>
<stop offset="1" stop-color="#CD6700"/>
</radialGradient>
<radialGradient id="paint11_radial_2_4205" cx="0" cy="0" r="1" gradientUnits="userSpaceOnUse" gradientTransform="translate(89.2862 3.96071) rotate(-79.0823) scale(0.509315 3.02223)">
<stop stop-color="#E38200"/>
<stop offset="1" stop-color="#CD6700"/>
</radialGradient>
<linearGradient id="paint12_linear_2_4205" x1="84.2864" y1="13.7266" x2="81.8652" y2="21.5252" gradientUnits="userSpaceOnUse">
<stop stop-color="#F34462"/>
<stop offset="1" stop-color="#CC0820"/>
</linearGradient>
<radialGradient id="paint13_radial_2_4205" cx="0" cy="0" r="1" gradientUnits="userSpaceOnUse" gradientTransform="translate(86.7763 15.1534) rotate(20.3922) scale(3.1387)">
<stop stop-color="#FF7091" stop-opacity="0.7"/>
<stop offset="1" stop-color="#FE6D8E" stop-opacity="0"/>
</radialGradient>
<radialGradient id="paint14_radial_2_4205" cx="0" cy="0" r="1" gradientUnits="userSpaceOnUse" gradientTransform="translate(81.3262 13.5724) rotate(20.3922) scale(3.1387)">
<stop stop-color="#FF7091" stop-opacity="0.7"/>
<stop offset="1" stop-color="#FE6D8E" stop-opacity="0"/>
</radialGradient>
<radialGradient id="paint15_radial_2_4205" cx="0" cy="0" r="1" gradientUnits="userSpaceOnUse" gradientTransform="translate(80.9966 16.1346) rotate(101.609) scale(2.69491 3.71098)">
<stop stop-color="#9C0600"/>
<stop offset="1" stop-color="#9C0600" stop-opacity="0"/>
</radialGradient>
<radialGradient id="paint16_radial_2_4205" cx="0" cy="0" r="1" gradientUnits="userSpaceOnUse" gradientTransform="translate(89.8489 16.4099) rotate(30.6341) scale(1.62345 2.03749)">
<stop stop-color="#9C0600" stop-opacity="0.5"/>
<stop offset="1" stop-color="#9C0600" stop-opacity="0"/>
</radialGradient>
<radialGradient id="paint17_radial_2_4205" cx="0" cy="0" r="1" gradientUnits="userSpaceOnUse" gradientTransform="translate(78.6951 12.9746) rotate(-20.1604) scale(1.407 1.81319)">
<stop stop-color="#9C0600" stop-opacity="0.5"/>
<stop offset="1" stop-color="#9C0600" stop-opacity="0"/>
</radialGradient>
<radialGradient id="paint18_radial_2_4205" cx="0" cy="0" r="1" gradientUnits="userSpaceOnUse" gradientTransform="translate(86.8964 18.7068) rotate(34.0712) scale(1.89407 2.05134)">
<stop stop-color="#9C0600" stop-opacity="0.999"/>
<stop offset="1" stop-color="#9C0600" stop-opacity="0"/>
</radialGradient>
<radialGradient id="paint19_radial_2_4205" cx="0" cy="0" r="1" gradientUnits="userSpaceOnUse" gradientTransform="translate(76.1543 11.0312) rotate(36.5185) scale(7.92571 7.92563)">
<stop stop-color="#EDA83A"/>
<stop offset="1" stop-color="#FFDC5E"/>
</radialGradient>
<radialGradient id="paint20_radial_2_4205" cx="0" cy="0" r="1" gradientUnits="userSpaceOnUse" gradientTransform="translate(94.9059 11.3332) scale(10.5455 10.5454)">
<stop stop-color="#EDA83A"/>
<stop offset="1" stop-color="#FFDC5E"/>
</radialGradient>
<linearGradient id="paint21_linear_2_4205" x1="67.104" y1="4.06459" x2="67.104" y2="21.1827" gradientUnits="userSpaceOnUse">
<stop stop-color="#FEEA70"/>
<stop offset="1" stop-color="#F69B30"/>
</linearGradient>
<linearGradient id="paint22_linear_2_4205" x1="67.105" y1="11.6459" x2="67.105" y2="18.7982" gradientUnits="userSpaceOnUse">
<stop stop-color="#472315"/>
<stop offset="1" stop-color="#8B3A0E"/>
</linearGradient>
<linearGradient id="paint23_linear_2_4205" x1="67.1053" y1="6.8779" x2="67.1053" y2="10.4541" gradientUnits="userSpaceOnUse">
<stop stop-color="#191A33"/>
<stop offset="0.872" stop-color="#3B426A"/>
</linearGradient>
<linearGradient id="paint24_linear_2_4205" x1="67.1045" y1="4.12193" x2="67.1045" y2="5.55158" gradientUnits="userSpaceOnUse">
<stop stop-color="#E78E0D"/>
<stop offset="1" stop-color="#CB6000"/>
</linearGradient>
<linearGradient id="paint25_linear_2_4205" x1="30.0733" y1="2.10955" x2="30.0733" y2="21.1826" gradientUnits="userSpaceOnUse">
<stop stop-color="#FF6680"/>
<stop offset="1" stop-color="#E61739"/>
</linearGradient>
</defs>
</svg>
