<svg width="20" height="18" viewBox="0 0 20 18" fill="none" xmlns="http://www.w3.org/2000/svg">
<path d="M17.8276 9.72145L17.8274 9.72165L10.5664 16.9556L17.8276 9.72145ZM17.8276 9.72145C18.8085 8.74049 19.3491 7.43702 19.3492 6.05083M17.8276 9.72145L14.1681 0.861575M3.31684 3.32068L3.31657 3.32095C2.58897 4.04484 2.19174 5.00957 2.19174 6.03882C2.19174 7.06764 2.59253 8.03266 3.3207 8.76083L10.094 15.5342L16.8824 8.7724L3.31684 3.32068ZM3.31684 3.32068C4.04113 2.59639 5.00614 2.19558 6.03113 2.19558C7.0601 2.19558 8.02893 2.59648 8.75699 3.32454L9.62894 4.19649C9.89201 4.45956 10.3149 4.45956 10.578 4.19649L11.4422 3.33225C12.1703 2.60414 13.1392 2.20329 14.1642 2.20329C15.1891 2.20329 16.1542 2.604 16.8825 3.32848C17.6103 4.05638 18.0075 5.02125 18.0075 6.0504L18.0075 6.05094M3.31684 3.32068L18.0075 6.05094M18.0075 6.05094C18.0112 7.07926 17.6106 8.04404 16.8826 8.77219L18.0075 6.05094ZM14.1681 0.861575C15.5543 0.861575 16.8541 1.39816 17.8353 2.37935C18.8166 3.36061 19.3532 4.66445 19.3492 6.05083M14.1681 0.861575C12.7817 0.861575 11.4781 1.40214 10.497 2.3832M14.1681 0.861575L10.497 2.3832M19.3492 6.05083L19.1992 6.0504H19.3492C19.3492 6.05054 19.3492 6.05068 19.3492 6.05083ZM10.497 2.3832L10.1054 2.77485M10.497 2.3832L10.1054 2.77485M10.1054 2.77485L9.70604 2.37549C8.72509 1.39454 7.41766 0.85 6.03113 0.85C4.64865 0.85 3.34502 1.39054 2.36779 2.36777C1.38679 3.34878 0.846104 4.65245 0.850021 6.03904M10.1054 2.77485L10.5662 16.9558C10.436 17.0859 10.262 17.15 10.0938 17.15C9.92265 17.15 9.74952 17.08 9.62123 16.9517L2.37551 9.70602C1.39479 8.7253 0.850078 7.42573 0.850021 6.03904M0.850021 6.03904C0.850021 6.03897 0.850021 6.0389 0.850021 6.03882H1.00002L0.850022 6.03925C0.850022 6.03918 0.850021 6.03911 0.850021 6.03904Z" fill="#797979" stroke="#797979" stroke-width="0.3"/>
</svg>
