<svg width="147" height="14" viewBox="0 0 147 14" fill="none" xmlns="http://www.w3.org/2000/svg">
<path d="M142.443 10.143V8.9606C143.044 9.40401 143.704 9.62571 144.425 9.62571C145.393 9.62571 145.876 9.30323 145.876 8.65828C145.876 8.47464 145.834 8.32012 145.749 8.19472C145.668 8.06483 145.556 7.95062 145.413 7.85208C145.274 7.75355 145.108 7.66621 144.916 7.59007C144.728 7.50945 144.524 7.42659 144.304 7.34149C144 7.22056 143.731 7.09963 143.498 6.9787C143.27 6.8533 143.077 6.71445 142.92 6.56217C142.768 6.40541 142.652 6.2285 142.571 6.03143C142.495 5.83436 142.457 5.6037 142.457 5.33944C142.457 5.01697 142.531 4.73256 142.679 4.48622C142.826 4.2354 143.023 4.02714 143.27 3.86142C143.516 3.69122 143.796 3.56358 144.11 3.47848C144.428 3.39338 144.755 3.35083 145.09 3.35083C145.686 3.35083 146.219 3.45384 146.689 3.65987V4.77511C146.183 4.44367 145.601 4.27795 144.943 4.27795C144.737 4.27795 144.551 4.30259 144.385 4.35185C144.219 4.39664 144.076 4.46159 143.955 4.54669C143.839 4.63178 143.747 4.7348 143.68 4.85573C143.617 4.97218 143.586 5.10206 143.586 5.24539C143.586 5.42454 143.617 5.57458 143.68 5.69551C143.747 5.81644 143.843 5.92393 143.969 6.01799C144.094 6.11205 144.246 6.19714 144.425 6.27328C144.605 6.34943 144.808 6.43228 145.037 6.52186C145.341 6.63831 145.614 6.75924 145.856 6.88465C146.098 7.00558 146.304 7.14442 146.474 7.30118C146.645 7.45346 146.775 7.63038 146.864 7.83193C146.958 8.03348 147.005 8.27309 147.005 8.55078C147.005 8.89118 146.929 9.18678 146.777 9.4376C146.629 9.68841 146.43 9.89668 146.179 10.0624C145.928 10.2281 145.639 10.3513 145.312 10.4319C144.985 10.5125 144.643 10.5528 144.284 10.5528C143.577 10.5528 142.963 10.4162 142.443 10.143Z" fill="#797979"/>
<path d="M141.664 4.62728C141.471 4.47948 141.193 4.40557 140.831 4.40557C140.36 4.40557 139.966 4.62728 139.648 5.07069C139.335 5.51409 139.178 6.11874 139.178 6.88462V10.3916H138.076V3.51204H139.178V4.9296H139.205C139.362 4.44588 139.601 4.06966 139.924 3.80093C140.246 3.52772 140.607 3.39111 141.005 3.39111C141.292 3.39111 141.511 3.42247 141.664 3.48517V4.62728Z" fill="#797979"/>
<path d="M136.887 3.51196L133.723 11.4933C133.159 12.9176 132.366 13.6297 131.345 13.6297C131.058 13.6297 130.818 13.6006 130.626 13.5424V12.5548C130.863 12.6354 131.08 12.6757 131.277 12.6757C131.833 12.6757 132.249 12.3443 132.527 11.6814L133.078 10.3781L130.391 3.51196H131.613L133.474 8.80597C133.497 8.87316 133.544 9.04783 133.615 9.33H133.656C133.678 9.22251 133.723 9.05231 133.79 8.81941L135.745 3.51196H136.887Z" fill="#797979"/>
<path d="M124.291 3.28351C124.291 2.9879 124.244 2.73037 124.15 2.5109C124.06 2.29144 123.935 2.11005 123.773 1.96672C123.617 1.81892 123.431 1.70919 123.216 1.63753C123.001 1.56586 122.768 1.53003 122.517 1.53003C122.302 1.53003 122.092 1.55915 121.885 1.61737C121.679 1.6756 121.478 1.75622 121.281 1.85923C121.088 1.96224 120.9 2.08541 120.716 2.22874C120.537 2.37206 120.369 2.53106 120.213 2.70573V1.52331C120.522 1.22323 120.867 0.99481 121.247 0.83805C121.632 0.676811 122.1 0.596191 122.651 0.596191C123.045 0.596191 123.411 0.654417 123.746 0.770867C124.082 0.882838 124.373 1.04856 124.62 1.26802C124.866 1.48748 125.059 1.75846 125.198 2.08093C125.341 2.40341 125.413 2.77292 125.413 3.18945C125.413 3.57015 125.368 3.91502 125.278 4.22407C125.193 4.53311 125.061 4.82423 124.882 5.09744C124.707 5.37065 124.485 5.63267 124.217 5.88348C123.948 6.1343 123.632 6.38959 123.269 6.64937C122.817 6.97185 122.443 7.2473 122.147 7.47572C121.856 7.70414 121.623 7.91912 121.449 8.12067C121.279 8.31774 121.158 8.51705 121.086 8.7186C121.019 8.91567 120.985 9.14409 120.985 9.40387H125.782V10.3915H119.836V9.91446C119.836 9.5024 119.881 9.13961 119.971 8.82609C120.06 8.51257 120.208 8.21473 120.414 7.93256C120.62 7.65039 120.889 7.36822 121.22 7.08606C121.556 6.80389 121.966 6.48589 122.45 6.13206C122.799 5.88124 123.09 5.64162 123.323 5.4132C123.561 5.18478 123.751 4.95636 123.894 4.72794C124.038 4.49952 124.138 4.26885 124.197 4.03595C124.259 3.79857 124.291 3.54776 124.291 3.28351Z" fill="#797979"/>
<path d="M111.197 10.3243C110.937 10.4676 110.594 10.5393 110.169 10.5393C108.964 10.5393 108.361 9.86746 108.361 8.5238V4.45252H107.179V3.51196H108.361V1.83239L109.463 1.47632V3.51196H111.197V4.45252H109.463V8.32897C109.463 8.79029 109.542 9.11949 109.698 9.31656C109.855 9.51363 110.115 9.61216 110.478 9.61216C110.755 9.61216 110.995 9.53602 111.197 9.38374V10.3243Z" fill="#797979"/>
<path d="M105.923 10.3916H104.821V6.46812C104.821 5.00801 104.288 4.27795 103.222 4.27795C102.671 4.27795 102.214 4.48622 101.852 4.90275C101.493 5.31481 101.314 5.8366 101.314 6.46812V10.3916H100.212V3.51207H101.314V4.65418H101.341C101.86 3.78528 102.613 3.35083 103.598 3.35083C104.351 3.35083 104.926 3.59493 105.325 4.08312C105.723 4.56684 105.923 5.26778 105.923 6.18595V10.3916Z" fill="#797979"/>
<path d="M98.5392 7.22728H93.6819C93.6998 7.99317 93.9058 8.58438 94.3 9.00091C94.6941 9.41744 95.236 9.62571 95.9258 9.62571C96.7006 9.62571 97.4128 9.37042 98.0622 8.85983V9.89444C97.4576 10.3334 96.6581 10.5528 95.6638 10.5528C94.6919 10.5528 93.9282 10.2416 93.3728 9.61899C92.8175 8.99195 92.5398 8.11186 92.5398 6.9787C92.5398 5.90826 92.8421 5.03712 93.4467 4.36529C94.0559 3.68898 94.8105 3.35083 95.7108 3.35083C96.611 3.35083 97.3075 3.64196 97.8002 4.22421C98.2929 4.80646 98.5392 5.61489 98.5392 6.64951V7.22728ZM97.4105 6.29344C97.406 5.65744 97.2515 5.16253 96.947 4.8087C96.6469 4.45487 96.2281 4.27795 95.6906 4.27795C95.1711 4.27795 94.7299 4.46383 94.3671 4.83557C94.0044 5.20732 93.7804 5.69327 93.6953 6.29344H97.4105Z" fill="#797979"/>
<path d="M86.7486 10.143V8.9606C87.3488 9.40401 88.0094 9.62571 88.7305 9.62571C89.698 9.62571 90.1817 9.30323 90.1817 8.65828C90.1817 8.47464 90.1391 8.32012 90.054 8.19472C89.9734 8.06483 89.8614 7.95062 89.7181 7.85208C89.5793 7.75355 89.4135 7.66621 89.221 7.59007C89.0328 7.50945 88.8291 7.42659 88.6096 7.34149C88.305 7.22056 88.0363 7.09963 87.8034 6.9787C87.575 6.8533 87.3824 6.71445 87.2256 6.56217C87.0733 6.40541 86.9569 6.2285 86.8763 6.03143C86.8001 5.83436 86.7621 5.6037 86.7621 5.33944C86.7621 5.01697 86.836 4.73256 86.9838 4.48622C87.1316 4.2354 87.3286 4.02714 87.575 3.86142C87.8213 3.69122 88.1012 3.56358 88.4148 3.47848C88.7328 3.39338 89.0597 3.35083 89.3956 3.35083C89.9913 3.35083 90.5243 3.45384 90.9946 3.65987V4.77511C90.4885 4.44367 89.9062 4.27795 89.2478 4.27795C89.0418 4.27795 88.8559 4.30259 88.6902 4.35185C88.5245 4.39664 88.3812 4.46159 88.2602 4.54669C88.1438 4.63178 88.052 4.7348 87.9848 4.85573C87.9221 4.97218 87.8907 5.10206 87.8907 5.24539C87.8907 5.42454 87.9221 5.57458 87.9848 5.69551C88.052 5.81644 88.1483 5.92393 88.2737 6.01799C88.3991 6.11205 88.5514 6.19714 88.7305 6.27328C88.9097 6.34943 89.1135 6.43228 89.3419 6.52186C89.6464 6.63831 89.9197 6.75924 90.1615 6.88465C90.4034 7.00558 90.6094 7.14442 90.7796 7.30118C90.9498 7.45346 91.0797 7.63038 91.1693 7.83193C91.2633 8.03348 91.3103 8.27309 91.3103 8.55078C91.3103 8.89118 91.2342 9.18678 91.0819 9.4376C90.9341 9.68841 90.7348 9.89668 90.484 10.0624C90.2332 10.2281 89.9443 10.3513 89.6173 10.4319C89.2904 10.5125 88.9477 10.5528 88.5894 10.5528C87.8818 10.5528 87.2682 10.4162 86.7486 10.143Z" fill="#797979"/>
<path d="M85.4925 7.22728H80.6352C80.6531 7.99317 80.8591 8.58438 81.2532 9.00091C81.6474 9.41744 82.1893 9.62571 82.8791 9.62571C83.6539 9.62571 84.366 9.37042 85.0155 8.85983V9.89444C84.4108 10.3334 83.6114 10.5528 82.617 10.5528C81.6451 10.5528 80.8815 10.2416 80.3261 9.61899C79.7707 8.99195 79.493 8.11186 79.493 6.9787C79.493 5.90826 79.7954 5.03712 80.4 4.36529C81.0091 3.68898 81.7638 3.35083 82.6641 3.35083C83.5643 3.35083 84.2608 3.64196 84.7535 4.22421C85.2461 4.80646 85.4925 5.61489 85.4925 6.64951V7.22728ZM84.3638 6.29344C84.3593 5.65744 84.2048 5.16253 83.9002 4.8087C83.6002 4.45487 83.1814 4.27795 82.6439 4.27795C82.1244 4.27795 81.6832 4.46383 81.3204 4.83557C80.9576 5.20732 80.7337 5.69327 80.6486 6.29344H84.3638Z" fill="#797979"/>
<path d="M78.7674 4.62728C78.5748 4.47948 78.2971 4.40557 77.9343 4.40557C77.4641 4.40557 77.0699 4.62728 76.7519 5.07069C76.4384 5.51409 76.2816 6.11874 76.2816 6.88462V10.3916H75.1798V3.51204H76.2816V4.9296H76.3085C76.4653 4.44588 76.7049 4.06966 77.0274 3.80093C77.3498 3.52772 77.7104 3.39111 78.109 3.39111C78.3957 3.39111 78.6151 3.42247 78.7674 3.48517V4.62728Z" fill="#797979"/>
<path d="M68.7441 6.75028V10.3916H67.6154V0.757568H70.2625C71.2926 0.757568 72.0898 1.00838 72.6542 1.51002C73.223 2.01165 73.5074 2.71931 73.5074 3.63299C73.5074 4.54668 73.1916 5.29465 72.5601 5.8769C71.9331 6.45915 71.0843 6.75028 70.0139 6.75028H68.7441ZM68.7441 1.77875V5.7291H69.9265C70.7059 5.7291 71.2993 5.55219 71.7069 5.19836C72.1189 4.84005 72.325 4.33618 72.325 3.68674C72.325 2.41475 71.5725 1.77875 70.0676 1.77875H68.7441Z" fill="#797979"/>
<path d="M61.7028 6.99215H58.0346V6.12549H61.7028V6.99215Z" fill="#797979"/>
<path d="M50.739 10.3915H49.6372V2.06753C49.5521 2.15263 49.4267 2.25116 49.261 2.36314C49.0997 2.47063 48.9161 2.57812 48.7101 2.68561C48.5085 2.79311 48.2936 2.89388 48.0651 2.98794C47.8412 3.08199 47.6217 3.15589 47.4067 3.20964V2.0944C47.6486 2.02722 47.9039 1.93764 48.1726 1.82567C48.4458 1.70922 48.7123 1.58158 48.9721 1.44273C49.2364 1.29941 49.4849 1.15161 49.7178 0.999324C49.9507 0.842564 50.1523 0.690283 50.3225 0.54248H50.739V10.3915Z" fill="#797979"/>
<path d="M43.6444 3.28351C43.6444 2.9879 43.5974 2.73037 43.5034 2.5109C43.4138 2.29144 43.2884 2.11005 43.1271 1.96672C42.9704 1.81892 42.7845 1.70919 42.5695 1.63753C42.3545 1.56586 42.1216 1.53003 41.8708 1.53003C41.6558 1.53003 41.4453 1.55915 41.2393 1.61737C41.0333 1.6756 40.8317 1.75622 40.6346 1.85923C40.4421 1.96224 40.2539 2.08541 40.0703 2.22874C39.8912 2.37206 39.7232 2.53106 39.5664 2.70573V1.52331C39.8755 1.22323 40.2204 0.99481 40.6011 0.83805C40.9862 0.676811 41.4543 0.596191 42.0052 0.596191C42.3993 0.596191 42.7643 0.654417 43.1003 0.770867C43.4362 0.882838 43.7273 1.04856 43.9736 1.26802C44.22 1.48748 44.4126 1.75846 44.5514 2.08093C44.6947 2.40341 44.7664 2.77292 44.7664 3.18945C44.7664 3.57015 44.7216 3.91502 44.632 4.22407C44.5469 4.53311 44.4148 4.82423 44.2356 5.09744C44.061 5.37065 43.8393 5.63267 43.5705 5.88348C43.3018 6.1343 42.986 6.38959 42.6233 6.64937C42.1709 6.97185 41.7969 7.2473 41.5013 7.47572C41.2102 7.70414 40.9773 7.91912 40.8026 8.12067C40.6324 8.31774 40.5115 8.51705 40.4398 8.7186C40.3726 8.91567 40.339 9.14409 40.339 9.40387H45.1359V10.3915H39.1902V9.91446C39.1902 9.5024 39.235 9.13961 39.3246 8.82609C39.4142 8.51257 39.562 8.21473 39.768 7.93256C39.974 7.65039 40.2427 7.36822 40.5742 7.08606C40.9101 6.80389 41.3199 6.48589 41.8036 6.13206C42.153 5.88124 42.4441 5.64162 42.677 5.4132C42.9144 5.18478 43.1047 4.95636 43.2481 4.72794C43.3914 4.49952 43.4922 4.26885 43.5504 4.03595C43.6131 3.79857 43.6444 3.54776 43.6444 3.28351Z" fill="#797979"/>
<path d="M37.8937 5.53413C37.8937 6.34033 37.8198 7.0547 37.672 7.67727C37.5287 8.29983 37.3182 8.82609 37.0405 9.25606C36.7673 9.68155 36.4291 10.0063 36.026 10.2302C35.6274 10.4497 35.1728 10.5594 34.6622 10.5594C34.1785 10.5594 33.7463 10.4542 33.3656 10.2437C32.9894 10.0287 32.6714 9.71739 32.4116 9.30981C32.1518 8.90223 31.9547 8.40284 31.8204 7.81163C31.686 7.21594 31.6188 6.53516 31.6188 5.76927C31.6188 4.92725 31.6883 4.18376 31.8271 3.5388C31.9704 2.89385 32.1787 2.35414 32.4519 1.91969C32.7251 1.48077 33.0633 1.15157 33.4664 0.932106C33.8739 0.708163 34.3397 0.596191 34.8638 0.596191C36.8837 0.596191 37.8937 2.24217 37.8937 5.53413ZM36.765 5.64162C36.765 2.90056 36.1134 1.53003 34.81 1.53003C33.435 1.53003 32.7475 2.9252 32.7475 5.71553C32.7475 8.31774 33.4216 9.61885 34.7697 9.61885C36.0999 9.61885 36.765 8.29311 36.765 5.64162Z" fill="#797979"/>
<path d="M28.8105 3.28351C28.8105 2.9879 28.7635 2.73037 28.6694 2.5109C28.5798 2.29144 28.4544 2.11005 28.2932 1.96672C28.1364 1.81892 27.9505 1.70919 27.7356 1.63753C27.5206 1.56586 27.2877 1.53003 27.0369 1.53003C26.8219 1.53003 26.6114 1.55915 26.4053 1.61737C26.1993 1.6756 25.9978 1.75622 25.8007 1.85923C25.6081 1.96224 25.42 2.08541 25.2364 2.22874C25.0572 2.37206 24.8892 2.53106 24.7325 2.70573V1.52331C25.0415 1.22323 25.3864 0.99481 25.7671 0.83805C26.1523 0.676811 26.6203 0.596191 27.1712 0.596191C27.5654 0.596191 27.9304 0.654417 28.2663 0.770867C28.6022 0.882838 28.8933 1.04856 29.1397 1.26802C29.386 1.48748 29.5786 1.75846 29.7175 2.08093C29.8608 2.40341 29.9324 2.77292 29.9324 3.18945C29.9324 3.57015 29.8877 3.91502 29.7981 4.22407C29.713 4.53311 29.5809 4.82423 29.4017 5.09744C29.227 5.37065 29.0053 5.63267 28.7366 5.88348C28.4679 6.1343 28.1521 6.38959 27.7893 6.64937C27.3369 6.97185 26.963 7.2473 26.6674 7.47572C26.3762 7.70414 26.1433 7.91912 25.9687 8.12067C25.7985 8.31774 25.6775 8.51705 25.6059 8.7186C25.5387 8.91567 25.5051 9.14409 25.5051 9.40387H30.3019V10.3915H24.3563V9.91446C24.3563 9.5024 24.4011 9.13961 24.4906 8.82609C24.5802 8.51257 24.728 8.21473 24.934 7.93256C25.1401 7.65039 25.4088 7.36822 25.7402 7.08606C26.0761 6.80389 26.486 6.48589 26.9697 6.13206C27.319 5.88124 27.6102 5.64162 27.8431 5.4132C28.0804 5.18478 28.2708 4.95636 28.4141 4.72794C28.5574 4.49952 28.6582 4.26885 28.7164 4.03595C28.7791 3.79857 28.8105 3.54776 28.8105 3.28351Z" fill="#797979"/>
<path d="M18.8809 10.3916H17.7791V6.46812C17.7791 5.00801 17.2461 4.27795 16.1801 4.27795C15.6292 4.27795 15.1724 4.48622 14.8096 4.90275C14.4513 5.31481 14.2721 5.8366 14.2721 6.46812V10.3916H13.1703V3.51207H14.2721V4.65418H14.299C14.8186 3.78528 15.571 3.35083 16.5564 3.35083C17.3088 3.35083 17.8843 3.59493 18.283 4.08312C18.6816 4.56684 18.8809 5.26778 18.8809 6.18595V10.3916Z" fill="#797979"/>
<path d="M11.0941 10.3916H9.99229V9.31667H9.96542C9.48618 10.1408 8.78076 10.5528 7.84916 10.5528C7.16389 10.5528 6.62643 10.3714 6.23677 10.0087C5.85159 9.64586 5.659 9.16439 5.659 8.56422C5.659 7.27879 6.41592 6.53082 7.92978 6.32031L9.99229 6.03143C9.99229 4.86244 9.51977 4.27795 8.57473 4.27795C7.74614 4.27795 6.99818 4.56012 6.33083 5.12446V3.99579C7.00713 3.56582 7.78645 3.35083 8.66879 3.35083C10.2857 3.35083 11.0941 4.20629 11.0941 5.91722V10.3916ZM9.99229 6.91152L8.33287 7.13994C7.82228 7.21161 7.4371 7.33925 7.17733 7.52289C6.91756 7.70204 6.78767 8.02228 6.78767 8.4836C6.78767 8.81952 6.90636 9.09497 7.14374 9.30995C7.3856 9.52046 7.70583 9.62571 8.10445 9.62571C8.65087 9.62571 9.101 9.43536 9.45483 9.05466C9.81314 8.66947 9.99229 8.18352 9.99229 7.59679V6.91152Z" fill="#797979"/>
<path d="M3.86552 6.93839C3.86552 8.0805 3.62367 8.96955 3.13995 9.60555C2.65623 10.2371 2.00904 10.5528 1.19836 10.5528C0.82214 10.5528 0.513099 10.4991 0.27124 10.3916V9.27636C0.513099 9.45103 0.826619 9.53837 1.2118 9.53837C2.2285 9.53837 2.73685 8.67619 2.73685 6.95183V0.757568H3.86552V6.93839Z" fill="#797979"/>
</svg>
