<svg width="201" height="16" viewBox="0 0 201 16" fill="none" xmlns="http://www.w3.org/2000/svg">
<path d="M200.711 11.5769H198.95V0.118896H200.711V11.5769Z" fill="#202244"/>
<path d="M193.13 11.7583C191.936 11.7583 190.981 11.398 190.266 10.6775C189.555 9.95188 189.2 8.992 189.2 7.79783C189.2 6.49784 189.57 5.48254 190.311 4.75193C191.057 4.02131 192.059 3.65601 193.319 3.65601C194.528 3.65601 195.471 4.01124 196.146 4.72169C196.821 5.43215 197.159 6.41722 197.159 7.6769C197.159 8.91139 196.793 9.90149 196.063 10.6472C195.337 11.3879 194.36 11.7583 193.13 11.7583ZM193.213 5.05425C192.528 5.05425 191.986 5.29359 191.588 5.77227C191.19 6.25094 190.991 6.91102 190.991 7.75248C190.991 8.56371 191.193 9.20363 191.596 9.67223C191.999 10.1358 192.538 10.3676 193.213 10.3676C193.904 10.3676 194.433 10.1383 194.8 9.67979C195.173 9.22127 195.36 8.56875 195.36 7.72225C195.36 6.87071 195.173 6.21315 194.8 5.74959C194.433 5.28603 193.904 5.05425 193.213 5.05425Z" fill="#202244"/>
<path d="M183.879 11.7583C182.685 11.7583 181.73 11.398 181.015 10.6775C180.304 9.95188 179.949 8.992 179.949 7.79783C179.949 6.49784 180.319 5.48254 181.06 4.75193C181.806 4.02131 182.808 3.65601 184.068 3.65601C185.277 3.65601 186.22 4.01124 186.895 4.72169C187.57 5.43215 187.908 6.41722 187.908 7.6769C187.908 8.91139 187.542 9.90149 186.812 10.6472C186.086 11.3879 185.108 11.7583 183.879 11.7583ZM183.962 5.05425C183.277 5.05425 182.735 5.29359 182.337 5.77227C181.939 6.25094 181.74 6.91102 181.74 7.75248C181.74 8.56371 181.942 9.20363 182.345 9.67223C182.748 10.1358 183.287 10.3676 183.962 10.3676C184.652 10.3676 185.182 10.1383 185.549 9.67979C185.922 9.22127 186.109 8.56875 186.109 7.72225C186.109 6.87071 185.922 6.21315 185.549 5.74959C185.182 5.28603 184.652 5.05425 183.962 5.05425Z" fill="#202244"/>
<path d="M178.316 11.5769H176.562V7.34441C176.562 5.81264 176.051 5.04676 175.028 5.04676C174.514 5.04676 174.081 5.26846 173.728 5.71187C173.375 6.15528 173.199 6.72213 173.199 7.41244V11.5769H171.438V0.118896H173.199V5.12234H173.229C173.814 4.14483 174.65 3.65607 175.739 3.65607C177.457 3.65607 178.316 4.70665 178.316 6.80779V11.5769Z" fill="#202244"/>
<path d="M169.692 11.2216C169.073 11.5794 168.339 11.7583 167.493 11.7583C166.344 11.7583 165.417 11.4005 164.712 10.685C164.006 9.96448 163.653 9.03231 163.653 7.88853C163.653 6.61373 164.031 5.59087 164.787 4.81995C165.548 4.04399 166.563 3.65601 167.833 3.65601C168.538 3.65601 169.161 3.77945 169.7 4.02635V5.65889C169.161 5.2558 168.586 5.05425 167.977 5.05425C167.236 5.05425 166.629 5.30618 166.155 5.81006C165.682 6.30889 165.445 6.96392 165.445 7.77516C165.445 8.57631 165.666 9.20867 166.11 9.67223C166.558 10.1358 167.158 10.3676 167.909 10.3676C168.538 10.3676 169.133 10.1434 169.692 9.69491V11.2216Z" fill="#202244"/>
<path d="M155.415 11.1462V9.2945C155.582 9.44567 155.778 9.58171 156.005 9.70264C156.237 9.82357 156.481 9.92686 156.738 10.0125C156.995 10.0931 157.252 10.1561 157.509 10.2015C157.766 10.2468 158.003 10.2695 158.22 10.2695C158.975 10.2695 159.537 10.1435 159.905 9.89159C160.278 9.63966 160.464 9.27435 160.464 8.79567C160.464 8.5387 160.401 8.31699 160.275 8.13056C160.154 7.93909 159.983 7.76525 159.761 7.60905C159.54 7.45285 159.278 7.30421 158.975 7.16313C158.678 7.01701 158.358 6.86584 158.015 6.70964C157.648 6.51313 157.305 6.3141 156.988 6.11256C156.67 5.91101 156.393 5.6893 156.156 5.44745C155.924 5.20055 155.74 4.92342 155.604 4.61606C155.473 4.3087 155.408 3.94843 155.408 3.53525C155.408 3.02634 155.521 2.58546 155.748 2.21259C155.98 1.83469 156.282 1.52481 156.655 1.28295C157.033 1.03605 157.461 0.854657 157.94 0.738767C158.419 0.617838 158.907 0.557373 159.406 0.557373C160.54 0.557373 161.366 0.68586 161.885 0.942835V2.71898C161.27 2.27557 160.479 2.05387 159.512 2.05387C159.245 2.05387 158.978 2.07906 158.711 2.12945C158.449 2.17984 158.212 2.26298 158 2.37887C157.794 2.49476 157.625 2.6434 157.494 2.82479C157.363 3.00619 157.297 3.22537 157.297 3.48235C157.297 3.72421 157.348 3.93331 157.449 4.10967C157.549 4.28602 157.695 4.44726 157.887 4.59338C158.083 4.73951 158.32 4.88311 158.597 5.02419C158.88 5.16024 159.205 5.30888 159.572 5.47012C159.95 5.66663 160.306 5.87322 160.638 6.08988C160.976 6.30655 161.27 6.54589 161.522 6.8079C161.779 7.06991 161.981 7.36216 162.127 7.68464C162.278 8.00207 162.354 8.36486 162.354 8.773C162.354 9.32222 162.243 9.78578 162.021 10.1637C161.8 10.5416 161.5 10.8489 161.122 11.0858C160.749 11.3226 160.318 11.4939 159.829 11.5997C159.341 11.7055 158.824 11.7584 158.28 11.7584C158.099 11.7584 157.874 11.7433 157.607 11.7131C157.345 11.6879 157.076 11.6476 156.799 11.5922C156.521 11.5418 156.259 11.4788 156.013 11.4032C155.766 11.3276 155.567 11.242 155.415 11.1462Z" fill="#202244"/>
<path d="M149.172 10.9571C149.172 13.7989 147.744 15.2199 144.887 15.2199C143.879 15.2199 143 15.0511 142.249 14.7135V13.1112C143.096 13.5949 143.899 13.8367 144.66 13.8367C146.499 13.8367 147.419 12.9323 147.419 11.1234V10.2769H147.389C146.809 11.2645 145.938 11.7583 144.774 11.7583C143.831 11.7583 143.071 11.4156 142.491 10.7304C141.917 10.0401 141.629 9.11545 141.629 7.95655C141.629 6.64144 141.939 5.59591 142.559 4.81995C143.179 4.04399 144.03 3.65601 145.114 3.65601C146.137 3.65601 146.895 4.07422 147.389 4.91065H147.419V3.8374H149.172V10.9571ZM147.434 8.03213V7.02691C147.434 6.48272 147.253 6.01916 146.89 5.63622C146.532 5.24824 146.084 5.05425 145.545 5.05425C144.879 5.05425 144.358 5.30115 143.98 5.79494C143.607 6.2837 143.421 6.96896 143.421 7.85074C143.421 8.61158 143.6 9.22127 143.957 9.67979C144.32 10.1333 144.799 10.36 145.393 10.36C145.998 10.36 146.489 10.1434 146.867 9.71002C147.245 9.27165 147.434 8.71236 147.434 8.03213Z" fill="#202244"/>
<path d="M139.982 11.5769H138.228V7.21586C138.228 5.76975 137.717 5.04669 136.694 5.04669C136.16 5.04669 135.719 5.24824 135.371 5.65134C135.023 6.0494 134.85 6.55327 134.85 7.16295V11.5769H133.089V3.8374H134.85V5.12227H134.88C135.459 4.14476 136.296 3.65601 137.389 3.65601C138.231 3.65601 138.873 3.93062 139.316 4.47984C139.76 5.02402 139.982 5.81258 139.982 6.84551V11.5769Z" fill="#202244"/>
<path d="M129.922 2.21262C129.635 2.21262 129.388 2.1194 129.181 1.93297C128.98 1.74654 128.879 1.50972 128.879 1.22251C128.879 0.935302 128.98 0.695963 129.181 0.504492C129.388 0.313021 129.635 0.217285 129.922 0.217285C130.219 0.217285 130.471 0.313021 130.678 0.504492C130.884 0.695963 130.988 0.935302 130.988 1.22251C130.988 1.4946 130.884 1.7289 130.678 1.92541C130.471 2.11688 130.219 2.21262 129.922 2.21262ZM130.791 11.5771H129.038V3.8376H130.791V11.5771Z" fill="#202244"/>
<path d="M126.558 11.577H124.752V6.87592H119.65V11.577H117.851V0.73877H119.65V5.29629H124.752V0.73877H126.558V11.577Z" fill="#202244"/>
<path d="M111.103 11.5769H109.341V0.118896H111.103V11.5769Z" fill="#202244"/>
<path d="M107.195 11.5769H105.494V10.3676H105.464C104.93 11.2947 104.146 11.7583 103.113 11.7583C102.352 11.7583 101.755 11.5517 101.322 11.1385C100.894 10.7253 100.68 10.1786 100.68 9.49839C100.68 8.03717 101.521 7.18563 103.204 6.94377L105.502 6.61877C105.502 5.51529 104.978 4.96355 103.929 4.96355C103.007 4.96355 102.176 5.28099 101.435 5.91587V4.38158C102.252 3.89786 103.194 3.65601 104.262 3.65601C106.217 3.65601 107.195 4.6184 107.195 6.54319V11.5769ZM105.502 7.77516L103.877 8.0019C103.373 8.0674 102.992 8.19085 102.735 8.37224C102.483 8.5486 102.357 8.861 102.357 9.30944C102.357 9.63696 102.473 9.90653 102.705 10.1182C102.942 10.3247 103.257 10.428 103.65 10.428C104.184 10.428 104.625 10.2416 104.972 9.86874C105.325 9.49084 105.502 9.0172 105.502 8.44782V7.77516Z" fill="#202244"/>
<path d="M99.5079 11.2216C98.8881 11.5794 98.155 11.7583 97.3085 11.7583C96.1597 11.7583 95.2325 11.4005 94.5271 10.685C93.8217 9.96448 93.469 9.03231 93.469 7.88853C93.469 6.61373 93.8469 5.59087 94.6027 4.81995C95.3636 4.04399 96.3789 3.65601 97.6486 3.65601C98.354 3.65601 98.9763 3.77945 99.5155 4.02635V5.65889C98.9763 5.2558 98.4019 5.05425 97.7922 5.05425C97.0515 5.05425 96.4444 5.30618 95.9707 5.81006C95.4971 6.30889 95.2603 6.96392 95.2603 7.77516C95.2603 8.57631 95.482 9.20867 95.9254 9.67223C96.3738 10.1358 96.9734 10.3676 97.7242 10.3676C98.354 10.3676 98.9486 10.1434 99.5079 9.69491V11.2216Z" fill="#202244"/>
<path d="M90.8014 2.21262C90.5142 2.21262 90.2673 2.1194 90.0607 1.93297C89.8591 1.74654 89.7584 1.50972 89.7584 1.22251C89.7584 0.935302 89.8591 0.695963 90.0607 0.504492C90.2673 0.313021 90.5142 0.217285 90.8014 0.217285C91.0987 0.217285 91.3506 0.313021 91.5572 0.504492C91.7638 0.695963 91.8671 0.935302 91.8671 1.22251C91.8671 1.4946 91.7638 1.7289 91.5572 1.92541C91.3506 2.11688 91.0987 2.21262 90.8014 2.21262ZM91.6706 11.5771H89.9171V3.8376H91.6706V11.5771Z" fill="#202244"/>
<path d="M87.7706 11.5769H86.0172V7.21586C86.0172 5.76975 85.5057 5.04669 84.4829 5.04669C83.9488 5.04669 83.5079 5.24824 83.1602 5.65134C82.8126 6.0494 82.6387 6.55327 82.6387 7.16295V11.5769H80.8777V3.8374H82.6387V5.12227H82.6689C83.2484 4.14476 84.0848 3.65601 85.1782 3.65601C86.0197 3.65601 86.6621 3.93062 87.1055 4.47984C87.5489 5.02402 87.7706 5.81258 87.7706 6.84551V11.5769Z" fill="#202244"/>
<path d="M78.7463 11.5769H76.9928V7.34441C76.9928 5.81264 76.4814 5.04676 75.4585 5.04676C74.9445 5.04676 74.5112 5.26846 74.1585 5.71187C73.8058 6.15528 73.6294 6.72213 73.6294 7.41244V11.5769H71.8684V0.118896H73.6294V5.12234H73.6597C74.2442 4.14483 75.0806 3.65607 76.169 3.65607C77.8872 3.65607 78.7463 4.70665 78.7463 6.80779V11.5769Z" fill="#202244"/>
<path d="M70.1227 11.2216C69.503 11.5794 68.7698 11.7583 67.9233 11.7583C66.7745 11.7583 65.8474 11.4005 65.142 10.685C64.4365 9.96448 64.0838 9.03231 64.0838 7.88853C64.0838 6.61373 64.4617 5.59087 65.2175 4.81995C65.9784 4.04399 66.9937 3.65601 68.2634 3.65601C68.9689 3.65601 69.5911 3.77945 70.1303 4.02635V5.65889C69.5911 5.2558 69.0167 5.05425 68.407 5.05425C67.6664 5.05425 67.0592 5.30618 66.5856 5.81006C66.1119 6.30889 65.8751 6.96392 65.8751 7.77516C65.8751 8.57631 66.0968 9.20867 66.5402 9.67223C66.9887 10.1358 67.5883 10.3676 68.339 10.3676C68.9689 10.3676 69.5634 10.1434 70.1227 9.69491V11.2216Z" fill="#202244"/>
<path d="M62.9125 8.18329H57.637C57.6571 8.89879 57.8763 9.45053 58.2945 9.83851C58.7178 10.2265 59.2972 10.4205 60.0329 10.4205C60.8592 10.4205 61.6175 10.1736 62.3078 9.67979V11.0931C61.6024 11.5366 60.6703 11.7583 59.5114 11.7583C58.3726 11.7583 57.4782 11.4081 56.8282 10.7077C56.1833 10.0023 55.8608 9.01216 55.8608 7.73736C55.8608 6.53311 56.216 5.55308 56.9265 4.79727C57.642 4.03643 58.5288 3.65601 59.5869 3.65601C60.6451 3.65601 61.4639 3.99612 62.0433 4.67635C62.6228 5.35657 62.9125 6.30133 62.9125 7.51062V8.18329ZM61.2195 6.94377C61.2144 6.31393 61.0658 5.82517 60.7736 5.4775C60.4813 5.12479 60.0782 4.94844 59.5643 4.94844C59.0604 4.94844 58.6321 5.13235 58.2794 5.50018C57.9317 5.868 57.7176 6.3492 57.637 6.94377H61.2195Z" fill="#202244"/>
<path d="M56.4802 2.2655H53.3663V11.577H51.5675V2.2655H48.4611V0.73877H56.4802V2.2655Z" fill="#202244"/>
<path d="M42.7774 11.5769H41.0163V0.118896H42.7774V11.5769Z" fill="#202244"/>
<path d="M38.7259 11.5769H36.9649V0.118896H38.7259V11.5769Z" fill="#202244"/>
<path d="M35.2945 8.18329H30.019C30.0392 8.89879 30.2583 9.45053 30.6766 9.83851C31.0998 10.2265 31.6793 10.4205 32.4149 10.4205C33.2413 10.4205 33.9996 10.1736 34.6899 9.67979V11.0931C33.9845 11.5366 33.0523 11.7583 31.8934 11.7583C30.7547 11.7583 29.8603 11.4081 29.2103 10.7077C28.5653 10.0023 28.2429 9.01216 28.2429 7.73736C28.2429 6.53311 28.5981 5.55308 29.3085 4.79727C30.024 4.03643 30.9109 3.65601 31.969 3.65601C33.0271 3.65601 33.8459 3.99612 34.4254 4.67635C35.0048 5.35657 35.2945 6.30133 35.2945 7.51062V8.18329ZM33.6015 6.94377C33.5965 6.31393 33.4479 5.82517 33.1556 5.4775C32.8634 5.12479 32.4603 4.94844 31.9463 4.94844C31.4424 4.94844 31.0142 5.13235 30.6614 5.50018C30.3138 5.868 30.0996 6.3492 30.019 6.94377H33.6015Z" fill="#202244"/>
<path d="M27.5101 3.8374L25.2276 11.5769H23.3909L21.9851 6.33157C21.9297 6.13002 21.8944 5.90328 21.8793 5.65134H21.8491C21.839 5.82266 21.7937 6.04436 21.713 6.31645L20.1863 11.5769H18.3875L16.1125 3.8374H17.9265L19.3323 9.41526C19.3776 9.58154 19.4078 9.80324 19.423 10.0804H19.4759C19.491 9.86874 19.5313 9.642 19.5968 9.40014L21.1613 3.8374H22.809L24.1997 9.43793C24.245 9.61429 24.2778 9.83599 24.2979 10.103H24.3508C24.3609 9.91661 24.3987 9.69491 24.4642 9.43793L25.8398 3.8374H27.5101Z" fill="#202244"/>
<path d="M11.2827 11.7583C10.0885 11.7583 9.13366 11.398 8.41817 10.6775C7.70771 9.95188 7.35248 8.992 7.35248 7.79783C7.35248 6.49784 7.72282 5.48254 8.46351 4.75193C9.20924 4.02131 10.2119 3.65601 11.4716 3.65601C12.6809 3.65601 13.6232 4.01124 14.2983 4.72169C14.9735 5.43215 15.3111 6.41722 15.3111 7.6769C15.3111 8.91139 14.9458 9.90149 14.2152 10.6472C13.4896 11.3879 12.5121 11.7583 11.2827 11.7583ZM11.3658 5.05425C10.6805 5.05425 10.1389 5.29359 9.74083 5.77227C9.34277 6.25094 9.14374 6.91102 9.14374 7.75248C9.14374 8.56371 9.34529 9.20363 9.74839 9.67223C10.1515 10.1358 10.6906 10.3676 11.3658 10.3676C12.0561 10.3676 12.5852 10.1383 12.953 9.67979C13.3259 9.22127 13.5123 8.56875 13.5123 7.72225C13.5123 6.87071 13.3259 6.21315 12.953 5.74959C12.5852 5.28603 12.0561 5.05425 11.3658 5.05425Z" fill="#202244"/>
<path d="M6.47538 11.577H0.474274V0.73877H2.2731V10.0579H6.47538V11.577Z" fill="#202244"/>
</svg>
