<svg width="198" height="12" viewBox="0 0 198 12" fill="none" xmlns="http://www.w3.org/2000/svg">
<path d="M197.094 11.0692C196.835 11.2125 196.492 11.2842 196.066 11.2842C194.862 11.2842 194.259 10.6123 194.259 9.26867V5.19739H193.077V4.25683H194.259V2.57726L195.361 2.22119V4.25683H197.094V5.19739H195.361V9.07384C195.361 9.53517 195.439 9.86436 195.596 10.0614C195.753 10.2585 196.013 10.357 196.375 10.357C196.653 10.357 196.893 10.2809 197.094 10.1286V11.0692Z" fill="#797979"/>
<path d="M191.821 11.1363H190.719V7.21287C190.719 5.75276 190.186 5.0227 189.12 5.0227C188.569 5.0227 188.113 5.23097 187.75 5.64751C187.391 6.05956 187.212 6.58135 187.212 7.21287V11.1363H186.11V4.25682H187.212V5.39893H187.239C187.759 4.53003 188.511 4.09558 189.496 4.09558C190.249 4.09558 190.824 4.33968 191.223 4.82787C191.622 5.31159 191.821 6.01253 191.821 6.9307V11.1363Z" fill="#797979"/>
<path d="M184.438 7.97203H179.581C179.599 8.73792 179.805 9.32913 180.199 9.74566C180.593 10.1622 181.135 10.3705 181.825 10.3705C182.599 10.3705 183.311 10.1152 183.961 9.60458V10.6392C183.356 11.0781 182.557 11.2976 181.562 11.2976C180.591 11.2976 179.827 10.9863 179.272 10.3637C178.716 9.7367 178.438 8.85661 178.438 7.72346C178.438 6.65301 178.741 5.78187 179.345 5.11004C179.955 4.43373 180.709 4.09558 181.61 4.09558C182.51 4.09558 183.206 4.38671 183.699 4.96896C184.192 5.55121 184.438 6.35964 184.438 7.39426V7.97203ZM183.309 7.03819C183.305 6.40219 183.15 5.90728 182.846 5.55345C182.546 5.19962 182.127 5.0227 181.589 5.0227C181.07 5.0227 180.629 5.20858 180.266 5.58032C179.903 5.95207 179.679 6.43802 179.594 7.03819H183.309Z" fill="#797979"/>
<path d="M176.826 11.1363H175.724V7.18599C175.724 6.42459 175.605 5.87369 175.368 5.53329C175.135 5.1929 174.741 5.0227 174.185 5.0227C173.715 5.0227 173.314 5.23769 172.983 5.66766C172.656 6.09763 172.492 6.6127 172.492 7.21287V11.1363H171.391V7.05163C171.391 5.69901 170.869 5.0227 169.825 5.0227C169.342 5.0227 168.943 5.22649 168.629 5.63407C168.316 6.03717 168.159 6.56343 168.159 7.21287V11.1363H167.057V4.25682H168.159V5.34518H168.186C168.674 4.51211 169.386 4.09558 170.322 4.09558C170.793 4.09558 171.203 4.22771 171.552 4.49196C171.901 4.75173 172.141 5.09437 172.271 5.51986C172.781 4.57034 173.543 4.09558 174.555 4.09558C176.069 4.09558 176.826 5.02942 176.826 6.89711V11.1363Z" fill="#797979"/>
<path d="M160.796 10.8878V9.70535C161.396 10.1488 162.057 10.3705 162.778 10.3705C163.745 10.3705 164.229 10.048 164.229 9.40303C164.229 9.21939 164.186 9.06487 164.101 8.93947C164.021 8.80958 163.909 8.69537 163.765 8.59683C163.626 8.4983 163.461 8.41096 163.268 8.33482C163.08 8.2542 162.876 8.17134 162.657 8.08624C162.352 7.96531 162.083 7.84439 161.851 7.72346C161.622 7.59805 161.43 7.4592 161.273 7.30692C161.12 7.15016 161.004 6.97325 160.923 6.77618C160.847 6.57911 160.809 6.34845 160.809 6.08419C160.809 5.76172 160.883 5.47731 161.031 5.23097C161.179 4.98016 161.376 4.77189 161.622 4.60617C161.868 4.43597 162.148 4.30833 162.462 4.22323C162.78 4.13813 163.107 4.09558 163.443 4.09558C164.038 4.09558 164.571 4.19859 165.042 4.40462V5.51986C164.536 5.18842 163.953 5.0227 163.295 5.0227C163.089 5.0227 162.903 5.04734 162.737 5.09661C162.572 5.14139 162.428 5.20634 162.307 5.29144C162.191 5.37653 162.099 5.47955 162.032 5.60048C161.969 5.71693 161.938 5.84681 161.938 5.99014C161.938 6.16929 161.969 6.31933 162.032 6.44026C162.099 6.56119 162.195 6.66868 162.321 6.76274C162.446 6.8568 162.599 6.9419 162.778 7.01804C162.957 7.09418 163.161 7.17704 163.389 7.26661C163.694 7.38306 163.967 7.50399 164.209 7.6294C164.451 7.75033 164.657 7.88917 164.827 8.04593C164.997 8.19822 165.127 8.37513 165.216 8.57668C165.31 8.77823 165.357 9.01785 165.357 9.29554C165.357 9.63593 165.281 9.93153 165.129 10.1823C164.981 10.4332 164.782 10.6414 164.531 10.8071C164.28 10.9729 163.991 11.096 163.664 11.1767C163.338 11.2573 162.995 11.2976 162.637 11.2976C161.929 11.2976 161.315 11.161 160.796 10.8878Z" fill="#797979"/>
<path d="M154.951 10.8878V9.70535C155.551 10.1488 156.212 10.3705 156.933 10.3705C157.9 10.3705 158.384 10.048 158.384 9.40303C158.384 9.21939 158.342 9.06487 158.256 8.93947C158.176 8.80958 158.064 8.69537 157.921 8.59683C157.782 8.4983 157.616 8.41096 157.423 8.33482C157.235 8.2542 157.032 8.17134 156.812 8.08624C156.507 7.96531 156.239 7.84439 156.006 7.72346C155.777 7.59805 155.585 7.4592 155.428 7.30692C155.276 7.15016 155.159 6.97325 155.079 6.77618C155.003 6.57911 154.965 6.34845 154.965 6.08419C154.965 5.76172 155.038 5.47731 155.186 5.23097C155.334 4.98016 155.531 4.77189 155.777 4.60617C156.024 4.43597 156.304 4.30833 156.617 4.22323C156.935 4.13813 157.262 4.09558 157.598 4.09558C158.194 4.09558 158.727 4.19859 159.197 4.40462V5.51986C158.691 5.18842 158.109 5.0227 157.45 5.0227C157.244 5.0227 157.058 5.04734 156.893 5.09661C156.727 5.14139 156.584 5.20634 156.463 5.29144C156.346 5.37653 156.254 5.47955 156.187 5.60048C156.125 5.71693 156.093 5.84681 156.093 5.99014C156.093 6.16929 156.125 6.31933 156.187 6.44026C156.254 6.56119 156.351 6.66868 156.476 6.76274C156.602 6.8568 156.754 6.9419 156.933 7.01804C157.112 7.09418 157.316 7.17704 157.544 7.26661C157.849 7.38306 158.122 7.50399 158.364 7.6294C158.606 7.75033 158.812 7.88917 158.982 8.04593C159.152 8.19822 159.282 8.37513 159.372 8.57668C159.466 8.77823 159.513 9.01785 159.513 9.29554C159.513 9.63593 159.437 9.93153 159.284 10.1823C159.137 10.4332 158.937 10.6414 158.686 10.8071C158.436 10.9729 158.147 11.096 157.82 11.1767C157.493 11.2573 157.15 11.2976 156.792 11.2976C156.084 11.2976 155.471 11.161 154.951 10.8878Z" fill="#797979"/>
<path d="M153.694 7.97203H148.837C148.855 8.73792 149.061 9.32913 149.455 9.74566C149.849 10.1622 150.391 10.3705 151.081 10.3705C151.856 10.3705 152.568 10.1152 153.217 9.60458V10.6392C152.613 11.0781 151.813 11.2976 150.819 11.2976C149.847 11.2976 149.083 10.9863 148.528 10.3637C147.973 9.7367 147.695 8.85661 147.695 7.72346C147.695 6.65301 147.997 5.78187 148.602 5.11004C149.211 4.43373 149.966 4.09558 150.866 4.09558C151.766 4.09558 152.463 4.38671 152.955 4.96896C153.448 5.55121 153.694 6.35964 153.694 7.39426V7.97203ZM152.566 7.03819C152.561 6.40219 152.407 5.90728 152.102 5.55345C151.802 5.19962 151.383 5.0227 150.846 5.0227C150.326 5.0227 149.885 5.20858 149.522 5.58032C149.16 5.95207 148.936 6.43802 148.851 7.03819H152.566Z" fill="#797979"/>
<path d="M141.904 10.8878V9.70535C142.505 10.1488 143.165 10.3705 143.886 10.3705C144.854 10.3705 145.337 10.048 145.337 9.40303C145.337 9.21939 145.295 9.06487 145.21 8.93947C145.129 8.80958 145.017 8.69537 144.874 8.59683C144.735 8.4983 144.569 8.41096 144.377 8.33482C144.189 8.2542 143.985 8.17134 143.765 8.08624C143.461 7.96531 143.192 7.84439 142.959 7.72346C142.731 7.59805 142.538 7.4592 142.381 7.30692C142.229 7.15016 142.113 6.97325 142.032 6.77618C141.956 6.57911 141.918 6.34845 141.918 6.08419C141.918 5.76172 141.992 5.47731 142.139 5.23097C142.287 4.98016 142.484 4.77189 142.731 4.60617C142.977 4.43597 143.257 4.30833 143.57 4.22323C143.888 4.13813 144.215 4.09558 144.551 4.09558C145.147 4.09558 145.68 4.19859 146.15 4.40462V5.51986C145.644 5.18842 145.062 5.0227 144.404 5.0227C144.198 5.0227 144.012 5.04734 143.846 5.09661C143.68 5.14139 143.537 5.20634 143.416 5.29144C143.3 5.37653 143.208 5.47955 143.141 5.60048C143.078 5.71693 143.046 5.84681 143.046 5.99014C143.046 6.16929 143.078 6.31933 143.141 6.44026C143.208 6.56119 143.304 6.66868 143.429 6.76274C143.555 6.8568 143.707 6.9419 143.886 7.01804C144.065 7.09418 144.269 7.17704 144.498 7.26661C144.802 7.38306 145.075 7.50399 145.317 7.6294C145.559 7.75033 145.765 7.88917 145.935 8.04593C146.106 8.19822 146.235 8.37513 146.325 8.57668C146.419 8.77823 146.466 9.01785 146.466 9.29554C146.466 9.63593 146.39 9.93153 146.238 10.1823C146.09 10.4332 145.891 10.6414 145.64 10.8071C145.389 10.9729 145.1 11.096 144.773 11.1767C144.446 11.2573 144.103 11.2976 143.745 11.2976C143.038 11.2976 142.424 11.161 141.904 10.8878Z" fill="#797979"/>
<path d="M136.059 10.8878V9.70535C136.659 10.1488 137.32 10.3705 138.041 10.3705C139.008 10.3705 139.492 10.048 139.492 9.40303C139.492 9.21939 139.45 9.06487 139.365 8.93947C139.284 8.80958 139.172 8.69537 139.029 8.59683C138.89 8.4983 138.724 8.41096 138.531 8.33482C138.343 8.2542 138.14 8.17134 137.92 8.08624C137.616 7.96531 137.347 7.84439 137.114 7.72346C136.885 7.59805 136.693 7.4592 136.536 7.30692C136.384 7.15016 136.267 6.97325 136.187 6.77618C136.111 6.57911 136.073 6.34845 136.073 6.08419C136.073 5.76172 136.146 5.47731 136.294 5.23097C136.442 4.98016 136.639 4.77189 136.885 4.60617C137.132 4.43597 137.412 4.30833 137.725 4.22323C138.043 4.13813 138.37 4.09558 138.706 4.09558C139.302 4.09558 139.835 4.19859 140.305 4.40462V5.51986C139.799 5.18842 139.217 5.0227 138.558 5.0227C138.352 5.0227 138.166 5.04734 138.001 5.09661C137.835 5.14139 137.692 5.20634 137.571 5.29144C137.454 5.37653 137.362 5.47955 137.295 5.60048C137.233 5.71693 137.201 5.84681 137.201 5.99014C137.201 6.16929 137.233 6.31933 137.295 6.44026C137.362 6.56119 137.459 6.66868 137.584 6.76274C137.71 6.8568 137.862 6.9419 138.041 7.01804C138.22 7.09418 138.424 7.17704 138.652 7.26661C138.957 7.38306 139.23 7.50399 139.472 7.6294C139.714 7.75033 139.92 7.88917 140.09 8.04593C140.26 8.19822 140.39 8.37513 140.48 8.57668C140.574 8.77823 140.621 9.01785 140.621 9.29554C140.621 9.63593 140.545 9.93153 140.392 10.1823C140.245 10.4332 140.045 10.6414 139.795 10.8071C139.544 10.9729 139.255 11.096 138.928 11.1767C138.601 11.2573 138.258 11.2976 137.9 11.2976C137.192 11.2976 136.579 11.161 136.059 10.8878Z" fill="#797979"/>
<path d="M135.199 11.1363H133.949L132.928 8.43559H128.843L127.883 11.1363H126.626L130.322 1.50232H131.491L135.199 11.1363ZM132.559 7.42113L131.047 3.31626C130.998 3.18189 130.949 2.96691 130.899 2.6713H130.872C130.828 2.94451 130.776 3.1595 130.718 3.31626L129.22 7.42113H132.559Z" fill="#797979"/>
<path d="M121.588 11.1363H120.486V0.951416H121.588V11.1363Z" fill="#797979"/>
<path d="M118.255 11.1363H117.154V0.951416H118.255V11.1363Z" fill="#797979"/>
<path d="M114.386 2.51022C114.189 2.51022 114.021 2.44304 113.882 2.30867C113.743 2.1743 113.674 2.00411 113.674 1.79808C113.674 1.59205 113.743 1.42186 113.882 1.28749C114.021 1.14865 114.189 1.07922 114.386 1.07922C114.588 1.07922 114.758 1.14865 114.897 1.28749C115.04 1.42186 115.112 1.59205 115.112 1.79808C115.112 1.99515 115.04 2.16311 114.897 2.30195C114.758 2.4408 114.588 2.51022 114.386 2.51022ZM114.923 11.1365H113.822V4.25697H114.923V11.1365Z" fill="#797979"/>
<path d="M112.693 11.1363H111.148L108.111 7.83094H108.085V11.1363H106.983V0.951416H108.085V7.40769H108.111L111 4.25681H112.445L109.254 7.57565L112.693 11.1363Z" fill="#797979"/>
<path d="M99.3704 10.7467V9.41644C99.5226 9.55081 99.704 9.67174 99.9145 9.77923C100.13 9.88673 100.353 9.97854 100.586 10.0547C100.824 10.1263 101.061 10.1823 101.299 10.2226C101.536 10.2629 101.755 10.2831 101.957 10.2831C102.651 10.2831 103.168 10.1555 103.509 9.90016C103.854 9.64039 104.026 9.26864 104.026 8.78493C104.026 8.52515 103.968 8.29897 103.851 8.10638C103.739 7.91379 103.583 7.73911 103.381 7.58235C103.18 7.42111 102.94 7.26883 102.662 7.12551C102.389 6.97771 102.094 6.82319 101.776 6.66195C101.44 6.49175 101.126 6.31931 100.835 6.14464C100.544 5.96996 100.291 5.77737 100.076 5.56687C99.8608 5.35636 99.6906 5.11898 99.5652 4.85473C99.4443 4.586 99.3838 4.27248 99.3838 3.91417C99.3838 3.47524 99.4801 3.09454 99.6727 2.77206C99.8653 2.4451 100.118 2.17637 100.432 1.96587C100.745 1.75536 101.101 1.5986 101.5 1.49559C101.903 1.39257 102.313 1.34106 102.73 1.34106C103.679 1.34106 104.371 1.45528 104.805 1.6837V2.95345C104.237 2.55931 103.507 2.36224 102.615 2.36224C102.369 2.36224 102.123 2.38912 101.876 2.44286C101.63 2.49213 101.41 2.57499 101.218 2.69144C101.025 2.80789 100.869 2.95793 100.748 3.14157C100.627 3.3252 100.566 3.54914 100.566 3.81339C100.566 4.05973 100.611 4.27248 100.701 4.45163C100.795 4.63079 100.931 4.79426 101.11 4.94207C101.29 5.08987 101.507 5.23319 101.762 5.37204C102.022 5.51088 102.32 5.66316 102.656 5.82888C103 5.99908 103.327 6.17823 103.636 6.36634C103.946 6.55445 104.216 6.76272 104.449 6.99114C104.682 7.21957 104.866 7.47262 105 7.75031C105.139 8.028 105.209 8.346 105.209 8.70431C105.209 9.17907 105.114 9.58216 104.926 9.9136C104.743 10.2406 104.492 10.507 104.174 10.7131C103.86 10.9191 103.498 11.0669 103.086 11.1565C102.674 11.2505 102.239 11.2976 101.782 11.2976C101.63 11.2976 101.442 11.2841 101.218 11.2573C100.994 11.2349 100.766 11.199 100.533 11.1498C100.3 11.105 100.078 11.049 99.8675 10.9818C99.6615 10.9101 99.4958 10.8318 99.3704 10.7467Z" fill="#797979"/>
<path d="M93.8144 11.1363H92.7126V7.21287C92.7126 5.75276 92.1796 5.0227 91.1137 5.0227C90.5628 5.0227 90.1059 5.23097 89.7431 5.64751C89.3848 6.05956 89.2057 6.58135 89.2057 7.21287V11.1363H88.1039V4.25682H89.2057V5.39893H89.2326C89.7521 4.53003 90.5045 4.09558 91.4899 4.09558C92.2423 4.09558 92.8179 4.33968 93.2165 4.82787C93.6151 5.31159 93.8144 6.01253 93.8144 6.9307V11.1363Z" fill="#797979"/>
<path d="M86.6528 1.50232V2.46975H85.7122V10.1689H86.6528V11.1363H83.643V10.1689H84.5836V2.46975H83.643V1.50232H86.6528Z" fill="#797979"/>
<path d="M82.2055 11.1363H81.1037V9.96736H81.0768C80.5662 10.8542 79.7779 11.2976 78.712 11.2976C77.8475 11.2976 77.1556 10.9908 76.636 10.3772C76.1209 9.75909 75.8634 8.9193 75.8634 7.85781C75.8634 6.72018 76.1501 5.80874 76.7233 5.12347C77.2966 4.43821 78.0603 4.09557 79.0143 4.09557C79.9593 4.09557 80.6468 4.46732 81.0768 5.21081H81.1037V0.951416H82.2055V11.1363ZM81.1037 8.02577V7.01131C81.1037 6.45593 80.92 5.98565 80.5528 5.60047C80.1855 5.21529 79.7197 5.0227 79.1554 5.0227C78.4835 5.0227 77.955 5.26903 77.5698 5.76171C77.1847 6.25438 76.9921 6.93517 76.9921 7.80407C76.9921 8.59683 77.1757 9.22387 77.543 9.68519C77.9147 10.142 78.4119 10.3705 79.0344 10.3705C79.648 10.3705 80.1452 10.1488 80.5259 9.70534C80.9111 9.26194 81.1037 8.70208 81.1037 8.02577Z" fill="#797979"/>
<path d="M74.6608 7.97203H69.8035C69.8214 8.73792 70.0274 9.32913 70.4216 9.74566C70.8157 10.1622 71.3576 10.3705 72.0474 10.3705C72.8222 10.3705 73.5344 10.1152 74.1838 9.60458V10.6392C73.5792 11.0781 72.7797 11.2976 71.7854 11.2976C70.8135 11.2976 70.0498 10.9863 69.4944 10.3637C68.9391 9.7367 68.6614 8.85661 68.6614 7.72346C68.6614 6.65301 68.9637 5.78187 69.5683 5.11004C70.1775 4.43373 70.9322 4.09558 71.8324 4.09558C72.7327 4.09558 73.4291 4.38671 73.9218 4.96896C74.4145 5.55121 74.6608 6.35964 74.6608 7.39426V7.97203ZM73.5321 7.03819C73.5277 6.40219 73.3731 5.90728 73.0686 5.55345C72.7685 5.19962 72.3497 5.0227 71.8123 5.0227C71.2927 5.0227 70.8515 5.20858 70.4888 5.58032C70.126 5.95207 69.902 6.43802 69.8169 7.03819H73.5321Z" fill="#797979"/>
<path d="M68.2855 11.1363H66.7403L63.7036 7.83094H63.6768V11.1363H62.575V0.951416H63.6768V7.40769H63.7036L66.5925 4.25681H68.0369L64.8457 7.57565L68.2855 11.1363Z" fill="#797979"/>
<path d="M60.4919 11.1363H59.3901V7.21287C59.3901 5.75276 58.8571 5.0227 57.7911 5.0227C57.2402 5.0227 56.7834 5.23097 56.4206 5.64751C56.0623 6.05956 55.8831 6.58135 55.8831 7.21287V11.1363H54.7813V4.25682H55.8831V5.39893H55.91C56.4296 4.53003 57.182 4.09558 58.1674 4.09558C58.9198 4.09558 59.4953 4.33968 59.894 4.82787C60.2926 5.31159 60.4919 6.01253 60.4919 6.9307V11.1363Z" fill="#797979"/>
<path d="M52.0136 2.51022C51.8165 2.51022 51.6486 2.44304 51.5097 2.30867C51.3709 2.1743 51.3015 2.00411 51.3015 1.79808C51.3015 1.59205 51.3709 1.42186 51.5097 1.28749C51.6486 1.14865 51.8165 1.07922 52.0136 1.07922C52.2151 1.07922 52.3853 1.14865 52.5242 1.28749C52.6675 1.42186 52.7392 1.59205 52.7392 1.79808C52.7392 1.99515 52.6675 2.16311 52.5242 2.30195C52.3853 2.4408 52.2151 2.51022 52.0136 2.51022ZM52.5511 11.1365H51.4493V4.25697H52.5511V11.1365Z" fill="#797979"/>
<path d="M50.1193 11.1363H45.1209V1.50232H46.2496V10.1152H50.1193V11.1363Z" fill="#797979"/>
<path d="M38.9663 11.1363H37.8645V9.96736H37.8376C37.327 10.8542 36.5388 11.2976 35.4728 11.2976C34.6084 11.2976 33.9164 10.9908 33.3968 10.3772C32.8818 9.75909 32.6242 8.9193 32.6242 7.85781C32.6242 6.72018 32.9109 5.80874 33.4842 5.12347C34.0575 4.43821 34.8211 4.09557 35.7751 4.09557C36.7202 4.09557 37.4077 4.46732 37.8376 5.21081H37.8645V0.951416H38.9663V11.1363ZM37.8645 8.02577V7.01131C37.8645 6.45593 37.6809 5.98565 37.3136 5.60047C36.9463 5.21529 36.4805 5.0227 35.9162 5.0227C35.2444 5.0227 34.7159 5.26903 34.3307 5.76171C33.9455 6.25438 33.7529 6.93517 33.7529 7.80407C33.7529 8.59683 33.9365 9.22387 34.3038 9.68519C34.6756 10.142 35.1727 10.3705 35.7953 10.3705C36.4089 10.3705 36.906 10.1488 37.2867 9.70534C37.6719 9.26194 37.8645 8.70208 37.8645 8.02577Z" fill="#797979"/>
<path d="M31.4221 7.97203H26.5648C26.5827 8.73792 26.7888 9.32913 27.1829 9.74566C27.577 10.1622 28.119 10.3705 28.8087 10.3705C29.5836 10.3705 30.2957 10.1152 30.9451 9.60458V10.6392C30.3405 11.0781 29.541 11.2976 28.5467 11.2976C27.5748 11.2976 26.8111 10.9863 26.2558 10.3637C25.7004 9.7367 25.4227 8.85661 25.4227 7.72346C25.4227 6.65301 25.725 5.78187 26.3297 5.11004C26.9388 4.43373 27.6935 4.09558 28.5937 4.09558C29.494 4.09558 30.1904 4.38671 30.6831 4.96896C31.1758 5.55121 31.4221 6.35964 31.4221 7.39426V7.97203ZM30.2935 7.03819C30.289 6.40219 30.1345 5.90728 29.8299 5.55345C29.5298 5.19962 29.111 5.0227 28.5736 5.0227C28.054 5.0227 27.6129 5.20858 27.2501 5.58032C26.8873 5.95207 26.6633 6.43802 26.5782 7.03819H30.2935Z" fill="#797979"/>
<path d="M19.6316 10.8878V9.70535C20.2317 10.1488 20.8924 10.3705 21.6135 10.3705C22.5809 10.3705 23.0646 10.048 23.0646 9.40303C23.0646 9.21939 23.0221 9.06487 22.937 8.93947C22.8563 8.80958 22.7444 8.69537 22.601 8.59683C22.4622 8.4983 22.2965 8.41096 22.1039 8.33482C21.9158 8.2542 21.712 8.17134 21.4925 8.08624C21.188 7.96531 20.9192 7.84439 20.6863 7.72346C20.4579 7.59805 20.2653 7.4592 20.1086 7.30692C19.9563 7.15016 19.8398 6.97325 19.7592 6.77618C19.6831 6.57911 19.645 6.34845 19.645 6.08419C19.645 5.76172 19.7189 5.47731 19.8667 5.23097C20.0145 4.98016 20.2116 4.77189 20.4579 4.60617C20.7042 4.43597 20.9842 4.30833 21.2977 4.22323C21.6157 4.13813 21.9427 4.09558 22.2786 4.09558C22.8743 4.09558 23.4072 4.19859 23.8775 4.40462V5.51986C23.3714 5.18842 22.7892 5.0227 22.1308 5.0227C21.9247 5.0227 21.7389 5.04734 21.5731 5.09661C21.4074 5.14139 21.2641 5.20634 21.1432 5.29144C21.0267 5.37653 20.9349 5.47955 20.8677 5.60048C20.805 5.71693 20.7737 5.84681 20.7737 5.99014C20.7737 6.16929 20.805 6.31933 20.8677 6.44026C20.9349 6.56119 21.0312 6.66868 21.1566 6.76274C21.282 6.8568 21.4343 6.9419 21.6135 7.01804C21.7926 7.09418 21.9964 7.17704 22.2248 7.26661C22.5294 7.38306 22.8026 7.50399 23.0445 7.6294C23.2863 7.75033 23.4923 7.88917 23.6625 8.04593C23.8327 8.19822 23.9626 8.37513 24.0522 8.57668C24.1463 8.77823 24.1933 9.01785 24.1933 9.29554C24.1933 9.63593 24.1171 9.93153 23.9649 10.1823C23.8171 10.4332 23.6177 10.6414 23.3669 10.8071C23.1161 10.9729 22.8272 11.096 22.5003 11.1767C22.1733 11.2573 21.8307 11.2976 21.4724 11.2976C20.7647 11.2976 20.1511 11.161 19.6316 10.8878Z" fill="#797979"/>
<path d="M13.7863 10.8878V9.70535C14.3865 10.1488 15.0471 10.3705 15.7682 10.3705C16.7357 10.3705 17.2194 10.048 17.2194 9.40303C17.2194 9.21939 17.1768 9.06487 17.0917 8.93947C17.0111 8.80958 16.8992 8.69537 16.7558 8.59683C16.617 8.4983 16.4513 8.41096 16.2587 8.33482C16.0706 8.2542 15.8668 8.17134 15.6473 8.08624C15.3427 7.96531 15.074 7.84439 14.8411 7.72346C14.6127 7.59805 14.4201 7.4592 14.2633 7.30692C14.1111 7.15016 13.9946 6.97325 13.914 6.77618C13.8379 6.57911 13.7998 6.34845 13.7998 6.08419C13.7998 5.76172 13.8737 5.47731 14.0215 5.23097C14.1693 4.98016 14.3664 4.77189 14.6127 4.60617C14.859 4.43597 15.139 4.30833 15.4525 4.22323C15.7705 4.13813 16.0974 4.09558 16.4334 4.09558C17.029 4.09558 17.562 4.19859 18.0323 4.40462V5.51986C17.5262 5.18842 16.9439 5.0227 16.2855 5.0227C16.0795 5.0227 15.8936 5.04734 15.7279 5.09661C15.5622 5.14139 15.4189 5.20634 15.298 5.29144C15.1815 5.37653 15.0897 5.47955 15.0225 5.60048C14.9598 5.71693 14.9285 5.84681 14.9285 5.99014C14.9285 6.16929 14.9598 6.31933 15.0225 6.44026C15.0897 6.56119 15.186 6.66868 15.3114 6.76274C15.4368 6.8568 15.5891 6.9419 15.7682 7.01804C15.9474 7.09418 16.1512 7.17704 16.3796 7.26661C16.6842 7.38306 16.9574 7.50399 17.1992 7.6294C17.4411 7.75033 17.6471 7.88917 17.8173 8.04593C17.9875 8.19822 18.1174 8.37513 18.207 8.57668C18.301 8.77823 18.3481 9.01785 18.3481 9.29554C18.3481 9.63593 18.2719 9.93153 18.1196 10.1823C17.9718 10.4332 17.7725 10.6414 17.5217 10.8071C17.2709 10.9729 16.982 11.096 16.6551 11.1767C16.3281 11.2573 15.9855 11.2976 15.6272 11.2976C14.9195 11.2976 14.3059 11.161 13.7863 10.8878Z" fill="#797979"/>
<path d="M12.1265 11.1363H11.0247V10.0614H10.9979C10.5186 10.8855 9.8132 11.2976 8.8816 11.2976C8.19633 11.2976 7.65887 11.1162 7.26921 10.7534C6.88403 10.3906 6.69144 9.90914 6.69144 9.30897C6.69144 8.02354 7.44836 7.27557 8.96222 7.06506L11.0247 6.77618C11.0247 5.6072 10.5522 5.0227 9.60717 5.0227C8.77858 5.0227 8.03062 5.30487 7.36327 5.86921V4.74054C8.03957 4.31057 8.81889 4.09558 9.70123 4.09558C11.3181 4.09558 12.1265 4.95104 12.1265 6.66197V11.1363ZM11.0247 7.65627L9.36531 7.88469C8.85473 7.95636 8.46954 8.084 8.20977 8.26764C7.95 8.44679 7.82011 8.76703 7.82011 9.22835C7.82011 9.56427 7.9388 9.83972 8.17618 10.0547C8.41804 10.2652 8.73827 10.3705 9.13689 10.3705C9.68331 10.3705 10.1334 10.1801 10.4873 9.79941C10.8456 9.41422 11.0247 8.92827 11.0247 8.34154V7.65627Z" fill="#797979"/>
<path d="M1.20967 7.49503V11.1363H0.0809937V1.50232H2.728C3.75814 1.50232 4.55537 1.75314 5.11971 2.25477C5.68852 2.7564 5.97293 3.46406 5.97293 4.37775C5.97293 5.29143 5.65717 6.0394 5.02565 6.62165C4.39861 7.20391 3.54987 7.49503 2.47942 7.49503H1.20967ZM1.20967 2.5235V6.47385H2.39208C3.17141 6.47385 3.76485 6.29694 4.17243 5.94311C4.58449 5.5848 4.79051 5.08093 4.79051 4.43149C4.79051 3.1595 4.03806 2.5235 2.53317 2.5235H1.20967Z" fill="#797979"/>
</svg>
