<svg width="239" height="35" viewBox="0 0 239 35" fill="none" xmlns="http://www.w3.org/2000/svg">
<path d="M221.141 31.654H220.04V27.7306C220.04 26.2705 219.507 25.5404 218.441 25.5404C217.89 25.5404 217.433 25.7487 217.07 26.1652C216.712 26.5773 216.533 27.099 216.533 27.7306V31.654H215.431V24.7745H216.533V25.9166H216.56C217.079 25.0477 217.832 24.6133 218.817 24.6133C219.569 24.6133 220.145 24.8574 220.544 25.3456C220.942 25.8293 221.141 26.5302 221.141 27.4484V31.654Z" fill="#797979"/>
<path d="M213.201 31.1031C213.201 33.6292 211.991 34.8923 209.573 34.8923C208.722 34.8923 207.978 34.731 207.342 34.4085V33.3067C208.117 33.7367 208.856 33.9517 209.559 33.9517C211.252 33.9517 212.099 33.0514 212.099 31.2509V30.4985H212.072C211.548 31.3764 210.76 31.8153 209.707 31.8153C208.852 31.8153 208.162 31.5107 207.638 30.9016C207.118 30.288 206.859 29.4661 206.859 28.436C206.859 27.267 207.138 26.3376 207.698 25.6479C208.263 24.9582 209.033 24.6133 210.009 24.6133C210.937 24.6133 211.624 24.985 212.072 25.7285H212.099V24.7745H213.201V31.1031ZM212.099 28.5435V27.529C212.099 26.9826 211.913 26.5146 211.541 26.1249C211.174 25.7352 210.715 25.5404 210.164 25.5404C209.483 25.5404 208.95 25.789 208.565 26.2861C208.18 26.7788 207.987 27.4708 207.987 28.3621C207.987 29.128 208.171 29.7416 208.538 30.2029C208.91 30.6597 209.4 30.8882 210.009 30.8882C210.628 30.8882 211.129 30.6687 211.514 30.2298C211.904 29.7908 212.099 29.2287 212.099 28.5435Z" fill="#797979"/>
<path d="M204.561 23.0279C204.364 23.0279 204.196 22.9607 204.057 22.8264C203.919 22.692 203.849 22.5218 203.849 22.3158C203.849 22.1098 203.919 21.9396 204.057 21.8052C204.196 21.6663 204.364 21.5969 204.561 21.5969C204.763 21.5969 204.933 21.6663 205.072 21.8052C205.215 21.9396 205.287 22.1098 205.287 22.3158C205.287 22.5129 205.215 22.6808 205.072 22.8197C204.933 22.9585 204.763 23.0279 204.561 23.0279ZM205.099 31.6542H203.997V24.7747H205.099V31.6542Z" fill="#797979"/>
<path d="M197.735 31.4055V30.2231C198.335 30.6665 198.996 30.8882 199.717 30.8882C200.684 30.8882 201.168 30.5657 201.168 29.9207C201.168 29.7371 201.126 29.5826 201.041 29.4572C200.96 29.3273 200.848 29.2131 200.705 29.1145C200.566 29.016 200.4 28.9287 200.207 28.8525C200.019 28.7719 199.816 28.689 199.596 28.6039C199.292 28.483 199.023 28.3621 198.79 28.2412C198.561 28.1157 198.369 27.9769 198.212 27.8246C198.06 27.6679 197.943 27.4909 197.863 27.2939C197.787 27.0968 197.749 26.8661 197.749 26.6019C197.749 26.2794 197.822 25.995 197.97 25.7487C198.118 25.4979 198.315 25.2896 198.561 25.1239C198.808 24.9537 199.088 24.826 199.401 24.7409C199.719 24.6558 200.046 24.6133 200.382 24.6133C200.978 24.6133 201.511 24.7163 201.981 24.9223V26.0376C201.475 25.7061 200.893 25.5404 200.234 25.5404C200.028 25.5404 199.842 25.565 199.677 25.6143C199.511 25.6591 199.368 25.724 199.247 25.8091C199.13 25.8942 199.038 25.9972 198.971 26.1182C198.909 26.2346 198.877 26.3645 198.877 26.5078C198.877 26.687 198.909 26.837 198.971 26.958C199.038 27.0789 199.135 27.1864 199.26 27.2804C199.386 27.3745 199.538 27.4596 199.717 27.5357C199.896 27.6119 200.1 27.6947 200.328 27.7843C200.633 27.9008 200.906 28.0217 201.148 28.1471C201.39 28.268 201.596 28.4069 201.766 28.5636C201.936 28.7159 202.066 28.8928 202.156 29.0944C202.25 29.2959 202.297 29.5355 202.297 29.8132C202.297 30.1536 202.221 30.4492 202.068 30.7C201.921 30.9509 201.721 31.1591 201.471 31.3248C201.22 31.4906 200.931 31.6137 200.604 31.6944C200.277 31.775 199.934 31.8153 199.576 31.8153C198.868 31.8153 198.255 31.6787 197.735 31.4055Z" fill="#797979"/>
<path d="M196.479 28.4897H191.622C191.64 29.2556 191.846 29.8468 192.24 30.2634C192.634 30.6799 193.176 30.8882 193.866 30.8882C194.64 30.8882 195.353 30.6329 196.002 30.1223V31.1569C195.397 31.5958 194.598 31.8153 193.604 31.8153C192.632 31.8153 191.868 31.504 191.313 30.8814C190.757 30.2544 190.48 29.3743 190.48 28.2412C190.48 27.1707 190.782 26.2996 191.387 25.6277C191.996 24.9514 192.75 24.6133 193.651 24.6133C194.551 24.6133 195.247 24.9044 195.74 25.4867C196.233 26.0689 196.479 26.8773 196.479 27.912V28.4897ZM195.35 27.5559C195.346 26.9199 195.191 26.425 194.887 26.0711C194.587 25.7173 194.168 25.5404 193.63 25.5404C193.111 25.5404 192.67 25.7263 192.307 26.098C191.944 26.4698 191.72 26.9557 191.635 27.5559H195.35Z" fill="#797979"/>
<path d="M181.45 31.654V22.02H184.11C187.505 22.02 189.203 23.5854 189.203 26.7161C189.203 28.2031 188.73 29.3989 187.785 30.3037C186.845 31.2039 185.584 31.654 184.003 31.654H181.45ZM182.578 23.0412V30.6329H184.016C185.279 30.6329 186.262 30.2947 186.965 29.6184C187.669 28.9421 188.02 27.9836 188.02 26.743C188.02 24.2751 186.708 23.0412 184.083 23.0412H182.578Z" fill="#797979"/>
<path d="M175.86 31.3383C175.332 31.6563 174.705 31.8153 173.979 31.8153C172.998 31.8153 172.206 31.4973 171.601 30.8613C171.001 30.2208 170.701 29.3922 170.701 28.3755C170.701 27.2424 171.025 26.3332 171.675 25.6479C172.324 24.9582 173.191 24.6133 174.275 24.6133C174.88 24.6133 175.413 24.7253 175.874 24.9492V26.0779C175.363 25.7196 174.817 25.5404 174.235 25.5404C173.531 25.5404 172.954 25.7935 172.501 26.2996C172.053 26.8012 171.829 27.4618 171.829 28.2815C171.829 29.0877 172.04 29.7237 172.461 30.1895C172.886 30.6553 173.455 30.8882 174.167 30.8882C174.768 30.8882 175.332 30.6889 175.86 30.2902V31.3383Z" fill="#797979"/>
<path d="M168.403 23.0279C168.206 23.0279 168.038 22.9607 167.9 22.8264C167.761 22.692 167.691 22.5218 167.691 22.3158C167.691 22.1098 167.761 21.9396 167.9 21.8052C168.038 21.6663 168.206 21.5969 168.403 21.5969C168.605 21.5969 168.775 21.6663 168.914 21.8052C169.057 21.9396 169.129 22.1098 169.129 22.3158C169.129 22.5129 169.057 22.6808 168.914 22.8197C168.775 22.9585 168.605 23.0279 168.403 23.0279ZM168.941 31.6542H167.839V24.7747H168.941V31.6542Z" fill="#797979"/>
<path d="M165.756 31.6542H164.655V27.6904C164.655 26.2571 164.122 25.5405 163.056 25.5405C162.518 25.5405 162.066 25.7488 161.699 26.1653C161.331 26.5774 161.148 27.1081 161.148 27.7576V31.6542H160.046V21.4692H161.148V25.9167H161.175C161.703 25.0478 162.455 24.6134 163.432 24.6134C164.982 24.6134 165.756 25.5472 165.756 27.4149V31.6542Z" fill="#797979"/>
<path d="M153.086 30.6597H153.059V34.8184H151.957V24.7745H153.059V25.9838H153.086C153.628 25.0701 154.42 24.6133 155.464 24.6133C156.351 24.6133 157.043 24.9223 157.54 25.5404C158.037 26.154 158.286 26.9781 158.286 28.0127C158.286 29.1638 158.006 30.0864 157.446 30.7807C156.886 31.4704 156.12 31.8153 155.148 31.8153C154.257 31.8153 153.569 31.4301 153.086 30.6597ZM153.059 27.8851V28.8458C153.059 29.4146 153.242 29.8983 153.61 30.297C153.981 30.6911 154.452 30.8882 155.021 30.8882C155.688 30.8882 156.21 30.6329 156.586 30.1223C156.967 29.6117 157.157 28.9018 157.157 27.9926C157.157 27.2267 156.98 26.6265 156.626 26.1921C156.272 25.7576 155.793 25.5404 155.188 25.5404C154.548 25.5404 154.033 25.7643 153.643 26.2122C153.254 26.6556 153.059 27.2133 153.059 27.8851Z" fill="#797979"/>
<path d="M149.881 31.654H148.779V30.5791H148.752C148.273 31.4032 147.567 31.8153 146.636 31.8153C145.951 31.8153 145.413 31.6339 145.023 31.2711C144.638 30.9083 144.446 30.4268 144.446 29.8267C144.446 28.5412 145.203 27.7933 146.716 27.5828L148.779 27.2939C148.779 26.1249 148.306 25.5404 147.361 25.5404C146.533 25.5404 145.785 25.8226 145.117 26.3869V25.2582C145.794 24.8283 146.573 24.6133 147.455 24.6133C149.072 24.6133 149.881 25.4687 149.881 27.1797V31.654ZM148.779 28.174L147.12 28.4024C146.609 28.4741 146.224 28.6017 145.964 28.7853C145.704 28.9645 145.574 29.2847 145.574 29.7461C145.574 30.082 145.693 30.3574 145.93 30.5724C146.172 30.7829 146.492 30.8882 146.891 30.8882C147.438 30.8882 147.888 30.6978 148.241 30.3171C148.6 29.9319 148.779 29.446 148.779 28.8592V28.174Z" fill="#797979"/>
<path d="M143.761 25.8897C143.568 25.7419 143.29 25.668 142.927 25.668C142.457 25.668 142.063 25.8897 141.745 26.3331C141.432 26.7765 141.275 27.3812 141.275 28.1471V31.654H140.173V24.7745H141.275V26.1921H141.302C141.458 25.7083 141.698 25.3321 142.021 25.0634C142.343 24.7902 142.704 24.6536 143.102 24.6536C143.389 24.6536 143.608 24.6849 143.761 24.7476V25.8897Z" fill="#797979"/>
<path d="M138.077 30.9958C137.109 31.5422 136.034 31.8154 134.852 31.8154C133.477 31.8154 132.364 31.372 131.513 30.4852C130.667 29.5984 130.243 28.4249 130.243 26.9648C130.243 25.4733 130.714 24.2506 131.654 23.2966C132.599 22.3381 133.795 21.8589 135.242 21.8589C136.29 21.8589 137.17 22.0291 137.882 22.3695V23.6191C137.103 23.1264 136.18 22.8801 135.114 22.8801C134.035 22.8801 133.15 23.2518 132.46 23.9953C131.771 24.7388 131.426 25.7017 131.426 26.8842C131.426 28.1024 131.746 29.0609 132.386 29.7596C133.027 30.4538 133.896 30.8009 134.993 30.8009C135.746 30.8009 136.397 30.6509 136.948 30.3508V27.65H134.839V26.6289H138.077V30.9958Z" fill="#797979"/>
<path d="M124.351 31.8019C124.145 31.8019 123.968 31.728 123.82 31.5802C123.677 31.4324 123.605 31.2555 123.605 31.0494C123.605 30.8434 123.677 30.6665 123.82 30.5187C123.968 30.3664 124.145 30.2903 124.351 30.2903C124.562 30.2903 124.741 30.3664 124.889 30.5187C125.036 30.6665 125.11 30.8434 125.11 31.0494C125.11 31.2555 125.036 31.4324 124.889 31.5802C124.741 31.728 124.562 31.8019 124.351 31.8019Z" fill="#797979"/>
<path d="M119.064 31.6542H117.519L114.482 28.3488H114.455V31.6542H113.353V21.4692H114.455V27.9255H114.482L117.371 24.7746H118.815L115.624 28.0935L119.064 31.6542Z" fill="#797979"/>
<path d="M108.167 31.8153C107.15 31.8153 106.337 31.495 105.728 30.8546C105.123 30.2096 104.821 29.3564 104.821 28.2949C104.821 27.1394 105.137 26.2369 105.768 25.5874C106.4 24.938 107.253 24.6133 108.328 24.6133C109.354 24.6133 110.153 24.929 110.726 25.5606C111.304 26.1921 111.593 27.0677 111.593 28.1874C111.593 29.2847 111.282 30.1648 110.659 30.8277C110.041 31.4861 109.21 31.8153 108.167 31.8153ZM108.247 25.5404C107.54 25.5404 106.98 25.7823 106.568 26.266C106.156 26.7452 105.95 27.4081 105.95 28.2546C105.95 29.0697 106.158 29.7125 106.574 30.1827C106.991 30.653 107.549 30.8882 108.247 30.8882C108.959 30.8882 109.506 30.6575 109.887 30.1962C110.272 29.7349 110.464 29.0787 110.464 28.2277C110.464 27.3678 110.272 26.7049 109.887 26.2391C109.506 25.7733 108.959 25.5404 108.247 25.5404Z" fill="#797979"/>
<path d="M100.105 31.8153C99.0881 31.8153 98.2752 31.495 97.6661 30.8546C97.0614 30.2096 96.7591 29.3564 96.7591 28.2949C96.7591 27.1394 97.0749 26.2369 97.7064 25.5874C98.3379 24.938 99.1911 24.6133 100.266 24.6133C101.292 24.6133 102.091 24.929 102.664 25.5606C103.242 26.1921 103.531 27.0677 103.531 28.1874C103.531 29.2847 103.22 30.1648 102.597 30.8277C101.979 31.4861 101.148 31.8153 100.105 31.8153ZM100.185 25.5404C99.4778 25.5404 98.9179 25.7823 98.5059 26.266C98.0938 26.7452 97.8878 27.4081 97.8878 28.2546C97.8878 29.0697 98.0961 29.7125 98.5126 30.1827C98.9291 30.653 99.4867 30.8882 100.185 30.8882C100.898 30.8882 101.444 30.6575 101.825 30.1962C102.21 29.7349 102.402 29.0787 102.402 28.2277C102.402 27.3678 102.21 26.7049 101.825 26.2391C101.444 25.7733 100.898 25.5404 100.185 25.5404Z" fill="#797979"/>
<path d="M90.2699 30.6599H90.243V31.6542H89.1412V21.4692H90.243V25.9839H90.2699C90.8118 25.0702 91.6046 24.6134 92.6482 24.6134C93.5305 24.6134 94.2202 24.9224 94.7174 25.5405C95.219 26.1541 95.4698 26.9782 95.4698 28.0128C95.4698 29.1639 95.1899 30.0866 94.63 30.7808C94.0702 31.4705 93.3043 31.8154 92.3324 31.8154C91.4232 31.8154 90.7357 31.4302 90.2699 30.6599ZM90.243 27.8852V28.8459C90.243 29.4147 90.4266 29.8984 90.7939 30.2971C91.1656 30.6912 91.6359 30.8883 92.2047 30.8883C92.8721 30.8883 93.3939 30.633 93.7701 30.1224C94.1508 29.6118 94.3412 28.9019 94.3412 27.9927C94.3412 27.2268 94.1642 26.6266 93.8104 26.1922C93.4566 25.7577 92.9773 25.5405 92.3727 25.5405C91.7322 25.5405 91.2172 25.7645 90.8275 26.2123C90.4378 26.6558 90.243 27.2134 90.243 27.8852Z" fill="#797979"/>
<path d="M87.4682 28.4897H82.6108C82.6287 29.2556 82.8348 29.8468 83.2289 30.2634C83.6231 30.6799 84.165 30.8882 84.8547 30.8882C85.6296 30.8882 86.3417 30.6329 86.9912 30.1223V31.1569C86.3865 31.5958 85.587 31.8153 84.5927 31.8153C83.6208 31.8153 82.8572 31.504 82.3018 30.8814C81.7464 30.2544 81.4687 29.3743 81.4687 28.2412C81.4687 27.1707 81.771 26.2996 82.3757 25.6277C82.9848 24.9514 83.7395 24.6133 84.6398 24.6133C85.54 24.6133 86.2365 24.9044 86.7291 25.4867C87.2218 26.0689 87.4682 26.8773 87.4682 27.912V28.4897ZM86.3395 27.5559C86.335 26.9199 86.1805 26.425 85.8759 26.0711C85.5758 25.7173 85.1571 25.5404 84.6196 25.5404C84.1 25.5404 83.6589 25.7263 83.2961 26.098C82.9333 26.4698 82.7094 26.9557 82.6243 27.5559H86.3395Z" fill="#797979"/>
<path d="M80.2727 31.3383C79.7441 31.6563 79.1171 31.8153 78.3915 31.8153C77.4107 31.8153 76.6179 31.4973 76.0133 30.8613C75.4131 30.2208 75.113 29.3922 75.113 28.3755C75.113 27.2424 75.4377 26.3332 76.0872 25.6479C76.7366 24.9582 77.6033 24.6133 78.6871 24.6133C79.2918 24.6133 79.8248 24.7253 80.2861 24.9492V26.0779C79.7755 25.7196 79.2291 25.5404 78.6468 25.5404C77.9436 25.5404 77.3659 25.7935 76.9135 26.2996C76.4656 26.8012 76.2417 27.4618 76.2417 28.2815C76.2417 29.0877 76.4522 29.7237 76.8732 30.1895C77.2987 30.6553 77.8675 30.8882 78.5796 30.8882C79.1798 30.8882 79.7441 30.6889 80.2727 30.2902V31.3383Z" fill="#797979"/>
<path d="M73.5072 31.654H72.4054V30.5791H72.3786C71.8993 31.4032 71.1939 31.8153 70.2623 31.8153C69.577 31.8153 69.0396 31.6339 68.6499 31.2711C68.2647 30.9083 68.0721 30.4268 68.0721 29.8267C68.0721 28.5412 68.8291 27.7933 70.3429 27.5828L72.4054 27.2939C72.4054 26.1249 71.9329 25.5404 70.9879 25.5404C70.1593 25.5404 69.4113 25.8226 68.744 26.3869V25.2582C69.4203 24.8283 70.1996 24.6133 71.0819 24.6133C72.6988 24.6133 73.5072 25.4687 73.5072 27.1797V31.654ZM72.4054 28.174L70.746 28.4024C70.2354 28.4741 69.8503 28.6017 69.5905 28.7853C69.3307 28.9645 69.2008 29.2847 69.2008 29.7461C69.2008 30.082 69.3195 30.3574 69.5569 30.5724C69.7987 30.7829 70.119 30.8882 70.5176 30.8882C71.064 30.8882 71.5141 30.6978 71.868 30.3171C72.2263 29.9319 72.4054 29.446 72.4054 28.8592V28.174Z" fill="#797979"/>
<path d="M67.4136 23.0412H63.6514V26.3735H67.1315V27.3879H63.6514V31.654H62.5227V22.02H67.4136V23.0412Z" fill="#797979"/>
<path d="M55.9994 31.8019C55.7933 31.8019 55.6164 31.728 55.4686 31.5802C55.3253 31.4324 55.2536 31.2555 55.2536 31.0494C55.2536 30.8434 55.3253 30.6665 55.4686 30.5187C55.6164 30.3664 55.7933 30.2903 55.9994 30.2903C56.2099 30.2903 56.389 30.3664 56.5368 30.5187C56.6846 30.6665 56.7585 30.8434 56.7585 31.0494C56.7585 31.2555 56.6846 31.4324 56.5368 31.5802C56.389 31.728 56.2099 31.8019 55.9994 31.8019Z" fill="#797979"/>
<path d="M49.7578 31.654H48.656V27.7306C48.656 26.2705 48.123 25.5404 47.057 25.5404C46.5061 25.5404 46.0493 25.7487 45.6865 26.1652C45.3282 26.5773 45.149 27.099 45.149 27.7306V31.654H44.0472V24.7745H45.149V25.9166H45.1759C45.6954 25.0477 46.4479 24.6133 47.4332 24.6133C48.1857 24.6133 48.7612 24.8574 49.1598 25.3456C49.5584 25.8293 49.7578 26.5302 49.7578 27.4484V31.654Z" fill="#797979"/>
<path d="M41.2795 23.0279C41.0824 23.0279 40.9144 22.9607 40.7756 22.8264C40.6367 22.692 40.5673 22.5218 40.5673 22.3158C40.5673 22.1098 40.6367 21.9396 40.7756 21.8052C40.9144 21.6663 41.0824 21.5969 41.2795 21.5969C41.481 21.5969 41.6512 21.6663 41.7901 21.8052C41.9334 21.9396 42.005 22.1098 42.005 22.3158C42.005 22.5129 41.9334 22.6808 41.7901 22.8197C41.6512 22.9585 41.481 23.0279 41.2795 23.0279ZM41.8169 31.6542H40.7151V24.7747H41.8169V31.6542Z" fill="#797979"/>
<path d="M38.4846 31.6542H37.3828V30.4852H37.356C36.8454 31.372 36.0571 31.8154 34.9911 31.8154C34.1267 31.8154 33.4347 31.5086 32.9152 30.895C32.4001 30.2769 32.1426 29.4371 32.1426 28.3756C32.1426 27.238 32.4292 26.3266 33.0025 25.6413C33.5758 24.956 34.3395 24.6134 35.2935 24.6134C36.2385 24.6134 36.926 24.9851 37.356 25.7286H37.3828V21.4692H38.4846V31.6542ZM37.3828 28.5436V27.5291C37.3828 26.9738 37.1992 26.5035 36.8319 26.1183C36.4647 25.7331 35.9989 25.5405 35.4345 25.5405C34.7627 25.5405 34.2342 25.7869 33.849 26.2795C33.4638 26.7722 33.2713 27.453 33.2713 28.3219C33.2713 29.1146 33.4549 29.7417 33.8222 30.203C34.1939 30.6599 34.691 30.8883 35.3136 30.8883C35.9272 30.8883 36.4244 30.6666 36.8051 30.2232C37.1903 29.7798 37.3828 29.2199 37.3828 28.5436Z" fill="#797979"/>
<path d="M30.94 28.4897H26.0827C26.1006 29.2556 26.3066 29.8468 26.7007 30.2634C27.0949 30.6799 27.6368 30.8882 28.3266 30.8882C29.1014 30.8882 29.8135 30.6329 30.463 30.1223V31.1569C29.8583 31.5958 29.0589 31.8153 28.0646 31.8153C27.0926 31.8153 26.329 31.504 25.7736 30.8814C25.2182 30.2544 24.9406 29.3743 24.9406 28.2412C24.9406 27.1707 25.2429 26.2996 25.8475 25.6277C26.4566 24.9514 27.2113 24.6133 28.1116 24.6133C29.0118 24.6133 29.7083 24.9044 30.201 25.4867C30.6936 26.0689 30.94 26.8773 30.94 27.912V28.4897ZM29.8113 27.5559C29.8068 26.9199 29.6523 26.425 29.3477 26.0711C29.0477 25.7173 28.6289 25.5404 28.0914 25.5404C27.5719 25.5404 27.1307 25.7263 26.7679 26.098C26.4051 26.4698 26.1812 26.9557 26.0961 27.5559H29.8113Z" fill="#797979"/>
<path d="M24.5647 31.6542H23.0195L19.9828 28.3488H19.9559V31.6542H18.8541V21.4692H19.9559V27.9255H19.9828L22.8717 24.7746H24.3161L21.1249 28.0935L24.5647 31.6542Z" fill="#797979"/>
<path d="M16.7711 31.654H15.6693V27.7306C15.6693 26.2705 15.1363 25.5404 14.0703 25.5404C13.5194 25.5404 13.0626 25.7487 12.6998 26.1652C12.3415 26.5773 12.1623 27.099 12.1623 27.7306V31.654H11.0605V24.7745H12.1623V25.9166H12.1892C12.7087 25.0477 13.4612 24.6133 14.4465 24.6133C15.199 24.6133 15.7745 24.8574 16.1731 25.3456C16.5718 25.8293 16.7711 26.5302 16.7711 27.4484V31.654Z" fill="#797979"/>
<path d="M8.29277 23.0279C8.0957 23.0279 7.92774 22.9607 7.78889 22.8264C7.65005 22.692 7.58063 22.5218 7.58063 22.3158C7.58063 22.1098 7.65005 21.9396 7.78889 21.8052C7.92774 21.6663 8.0957 21.5969 8.29277 21.5969C8.49431 21.5969 8.66451 21.6663 8.80336 21.8052C8.94668 21.9396 9.01834 22.1098 9.01834 22.3158C9.01834 22.5129 8.94668 22.6808 8.80336 22.8197C8.66451 22.9585 8.49431 23.0279 8.29277 23.0279ZM8.83023 31.6542H7.72843V24.7747H8.83023V31.6542Z" fill="#797979"/>
<path d="M6.39849 31.654H1.40009V22.02H2.52876V30.6329H6.39849V31.654Z" fill="#797979"/>
<path d="M238.501 5.2513C238.309 5.1035 238.031 5.0296 237.668 5.0296C237.198 5.0296 236.804 5.2513 236.486 5.69471C236.172 6.13812 236.016 6.74276 236.016 7.50865V11.0156H234.914V4.13607H236.016V5.55362H236.043C236.199 5.06991 236.439 4.69368 236.761 4.42495C237.084 4.15174 237.444 4.01514 237.843 4.01514C238.13 4.01514 238.349 4.04649 238.501 4.10919V5.2513Z" fill="#797979"/>
<path d="M233.241 7.85131H228.384C228.402 8.61719 228.608 9.2084 229.002 9.62493C229.396 10.0415 229.938 10.2497 230.628 10.2497C231.403 10.2497 232.115 9.99444 232.764 9.48385V10.5185C232.16 10.9574 231.36 11.1769 230.366 11.1769C229.394 11.1769 228.63 10.8656 228.075 10.243C227.52 9.61597 227.242 8.73588 227.242 7.60273C227.242 6.53228 227.544 5.66114 228.149 4.98931C228.758 4.31301 229.513 3.97485 230.413 3.97485C231.313 3.97485 232.01 4.26598 232.502 4.84823C232.995 5.43048 233.241 6.23892 233.241 7.27353V7.85131ZM232.113 6.91746C232.108 6.28147 231.954 5.78655 231.649 5.43272C231.349 5.07889 230.93 4.90198 230.393 4.90198C229.873 4.90198 229.432 5.08785 229.069 5.45959C228.707 5.83134 228.483 6.3173 228.397 6.91746H232.113Z" fill="#797979"/>
<path d="M226.348 10.9483C226.088 11.0916 225.746 11.1633 225.32 11.1633C224.115 11.1633 223.513 10.4915 223.513 9.14782V5.07654H222.331V4.13598H223.513V2.45641L224.615 2.10034V4.13598H226.348V5.07654H224.615V8.95299C224.615 9.41432 224.693 9.74351 224.85 9.94058C225.007 10.1377 225.267 10.2362 225.629 10.2362C225.907 10.2362 226.147 10.16 226.348 10.0078V10.9483Z" fill="#797979"/>
<path d="M221.686 10.9483C221.426 11.0916 221.083 11.1633 220.658 11.1633C219.453 11.1633 218.851 10.4915 218.851 9.14782V5.07654H217.668V4.13598H218.851V2.45641L219.952 2.10034V4.13598H221.686V5.07654H219.952V8.95299C219.952 9.41432 220.031 9.74351 220.187 9.94058C220.344 10.1377 220.604 10.2362 220.967 10.2362C221.244 10.2362 221.484 10.16 221.686 10.0078V10.9483Z" fill="#797979"/>
<path d="M215.727 2.38925C215.53 2.38925 215.362 2.32206 215.223 2.1877C215.084 2.05333 215.014 1.88314 215.014 1.67711C215.014 1.47108 215.084 1.30088 215.223 1.16652C215.362 1.02767 215.53 0.958252 215.727 0.958252C215.928 0.958252 216.098 1.02767 216.237 1.16652C216.381 1.30088 216.452 1.47108 216.452 1.67711C216.452 1.87418 216.381 2.04214 216.237 2.18098C216.098 2.31982 215.928 2.38925 215.727 2.38925ZM216.264 11.0155H215.162V4.136H216.264V11.0155Z" fill="#797979"/>
<path d="M213.886 4.13599L211.824 11.0155H210.681L209.264 6.09101C209.21 5.9029 209.174 5.69015 209.156 5.45277H209.13C209.116 5.61401 209.069 5.82228 208.988 6.07757L207.45 11.0155H206.348L204.266 4.13599H205.421L206.845 9.30907C206.89 9.46583 206.921 9.67185 206.939 9.92715H206.993C207.007 9.73008 207.047 9.51957 207.114 9.29563L208.7 4.13599H209.707L211.132 9.3225C211.176 9.48822 211.21 9.69425 211.232 9.94059H211.286C211.295 9.76591 211.333 9.55988 211.4 9.3225L212.798 4.13599H213.886Z" fill="#797979"/>
<path d="M204.615 2.40277H201.833V11.0156H200.704V2.40277H197.93V1.38159H204.615V2.40277Z" fill="#797979"/>
<path d="M192.394 11.1632C192.188 11.1632 192.011 11.0893 191.864 10.9415C191.72 10.7937 191.649 10.6168 191.649 10.4108C191.649 10.2048 191.72 10.0278 191.864 9.88003C192.011 9.72775 192.188 9.65161 192.394 9.65161C192.605 9.65161 192.784 9.72775 192.932 9.88003C193.08 10.0278 193.154 10.2048 193.154 10.4108C193.154 10.6168 193.08 10.7937 192.932 10.9415C192.784 11.0893 192.605 11.1632 192.394 11.1632Z" fill="#797979"/>
<path d="M186.153 11.0156H185.051V7.06527C185.051 6.30386 184.932 5.75296 184.695 5.41257C184.462 5.07217 184.068 4.90198 183.512 4.90198C183.042 4.90198 182.641 5.11696 182.31 5.54693C181.983 5.9769 181.819 6.49197 181.819 7.09214V11.0156H180.718V6.9309C180.718 5.57828 180.196 4.90198 179.152 4.90198C178.669 4.90198 178.27 5.10577 177.956 5.51334C177.643 5.91644 177.486 6.4427 177.486 7.09214V11.0156H176.384V4.13609H177.486V5.22445H177.513C178.001 4.39139 178.713 3.97485 179.649 3.97485C180.12 3.97485 180.529 4.10698 180.879 4.37123C181.228 4.63101 181.468 4.97364 181.598 5.39913C182.108 4.44961 182.87 3.97485 183.882 3.97485C185.396 3.97485 186.153 4.9087 186.153 6.77638V11.0156Z" fill="#797979"/>
<path d="M174.309 11.0156H173.207V9.94069H173.18C172.701 10.7648 171.995 11.1769 171.064 11.1769C170.378 11.1769 169.841 10.9955 169.451 10.6327C169.066 10.2699 168.873 9.78841 168.873 9.18824C168.873 7.90281 169.63 7.15484 171.144 6.94434L173.207 6.65545C173.207 5.48647 172.734 4.90198 171.789 4.90198C170.961 4.90198 170.213 5.18415 169.545 5.74848V4.61981C170.222 4.18984 171.001 3.97485 171.883 3.97485C173.5 3.97485 174.309 4.83032 174.309 6.54124V11.0156ZM173.207 7.53555L171.547 7.76397C171.037 7.83563 170.652 7.96328 170.392 8.14691C170.132 8.32606 170.002 8.6463 170.002 9.10762C170.002 9.44354 170.121 9.71899 170.358 9.93397C170.6 10.1445 170.92 10.2497 171.319 10.2497C171.865 10.2497 172.315 10.0594 172.669 9.67868C173.028 9.2935 173.207 8.80754 173.207 8.22081V7.53555Z" fill="#797979"/>
<path d="M168.188 5.2513C167.995 5.1035 167.718 5.0296 167.355 5.0296C166.885 5.0296 166.49 5.2513 166.172 5.69471C165.859 6.13812 165.702 6.74276 165.702 7.50865V11.0156H164.6V4.13607H165.702V5.55362H165.729C165.886 5.06991 166.125 4.69368 166.448 4.42495C166.77 4.15174 167.131 4.01514 167.529 4.01514C167.816 4.01514 168.036 4.04649 168.188 4.10919V5.2513Z" fill="#797979"/>
<path d="M162.37 10.4647C162.37 12.9908 161.161 14.2538 158.742 14.2538C157.891 14.2538 157.148 14.0926 156.512 13.7701V12.6683C157.287 13.0983 158.026 13.3133 158.729 13.3133C160.422 13.3133 161.268 12.413 161.268 10.6125V9.86007H161.241C160.717 10.7379 159.929 11.1769 158.877 11.1769C158.021 11.1769 157.331 10.8723 156.807 10.2632C156.288 9.64957 156.028 8.8277 156.028 7.79756C156.028 6.62858 156.308 5.69921 156.868 5.00947C157.432 4.31973 158.202 3.97485 159.179 3.97485C160.106 3.97485 160.793 4.3466 161.241 5.09009H161.268V4.13609H162.37V10.4647ZM161.268 7.90505V6.89059C161.268 6.34417 161.082 5.87613 160.711 5.48647C160.343 5.09681 159.884 4.90198 159.333 4.90198C158.653 4.90198 158.12 5.15055 157.734 5.64771C157.349 6.14038 157.157 6.83236 157.157 7.72366C157.157 8.48954 157.34 9.10315 157.708 9.56447C158.079 10.0213 158.57 10.2497 159.179 10.2497C159.797 10.2497 160.299 10.0303 160.684 9.59134C161.073 9.15241 161.268 8.59032 161.268 7.90505Z" fill="#797979"/>
<path d="M154.422 11.0156H153.32V9.94069H153.294C152.814 10.7648 152.109 11.1769 151.177 11.1769C150.492 11.1769 149.955 10.9955 149.565 10.6327C149.18 10.2699 148.987 9.78841 148.987 9.18824C148.987 7.90281 149.744 7.15484 151.258 6.94434L153.32 6.65545C153.32 5.48647 152.848 4.90198 151.903 4.90198C151.074 4.90198 150.326 5.18415 149.659 5.74848V4.61981C150.335 4.18984 151.115 3.97485 151.997 3.97485C153.614 3.97485 154.422 4.83032 154.422 6.54124V11.0156ZM153.32 7.53555L151.661 7.76397C151.15 7.83563 150.765 7.96328 150.505 8.14691C150.246 8.32606 150.116 8.6463 150.116 9.10762C150.116 9.44354 150.234 9.71899 150.472 9.93397C150.714 10.1445 151.034 10.2497 151.433 10.2497C151.979 10.2497 152.429 10.0594 152.783 9.67868C153.141 9.2935 153.32 8.80754 153.32 8.22081V7.53555Z" fill="#797979"/>
<path d="M148.026 10.9483C147.766 11.0916 147.424 11.1633 146.998 11.1633C145.794 11.1633 145.191 10.4915 145.191 9.14782V5.07654H144.009V4.13598H145.191V2.45641L146.293 2.10034V4.13598H148.026V5.07654H146.293V8.95299C146.293 9.41432 146.371 9.74351 146.528 9.94058C146.685 10.1377 146.945 10.2362 147.307 10.2362C147.585 10.2362 147.825 10.16 148.026 10.0078V10.9483Z" fill="#797979"/>
<path d="M138.574 10.767V9.58462C139.174 10.028 139.835 10.2497 140.556 10.2497C141.523 10.2497 142.007 9.92726 142.007 9.2823C142.007 9.09867 141.964 8.94415 141.879 8.81874C141.799 8.68885 141.687 8.57464 141.543 8.47611C141.405 8.37757 141.239 8.29023 141.046 8.21409C140.858 8.13347 140.654 8.05061 140.435 7.96552C140.13 7.84459 139.862 7.72366 139.629 7.60273C139.4 7.47732 139.208 7.33848 139.051 7.18619C138.899 7.02943 138.782 6.85252 138.702 6.65545C138.625 6.45838 138.587 6.22772 138.587 5.96347C138.587 5.64099 138.661 5.35658 138.809 5.11024C138.957 4.85943 139.154 4.65116 139.4 4.48544C139.647 4.31525 139.927 4.1876 140.24 4.1025C140.558 4.0174 140.885 3.97485 141.221 3.97485C141.817 3.97485 142.35 4.07787 142.82 4.28389V5.39913C142.314 5.06769 141.732 4.90198 141.073 4.90198C140.867 4.90198 140.681 4.92661 140.515 4.97588C140.35 5.02067 140.206 5.08561 140.086 5.17071C139.969 5.25581 139.877 5.35882 139.81 5.47975C139.747 5.5962 139.716 5.72609 139.716 5.86941C139.716 6.04856 139.747 6.19861 139.81 6.31954C139.877 6.44046 139.974 6.54796 140.099 6.64201C140.224 6.73607 140.377 6.82117 140.556 6.89731C140.735 6.97345 140.939 7.05631 141.167 7.14588C141.472 7.26234 141.745 7.38326 141.987 7.50867C142.229 7.6296 142.435 7.76845 142.605 7.92521C142.775 8.07749 142.905 8.2544 142.995 8.45595C143.089 8.6575 143.136 8.89712 143.136 9.17481C143.136 9.5152 143.059 9.81081 142.907 10.0616C142.759 10.3124 142.56 10.5207 142.309 10.6864C142.058 10.8521 141.77 10.9753 141.443 11.0559C141.116 11.1365 140.773 11.1769 140.415 11.1769C139.707 11.1769 139.093 11.0403 138.574 10.767Z" fill="#797979"/>
<path d="M136.908 11.0156H135.806V7.09214C135.806 5.63203 135.273 4.90198 134.207 4.90198C133.656 4.90198 133.199 5.11024 132.836 5.52678C132.478 5.93883 132.299 6.46062 132.299 7.09214V11.0156H131.197V4.13609H132.299V5.2782H132.326C132.845 4.4093 133.598 3.97485 134.583 3.97485C135.336 3.97485 135.911 4.21895 136.31 4.70715C136.708 5.19086 136.908 5.8918 136.908 6.80997V11.0156Z" fill="#797979"/>
<path d="M129.746 1.38159V2.34903H128.806V10.0482H129.746V11.0156H126.736V10.0482H127.677V2.34903H126.736V1.38159H129.746Z" fill="#797979"/>
<path d="M121.153 11.1632C120.947 11.1632 120.771 11.0893 120.623 10.9415C120.479 10.7937 120.408 10.6168 120.408 10.4108C120.408 10.2048 120.479 10.0278 120.623 9.88003C120.771 9.72775 120.947 9.65161 121.153 9.65161C121.364 9.65161 121.543 9.72775 121.691 9.88003C121.839 10.0278 121.913 10.2048 121.913 10.4108C121.913 10.6168 121.839 10.7937 121.691 10.9415C121.543 11.0893 121.364 11.1632 121.153 11.1632Z" fill="#797979"/>
<path d="M114.919 11.0156H113.817V9.94069H113.79C113.311 10.7648 112.605 11.1769 111.674 11.1769C110.988 11.1769 110.451 10.9955 110.061 10.6327C109.676 10.2699 109.484 9.78841 109.484 9.18824C109.484 7.90281 110.24 7.15484 111.754 6.94434L113.817 6.65545C113.817 5.48647 113.344 4.90198 112.399 4.90198C111.571 4.90198 110.823 5.18415 110.155 5.74848V4.61981C110.832 4.18984 111.611 3.97485 112.493 3.97485C114.11 3.97485 114.919 4.83032 114.919 6.54124V11.0156ZM113.817 7.53555L112.157 7.76397C111.647 7.83563 111.262 7.96328 111.002 8.14691C110.742 8.32606 110.612 8.6463 110.612 9.10762C110.612 9.44354 110.731 9.71899 110.968 9.93397C111.21 10.1445 111.53 10.2497 111.929 10.2497C112.475 10.2497 112.926 10.0594 113.279 9.67868C113.638 9.2935 113.817 8.80754 113.817 8.22081V7.53555Z" fill="#797979"/>
<path d="M107.226 2.38925C107.029 2.38925 106.861 2.32206 106.722 2.1877C106.584 2.05333 106.514 1.88314 106.514 1.67711C106.514 1.47108 106.584 1.30088 106.722 1.16652C106.861 1.02767 107.029 0.958252 107.226 0.958252C107.428 0.958252 107.598 1.02767 107.737 1.16652C107.88 1.30088 107.952 1.47108 107.952 1.67711C107.952 1.87418 107.88 2.04214 107.737 2.18098C107.598 2.31982 107.428 2.38925 107.226 2.38925ZM107.764 11.0155H106.662V4.136H107.764V11.0155Z" fill="#797979"/>
<path d="M104.431 11.0155H103.33V9.84651H103.303C102.792 10.7333 102.004 11.1767 100.938 11.1767C100.074 11.1767 99.3816 10.8699 98.862 10.2563C98.347 9.63824 98.0894 8.79845 98.0894 7.73696C98.0894 6.59933 98.3761 5.68789 98.9494 5.00262C99.5227 4.31736 100.286 3.97472 101.24 3.97472C102.185 3.97472 102.873 4.34647 103.303 5.08996H103.33V0.830566H104.431V11.0155ZM103.33 7.90492V6.89046C103.33 6.33508 103.146 5.8648 102.779 5.47962C102.412 5.09444 101.946 4.90185 101.381 4.90185C100.71 4.90185 100.181 5.14819 99.7959 5.64086C99.4107 6.13353 99.2181 6.81432 99.2181 7.68322C99.2181 8.47598 99.4017 9.10302 99.769 9.56434C100.141 10.0212 100.638 10.2496 101.26 10.2496C101.874 10.2496 102.371 10.0279 102.752 9.58449C103.137 9.14109 103.33 8.58123 103.33 7.90492Z" fill="#797979"/>
<path d="M96.8868 7.85131H92.0295C92.0474 8.61719 92.2534 9.2084 92.6476 9.62493C93.0417 10.0415 93.5837 10.2497 94.2734 10.2497C95.0482 10.2497 95.7604 9.99444 96.4098 9.48385V10.5185C95.8052 10.9574 95.0057 11.1769 94.0114 11.1769C93.0395 11.1769 92.2758 10.8656 91.7205 10.243C91.1651 9.61597 90.8874 8.73588 90.8874 7.60273C90.8874 6.53228 91.1897 5.66114 91.7944 4.98931C92.4035 4.31301 93.1582 3.97485 94.0584 3.97485C94.9587 3.97485 95.6551 4.26598 96.1478 4.84823C96.6405 5.43048 96.8868 6.23892 96.8868 7.27353V7.85131ZM95.7581 6.91746C95.7537 6.28147 95.5991 5.78655 95.2946 5.43272C94.9945 5.07889 94.5757 4.90198 94.0383 4.90198C93.5187 4.90198 93.0776 5.08785 92.7148 5.45959C92.352 5.83134 92.128 6.3173 92.0429 6.91746H95.7581Z" fill="#797979"/>
<path d="M88.9656 11.0156H87.8436V4.55262C87.8436 4.04203 87.875 3.41723 87.9377 2.67822H87.9108C87.8033 3.11267 87.707 3.42395 87.6219 3.61206L84.33 11.0156H83.7791L80.4938 3.66581C80.3998 3.45082 80.3035 3.12163 80.2049 2.67822H80.178C80.2139 3.0634 80.2318 3.69268 80.2318 4.56606V11.0156H79.1434V1.38159H80.6349L83.5909 8.09988C83.8194 8.61495 83.9672 9.00013 84.0343 9.25542H84.0747C84.2672 8.72692 84.4218 8.33278 84.5382 8.07301L87.5547 1.38159H88.9656V11.0156Z" fill="#797979"/>
<path d="M72.9902 11.0155H71.8884V0.830566H72.9902V11.0155Z" fill="#797979"/>
<path d="M69.8126 11.0156H68.7108V9.94069H68.684C68.2047 10.7648 67.4993 11.1769 66.5677 11.1769C65.8824 11.1769 65.345 10.9955 64.9553 10.6327C64.5701 10.2699 64.3775 9.78841 64.3775 9.18824C64.3775 7.90281 65.1345 7.15484 66.6483 6.94434L68.7108 6.65545C68.7108 5.48647 68.2383 4.90198 67.2933 4.90198C66.4647 4.90198 65.7167 5.18415 65.0494 5.74848V4.61981C65.7257 4.18984 66.505 3.97485 67.3873 3.97485C69.0042 3.97485 69.8126 4.83032 69.8126 6.54124V11.0156ZM68.7108 7.53555L67.0514 7.76397C66.5408 7.83563 66.1556 7.96328 65.8959 8.14691C65.6361 8.32606 65.5062 8.6463 65.5062 9.10762C65.5062 9.44354 65.6249 9.71899 65.8623 9.93397C66.1041 10.1445 66.4244 10.2497 66.823 10.2497C67.3694 10.2497 67.8195 10.0594 68.1734 9.67868C68.5317 9.2935 68.7108 8.80754 68.7108 8.22081V7.53555Z" fill="#797979"/>
<path d="M62.1198 2.38925C61.9227 2.38925 61.7548 2.32206 61.6159 2.1877C61.4771 2.05333 61.4077 1.88314 61.4077 1.67711C61.4077 1.47108 61.4771 1.30088 61.6159 1.16652C61.7548 1.02767 61.9227 0.958252 62.1198 0.958252C62.3213 0.958252 62.4915 1.02767 62.6304 1.16652C62.7737 1.30088 62.8454 1.47108 62.8454 1.67711C62.8454 1.87418 62.7737 2.04214 62.6304 2.18098C62.4915 2.31982 62.3213 2.38925 62.1198 2.38925ZM62.6573 11.0155H61.5555V4.136H62.6573V11.0155Z" fill="#797979"/>
<path d="M59.8898 10.6999C59.3613 11.0179 58.7342 11.1769 58.0087 11.1769C57.0278 11.1769 56.235 10.8589 55.6304 10.2229C55.0302 9.58238 54.7301 8.75379 54.7301 7.73709C54.7301 6.60394 55.0549 5.69473 55.7043 5.00947C56.3537 4.31973 57.2204 3.97485 58.3043 3.97485C58.9089 3.97485 59.4419 4.08682 59.9032 4.31077V5.43944C59.3926 5.08113 58.8462 4.90198 58.264 4.90198C57.5608 4.90198 56.983 5.15503 56.5306 5.66114C56.0827 6.16278 55.8588 6.82341 55.8588 7.64304C55.8588 8.44923 56.0693 9.08523 56.4903 9.55103C56.9158 10.0168 57.4846 10.2497 58.1968 10.2497C58.7969 10.2497 59.3613 10.0504 59.8898 9.65181V10.6999Z" fill="#797979"/>
<path d="M50.0135 11.1769C48.9968 11.1769 48.1838 10.8566 47.5747 10.2161C46.9701 9.57119 46.6678 8.71796 46.6678 7.65647C46.6678 6.50093 46.9835 5.59844 47.615 4.94901C48.2466 4.29957 49.0998 3.97485 50.1747 3.97485C51.2004 3.97485 51.9998 4.29061 52.5731 4.92213C53.1509 5.55365 53.4398 6.42927 53.4398 7.54898C53.4398 8.6463 53.1285 9.5264 52.5059 10.1893C51.8879 10.8477 51.057 11.1769 50.0135 11.1769ZM50.0941 4.90198C49.3864 4.90198 48.8266 5.14384 48.4145 5.62755C48.0025 6.10679 47.7964 6.76966 47.7964 7.61616C47.7964 8.43132 48.0047 9.07403 48.4212 9.54431C48.8378 10.0146 49.3954 10.2497 50.0941 10.2497C50.8062 10.2497 51.3526 10.0191 51.7333 9.55775C52.1185 9.09643 52.3111 8.44027 52.3111 7.58929C52.3111 6.72935 52.1185 6.06648 51.7333 5.60068C51.3526 5.13488 50.8062 4.90198 50.0941 4.90198Z" fill="#797979"/>
<path d="M39.5263 10.6258V9.2956C39.6786 9.42996 39.86 9.55089 40.0705 9.65838C40.2855 9.76588 40.5094 9.85769 40.7423 9.93383C40.9797 10.0055 41.2171 10.0615 41.4545 10.1018C41.6918 10.1421 41.9113 10.1623 42.1128 10.1623C42.8071 10.1623 43.3244 10.0346 43.6648 9.77931C44.0096 9.51954 44.1821 9.14779 44.1821 8.66408C44.1821 8.4043 44.1239 8.17812 44.0074 7.98553C43.8954 7.79294 43.7387 7.61826 43.5371 7.4615C43.3356 7.30026 43.096 7.14798 42.8183 7.00466C42.5451 6.85686 42.2495 6.70234 41.9315 6.5411C41.5955 6.3709 41.282 6.19847 40.9909 6.02379C40.6998 5.84911 40.4467 5.65652 40.2317 5.44602C40.0167 5.23551 39.8465 4.99813 39.7211 4.73388C39.6002 4.46515 39.5397 4.15163 39.5397 3.79332C39.5397 3.35439 39.636 2.97369 39.8286 2.65121C40.0212 2.32425 40.2743 2.05552 40.5878 1.84502C40.9013 1.63451 41.2574 1.47775 41.656 1.37474C42.0591 1.27172 42.4689 1.22021 42.8855 1.22021C43.835 1.22021 44.527 1.33443 44.9614 1.56285V2.8326C44.3926 2.43846 43.6625 2.24139 42.7712 2.24139C42.5249 2.24139 42.2786 2.26827 42.0322 2.32201C41.7859 2.37128 41.5664 2.45414 41.3738 2.57059C41.1812 2.68704 41.0245 2.83708 40.9036 3.02072C40.7826 3.20435 40.7222 3.42829 40.7222 3.69254C40.7222 3.93888 40.7669 4.15163 40.8565 4.33078C40.9506 4.50994 41.0872 4.67341 41.2663 4.82122C41.4455 4.96902 41.6627 5.11234 41.918 5.25119C42.1778 5.39003 42.4756 5.54231 42.8115 5.70803C43.1564 5.87823 43.4834 6.05738 43.7924 6.24549C44.1015 6.43361 44.3724 6.64187 44.6053 6.87029C44.8382 7.09872 45.0219 7.35177 45.1562 7.62946C45.2951 7.90715 45.3645 8.22515 45.3645 8.58346C45.3645 9.05822 45.2704 9.46131 45.0823 9.79275C44.8987 10.1197 44.6479 10.3862 44.3299 10.5922C44.0164 10.7983 43.6536 10.9461 43.2415 11.0356C42.8295 11.1297 42.395 11.1767 41.9382 11.1767C41.7859 11.1767 41.5978 11.1633 41.3738 11.1364C41.1499 11.114 40.9215 11.0782 40.6886 11.0289C40.4557 10.9841 40.234 10.9281 40.0235 10.861C39.8174 10.7893 39.6517 10.7109 39.5263 10.6258Z" fill="#797979"/>
<path d="M33.2647 11.1633C32.9959 11.1633 32.7675 11.0759 32.5794 10.9012C32.3913 10.7221 32.2972 10.5093 32.2972 10.263C32.2972 10.0122 32.3913 9.79721 32.5794 9.61805C32.7675 9.4389 32.9959 9.34932 33.2647 9.34932C33.5379 9.34932 33.7685 9.4389 33.9567 9.61805C34.1492 9.79721 34.2455 10.0122 34.2455 10.263C34.2455 10.5093 34.1492 10.7221 33.9567 10.9012C33.7685 11.0759 33.5379 11.1633 33.2647 11.1633ZM33.2647 5.84909C32.9959 5.84909 32.7675 5.76176 32.5794 5.58708C32.3913 5.40793 32.2972 5.19518 32.2972 4.94884C32.2972 4.69803 32.3913 4.48304 32.5794 4.30389C32.7675 4.12473 32.9959 4.03516 33.2647 4.03516C33.5379 4.03516 33.7685 4.12473 33.9567 4.30389C34.1492 4.48304 34.2455 4.69803 34.2455 4.94884C34.2455 5.19518 34.1492 5.40793 33.9567 5.58708C33.7685 5.76176 33.5379 5.84909 33.2647 5.84909Z" fill="#202244"/>
<path d="M26.2509 10.8006V9.3562C26.8331 9.79961 27.4758 10.0213 28.179 10.0213C29.1196 10.0213 29.5898 9.74362 29.5898 9.18824C29.5898 9.03148 29.5495 8.89936 29.4689 8.79187C29.3883 8.67989 29.2786 8.58136 29.1397 8.49626C29.0054 8.41116 28.8441 8.33502 28.656 8.26784C28.4724 8.20066 28.2663 8.12452 28.0379 8.03942C27.7558 7.92745 27.5005 7.80876 27.272 7.68335C27.0481 7.55794 26.86 7.41686 26.7077 7.2601C26.5599 7.09886 26.4479 6.91746 26.3718 6.71591C26.2956 6.51437 26.2576 6.27923 26.2576 6.01049C26.2576 5.67906 26.336 5.38793 26.4927 5.13712C26.6495 4.88182 26.86 4.66908 27.1242 4.49888C27.3885 4.3242 27.6886 4.19432 28.0245 4.10922C28.3604 4.01964 28.7075 3.97485 29.0658 3.97485C29.7018 3.97485 30.2706 4.07115 30.7723 4.26374V5.62755C30.2885 5.29612 29.7332 5.1304 29.1061 5.1304C28.9091 5.1304 28.7299 5.15055 28.5687 5.19086C28.4119 5.23117 28.2775 5.28716 28.1656 5.35882C28.0536 5.43048 27.9663 5.51782 27.9036 5.62083C27.8408 5.71937 27.8095 5.8291 27.8095 5.95003C27.8095 6.09783 27.8408 6.22324 27.9036 6.32625C27.9663 6.42927 28.0581 6.52108 28.179 6.6017C28.3044 6.67784 28.4522 6.74951 28.6224 6.81669C28.7971 6.87939 28.9964 6.94882 29.2203 7.02496C29.5159 7.14588 29.7802 7.26905 30.0131 7.39446C30.2505 7.51987 30.452 7.66319 30.6177 7.82443C30.7835 7.98119 30.9111 8.16482 31.0007 8.37533C31.0903 8.58136 31.135 8.8277 31.135 9.11434C31.135 9.46369 31.0544 9.76826 30.8932 10.028C30.732 10.2878 30.517 10.5028 30.2482 10.673C29.9795 10.8432 29.6682 10.9686 29.3144 11.0492C28.965 11.1343 28.5955 11.1769 28.2059 11.1769C27.4534 11.1769 26.8018 11.0514 26.2509 10.8006Z" fill="#202244"/>
<path d="M24.6451 11.0155H23.0797V0.830566H24.6451V11.0155Z" fill="#202244"/>
<path d="M21.0441 11.0155H19.4787V0.830566H21.0441V11.0155Z" fill="#202244"/>
<path d="M16.6642 2.6916C16.4089 2.6916 16.1895 2.60874 16.0058 2.44302C15.8267 2.2773 15.7371 2.0668 15.7371 1.8115C15.7371 1.55621 15.8267 1.34346 16.0058 1.17326C16.1895 1.00307 16.4089 0.917969 16.6642 0.917969C16.9285 0.917969 17.1524 1.00307 17.336 1.17326C17.5197 1.34346 17.6115 1.55621 17.6115 1.8115C17.6115 2.05336 17.5197 2.26163 17.336 2.4363C17.1524 2.6065 16.9285 2.6916 16.6642 2.6916ZM17.4368 11.0156H15.8782V4.13603H17.4368V11.0156Z" fill="#202244"/>
<path d="M14.89 11.0155H12.9148L10.2409 7.71009H10.214V11.0155H8.64868V0.830566H10.214V7.28684H10.2409L12.767 4.13596H14.6414L11.7996 7.4548L14.89 11.0155Z" fill="#202244"/>
<path d="M0.882817 10.6325V8.98655C1.03062 9.12092 1.20529 9.24185 1.40684 9.34934C1.61287 9.45683 1.8301 9.54865 2.05852 9.62479C2.28694 9.69645 2.51536 9.75244 2.74378 9.79275C2.9722 9.83306 3.18271 9.85321 3.3753 9.85321C4.04713 9.85321 4.54652 9.74124 4.87348 9.5173C5.20492 9.29336 5.37063 8.96864 5.37063 8.54315C5.37063 8.31473 5.31465 8.11766 5.20268 7.95194C5.09518 7.78174 4.9429 7.62722 4.74583 7.48838C4.54876 7.34953 4.31586 7.21741 4.04713 7.092C3.78288 6.96211 3.49847 6.82774 3.19391 6.6889C2.86695 6.51423 2.56239 6.33731 2.28022 6.15816C1.99805 5.979 1.75172 5.78193 1.54121 5.56695C1.33518 5.34748 1.1717 5.10115 1.05077 4.82793C0.934324 4.55472 0.876099 4.23449 0.876099 3.86722C0.876099 3.41486 0.976873 3.02296 1.17842 2.69152C1.38445 2.35561 1.65318 2.08016 1.98462 1.86517C2.32053 1.64571 2.70123 1.48447 3.12672 1.38145C3.55222 1.27396 3.98667 1.22021 4.43007 1.22021C5.43782 1.22021 6.17235 1.33443 6.63367 1.56285V3.14164C6.08725 2.74751 5.38407 2.55044 4.52413 2.55044C4.28675 2.55044 4.04937 2.57283 3.81199 2.61762C3.57909 2.66241 3.36858 2.73631 3.18047 2.83932C2.99684 2.94234 2.8468 3.07446 2.73035 3.2357C2.6139 3.39694 2.55567 3.59177 2.55567 3.82019C2.55567 4.03518 2.60046 4.22105 2.69004 4.37781C2.77961 4.53457 2.9095 4.67789 3.0797 4.80778C3.25437 4.93767 3.46488 5.06531 3.71122 5.19072C3.96203 5.31165 4.25092 5.44378 4.57787 5.5871C4.91379 5.76178 5.22955 5.94541 5.52515 6.138C5.82524 6.33059 6.08725 6.54334 6.31119 6.77624C6.53961 7.00914 6.71877 7.26891 6.84866 7.55556C6.98302 7.83773 7.0502 8.1602 7.0502 8.52299C7.0502 9.01119 6.95167 9.42324 6.7546 9.75916C6.55753 10.0951 6.29104 10.3683 5.95512 10.5788C5.62369 10.7893 5.24075 10.9416 4.8063 11.0356C4.37185 11.1297 3.91276 11.1767 3.42905 11.1767C3.26781 11.1767 3.0685 11.1633 2.83112 11.1364C2.59822 11.114 2.3586 11.0782 2.11226 11.0289C1.86593 10.9841 1.63303 10.9281 1.41356 10.861C1.1941 10.7938 1.01718 10.7176 0.882817 10.6325Z" fill="#202244"/>
</svg>
