<svg width="35" height="13" viewBox="0 0 35 13" fill="none" xmlns="http://www.w3.org/2000/svg">
<path d="M29.3779 11.8445V10.2195C30.033 10.7184 30.756 10.9678 31.5471 10.9678C32.6052 10.9678 33.1343 10.6554 33.1343 10.0306C33.1343 9.85424 33.0889 9.70559 32.9982 9.58466C32.9075 9.4587 32.7841 9.34785 32.6279 9.25211C32.4767 9.15637 32.2953 9.07072 32.0837 8.99514C31.8771 8.91955 31.6454 8.8339 31.3884 8.73816C31.0709 8.61219 30.7837 8.47867 30.5268 8.33758C30.2748 8.1965 30.0632 8.03778 29.8919 7.86142C29.7256 7.68003 29.5996 7.47596 29.514 7.24922C29.4283 7.02248 29.3855 6.75795 29.3855 6.45562C29.3855 6.08276 29.4737 5.75524 29.65 5.47307C29.8264 5.18587 30.0632 4.94653 30.3605 4.75506C30.6578 4.55855 30.9954 4.41242 31.3733 4.31669C31.7512 4.21591 32.1417 4.16553 32.5448 4.16553C33.2603 4.16553 33.9002 4.27386 34.4645 4.49052V6.02481C33.9203 5.65195 33.2955 5.46552 32.5901 5.46552C32.3684 5.46552 32.1669 5.48819 31.9855 5.53354C31.8091 5.57889 31.6579 5.64187 31.532 5.72249C31.406 5.80311 31.3078 5.90136 31.2372 6.01725C31.1667 6.12811 31.1314 6.25156 31.1314 6.3876C31.1314 6.55388 31.1667 6.69496 31.2372 6.81085C31.3078 6.92674 31.4111 7.03004 31.5471 7.12073C31.6882 7.20639 31.8545 7.28701 32.0459 7.36259C32.2424 7.43313 32.4667 7.51123 32.7186 7.59689C33.0512 7.73294 33.3484 7.8715 33.6105 8.01259C33.8775 8.15367 34.1042 8.31491 34.2907 8.4963C34.4771 8.67266 34.6207 8.87924 34.7215 9.11606C34.8223 9.34785 34.8726 9.62497 34.8726 9.94745C34.8726 10.3405 34.782 10.6831 34.6006 10.9753C34.4192 11.2676 34.1773 11.5095 33.875 11.7009C33.5727 11.8924 33.2225 12.0335 32.8244 12.1242C32.4314 12.2199 32.0157 12.2678 31.5773 12.2678C30.7308 12.2678 29.9977 12.1267 29.3779 11.8445Z" fill="#202244"/>
<path d="M27.5715 12.0865H25.8104V0.628418H27.5715V12.0865Z" fill="#202244"/>
<path d="M23.52 12.0865H21.759V0.628418H23.52V12.0865Z" fill="#202244"/>
<path d="M18.5924 2.72214C18.3052 2.72214 18.0583 2.62892 17.8517 2.44249C17.6502 2.25606 17.5494 2.01924 17.5494 1.73203C17.5494 1.44482 17.6502 1.20548 17.8517 1.01401C18.0583 0.822542 18.3052 0.726807 18.5924 0.726807C18.8897 0.726807 19.1416 0.822542 19.3482 1.01401C19.5548 1.20548 19.6581 1.44482 19.6581 1.73203C19.6581 2.00412 19.5548 2.23842 19.3482 2.43493C19.1416 2.6264 18.8897 2.72214 18.5924 2.72214ZM19.4616 12.0866H17.7081V4.34712H19.4616V12.0866Z" fill="#202244"/>
<path d="M16.5976 12.0865H14.3755L11.3674 8.36788H11.3371V12.0865H9.57611V0.628418H11.3371V7.89173H11.3674L14.2092 4.34699H16.3179L13.1208 8.08068L16.5976 12.0865Z" fill="#202244"/>
<path d="M0.838613 11.6558V9.80403C1.00489 9.95519 1.2014 10.0912 1.42814 10.2122C1.65992 10.3331 1.9043 10.4364 2.16128 10.522C2.41825 10.6027 2.67522 10.6656 2.9322 10.711C3.18917 10.7563 3.42599 10.779 3.64266 10.779C4.39847 10.779 4.96028 10.653 5.32811 10.4011C5.70097 10.1492 5.88741 9.78387 5.88741 9.30519C5.88741 9.04822 5.82442 8.82652 5.69845 8.64008C5.57752 8.44861 5.40621 8.27478 5.1845 8.11858C4.9628 7.96238 4.70079 7.81373 4.39847 7.67265C4.10118 7.52653 3.78122 7.37537 3.43859 7.21917C3.07076 7.02266 2.72813 6.82363 2.41069 6.62208C2.09325 6.42053 1.81612 6.19883 1.5793 5.95697C1.34752 5.71007 1.16361 5.43294 1.02756 5.12558C0.896558 4.81822 0.831055 4.45795 0.831055 4.04478C0.831055 3.53586 0.944426 3.09498 1.17117 2.72211C1.40295 2.34421 1.70527 2.03433 2.07814 1.79247C2.45604 1.54557 2.88433 1.36418 3.36301 1.24829C3.84169 1.12736 4.33044 1.06689 4.82928 1.06689C5.96299 1.06689 6.78934 1.19538 7.30832 1.45236V3.2285C6.6936 2.7851 5.90252 2.56339 4.93509 2.56339C4.66804 2.56339 4.40098 2.58859 4.13393 2.63897C3.87192 2.68936 3.6351 2.7725 3.42347 2.88839C3.21689 3.00428 3.04809 3.15292 2.91708 3.33432C2.78608 3.51571 2.72057 3.73489 2.72057 3.99187C2.72057 4.23373 2.77096 4.44283 2.87173 4.61919C2.97251 4.79554 3.11863 4.95678 3.3101 5.1029C3.50661 5.24903 3.74343 5.39263 4.02056 5.53372C4.30273 5.66976 4.62773 5.8184 4.99555 5.97964C5.37346 6.17615 5.72869 6.38274 6.06124 6.5994C6.39884 6.81607 6.6936 7.05541 6.94554 7.31742C7.20251 7.57943 7.40406 7.87168 7.55018 8.19416C7.70134 8.5116 7.77692 8.87438 7.77692 9.28252C7.77692 9.83174 7.66607 10.2953 7.44437 10.6732C7.22267 11.0511 6.92286 11.3585 6.54496 11.5953C6.17209 11.8321 5.74128 12.0034 5.25253 12.1092C4.76377 12.2151 4.2473 12.268 3.70312 12.268C3.52173 12.268 3.29751 12.2528 3.03045 12.2226C2.76844 12.1974 2.49887 12.1571 2.22174 12.1017C1.94461 12.0513 1.6826 11.9883 1.4357 11.9127C1.1888 11.8371 0.989774 11.7515 0.838613 11.6558Z" fill="#202244"/>
</svg>
