<svg width="233" height="13" viewBox="0 0 233 13" fill="none" xmlns="http://www.w3.org/2000/svg">
<path d="M232.53 10.5897C232.27 10.733 231.927 10.8047 231.502 10.8047C230.297 10.8047 229.694 10.1328 229.694 8.78918V4.7179H228.512V3.77734H229.694V2.09777L230.796 1.7417V3.77734H232.53V4.7179H230.796V8.59435C230.796 9.05567 230.875 9.38487 231.031 9.58194C231.188 9.77901 231.448 9.87754 231.811 9.87754C232.088 9.87754 232.328 9.8014 232.53 9.64912V10.5897Z" fill="#797979"/>
<path d="M227.672 10.341C227.144 10.659 226.517 10.818 225.791 10.818C224.81 10.818 224.018 10.5 223.413 9.86397C222.813 9.2235 222.513 8.39491 222.513 7.37821C222.513 6.24506 222.837 5.33585 223.487 4.65058C224.136 3.96084 225.003 3.61597 226.087 3.61597C226.691 3.61597 227.224 3.72794 227.686 3.95188V5.08055C227.175 4.72224 226.629 4.54309 226.046 4.54309C225.343 4.54309 224.765 4.79615 224.313 5.30226C223.865 5.80389 223.641 6.46452 223.641 7.28415C223.641 8.09035 223.852 8.72634 224.273 9.19214C224.698 9.65795 225.267 9.89085 225.979 9.89085C226.579 9.89085 227.144 9.69154 227.672 9.29292V10.341Z" fill="#797979"/>
<path d="M220.907 10.6567H219.805V9.58181H219.778C219.299 10.4059 218.594 10.818 217.662 10.818C216.977 10.818 216.439 10.6366 216.05 10.2738C215.664 9.911 215.472 9.42952 215.472 8.82936C215.472 7.54393 216.229 6.79596 217.743 6.58545L219.805 6.29656C219.805 5.12758 219.333 4.54309 218.387 4.54309C217.559 4.54309 216.811 4.82526 216.144 5.38959V4.26092C216.82 3.83095 217.599 3.61597 218.482 3.61597C220.098 3.61597 220.907 4.47143 220.907 6.18235V10.6567ZM219.805 7.17666L218.146 7.40508C217.635 7.47674 217.25 7.60439 216.99 7.78802C216.73 7.96718 216.6 8.28742 216.6 8.74874C216.6 9.08465 216.719 9.3601 216.956 9.57509C217.198 9.78559 217.519 9.89085 217.917 9.89085C218.464 9.89085 218.914 9.7005 219.268 9.31979C219.626 8.93461 219.805 8.44865 219.805 7.86192V7.17666Z" fill="#797979"/>
<path d="M214.787 4.89266C214.594 4.74486 214.316 4.67096 213.954 4.67096C213.483 4.67096 213.089 4.89266 212.771 5.33607C212.458 5.77947 212.301 6.38412 212.301 7.15V10.6569H211.199V3.77742H212.301V5.19498H212.328C212.485 4.71127 212.724 4.33504 213.047 4.06631C213.369 3.7931 213.73 3.65649 214.128 3.65649C214.415 3.65649 214.634 3.68785 214.787 3.75055V4.89266Z" fill="#797979"/>
<path d="M209.727 10.5897C209.467 10.733 209.125 10.8047 208.699 10.8047C207.495 10.8047 206.892 10.1328 206.892 8.78918V4.7179H205.71V3.77734H206.892V2.09777L207.994 1.7417V3.77734H209.727V4.7179H207.994V8.59435C207.994 9.05567 208.072 9.38487 208.229 9.58194C208.386 9.77901 208.646 9.87754 209.008 9.87754C209.286 9.87754 209.526 9.8014 209.727 9.64912V10.5897Z" fill="#797979"/>
<path d="M204.453 10.6567H203.352V6.73325C203.352 5.27314 202.819 4.54309 201.753 4.54309C201.202 4.54309 200.745 4.75136 200.382 5.16789C200.024 5.57995 199.845 6.10173 199.845 6.73325V10.6567H198.743V3.77721H199.845V4.91931H199.872C200.391 4.05042 201.144 3.61597 202.129 3.61597C202.881 3.61597 203.457 3.86006 203.856 4.34826C204.254 4.83198 204.453 5.53292 204.453 6.45108V10.6567Z" fill="#797979"/>
<path d="M193.557 10.818C192.54 10.818 191.727 10.4977 191.118 9.85725C190.513 9.2123 190.211 8.35908 190.211 7.29759C190.211 6.14204 190.527 5.23955 191.158 4.59012C191.79 3.94068 192.643 3.61597 193.718 3.61597C194.744 3.61597 195.543 3.93173 196.116 4.56325C196.694 5.19476 196.983 6.07038 196.983 7.1901C196.983 8.28742 196.672 9.16751 196.049 9.83038C195.431 10.4888 194.6 10.818 193.557 10.818ZM193.637 4.54309C192.93 4.54309 192.37 4.78495 191.958 5.26867C191.546 5.7479 191.34 6.41077 191.34 7.25728C191.34 8.07243 191.548 8.71515 191.965 9.18543C192.381 9.65571 192.939 9.89085 193.637 9.89085C194.35 9.89085 194.896 9.66019 195.277 9.19886C195.662 8.73754 195.854 8.08139 195.854 7.23041C195.854 6.37046 195.662 5.70759 195.277 5.24179C194.896 4.77599 194.35 4.54309 193.637 4.54309Z" fill="#797979"/>
<path d="M188.867 10.2537C188.155 10.63 187.268 10.8181 186.207 10.8181C184.836 10.8181 183.739 10.3769 182.915 9.49457C182.091 8.61224 181.679 7.45445 181.679 6.02122C181.679 4.48049 182.142 3.23537 183.069 2.28585C183.997 1.33633 185.172 0.861572 186.597 0.861572C187.51 0.861572 188.267 0.993699 188.867 1.25795V2.46052C188.178 2.07534 187.416 1.88275 186.583 1.88275C185.477 1.88275 184.579 2.25226 183.889 2.99127C183.204 3.73028 182.861 4.71787 182.861 5.95403C182.861 7.12749 183.181 8.06358 183.822 8.76228C184.467 9.4565 185.311 9.80361 186.355 9.80361C187.322 9.80361 188.16 9.58863 188.867 9.15866V10.2537Z" fill="#797979"/>
<path d="M175.787 10.8046C175.581 10.8046 175.404 10.7307 175.256 10.5829C175.112 10.4351 175.041 10.2582 175.041 10.0521C175.041 9.84611 175.112 9.66919 175.256 9.52139C175.404 9.36911 175.581 9.29297 175.787 9.29297C175.997 9.29297 176.176 9.36911 176.324 9.52139C176.472 9.66919 176.546 9.84611 176.546 10.0521C176.546 10.2582 176.472 10.4351 176.324 10.5829C176.176 10.7307 175.997 10.8046 175.787 10.8046Z" fill="#797979"/>
<path d="M173.737 10.341C173.209 10.659 172.582 10.818 171.856 10.818C170.875 10.818 170.082 10.5 169.478 9.86397C168.878 9.2235 168.577 8.39491 168.577 7.37821C168.577 6.24506 168.902 5.33585 169.552 4.65058C170.201 3.96084 171.068 3.61597 172.152 3.61597C172.756 3.61597 173.289 3.72794 173.751 3.95188V5.08055C173.24 4.72224 172.694 4.54309 172.111 4.54309C171.408 4.54309 170.83 4.79615 170.378 5.30226C169.93 5.80389 169.706 6.46452 169.706 7.28415C169.706 8.09035 169.917 8.72634 170.338 9.19214C170.763 9.65795 171.332 9.89085 172.044 9.89085C172.644 9.89085 173.209 9.69154 173.737 9.29292V10.341Z" fill="#797979"/>
<path d="M166.966 10.6567H165.864V6.73325C165.864 5.27314 165.331 4.54309 164.265 4.54309C163.714 4.54309 163.257 4.75136 162.895 5.16789C162.536 5.57995 162.357 6.10173 162.357 6.73325V10.6567H161.255V3.77721H162.357V4.91931H162.384C162.904 4.05042 163.656 3.61597 164.641 3.61597C165.394 3.61597 165.969 3.86006 166.368 4.34826C166.767 4.83198 166.966 5.53292 166.966 6.45108V10.6567Z" fill="#797979"/>
<path d="M159.804 1.02271V1.99014H158.863V9.68929H159.804V10.6567H156.794V9.68929H157.735V1.99014H156.794V1.02271H159.804Z" fill="#797979"/>
<path d="M151.836 9.125L150.761 12.4304H149.975L150.761 9.125H151.836Z" fill="#797979"/>
<path d="M148.598 10.6569H147.496V9.56851H147.469C147.012 10.4016 146.305 10.8181 145.346 10.8181C143.707 10.8181 142.887 9.84172 142.887 7.88894V3.77734H143.983V7.71426C143.983 9.16541 144.538 9.89098 145.649 9.89098C146.186 9.89098 146.627 9.69391 146.972 9.29978C147.322 8.90116 147.496 8.38161 147.496 7.74113V3.77734H148.598V10.6569Z" fill="#797979"/>
<path d="M141.563 10.5897C141.303 10.733 140.961 10.8047 140.535 10.8047C139.331 10.8047 138.728 10.1328 138.728 8.78918V4.7179H137.546V3.77734H138.728V2.09777L139.83 1.7417V3.77734H141.563V4.7179H139.83V8.59435C139.83 9.05567 139.908 9.38487 140.065 9.58194C140.222 9.77901 140.482 9.87754 140.844 9.87754C141.122 9.87754 141.362 9.8014 141.563 9.64912V10.5897Z" fill="#797979"/>
<path d="M136.901 10.5897C136.641 10.733 136.299 10.8047 135.873 10.8047C134.668 10.8047 134.066 10.1328 134.066 8.78918V4.7179H132.884V3.77734H134.066V2.09777L135.168 1.7417V3.77734H136.901V4.7179H135.168V8.59435C135.168 9.05567 135.246 9.38487 135.403 9.58194C135.56 9.77901 135.82 9.87754 136.182 9.87754C136.46 9.87754 136.7 9.8014 136.901 9.64912V10.5897Z" fill="#797979"/>
<path d="M132.037 7.49242H127.18C127.198 8.2583 127.404 8.84951 127.798 9.26605C128.192 9.68258 128.734 9.89085 129.424 9.89085C130.199 9.89085 130.911 9.63555 131.56 9.12496V10.1596C130.956 10.5985 130.156 10.818 129.162 10.818C128.19 10.818 127.426 10.5067 126.871 9.88413C126.316 9.25709 126.038 8.37699 126.038 7.24384C126.038 6.17339 126.34 5.30226 126.945 4.63043C127.554 3.95412 128.309 3.61597 129.209 3.61597C130.109 3.61597 130.806 3.90709 131.298 4.48934C131.791 5.0716 132.037 5.88003 132.037 6.91465V7.49242ZM130.909 6.55858C130.904 5.92258 130.75 5.42766 130.445 5.07384C130.145 4.72001 129.726 4.54309 129.189 4.54309C128.669 4.54309 128.228 4.72896 127.865 5.10071C127.503 5.47245 127.279 5.95841 127.194 6.55858H130.909Z" fill="#797979"/>
<path d="M120.247 10.4082V9.22574C120.847 9.66914 121.508 9.89085 122.229 9.89085C123.196 9.89085 123.68 9.56837 123.68 8.92341C123.68 8.73978 123.637 8.58526 123.552 8.45985C123.472 8.32996 123.36 8.21575 123.216 8.11722C123.077 8.01868 122.912 7.93135 122.719 7.85521C122.531 7.77459 122.327 7.69173 122.108 7.60663C121.803 7.4857 121.535 7.36477 121.302 7.24384C121.073 7.11843 120.881 6.97959 120.724 6.82731C120.572 6.67055 120.455 6.49363 120.375 6.29656C120.298 6.09949 120.26 5.86883 120.26 5.60458C120.26 5.2821 120.334 4.99769 120.482 4.75136C120.63 4.50054 120.827 4.29227 121.073 4.12656C121.32 3.95636 121.599 3.82871 121.913 3.74361C122.231 3.65852 122.558 3.61597 122.894 3.61597C123.49 3.61597 124.023 3.71898 124.493 3.92501V5.04024C123.987 4.70881 123.404 4.54309 122.746 4.54309C122.54 4.54309 122.354 4.56772 122.188 4.61699C122.023 4.66178 121.879 4.72672 121.758 4.81182C121.642 4.89692 121.55 4.99993 121.483 5.12086C121.42 5.23731 121.389 5.3672 121.389 5.51052C121.389 5.68968 121.42 5.83972 121.483 5.96065C121.55 6.08158 121.646 6.18907 121.772 6.28313C121.897 6.37718 122.05 6.46228 122.229 6.53842C122.408 6.61456 122.612 6.69742 122.84 6.787C123.145 6.90345 123.418 7.02438 123.66 7.14979C123.902 7.27071 124.108 7.40956 124.278 7.56632C124.448 7.7186 124.578 7.89552 124.667 8.09706C124.762 8.29861 124.809 8.53823 124.809 8.81592C124.809 9.15631 124.732 9.45192 124.58 9.70273C124.432 9.95355 124.233 10.1618 123.982 10.3275C123.731 10.4933 123.443 10.6164 123.116 10.697C122.789 10.7777 122.446 10.818 122.088 10.818C121.38 10.818 120.766 10.6814 120.247 10.4082Z" fill="#797979"/>
<path d="M118.433 10.6569H117.331V9.56851H117.304C116.847 10.4016 116.139 10.8181 115.181 10.8181C113.542 10.8181 112.722 9.84172 112.722 7.88894V3.77734H113.817V7.71426C113.817 9.16541 114.372 9.89098 115.483 9.89098C116.021 9.89098 116.462 9.69391 116.807 9.29978C117.156 8.90116 117.331 8.38161 117.331 7.74113V3.77734H118.433V10.6569Z" fill="#797979"/>
<path d="M110.787 10.6568H109.685V6.69306C109.685 5.25982 109.152 4.54321 108.086 4.54321C107.549 4.54321 107.097 4.75147 106.729 5.16801C106.362 5.58006 106.178 6.11081 106.178 6.76024V10.6568H105.077V0.471924H106.178V4.91943H106.205C106.734 4.05053 107.486 3.61608 108.463 3.61608C110.012 3.61608 110.787 4.54992 110.787 6.41761V10.6568Z" fill="#797979"/>
<path d="M103.411 10.341C102.882 10.659 102.255 10.818 101.529 10.818C100.549 10.818 99.7558 10.5 99.1511 9.86397C98.551 9.2235 98.2509 8.39491 98.2509 7.37821C98.2509 6.24506 98.5756 5.33585 99.225 4.65058C99.8745 3.96084 100.741 3.61597 101.825 3.61597C102.43 3.61597 102.963 3.72794 103.424 3.95188V5.08055C102.913 4.72224 102.367 4.54309 101.785 4.54309C101.082 4.54309 100.504 4.79615 100.051 5.30226C99.6035 5.80389 99.3796 6.46452 99.3796 7.28415C99.3796 8.09035 99.5901 8.72634 100.011 9.19214C100.437 9.65795 101.005 9.89085 101.718 9.89085C102.318 9.89085 102.882 9.69154 103.411 9.29292V10.341Z" fill="#797979"/>
<path d="M96.6456 10.6567H95.5438V9.58181H95.5169C95.0377 10.4059 94.3323 10.818 93.4007 10.818C92.7154 10.818 92.1779 10.6366 91.7883 10.2738C91.4031 9.911 91.2105 9.42952 91.2105 8.82936C91.2105 7.54393 91.9674 6.79596 93.4813 6.58545L95.5438 6.29656C95.5438 5.12758 95.0713 4.54309 94.1262 4.54309C93.2977 4.54309 92.5497 4.82526 91.8823 5.38959V4.26092C92.5586 3.83095 93.338 3.61597 94.2203 3.61597C95.8372 3.61597 96.6456 4.47143 96.6456 6.18235V10.6567ZM95.5438 7.17666L93.8844 7.40508C93.3738 7.47674 92.9886 7.60439 92.7288 7.78802C92.4691 7.96718 92.3392 8.28742 92.3392 8.74874C92.3392 9.08465 92.4579 9.3601 92.6953 9.57509C92.9371 9.78559 93.2573 9.89085 93.656 9.89085C94.2024 9.89085 94.6525 9.7005 95.0063 9.31979C95.3647 8.93461 95.5438 8.44865 95.5438 7.86192V7.17666Z" fill="#797979"/>
<path d="M85.4594 10.4082V9.22574C86.0596 9.66914 86.7202 9.89085 87.4413 9.89085C88.4087 9.89085 88.8925 9.56837 88.8925 8.92341C88.8925 8.73978 88.8499 8.58526 88.7648 8.45985C88.6842 8.32996 88.5722 8.21575 88.4289 8.11722C88.2901 8.01868 88.1243 7.93135 87.9317 7.85521C87.7436 7.77459 87.5398 7.69173 87.3204 7.60663C87.0158 7.4857 86.7471 7.36477 86.5142 7.24384C86.2858 7.11843 86.0932 6.97959 85.9364 6.82731C85.7841 6.67055 85.6677 6.49363 85.5871 6.29656C85.5109 6.09949 85.4728 5.86883 85.4728 5.60458C85.4728 5.2821 85.5467 4.99769 85.6946 4.75136C85.8424 4.50054 86.0394 4.29227 86.2858 4.12656C86.5321 3.95636 86.812 3.82871 87.1255 3.74361C87.4435 3.65852 87.7705 3.61597 88.1064 3.61597C88.7021 3.61597 89.2351 3.71898 89.7054 3.92501V5.04024C89.1993 4.70881 88.617 4.54309 87.9586 4.54309C87.7526 4.54309 87.5667 4.56772 87.401 4.61699C87.2353 4.66178 87.092 4.72672 86.971 4.81182C86.8546 4.89692 86.7628 4.99993 86.6956 5.12086C86.6329 5.23731 86.6015 5.3672 86.6015 5.51052C86.6015 5.68968 86.6329 5.83972 86.6956 5.96065C86.7628 6.08158 86.8591 6.18907 86.9845 6.28313C87.1099 6.37718 87.2622 6.46228 87.4413 6.53842C87.6205 6.61456 87.8242 6.69742 88.0527 6.787C88.3572 6.90345 88.6304 7.02438 88.8723 7.14979C89.1142 7.27071 89.3202 7.40956 89.4904 7.56632C89.6606 7.7186 89.7905 7.89552 89.88 8.09706C89.9741 8.29861 90.0211 8.53823 90.0211 8.81592C90.0211 9.15631 89.945 9.45192 89.7927 9.70273C89.6449 9.95355 89.4456 10.1618 89.1948 10.3275C88.944 10.4933 88.6551 10.6164 88.3281 10.697C88.0012 10.7777 87.6585 10.818 87.3002 10.818C86.5926 10.818 85.979 10.6814 85.4594 10.4082Z" fill="#797979"/>
<path d="M79.6142 10.4082V9.22574C80.2144 9.66914 80.875 9.89085 81.5961 9.89085C82.5635 9.89085 83.0472 9.56837 83.0472 8.92341C83.0472 8.73978 83.0047 8.58526 82.9196 8.45985C82.839 8.32996 82.727 8.21575 82.5837 8.11722C82.4448 8.01868 82.2791 7.93135 82.0865 7.85521C81.8984 7.77459 81.6946 7.69173 81.4752 7.60663C81.1706 7.4857 80.9019 7.36477 80.669 7.24384C80.4405 7.11843 80.248 6.97959 80.0912 6.82731C79.9389 6.67055 79.8225 6.49363 79.7418 6.29656C79.6657 6.09949 79.6276 5.86883 79.6276 5.60458C79.6276 5.2821 79.7015 4.99769 79.8493 4.75136C79.9971 4.50054 80.1942 4.29227 80.4405 4.12656C80.6869 3.95636 80.9668 3.82871 81.2803 3.74361C81.5983 3.65852 81.9253 3.61597 82.2612 3.61597C82.8569 3.61597 83.3899 3.71898 83.8602 3.92501V5.04024C83.354 4.70881 82.7718 4.54309 82.1134 4.54309C81.9074 4.54309 81.7215 4.56772 81.5558 4.61699C81.3901 4.66178 81.2467 4.72672 81.1258 4.81182C81.0094 4.89692 80.9175 4.99993 80.8504 5.12086C80.7877 5.23731 80.7563 5.3672 80.7563 5.51052C80.7563 5.68968 80.7877 5.83972 80.8504 5.96065C80.9175 6.08158 81.0138 6.18907 81.1392 6.28313C81.2647 6.37718 81.4169 6.46228 81.5961 6.53842C81.7752 6.61456 81.979 6.69742 82.2075 6.787C82.512 6.90345 82.7852 7.02438 83.0271 7.14979C83.2689 7.27071 83.475 7.40956 83.6452 7.56632C83.8154 7.7186 83.9453 7.89552 84.0348 8.09706C84.1289 8.29861 84.1759 8.53823 84.1759 8.81592C84.1759 9.15631 84.0998 9.45192 83.9475 9.70273C83.7997 9.95355 83.6004 10.1618 83.3496 10.3275C83.0987 10.4933 82.8099 10.6164 82.4829 10.697C82.1559 10.7777 81.8133 10.818 81.455 10.818C80.7473 10.818 80.1337 10.6814 79.6142 10.4082Z" fill="#797979"/>
<path d="M77.9554 10.6567H76.8536V9.58181H76.8267C76.3475 10.4059 75.6421 10.818 74.7105 10.818C74.0252 10.818 73.4877 10.6366 73.0981 10.2738C72.7129 9.911 72.5203 9.42952 72.5203 8.82936C72.5203 7.54393 73.2772 6.79596 74.7911 6.58545L76.8536 6.29656C76.8536 5.12758 76.3811 4.54309 75.436 4.54309C74.6074 4.54309 73.8595 4.82526 73.1921 5.38959V4.26092C73.8684 3.83095 74.6478 3.61597 75.5301 3.61597C77.147 3.61597 77.9554 4.47143 77.9554 6.18235V10.6567ZM76.8536 7.17666L75.1942 7.40508C74.6836 7.47674 74.2984 7.60439 74.0386 7.78802C73.7789 7.96718 73.649 8.28742 73.649 8.74874C73.649 9.08465 73.7677 9.3601 74.005 9.57509C74.2469 9.78559 74.5671 9.89085 74.9658 9.89085C75.5122 9.89085 75.9623 9.7005 76.3161 9.31979C76.6744 8.93461 76.8536 8.44865 76.8536 7.86192V7.17666Z" fill="#797979"/>
<path d="M70.639 10.6567H69.517V4.19374C69.517 3.68315 69.5484 3.05835 69.6111 2.31933H69.5842C69.4767 2.75378 69.3804 3.06506 69.2953 3.25318L66.0034 10.6567H65.4525L62.1672 3.30692C62.0732 3.09194 61.9769 2.76274 61.8784 2.31933H61.8515C61.8873 2.70452 61.9052 3.3338 61.9052 4.20717V10.6567H60.8169V1.02271H62.3083L65.2644 7.74099C65.4928 8.25606 65.6406 8.64124 65.7078 8.89654H65.7481C65.9407 8.36803 66.0952 7.97389 66.2116 7.71412L69.2282 1.02271H70.639V10.6567Z" fill="#797979"/>
<path d="M55.617 10.6567H54.3674L53.3462 7.95598H49.2615L48.3008 10.6567H47.0444L50.7395 1.02271H51.9085L55.617 10.6567ZM52.9767 6.94152L51.4651 2.83664C51.4158 2.70228 51.3665 2.48729 51.3173 2.19169H51.2904C51.2456 2.4649 51.1941 2.67988 51.1359 2.83664L49.6377 6.94152H52.9767Z" fill="#797979"/>
<path d="M40.4 10.2672V8.93695C40.5522 9.07132 40.7336 9.19225 40.9441 9.29974C41.1591 9.40723 41.3831 9.49905 41.616 9.57519C41.8534 9.64685 42.0907 9.70284 42.3281 9.74315C42.5655 9.78346 42.785 9.80361 42.9865 9.80361C43.6807 9.80361 44.198 9.67596 44.5384 9.42067C44.8833 9.1609 45.0557 8.78915 45.0557 8.30543C45.0557 8.04566 44.9975 7.81948 44.8811 7.62689C44.7691 7.4343 44.6123 7.25962 44.4108 7.10286C44.2092 6.94162 43.9696 6.78934 43.6919 6.64602C43.4187 6.49821 43.1231 6.34369 42.8051 6.18246C42.4692 6.01226 42.1557 5.83982 41.8646 5.66515C41.5734 5.49047 41.3204 5.29788 41.1054 5.08737C40.8904 4.87687 40.7202 4.63949 40.5948 4.37524C40.4739 4.1065 40.4134 3.79298 40.4134 3.43468C40.4134 2.99575 40.5097 2.61505 40.7023 2.29257C40.8949 1.96561 41.1479 1.69688 41.4615 1.48637C41.775 1.27587 42.131 1.11911 42.5297 1.01609C42.9328 0.913079 43.3426 0.861572 43.7591 0.861572C44.7086 0.861572 45.4006 0.975783 45.8351 1.2042V2.47396C45.2662 2.07982 44.5362 1.88275 43.6449 1.88275C43.3986 1.88275 43.1522 1.90963 42.9059 1.96337C42.6595 2.01264 42.4401 2.0955 42.2475 2.21195C42.0549 2.3284 41.8981 2.47844 41.7772 2.66207C41.6563 2.84571 41.5958 3.06965 41.5958 3.3339C41.5958 3.58024 41.6406 3.79298 41.7302 3.97214C41.8242 4.15129 41.9608 4.31477 42.14 4.46257C42.3192 4.61038 42.5364 4.7537 42.7917 4.89254C43.0514 5.03139 43.3493 5.18367 43.6852 5.34939C44.0301 5.51958 44.357 5.69874 44.6661 5.88685C44.9751 6.07496 45.2461 6.28323 45.479 6.51165C45.7119 6.74007 45.8955 6.99313 46.0299 7.27082C46.1687 7.54851 46.2382 7.86651 46.2382 8.22481C46.2382 8.69957 46.1441 9.10267 45.956 9.43411C45.7724 9.76106 45.5215 10.0276 45.2035 10.2336C44.89 10.4396 44.5272 10.5874 44.1152 10.677C43.7031 10.771 43.2687 10.8181 42.8118 10.8181C42.6595 10.8181 42.4714 10.8046 42.2475 10.7778C42.0235 10.7554 41.7951 10.7195 41.5622 10.6703C41.3293 10.6255 41.1076 10.5695 40.8971 10.5023C40.6911 10.4307 40.5254 10.3523 40.4 10.2672Z" fill="#797979"/>
<path d="M38.4379 6.76012C38.4379 9.46535 37.2175 10.818 34.7765 10.818C32.4385 10.818 31.2695 9.51686 31.2695 6.91464V1.02271H32.3982V6.84074C32.3982 8.81592 33.2313 9.80351 34.8974 9.80351C36.5053 9.80351 37.3093 8.84951 37.3093 6.94152V1.02271H38.4379V6.76012Z" fill="#797979"/>
<path d="M24.9814 10.4082V9.22574C25.5816 9.66914 26.2422 9.89085 26.9633 9.89085C27.9307 9.89085 28.4145 9.56837 28.4145 8.92341C28.4145 8.73978 28.3719 8.58526 28.2868 8.45985C28.2062 8.32996 28.0942 8.21575 27.9509 8.11722C27.8121 8.01868 27.6463 7.93135 27.4537 7.85521C27.2656 7.77459 27.0618 7.69173 26.8424 7.60663C26.5378 7.4857 26.2691 7.36477 26.0362 7.24384C25.8078 7.11843 25.6152 6.97959 25.4584 6.82731C25.3061 6.67055 25.1897 6.49363 25.1091 6.29656C25.0329 6.09949 24.9949 5.86883 24.9949 5.60458C24.9949 5.2821 25.0688 4.99769 25.2166 4.75136C25.3644 4.50054 25.5614 4.29227 25.8078 4.12656C26.0541 3.95636 26.334 3.82871 26.6475 3.74361C26.9655 3.65852 27.2925 3.61597 27.6284 3.61597C28.2241 3.61597 28.7571 3.71898 29.2274 3.92501V5.04024C28.7213 4.70881 28.139 4.54309 27.4806 4.54309C27.2746 4.54309 27.0887 4.56772 26.923 4.61699C26.7573 4.66178 26.614 4.72672 26.493 4.81182C26.3766 4.89692 26.2848 4.99993 26.2176 5.12086C26.1549 5.23731 26.1235 5.3672 26.1235 5.51052C26.1235 5.68968 26.1549 5.83972 26.2176 5.96065C26.2848 6.08158 26.3811 6.18907 26.5065 6.28313C26.6319 6.37718 26.7842 6.46228 26.9633 6.53842C27.1425 6.61456 27.3463 6.69742 27.5747 6.787C27.8792 6.90345 28.1524 7.02438 28.3943 7.14979C28.6362 7.27071 28.8422 7.40956 29.0124 7.56632C29.1826 7.7186 29.3125 7.89552 29.402 8.09706C29.4961 8.29861 29.5431 8.53823 29.5431 8.81592C29.5431 9.15631 29.467 9.45192 29.3147 9.70273C29.1669 9.95355 28.9676 10.1618 28.7168 10.3275C28.466 10.4933 28.1771 10.6164 27.8501 10.697C27.5232 10.7777 27.1805 10.818 26.8222 10.818C26.1146 10.818 25.501 10.6814 24.9814 10.4082Z" fill="#797979"/>
<path d="M23.1679 10.6568H22.0661V0.471924H23.1679V10.6568Z" fill="#797979"/>
<path d="M19.8351 10.6568H18.7333V0.471924H19.8351V10.6568Z" fill="#797979"/>
<path d="M15.9656 2.0306C15.7685 2.0306 15.6005 1.96342 15.4617 1.82906C15.3228 1.69469 15.2534 1.52449 15.2534 1.31847C15.2534 1.11244 15.3228 0.942242 15.4617 0.807876C15.6005 0.669032 15.7685 0.599609 15.9656 0.599609C16.1671 0.599609 16.3373 0.669032 16.4761 0.807876C16.6195 0.942242 16.6911 1.11244 16.6911 1.31847C16.6911 1.51554 16.6195 1.68349 16.4761 1.82234C16.3373 1.96118 16.1671 2.0306 15.9656 2.0306ZM16.503 10.6569H15.4012V3.77736H16.503V10.6569Z" fill="#797979"/>
<path d="M14.2724 10.6568H12.7272L9.69056 7.35145H9.66369V10.6568H8.56189V0.471924H9.66369V6.9282H9.69056L12.5794 3.77732H14.0239L10.8327 7.09615L14.2724 10.6568Z" fill="#797979"/>
<path d="M0.949951 10.2672V8.93695C1.10223 9.07132 1.28363 9.19225 1.49413 9.29974C1.70912 9.40723 1.93306 9.49905 2.16596 9.57519C2.40334 9.64685 2.64072 9.70284 2.8781 9.74315C3.11548 9.78346 3.33494 9.80361 3.53649 9.80361C4.23072 9.80361 4.74802 9.67596 5.08842 9.42067C5.43329 9.1609 5.60572 8.78915 5.60572 8.30543C5.60572 8.04566 5.5475 7.81948 5.43105 7.62689C5.31908 7.4343 5.16232 7.25962 4.96077 7.10286C4.75922 6.94162 4.5196 6.78934 4.24191 6.64602C3.9687 6.49821 3.6731 6.34369 3.3551 6.18246C3.01918 6.01226 2.70566 5.83982 2.41454 5.66515C2.12341 5.49047 1.87036 5.29788 1.65537 5.08737C1.44039 4.87687 1.27019 4.63949 1.14478 4.37524C1.02385 4.1065 0.963388 3.79298 0.963388 3.43468C0.963388 2.99575 1.05968 2.61505 1.25227 2.29257C1.44487 1.96561 1.69792 1.69688 2.01144 1.48637C2.32496 1.27587 2.68103 1.11911 3.07965 1.01609C3.48275 0.913079 3.89256 0.861572 4.3091 0.861572C5.25861 0.861572 5.9506 0.975783 6.38505 1.2042V2.47396C5.81623 2.07982 5.08618 1.88275 4.19488 1.88275C3.94855 1.88275 3.70221 1.90963 3.45587 1.96337C3.20954 2.01264 2.99007 2.0955 2.79748 2.21195C2.60489 2.3284 2.44813 2.47844 2.3272 2.66207C2.20627 2.84571 2.14581 3.06965 2.14581 3.3339C2.14581 3.58024 2.19059 3.79298 2.28017 3.97214C2.37423 4.15129 2.51083 4.31477 2.68999 4.46257C2.86914 4.61038 3.08637 4.7537 3.34166 4.89254C3.60144 5.03139 3.89928 5.18367 4.23519 5.34939C4.58007 5.51958 4.90702 5.69874 5.21606 5.88685C5.5251 6.07496 5.79608 6.28323 6.02898 6.51165C6.26188 6.74007 6.44551 6.99313 6.57988 7.27082C6.71872 7.54851 6.78814 7.86651 6.78814 8.22481C6.78814 8.69957 6.69409 9.10267 6.50598 9.43411C6.32234 9.76106 6.07153 10.0276 5.75353 10.2336C5.44001 10.4396 5.07722 10.5874 4.66516 10.677C4.25311 10.771 3.81866 10.8181 3.36182 10.8181C3.20954 10.8181 3.02142 10.8046 2.79748 10.7778C2.57354 10.7554 2.34512 10.7195 2.11221 10.6703C1.87931 10.6255 1.65761 10.5695 1.4471 10.5023C1.24108 10.4307 1.07536 10.3523 0.949951 10.2672Z" fill="#797979"/>
</svg>
