<svg width="142" height="15" viewBox="0 0 142 15" fill="none" xmlns="http://www.w3.org/2000/svg">
<path d="M141.563 10.8044C141.259 10.9567 140.858 11.0328 140.361 11.0328C139.026 11.0328 138.359 10.3923 138.359 9.11139V5.2215H137.21V3.99878H138.359V2.40654L139.917 1.96313V3.99878H141.563V5.2215H139.917V8.66127C139.917 9.06884 139.991 9.35997 140.139 9.53464C140.287 9.70932 140.533 9.79666 140.878 9.79666C141.142 9.79666 141.371 9.72052 141.563 9.56824V10.8044Z" fill="#202244"/>
<path d="M131.567 10.6634V9.21899C132.149 9.6624 132.792 9.8841 133.495 9.8841C134.435 9.8841 134.906 9.60642 134.906 9.05104C134.906 8.89428 134.865 8.76215 134.785 8.65466C134.704 8.54269 134.594 8.44415 134.456 8.35905C134.321 8.27396 134.16 8.19781 133.972 8.13063C133.788 8.06345 133.582 7.98731 133.354 7.90221C133.072 7.79024 132.816 7.67155 132.588 7.54614C132.364 7.42073 132.176 7.27965 132.024 7.12289C131.876 6.96165 131.764 6.78026 131.688 6.57871C131.612 6.37716 131.573 6.14202 131.573 5.87329C131.573 5.54185 131.652 5.25073 131.809 4.99991C131.965 4.74462 132.176 4.53187 132.44 4.36167C132.704 4.187 133.004 4.05711 133.34 3.97201C133.676 3.88244 134.023 3.83765 134.382 3.83765C135.018 3.83765 135.586 3.93394 136.088 4.12653V5.49035C135.604 5.15891 135.049 4.99319 134.422 4.99319C134.225 4.99319 134.046 5.01335 133.885 5.05366C133.728 5.09397 133.593 5.14995 133.481 5.22161C133.369 5.29328 133.282 5.38061 133.219 5.48363C133.157 5.58216 133.125 5.69189 133.125 5.81282C133.125 5.96063 133.157 6.08603 133.219 6.18905C133.282 6.29206 133.374 6.38388 133.495 6.4645C133.62 6.54064 133.768 6.6123 133.938 6.67948C134.113 6.74219 134.312 6.81161 134.536 6.88775C134.832 7.00868 135.096 7.13185 135.329 7.25725C135.566 7.38266 135.768 7.52599 135.934 7.68722C136.099 7.84398 136.227 8.02762 136.317 8.23812C136.406 8.44415 136.451 8.69049 136.451 8.97714C136.451 9.32649 136.37 9.63105 136.209 9.89082C136.048 10.1506 135.833 10.3656 135.564 10.5358C135.295 10.706 134.984 10.8314 134.63 10.912C134.281 10.9971 133.911 11.0396 133.522 11.0396C132.769 11.0396 132.118 10.9142 131.567 10.6634Z" fill="#202244"/>
<path d="M129.182 2.55439C128.926 2.55439 128.707 2.47153 128.523 2.30581C128.344 2.1401 128.254 1.92959 128.254 1.67429C128.254 1.419 128.344 1.20625 128.523 1.03606C128.707 0.86586 128.926 0.780762 129.182 0.780762C129.446 0.780762 129.67 0.86586 129.853 1.03606C130.037 1.20625 130.129 1.419 130.129 1.67429C130.129 1.91615 130.037 2.12442 129.853 2.29909C129.67 2.46929 129.446 2.55439 129.182 2.55439ZM129.954 10.8783H128.396V3.99882H129.954V10.8783Z" fill="#202244"/>
<path d="M126.36 10.8783H124.795V0.693359H126.36V10.8783Z" fill="#202244"/>
<path d="M122.887 10.8784H121.375V9.80348H121.348C120.873 10.6276 120.177 11.0396 119.259 11.0396C118.583 11.0396 118.052 10.856 117.667 10.4888C117.286 10.1215 117.096 9.63553 117.096 9.03088C117.096 7.73201 117.844 6.97509 119.339 6.7601L121.382 6.47122C121.382 5.49035 120.916 4.99991 119.984 4.99991C119.165 4.99991 118.426 5.28208 117.767 5.84641V4.4826C118.493 4.05263 119.331 3.83765 120.28 3.83765C122.018 3.83765 122.887 4.69311 122.887 6.40403V10.8784ZM121.382 7.49911L119.937 7.70066C119.49 7.75889 119.151 7.86862 118.923 8.02986C118.699 8.18662 118.587 8.46431 118.587 8.86293C118.587 9.15405 118.69 9.39367 118.896 9.58178C119.107 9.76541 119.387 9.85723 119.736 9.85723C120.211 9.85723 120.603 9.69151 120.912 9.36008C121.225 9.02416 121.382 8.60315 121.382 8.09704V7.49911Z" fill="#202244"/>
<path d="M114.791 2.55439C114.536 2.55439 114.316 2.47153 114.133 2.30581C113.954 2.1401 113.864 1.92959 113.864 1.67429C113.864 1.419 113.954 1.20625 114.133 1.03606C114.316 0.86586 114.536 0.780762 114.791 0.780762C115.055 0.780762 115.279 0.86586 115.463 1.03606C115.647 1.20625 115.738 1.419 115.738 1.67429C115.738 1.91615 115.647 2.12442 115.463 2.29909C115.279 2.46929 115.055 2.55439 114.791 2.55439ZM115.564 10.8783H114.005V3.99882H115.564V10.8783Z" fill="#202244"/>
<path d="M112.454 10.5627C111.903 10.8807 111.251 11.0396 110.499 11.0396C109.478 11.0396 108.653 10.7217 108.026 10.0857C107.399 9.44518 107.086 8.61659 107.086 7.59989C107.086 6.46674 107.422 5.55753 108.094 4.87226C108.77 4.18252 109.672 3.83765 110.801 3.83765C111.428 3.83765 111.981 3.94738 112.46 4.16684V5.61799C111.981 5.25968 111.471 5.08053 110.929 5.08053C110.27 5.08053 109.731 5.30447 109.31 5.75236C108.889 6.19577 108.678 6.77802 108.678 7.49911C108.678 8.21125 108.875 8.77335 109.269 9.1854C109.668 9.59746 110.201 9.80348 110.868 9.80348C111.428 9.80348 111.957 9.60418 112.454 9.20556V10.5627Z" fill="#202244"/>
<path d="M106.044 7.8619H101.355C101.373 8.4979 101.568 8.98833 101.939 9.33321C102.316 9.67808 102.831 9.85051 103.485 9.85051C104.219 9.85051 104.893 9.63105 105.507 9.19212V10.4484C104.88 10.8426 104.051 11.0396 103.021 11.0396C102.009 11.0396 101.214 10.7284 100.636 10.1058C100.063 9.47877 99.7762 8.59867 99.7762 7.46552C99.7762 6.39507 100.092 5.52394 100.723 4.85211C101.359 4.1758 102.148 3.83765 103.088 3.83765C104.029 3.83765 104.757 4.13997 105.272 4.74462C105.787 5.34926 106.044 6.18905 106.044 7.26397V7.8619ZM104.539 6.7601C104.535 6.20024 104.403 5.76579 104.143 5.45675C103.883 5.14323 103.525 4.98647 103.068 4.98647C102.62 4.98647 102.24 5.14995 101.926 5.47691C101.617 5.80387 101.427 6.2316 101.355 6.7601H104.539Z" fill="#202244"/>
<path d="M93.5146 9.86395H93.4877V14.0427H91.929V3.99889H93.4877V5.20818H93.5146C94.0475 4.29449 94.8269 3.83765 95.8525 3.83765C96.7259 3.83765 97.4067 4.14445 97.8949 4.75805C98.3831 5.37166 98.6272 6.19577 98.6272 7.23038C98.6272 8.37697 98.3517 9.29513 97.8008 9.98488C97.2499 10.6746 96.4975 11.0195 95.5435 11.0195C94.6656 11.0195 93.9893 10.6343 93.5146 9.86395ZM93.4743 7.14976V8.00298C93.4743 8.50462 93.6333 8.93011 93.9513 9.27946C94.2737 9.62881 94.6813 9.80348 95.174 9.80348C95.7518 9.80348 96.2041 9.57954 96.5311 9.13166C96.8625 8.67929 97.0282 8.05001 97.0282 7.24382C97.0282 6.56751 96.8737 6.03901 96.5647 5.6583C96.2601 5.27312 95.8458 5.08053 95.3218 5.08053C94.7664 5.08053 94.3185 5.2776 93.9781 5.67174C93.6422 6.06588 93.4743 6.55855 93.4743 7.14976Z" fill="#202244"/>
<path d="M84.1627 10.4953V8.84935C84.3105 8.98371 84.4851 9.10464 84.6867 9.21213C84.8927 9.31963 85.1099 9.41144 85.3384 9.48758C85.5668 9.55925 85.7952 9.61523 86.0236 9.65554C86.2521 9.69585 86.4626 9.71601 86.6551 9.71601C87.327 9.71601 87.8264 9.60403 88.1533 9.38009C88.4848 9.15615 88.6505 8.83143 88.6505 8.40594C88.6505 8.17752 88.5945 7.98045 88.4825 7.81473C88.375 7.64453 88.2227 7.49001 88.0257 7.35117C87.8286 7.21232 87.5957 7.0802 87.327 6.95479C87.0627 6.8249 86.7783 6.69054 86.4738 6.55169C86.1468 6.37702 85.8422 6.2001 85.5601 6.02095C85.2779 5.84179 85.0316 5.64472 84.8211 5.42974C84.615 5.21028 84.4515 4.96394 84.3306 4.69073C84.2142 4.41752 84.1559 4.09728 84.1559 3.73001C84.1559 3.27765 84.2567 2.88575 84.4583 2.55431C84.6643 2.2184 84.933 1.94295 85.2645 1.72796C85.6004 1.5085 85.9811 1.34726 86.4066 1.24425C86.8321 1.13675 87.2665 1.08301 87.7099 1.08301C88.7177 1.08301 89.4522 1.19722 89.9135 1.42564V3.00444C89.3671 2.6103 88.6639 2.41323 87.804 2.41323C87.5666 2.41323 87.3292 2.43562 87.0918 2.48041C86.8589 2.5252 86.6484 2.5991 86.4603 2.70211C86.2767 2.80513 86.1266 2.93725 86.0102 3.09849C85.8937 3.25973 85.8355 3.45456 85.8355 3.68298C85.8355 3.89797 85.8803 4.08384 85.9699 4.2406C86.0595 4.39736 86.1893 4.54069 86.3595 4.67057C86.5342 4.80046 86.7447 4.92811 86.9911 5.05352C87.2419 5.17444 87.5308 5.30657 87.8577 5.44989C88.1936 5.62457 88.5094 5.8082 88.805 6.00079C89.1051 6.19338 89.3671 6.40613 89.591 6.63903C89.8195 6.87193 89.9986 7.13171 90.1285 7.41835C90.2629 7.70052 90.3301 8.023 90.3301 8.38579C90.3301 8.87398 90.2315 9.28604 90.0344 9.62195C89.8374 9.95786 89.5709 10.2311 89.235 10.4416C88.9035 10.6521 88.5206 10.8044 88.0861 10.8984C87.6517 10.9925 87.1926 11.0395 86.7089 11.0395C86.5477 11.0395 86.3483 11.0261 86.111 10.9992C85.8781 10.9768 85.6384 10.941 85.3921 10.8917C85.1458 10.8469 84.9129 10.7909 84.6934 10.7237C84.4739 10.6566 84.297 10.5804 84.1627 10.4953Z" fill="#202244"/>
<path d="M78.7337 10.8784H77.2221V9.80348H77.1952C76.7204 10.6276 76.024 11.0396 75.1058 11.0396C74.4295 11.0396 73.8987 10.856 73.5136 10.4888C73.1329 10.1215 72.9425 9.63553 72.9425 9.03088C72.9425 7.73201 73.6905 6.97509 75.1864 6.7601L77.2288 6.47122C77.2288 5.49035 76.763 4.99991 75.8314 4.99991C75.0117 4.99991 74.2727 5.28208 73.6143 5.84641V4.4826C74.3399 4.05263 75.1775 3.83765 76.127 3.83765C77.8648 3.83765 78.7337 4.69311 78.7337 6.40403V10.8784ZM77.2288 7.49911L75.7843 7.70066C75.3365 7.75889 74.9983 7.86862 74.7699 8.02986C74.5459 8.18662 74.434 8.46431 74.434 8.86293C74.434 9.15405 74.537 9.39367 74.743 9.58178C74.9535 9.76541 75.2334 9.85723 75.5828 9.85723C76.0576 9.85723 76.4495 9.69151 76.7585 9.36008C77.072 9.02416 77.2288 8.60315 77.2288 8.09704V7.49911Z" fill="#202244"/>
<path d="M70.639 2.55439C70.3837 2.55439 70.1642 2.47153 69.9806 2.30581C69.8014 2.1401 69.7119 1.92959 69.7119 1.67429C69.7119 1.419 69.8014 1.20625 69.9806 1.03606C70.1642 0.86586 70.3837 0.780762 70.639 0.780762C70.9032 0.780762 71.1272 0.86586 71.3108 1.03606C71.4944 1.20625 71.5863 1.419 71.5863 1.67429C71.5863 1.91615 71.4944 2.12442 71.3108 2.29909C71.1272 2.46929 70.9032 2.55439 70.639 2.55439ZM71.4116 10.8783H69.8529V3.99882H71.4116V10.8783Z" fill="#202244"/>
<path d="M67.8171 10.8783H66.2585V9.7093H66.2316C65.73 10.5961 64.9574 11.0395 63.9138 11.0395C63.0673 11.0395 62.3887 10.7327 61.8782 10.1191C61.372 9.50103 61.119 8.66125 61.119 7.59976C61.119 6.46213 61.3989 5.55068 61.9588 4.86542C62.5231 4.18015 63.2733 3.83752 64.2094 3.83752C65.1365 3.83752 65.8106 4.20926 66.2316 4.95275H66.2585V0.693359H67.8171V10.8783ZM66.2786 7.73412V6.83387C66.2786 6.34568 66.1196 5.93138 65.8016 5.59099C65.4836 5.2506 65.0783 5.0804 64.5856 5.0804C64.0034 5.0804 63.5443 5.29763 63.2084 5.73207C62.8769 6.16652 62.7112 6.76893 62.7112 7.53929C62.7112 8.23799 62.8702 8.79113 63.1882 9.19871C63.5107 9.60181 63.9429 9.80336 64.4848 9.80336C65.0178 9.80336 65.45 9.60853 65.7815 9.21886C66.1129 8.82473 66.2786 8.32981 66.2786 7.73412Z" fill="#202244"/>
<path d="M60.0775 7.8619H55.3882C55.4061 8.4979 55.6009 8.98833 55.9726 9.33321C56.3489 9.67808 56.8639 9.85051 57.5179 9.85051C58.2524 9.85051 58.9265 9.63105 59.5401 9.19212V10.4484C58.913 10.8426 58.0844 11.0396 57.0543 11.0396C56.0421 11.0396 55.2471 10.7284 54.6693 10.1058C54.096 9.47877 53.8094 8.59867 53.8094 7.46552C53.8094 6.39507 54.1251 5.52394 54.7566 4.85211C55.3926 4.1758 56.1809 3.83765 57.1215 3.83765C58.062 3.83765 58.7898 4.13997 59.3049 4.74462C59.82 5.34926 60.0775 6.18905 60.0775 7.26397V7.8619ZM58.5726 6.7601C58.5681 6.20024 58.436 5.76579 58.1762 5.45675C57.9165 5.14323 57.5582 4.98647 57.1013 4.98647C56.6534 4.98647 56.2727 5.14995 55.9592 5.47691C55.6502 5.80387 55.4598 6.2316 55.3882 6.7601H58.5726Z" fill="#202244"/>
<path d="M52.0492 10.8782H50.4637V4.64359C50.4637 4.133 50.495 3.5082 50.5577 2.76919H50.5309C50.4323 3.1902 50.345 3.49253 50.2688 3.67616L47.3934 10.8782H46.2916L43.4095 3.72991C43.3289 3.5194 43.2438 3.19916 43.1542 2.76919H43.1273C43.1631 3.15437 43.1811 3.78365 43.1811 4.65703V10.8782H41.703V1.24414H43.9537L46.4865 7.6601C46.679 8.15278 46.8045 8.52004 46.8627 8.7619H46.8963C47.062 8.25579 47.1964 7.87957 47.2994 7.63323L49.8792 1.24414H52.0492V10.8782Z" fill="#202244"/>
<path d="M35.7035 10.8783H34.1382V0.693359H35.7035V10.8783Z" fill="#202244"/>
<path d="M32.2303 10.8784H30.7187V9.80348H30.6918C30.2171 10.6276 29.5206 11.0396 28.6024 11.0396C27.9261 11.0396 27.3954 10.856 27.0102 10.4888C26.6295 10.1215 26.4391 9.63553 26.4391 9.03088C26.4391 7.73201 27.1871 6.97509 28.6831 6.7601L30.7254 6.47122C30.7254 5.49035 30.2596 4.99991 29.328 4.99991C28.5084 4.99991 27.7694 5.28208 27.111 5.84641V4.4826C27.8366 4.05263 28.6741 3.83765 29.6236 3.83765C31.3614 3.83765 32.2303 4.69311 32.2303 6.40403V10.8784ZM30.7254 7.49911L29.281 7.70066C28.8331 7.75889 28.4949 7.86862 28.2665 8.02986C28.0426 8.18662 27.9306 8.46431 27.9306 8.86293C27.9306 9.15405 28.0336 9.39367 28.2396 9.58178C28.4502 9.76541 28.7301 9.85723 29.0794 9.85723C29.5542 9.85723 29.9461 9.69151 30.2551 9.36008C30.5687 9.02416 30.7254 8.60315 30.7254 8.09704V7.49911Z" fill="#202244"/>
<path d="M24.1346 2.55439C23.8793 2.55439 23.6599 2.47153 23.4762 2.30581C23.2971 2.1401 23.2075 1.92959 23.2075 1.67429C23.2075 1.419 23.2971 1.20625 23.4762 1.03606C23.6599 0.86586 23.8793 0.780762 24.1346 0.780762C24.3989 0.780762 24.6228 0.86586 24.8064 1.03606C24.9901 1.20625 25.0819 1.419 25.0819 1.67429C25.0819 1.91615 24.9901 2.12442 24.8064 2.29909C24.6228 2.46929 24.3989 2.55439 24.1346 2.55439ZM24.9072 10.8783H23.3486V3.99882H24.9072V10.8783Z" fill="#202244"/>
<path d="M21.7963 10.5627C21.2454 10.8807 20.5937 11.0396 19.8413 11.0396C18.8201 11.0396 17.996 10.7217 17.3689 10.0857C16.7419 9.44518 16.4284 8.61659 16.4284 7.59989C16.4284 6.46674 16.7643 5.55753 17.4361 4.87226C18.1124 4.18252 19.0149 3.83765 20.1436 3.83765C20.7706 3.83765 21.3238 3.94738 21.803 4.16684V5.61799C21.3238 5.25968 20.8132 5.08053 20.2712 5.08053C19.6128 5.08053 19.0731 5.30447 18.6521 5.75236C18.2311 6.19577 18.0206 6.77802 18.0206 7.49911C18.0206 8.21125 18.2177 8.77335 18.6118 9.1854C19.0104 9.59746 19.5434 9.80348 20.2108 9.80348C20.7706 9.80348 21.2991 9.60418 21.7963 9.20556V10.5627Z" fill="#202244"/>
<path d="M11.6989 11.0396C10.6374 11.0396 9.78863 10.7194 9.15263 10.0789C8.52111 9.43398 8.20535 8.58076 8.20535 7.51927C8.20535 6.36372 8.53455 5.46123 9.19294 4.8118C9.85581 4.16236 10.7471 3.83765 11.8668 3.83765C12.9417 3.83765 13.7793 4.15341 14.3795 4.78492C14.9796 5.41644 15.2797 6.29206 15.2797 7.41178C15.2797 8.5091 14.955 9.38919 14.3056 10.0521C13.6606 10.7105 12.7917 11.0396 11.6989 11.0396ZM11.7728 5.08053C11.1636 5.08053 10.6822 5.29328 10.3283 5.71877C9.9745 6.14426 9.79759 6.73099 9.79759 7.47896C9.79759 8.20005 9.97674 8.76887 10.335 9.1854C10.6934 9.59746 11.1726 9.80348 11.7728 9.80348C12.3864 9.80348 12.8566 9.5997 13.1836 9.19212C13.515 8.78454 13.6808 8.20453 13.6808 7.45208C13.6808 6.69516 13.515 6.11067 13.1836 5.69861C12.8566 5.28656 12.3864 5.08053 11.7728 5.08053Z" fill="#202244"/>
<path d="M0.882939 10.4953V8.84935C1.03074 8.98371 1.20542 9.10464 1.40697 9.21213C1.61299 9.31963 1.83022 9.41144 2.05864 9.48758C2.28706 9.55925 2.51548 9.61523 2.7439 9.65554C2.97233 9.69585 3.18283 9.71601 3.37542 9.71601C4.04725 9.71601 4.54664 9.60403 4.8736 9.38009C5.20504 9.15615 5.37075 8.83143 5.37075 8.40594C5.37075 8.17752 5.31477 7.98045 5.2028 7.81473C5.0953 7.64453 4.94302 7.49001 4.74595 7.35117C4.54888 7.21232 4.31598 7.0802 4.04725 6.95479C3.783 6.8249 3.49859 6.69054 3.19403 6.55169C2.86707 6.37702 2.56251 6.2001 2.28034 6.02095C1.99817 5.84179 1.75184 5.64472 1.54133 5.42974C1.3353 5.21028 1.17183 4.96394 1.0509 4.69073C0.934446 4.41752 0.876221 4.09728 0.876221 3.73001C0.876221 3.27765 0.976995 2.88575 1.17854 2.55431C1.38457 2.2184 1.6533 1.94295 1.98474 1.72796C2.32065 1.5085 2.70136 1.34726 3.12685 1.24425C3.55234 1.13675 3.98679 1.08301 4.43019 1.08301C5.43794 1.08301 6.17247 1.19722 6.63379 1.42564V3.00444C6.08737 2.6103 5.38419 2.41323 4.52425 2.41323C4.28687 2.41323 4.04949 2.43562 3.81211 2.48041C3.57921 2.5252 3.36871 2.5991 3.18059 2.70211C2.99696 2.80513 2.84692 2.93725 2.73047 3.09849C2.61402 3.25973 2.55579 3.45456 2.55579 3.68298C2.55579 3.89797 2.60058 4.08384 2.69016 4.2406C2.77974 4.39736 2.90962 4.54069 3.07982 4.67057C3.25449 4.80046 3.465 4.92811 3.71134 5.05352C3.96215 5.17444 4.25104 5.30657 4.578 5.44989C4.91391 5.62457 5.22967 5.8082 5.52528 6.00079C5.82536 6.19338 6.08737 6.40613 6.31132 6.63903C6.53974 6.87193 6.71889 7.13171 6.84878 7.41835C6.98314 7.70052 7.05033 8.023 7.05033 8.38579C7.05033 8.87398 6.95179 9.28604 6.75472 9.62195C6.55765 9.95786 6.29116 10.2311 5.95525 10.4416C5.62381 10.6521 5.24087 10.8044 4.80642 10.8984C4.37197 10.9925 3.91289 11.0395 3.42917 11.0395C3.26793 11.0395 3.06862 11.0261 2.83124 10.9992C2.59834 10.9768 2.35872 10.941 2.11239 10.8917C1.86605 10.8469 1.63315 10.7909 1.41368 10.7237C1.19422 10.6566 1.0173 10.5804 0.882939 10.4953Z" fill="#202244"/>
</svg>
