<svg width="245" height="14" viewBox="0 0 245 14" fill="none" xmlns="http://www.w3.org/2000/svg">
<path d="M240.723 10.0774V8.96888C241.286 9.38457 241.905 9.59242 242.581 9.59242C243.488 9.59242 243.941 9.29009 243.941 8.68545C243.941 8.51329 243.902 8.36843 243.822 8.25086C243.746 8.12909 243.641 8.02202 243.507 7.92964C243.377 7.83726 243.221 7.75538 243.041 7.684C242.864 7.60842 242.673 7.53074 242.468 7.45096C242.182 7.33759 241.93 7.22422 241.712 7.11085C241.498 6.99328 241.317 6.86311 241.17 6.72035C241.027 6.57339 240.918 6.40753 240.843 6.22278C240.771 6.03802 240.736 5.82178 240.736 5.57404C240.736 5.27172 240.805 5.00509 240.943 4.77415C241.082 4.53901 241.267 4.34376 241.498 4.18839C241.729 4.02884 241.991 3.90917 242.285 3.82939C242.583 3.74961 242.89 3.70972 243.204 3.70972C243.763 3.70972 244.263 3.80629 244.704 3.99944V5.04498C244.229 4.73426 243.683 4.5789 243.066 4.5789C242.873 4.5789 242.699 4.60199 242.543 4.64818C242.388 4.69017 242.253 4.75105 242.14 4.83083C242.031 4.91061 241.945 5.00719 241.882 5.12056C241.823 5.22973 241.794 5.3515 241.794 5.48586C241.794 5.65382 241.823 5.79449 241.882 5.90786C241.945 6.02123 242.035 6.122 242.153 6.21018C242.27 6.29836 242.413 6.37814 242.581 6.44952C242.749 6.5209 242.94 6.59858 243.154 6.68256C243.44 6.79173 243.696 6.9051 243.923 7.02267C244.149 7.13604 244.342 7.26621 244.502 7.41317C244.662 7.55594 244.783 7.72179 244.867 7.91075C244.955 8.0997 245 8.32434 245 8.58467C245 8.90379 244.928 9.18092 244.785 9.41606C244.647 9.6512 244.46 9.84645 244.225 10.0018C243.99 10.1572 243.719 10.2726 243.412 10.3482C243.106 10.4238 242.785 10.4616 242.449 10.4616C241.785 10.4616 241.21 10.3335 240.723 10.0774Z" fill="#797979"/>
<path d="M239.545 7.34389H234.991C235.008 8.06191 235.201 8.61617 235.57 9.00667C235.94 9.39717 236.448 9.59242 237.095 9.59242C237.821 9.59242 238.489 9.35308 239.098 8.8744V9.84435C238.531 10.2558 237.781 10.4616 236.849 10.4616C235.938 10.4616 235.222 10.1698 234.701 9.58612C234.181 8.99827 233.92 8.17318 233.92 7.11085C233.92 6.10731 234.204 5.29061 234.771 4.66077C235.342 4.02674 236.049 3.70972 236.893 3.70972C237.737 3.70972 238.39 3.98265 238.852 4.52851C239.314 5.07437 239.545 5.83228 239.545 6.80223V7.34389ZM238.487 6.46841C238.482 5.87217 238.338 5.40818 238.052 5.07647C237.771 4.74475 237.378 4.5789 236.874 4.5789C236.387 4.5789 235.974 4.75315 235.633 5.10166C235.293 5.45017 235.083 5.90576 235.004 6.46841H238.487Z" fill="#797979"/>
<path d="M232.982 10.2474C232.739 10.3817 232.417 10.4489 232.018 10.4489C230.889 10.4489 230.324 9.81909 230.324 8.55941V4.74258H229.216V3.86081H230.324V2.28621L231.357 1.95239V3.86081H232.982V4.74258H231.357V8.37675C231.357 8.80924 231.431 9.11787 231.578 9.30262C231.725 9.48737 231.968 9.57975 232.308 9.57975C232.569 9.57975 232.793 9.50837 232.982 9.3656V10.2474Z" fill="#797979"/>
<path d="M228.044 10.3104H227.012V9.30269H226.986C226.537 10.0753 225.876 10.4616 225.002 10.4616C224.36 10.4616 223.856 10.2915 223.491 9.95143C223.13 9.61131 222.949 9.15993 222.949 8.59727C222.949 7.39218 223.659 6.69096 225.078 6.49361L227.012 6.22278C227.012 5.12686 226.569 4.5789 225.683 4.5789C224.906 4.5789 224.205 4.84343 223.579 5.37249V4.31436C224.213 3.91127 224.944 3.70972 225.771 3.70972C227.287 3.70972 228.044 4.51171 228.044 6.1157V10.3104ZM227.012 7.04787L225.456 7.26201C224.977 7.32919 224.616 7.44886 224.373 7.62102C224.129 7.78898 224.007 8.0892 224.007 8.52169C224.007 8.83661 224.118 9.09484 224.341 9.29639C224.568 9.49374 224.868 9.59242 225.242 9.59242C225.754 9.59242 226.176 9.41396 226.508 9.05705C226.844 8.69595 227.012 8.24036 227.012 7.6903V7.04787Z" fill="#797979"/>
<path d="M222.048 10.2474C221.804 10.3817 221.483 10.4489 221.084 10.4489C219.955 10.4489 219.39 9.81909 219.39 8.55941V4.74258H218.282V3.86081H219.39V2.28621L220.423 1.95239V3.86081H222.048V4.74258H220.423V8.37675C220.423 8.80924 220.496 9.11787 220.643 9.30262C220.79 9.48737 221.034 9.57975 221.374 9.57975C221.634 9.57975 221.859 9.50837 222.048 9.3656V10.2474Z" fill="#797979"/>
<path d="M212.336 9.94519V8.69811C212.479 8.82408 212.649 8.93745 212.846 9.03822C213.047 9.139 213.257 9.22508 213.476 9.29646C213.698 9.36364 213.921 9.41613 214.143 9.45392C214.366 9.49171 214.572 9.5106 214.761 9.5106C215.411 9.5106 215.896 9.39093 216.216 9.15159C216.539 8.90806 216.701 8.55955 216.701 8.10606C216.701 7.86252 216.646 7.65048 216.537 7.46992C216.432 7.28937 216.285 7.12561 216.096 6.97865C215.907 6.82749 215.682 6.68472 215.422 6.55036C215.166 6.41179 214.889 6.26693 214.591 6.11577C214.276 5.95621 213.982 5.79455 213.709 5.63079C213.436 5.46703 213.199 5.28648 212.997 5.08913C212.796 4.89178 212.636 4.66924 212.518 4.4215C212.405 4.16957 212.348 3.87564 212.348 3.53973C212.348 3.12823 212.439 2.77132 212.619 2.469C212.8 2.16248 213.037 1.91054 213.331 1.71319C213.625 1.51584 213.959 1.36888 214.332 1.2723C214.71 1.17573 215.094 1.12744 215.485 1.12744C216.375 1.12744 217.024 1.23451 217.431 1.44866V2.63906C216.898 2.26955 216.213 2.0848 215.378 2.0848C215.147 2.0848 214.916 2.10999 214.685 2.16038C214.454 2.20657 214.248 2.28425 214.068 2.39342C213.887 2.50259 213.74 2.64325 213.627 2.81541C213.514 2.98757 213.457 3.19751 213.457 3.44525C213.457 3.67619 213.499 3.87564 213.583 4.0436C213.671 4.21155 213.799 4.36482 213.967 4.50338C214.135 4.64194 214.339 4.77631 214.578 4.90648C214.822 5.03664 215.101 5.17941 215.416 5.33477C215.739 5.49433 216.045 5.66228 216.335 5.83864C216.625 6.01499 216.879 6.21025 217.097 6.42439C217.316 6.63854 217.488 6.87578 217.614 7.13611C217.744 7.39644 217.809 7.69457 217.809 8.03048C217.809 8.47557 217.721 8.85347 217.545 9.16419C217.372 9.47071 217.137 9.72055 216.839 9.9137C216.545 10.1069 216.205 10.2454 215.819 10.3294C215.432 10.4176 215.025 10.4617 214.597 10.4617C214.454 10.4617 214.278 10.4491 214.068 10.4239C213.858 10.4029 213.644 10.3693 213.425 10.3231C213.207 10.2811 212.999 10.2286 212.802 10.1656C212.609 10.0985 212.453 10.025 212.336 9.94519Z" fill="#797979"/>
<path d="M206.989 10.3103H205.956V9.21441H205.931C205.452 10.0458 204.713 10.4615 203.714 10.4615C202.903 10.4615 202.255 10.1739 201.768 9.59861C201.285 9.01916 201.043 8.23186 201.043 7.23671C201.043 6.17018 201.312 5.3157 201.849 4.67327C202.387 4.03083 203.103 3.70961 203.997 3.70961C204.883 3.70961 205.528 4.05812 205.931 4.75514H205.956V0.761963H206.989V10.3103ZM205.956 7.39417V6.44311C205.956 5.92245 205.784 5.48156 205.439 5.12045C205.095 4.75934 204.658 4.57879 204.129 4.57879C203.5 4.57879 203.004 4.80973 202.643 5.27161C202.282 5.73349 202.101 6.37173 202.101 7.18632C202.101 7.92953 202.273 8.51738 202.618 8.94987C202.966 9.37817 203.432 9.59231 204.016 9.59231C204.591 9.59231 205.057 9.38446 205.414 8.96877C205.775 8.55308 205.956 8.02821 205.956 7.39417Z" fill="#797979"/>
<path d="M199.916 7.34389H195.362C195.379 8.06191 195.572 8.61617 195.941 9.00667C196.311 9.39717 196.819 9.59242 197.466 9.59242C198.192 9.59242 198.86 9.35308 199.468 8.8744V9.84435C198.902 10.2558 198.152 10.4616 197.22 10.4616C196.309 10.4616 195.593 10.1698 195.072 9.58612C194.551 8.99827 194.291 8.17318 194.291 7.11085C194.291 6.10731 194.575 5.29061 195.141 4.66077C195.712 4.02674 196.42 3.70972 197.264 3.70972C198.108 3.70972 198.761 3.98265 199.223 4.52851C199.685 5.07437 199.916 5.83228 199.916 6.80223V7.34389ZM198.857 6.46841C198.853 5.87217 198.708 5.40818 198.423 5.07647C198.142 4.74475 197.749 4.5789 197.245 4.5789C196.758 4.5789 196.344 4.75315 196.004 5.10166C195.664 5.45017 195.454 5.90576 195.374 6.46841H198.857Z" fill="#797979"/>
<path d="M193.352 10.2474C193.109 10.3817 192.788 10.4489 192.389 10.4489C191.259 10.4489 190.695 9.81909 190.695 8.55941V4.74258H189.586V3.86081H190.695V2.28621L191.727 1.95239V3.86081H193.352V4.74258H191.727V8.37675C191.727 8.80924 191.801 9.11787 191.948 9.30262C192.095 9.48737 192.338 9.57975 192.679 9.57975C192.939 9.57975 193.164 9.50837 193.352 9.3656V10.2474Z" fill="#797979"/>
<path d="M187.766 2.22315C187.581 2.22315 187.424 2.16017 187.293 2.0342C187.163 1.90823 187.098 1.74867 187.098 1.55552C187.098 1.36237 187.163 1.20281 187.293 1.07684C187.424 0.946675 187.581 0.881592 187.766 0.881592C187.955 0.881592 188.114 0.946675 188.244 1.07684C188.379 1.20281 188.446 1.36237 188.446 1.55552C188.446 1.74027 188.379 1.89773 188.244 2.0279C188.114 2.15807 187.955 2.22315 187.766 2.22315ZM188.27 10.3103H187.237V3.86073H188.27V10.3103Z" fill="#797979"/>
<path d="M185.284 10.3104H184.251V6.63217C184.251 5.26332 183.752 4.5789 182.752 4.5789C182.236 4.5789 181.808 4.77415 181.467 5.16465C181.132 5.55095 180.964 6.04012 180.964 6.63217V10.3104H179.931V3.86088H180.964V4.93161H180.989C181.476 4.11701 182.181 3.70972 183.105 3.70972C183.81 3.70972 184.35 3.93856 184.724 4.39624C185.097 4.84973 185.284 5.50686 185.284 6.36764V10.3104Z" fill="#797979"/>
<path d="M177.808 6.65739C177.808 9.19355 176.664 10.4616 174.376 10.4616C172.184 10.4616 171.088 9.24183 171.088 6.80226V1.27856H172.146V6.73297C172.146 8.5847 172.927 9.51056 174.489 9.51056C175.997 9.51056 176.75 8.61619 176.75 6.82745V1.27856H177.808V6.65739Z" fill="#797979"/>
<path d="M165.671 8.87427L164.663 11.9731H163.926L164.663 8.87427H165.671Z" fill="#797979"/>
<path d="M158.857 10.0774V8.96888C159.419 9.38457 160.039 9.59242 160.715 9.59242C161.622 9.59242 162.075 9.29009 162.075 8.68545C162.075 8.51329 162.035 8.36843 161.955 8.25086C161.88 8.12909 161.775 8.02202 161.64 7.92964C161.51 7.83726 161.355 7.75538 161.174 7.684C160.998 7.60842 160.807 7.53074 160.601 7.45096C160.316 7.33759 160.064 7.22422 159.845 7.11085C159.631 6.99328 159.451 6.86311 159.304 6.72035C159.161 6.57339 159.052 6.40753 158.976 6.22278C158.905 6.03802 158.869 5.82178 158.869 5.57404C158.869 5.27172 158.938 5.00509 159.077 4.77415C159.216 4.53901 159.4 4.34376 159.631 4.18839C159.862 4.02884 160.125 3.90917 160.419 3.82939C160.717 3.74961 161.023 3.70972 161.338 3.70972C161.897 3.70972 162.396 3.80629 162.837 3.99944V5.04498C162.363 4.73426 161.817 4.5789 161.2 4.5789C161.006 4.5789 160.832 4.60199 160.677 4.64818C160.521 4.69017 160.387 4.75105 160.274 4.83083C160.165 4.91061 160.078 5.00719 160.015 5.12056C159.957 5.22973 159.927 5.3515 159.927 5.48586C159.927 5.65382 159.957 5.79449 160.015 5.90786C160.078 6.02123 160.169 6.122 160.286 6.21018C160.404 6.29836 160.547 6.37814 160.715 6.44952C160.883 6.5209 161.074 6.59858 161.288 6.68256C161.573 6.79173 161.829 6.9051 162.056 7.02267C162.283 7.13604 162.476 7.26621 162.636 7.41317C162.795 7.55594 162.917 7.72179 163.001 7.91075C163.089 8.0997 163.133 8.32434 163.133 8.58467C163.133 8.90379 163.062 9.18092 162.919 9.41606C162.78 9.6512 162.594 9.84645 162.358 10.0018C162.123 10.1572 161.853 10.2726 161.546 10.3482C161.239 10.4238 160.918 10.4616 160.582 10.4616C159.919 10.4616 159.344 10.3335 158.857 10.0774Z" fill="#797979"/>
<path d="M157.868 10.2474C157.624 10.3817 157.303 10.4489 156.904 10.4489C155.774 10.4489 155.21 9.81909 155.21 8.55941V4.74258H154.101V3.86081H155.21V2.28621L156.243 1.95239V3.86081H157.868V4.74258H156.243V8.37675C156.243 8.80924 156.316 9.11787 156.463 9.30262C156.61 9.48737 156.854 9.57975 157.194 9.57975C157.454 9.57975 157.679 9.50837 157.868 9.3656V10.2474Z" fill="#797979"/>
<path d="M153.496 10.2474C153.253 10.3817 152.931 10.4489 152.532 10.4489C151.403 10.4489 150.838 9.81909 150.838 8.55941V4.74258H149.73V3.86081H150.838V2.28621L151.871 1.95239V3.86081H153.496V4.74258H151.871V8.37675C151.871 8.80924 151.945 9.11787 152.092 9.30262C152.239 9.48737 152.482 9.57975 152.822 9.57975C153.083 9.57975 153.307 9.50837 153.496 9.3656V10.2474Z" fill="#797979"/>
<path d="M148.936 7.34389H144.383C144.399 8.06191 144.593 8.61617 144.962 9.00667C145.332 9.39717 145.84 9.59242 146.486 9.59242C147.213 9.59242 147.88 9.35308 148.489 8.8744V9.84435C147.922 10.2558 147.173 10.4616 146.241 10.4616C145.329 10.4616 144.614 10.1698 144.093 9.58612C143.572 8.99827 143.312 8.17318 143.312 7.11085C143.312 6.10731 143.595 5.29061 144.162 4.66077C144.733 4.02674 145.441 3.70972 146.285 3.70972C147.129 3.70972 147.782 3.98265 148.244 4.52851C148.705 5.07437 148.936 5.83228 148.936 6.80223V7.34389ZM147.878 6.46841C147.874 5.87217 147.729 5.40818 147.444 5.07647C147.162 4.74475 146.77 4.5789 146.266 4.5789C145.779 4.5789 145.365 4.75315 145.025 5.10166C144.685 5.45017 144.475 5.90576 144.395 6.46841H147.878Z" fill="#797979"/>
<path d="M137.882 10.0774V8.96888C138.445 9.38457 139.064 9.59242 139.74 9.59242C140.647 9.59242 141.101 9.29009 141.101 8.68545C141.101 8.51329 141.061 8.36843 140.981 8.25086C140.905 8.12909 140.8 8.02202 140.666 7.92964C140.536 7.83726 140.38 7.75538 140.2 7.684C140.024 7.60842 139.832 7.53074 139.627 7.45096C139.341 7.33759 139.089 7.22422 138.871 7.11085C138.657 6.99328 138.476 6.86311 138.329 6.72035C138.187 6.57339 138.077 6.40753 138.002 6.22278C137.93 6.03802 137.895 5.82178 137.895 5.57404C137.895 5.27172 137.964 5.00509 138.103 4.77415C138.241 4.53901 138.426 4.34376 138.657 4.18839C138.888 4.02884 139.15 3.90917 139.444 3.82939C139.742 3.74961 140.049 3.70972 140.364 3.70972C140.922 3.70972 141.422 3.80629 141.863 3.99944V5.04498C141.388 4.73426 140.842 4.5789 140.225 4.5789C140.032 4.5789 139.858 4.60199 139.702 4.64818C139.547 4.69017 139.413 4.75105 139.299 4.83083C139.19 4.91061 139.104 5.00719 139.041 5.12056C138.982 5.22973 138.953 5.3515 138.953 5.48586C138.953 5.65382 138.982 5.79449 139.041 5.90786C139.104 6.02123 139.194 6.122 139.312 6.21018C139.429 6.29836 139.572 6.37814 139.74 6.44952C139.908 6.5209 140.099 6.59858 140.313 6.68256C140.599 6.79173 140.855 6.9051 141.082 7.02267C141.308 7.13604 141.502 7.26621 141.661 7.41317C141.821 7.55594 141.942 7.72179 142.026 7.91075C142.115 8.0997 142.159 8.32434 142.159 8.58467C142.159 8.90379 142.087 9.18092 141.945 9.41606C141.806 9.6512 141.619 9.84645 141.384 10.0018C141.149 10.1572 140.878 10.2726 140.571 10.3482C140.265 10.4238 139.944 10.4616 139.608 10.4616C138.944 10.4616 138.369 10.3335 137.882 10.0774Z" fill="#797979"/>
<path d="M136.182 10.3104H135.149V9.29006H135.124C134.696 10.0711 134.033 10.4616 133.134 10.4616C131.597 10.4616 130.829 9.54619 130.829 7.71546V3.86084H131.855V7.5517C131.855 8.91215 132.376 9.59238 133.417 9.59238C133.921 9.59238 134.335 9.40763 134.658 9.03812C134.986 8.66441 135.149 8.17734 135.149 7.57689V3.86084H136.182V10.3104Z" fill="#797979"/>
<path d="M129.014 10.3103H127.981V6.59427C127.981 5.25062 127.482 4.57879 126.482 4.57879C125.979 4.57879 125.554 4.77404 125.21 5.16454C124.866 5.55084 124.694 6.04841 124.694 6.65726V10.3103H123.661V0.761963H124.694V4.9315H124.719C125.214 4.11691 125.92 3.70961 126.835 3.70961C128.288 3.70961 129.014 4.58509 129.014 6.33604V10.3103Z" fill="#797979"/>
<path d="M122.099 10.0144C121.603 10.3125 121.015 10.4616 120.335 10.4616C119.416 10.4616 118.672 10.1635 118.105 9.56722C117.543 8.96678 117.261 8.18997 117.261 7.23682C117.261 6.17449 117.566 5.32211 118.175 4.67967C118.784 4.03303 119.596 3.70972 120.612 3.70972C121.179 3.70972 121.679 3.81469 122.111 4.02464V5.08277C121.633 4.74685 121.12 4.5789 120.574 4.5789C119.915 4.5789 119.374 4.81613 118.949 5.29061C118.53 5.76089 118.32 6.38024 118.32 7.14864C118.32 7.90445 118.517 8.5007 118.912 8.93738C119.311 9.37407 119.844 9.59242 120.511 9.59242C121.074 9.59242 121.603 9.40556 122.099 9.03186V10.0144Z" fill="#797979"/>
<path d="M115.756 10.3104H114.724V9.30269H114.698C114.249 10.0753 113.588 10.4616 112.714 10.4616C112.072 10.4616 111.568 10.2915 111.203 9.95143C110.842 9.61131 110.661 9.15993 110.661 8.59727C110.661 7.39218 111.371 6.69096 112.79 6.49361L114.724 6.22278C114.724 5.12686 114.281 4.5789 113.395 4.5789C112.618 4.5789 111.917 4.84343 111.291 5.37249V4.31436C111.925 3.91127 112.656 3.70972 113.483 3.70972C114.999 3.70972 115.756 4.51171 115.756 6.1157V10.3104ZM114.724 7.04787L113.168 7.26201C112.689 7.32919 112.328 7.44886 112.084 7.62102C111.841 7.78898 111.719 8.0892 111.719 8.52169C111.719 8.83661 111.83 9.09484 112.053 9.29639C112.28 9.49374 112.58 9.59242 112.954 9.59242C113.466 9.59242 113.888 9.41396 114.22 9.05705C114.556 8.69595 114.724 8.24036 114.724 7.6903V7.04787Z" fill="#797979"/>
<path d="M105.269 10.0774V8.96888C105.832 9.38457 106.451 9.59242 107.127 9.59242C108.034 9.59242 108.488 9.29009 108.488 8.68545C108.488 8.51329 108.448 8.36843 108.368 8.25086C108.293 8.12909 108.188 8.02202 108.053 7.92964C107.923 7.83726 107.768 7.75538 107.587 7.684C107.411 7.60842 107.22 7.53074 107.014 7.45096C106.728 7.33759 106.476 7.22422 106.258 7.11085C106.044 6.99328 105.863 6.86311 105.716 6.72035C105.574 6.57339 105.465 6.40753 105.389 6.22278C105.318 6.03802 105.282 5.82178 105.282 5.57404C105.282 5.27172 105.351 5.00509 105.49 4.77415C105.628 4.53901 105.813 4.34376 106.044 4.18839C106.275 4.02884 106.537 3.90917 106.831 3.82939C107.129 3.74961 107.436 3.70972 107.751 3.70972C108.309 3.70972 108.809 3.80629 109.25 3.99944V5.04498C108.775 4.73426 108.23 4.5789 107.612 4.5789C107.419 4.5789 107.245 4.60199 107.09 4.64818C106.934 4.69017 106.8 4.75105 106.686 4.83083C106.577 4.91061 106.491 5.00719 106.428 5.12056C106.369 5.22973 106.34 5.3515 106.34 5.48586C106.34 5.65382 106.369 5.79449 106.428 5.90786C106.491 6.02123 106.581 6.122 106.699 6.21018C106.817 6.29836 106.959 6.37814 107.127 6.44952C107.295 6.5209 107.486 6.59858 107.7 6.68256C107.986 6.79173 108.242 6.9051 108.469 7.02267C108.696 7.13604 108.889 7.26621 109.048 7.41317C109.208 7.55594 109.33 7.72179 109.414 7.91075C109.502 8.0997 109.546 8.32434 109.546 8.58467C109.546 8.90379 109.475 9.18092 109.332 9.41606C109.193 9.6512 109.006 9.84645 108.771 10.0018C108.536 10.1572 108.265 10.2726 107.959 10.3482C107.652 10.4238 107.331 10.4616 106.995 10.4616C106.332 10.4616 105.756 10.3335 105.269 10.0774Z" fill="#797979"/>
<path d="M99.7899 10.0774V8.96888C100.353 9.38457 100.972 9.59242 101.648 9.59242C102.555 9.59242 103.008 9.29009 103.008 8.68545C103.008 8.51329 102.969 8.36843 102.889 8.25086C102.813 8.12909 102.708 8.02202 102.574 7.92964C102.444 7.83726 102.288 7.75538 102.108 7.684C101.931 7.60842 101.74 7.53074 101.535 7.45096C101.249 7.33759 100.997 7.22422 100.779 7.11085C100.565 6.99328 100.384 6.86311 100.237 6.72035C100.094 6.57339 99.9852 6.40753 99.9096 6.22278C99.8382 6.03802 99.8025 5.82178 99.8025 5.57404C99.8025 5.27172 99.8718 5.00509 100.01 4.77415C100.149 4.53901 100.334 4.34376 100.565 4.18839C100.796 4.02884 101.058 3.90917 101.352 3.82939C101.65 3.74961 101.957 3.70972 102.271 3.70972C102.83 3.70972 103.33 3.80629 103.771 3.99944V5.04498C103.296 4.73426 102.75 4.5789 102.133 4.5789C101.94 4.5789 101.766 4.60199 101.61 4.64818C101.455 4.69017 101.32 4.75105 101.207 4.83083C101.098 4.91061 101.012 5.00719 100.949 5.12056C100.89 5.22973 100.861 5.3515 100.861 5.48586C100.861 5.65382 100.89 5.79449 100.949 5.90786C101.012 6.02123 101.102 6.122 101.22 6.21018C101.337 6.29836 101.48 6.37814 101.648 6.44952C101.816 6.5209 102.007 6.59858 102.221 6.68256C102.507 6.79173 102.763 6.9051 102.99 7.02267C103.216 7.13604 103.409 7.26621 103.569 7.41317C103.729 7.55594 103.85 7.72179 103.934 7.91075C104.022 8.0997 104.067 8.32434 104.067 8.58467C104.067 8.90379 103.995 9.18092 103.852 9.41606C103.714 9.6512 103.527 9.84645 103.292 10.0018C103.057 10.1572 102.786 10.2726 102.479 10.3482C102.173 10.4238 101.852 10.4616 101.516 10.4616C100.852 10.4616 100.277 10.3335 99.7899 10.0774Z" fill="#797979"/>
<path d="M98.2343 10.3104H97.2014V9.30269H97.1762C96.7269 10.0753 96.0656 10.4616 95.1922 10.4616C94.5498 10.4616 94.0459 10.2915 93.6806 9.95143C93.3195 9.61131 93.1389 9.15993 93.1389 8.59727C93.1389 7.39218 93.8486 6.69096 95.2678 6.49361L97.2014 6.22278C97.2014 5.12686 96.7584 4.5789 95.8724 4.5789C95.0956 4.5789 94.3944 4.84343 93.7688 5.37249V4.31436C94.4028 3.91127 95.1334 3.70972 95.9606 3.70972C97.4764 3.70972 98.2343 4.51171 98.2343 6.1157V10.3104ZM97.2014 7.04787L95.6457 7.26201C95.167 7.32919 94.8059 7.44886 94.5624 7.62102C94.3188 7.78898 94.1971 8.0892 94.1971 8.52169C94.1971 8.83661 94.3083 9.09484 94.5309 9.29639C94.7576 9.49374 95.0579 9.59242 95.4316 9.59242C95.9438 9.59242 96.3658 9.41396 96.6975 9.05705C97.0335 8.69595 97.2014 8.24036 97.2014 7.6903V7.04787Z" fill="#797979"/>
<path d="M91.3755 10.3105H90.3237V4.25141C90.3237 3.77273 90.353 3.18698 90.4118 2.49415H90.3866C90.2859 2.90145 90.1956 3.19328 90.1158 3.36963L87.0296 10.3105H86.5131L83.4332 3.42002C83.345 3.21847 83.2548 2.90985 83.1624 2.49415H83.1372C83.1708 2.85526 83.1876 3.44521 83.1876 4.264V10.3105H82.1672V1.27856H83.5655L86.3368 7.57696C86.5509 8.05983 86.6895 8.42094 86.7525 8.66028H86.7903C86.9708 8.16481 87.1157 7.7953 87.2248 7.55176L90.0528 1.27856H91.3755V10.3105Z" fill="#797979"/>
<path d="M76.6373 8.87427L75.6296 11.9731H74.8926L75.6296 8.87427H76.6373Z" fill="#797979"/>
<path d="M73.7399 10.3103H72.707V6.59427C72.707 5.25062 72.2073 4.57879 71.208 4.57879C70.7041 4.57879 70.28 4.77404 69.9357 5.16454C69.5914 5.55084 69.4192 6.04841 69.4192 6.65726V10.3103H68.3863V0.761963H69.4192V4.9315H69.4444C69.9399 4.11691 70.6453 3.70961 71.5607 3.70961C73.0135 3.70961 73.7399 4.58509 73.7399 6.33604V10.3103Z" fill="#797979"/>
<path d="M66.2949 9.79397C66.2949 12.1622 65.1612 13.3463 62.8938 13.3463C62.096 13.3463 61.3989 13.1951 60.8027 12.8928V11.8598C61.5291 12.2629 62.2219 12.4645 62.8812 12.4645C64.4684 12.4645 65.262 11.6205 65.262 9.93253V9.22711H65.2368C64.7455 10.0501 64.0065 10.4616 63.0197 10.4616C62.2177 10.4616 61.5711 10.1761 61.0798 9.60501C60.5928 9.02976 60.3492 8.25926 60.3492 7.2935C60.3492 6.19758 60.6116 5.3263 61.1365 4.67967C61.6656 4.03303 62.3878 3.70972 63.3032 3.70972C64.1723 3.70972 64.8169 4.05823 65.2368 4.75525H65.262V3.86088H66.2949V9.79397ZM65.262 7.39428V6.44322C65.262 5.93095 65.0877 5.49216 64.7392 5.12686C64.3949 4.76155 63.9645 4.5789 63.448 4.5789C62.8098 4.5789 62.3101 4.81194 61.949 5.27802C61.5879 5.7399 61.4073 6.38863 61.4073 7.22422C61.4073 7.94224 61.5795 8.51749 61.9238 8.94998C62.2723 9.37827 62.7321 9.59242 63.3032 9.59242C63.8826 9.59242 64.3529 9.38667 64.714 8.97517C65.0793 8.56368 65.262 8.03671 65.262 7.39428Z" fill="#797979"/>
<path d="M58.6992 10.3104H57.6663V9.29006H57.6411C57.2128 10.0711 56.5494 10.4616 55.6508 10.4616C54.114 10.4616 53.3456 9.54619 53.3456 7.71546V3.86084H54.3722V7.5517C54.3722 8.91215 54.8929 9.59238 55.9343 9.59238C56.4381 9.59238 56.8517 9.40763 57.175 9.03812C57.5026 8.66441 57.6663 8.17734 57.6663 7.57689V3.86084H58.6992V10.3104Z" fill="#797979"/>
<path d="M48.6216 10.4616C47.6684 10.4616 46.9063 10.1614 46.3352 9.56092C45.7684 8.95628 45.485 8.15638 45.485 7.16124C45.485 6.07791 45.781 5.23183 46.373 4.62298C46.9651 4.01414 47.765 3.70972 48.7727 3.70972C49.7343 3.70972 50.4838 4.00574 51.0212 4.59779C51.5629 5.18984 51.8337 6.01073 51.8337 7.06046C51.8337 8.0892 51.5419 8.91429 50.9583 9.53573C50.3788 10.153 49.5999 10.4616 48.6216 10.4616ZM48.6971 4.5789C48.0337 4.5789 47.5088 4.80564 47.1225 5.25912C46.7362 5.70841 46.5431 6.32985 46.5431 7.12345C46.5431 7.88765 46.7383 8.4902 47.1288 8.93109C47.5193 9.37197 48.0421 9.59242 48.6971 9.59242C49.3648 9.59242 49.877 9.37617 50.2339 8.94368C50.5951 8.51119 50.7756 7.89605 50.7756 7.09825C50.7756 6.29206 50.5951 5.67062 50.2339 5.23393C49.877 4.79724 49.3648 4.5789 48.6971 4.5789Z" fill="#797979"/>
<path d="M44.8048 4.90646C44.6243 4.7679 44.364 4.69862 44.0238 4.69862C43.583 4.69862 43.2134 4.90646 42.9153 5.32216C42.6214 5.73785 42.4744 6.30471 42.4744 7.02272V10.3105H41.4415V3.86093H42.4744V5.18989H42.4996C42.6466 4.73641 42.8712 4.3837 43.1736 4.13176C43.4759 3.87563 43.8139 3.74756 44.1876 3.74756C44.4563 3.74756 44.6621 3.77695 44.8048 3.83574V4.90646Z" fill="#797979"/>
<path d="M34.9163 9.37817H34.8911V10.3103H33.8581V0.761963H34.8911V4.99448H34.9163C35.4243 4.1379 36.1675 3.70961 37.1459 3.70961C37.9731 3.70961 38.6197 3.99934 39.0858 4.57879C39.5561 5.15404 39.7912 5.92665 39.7912 6.8966C39.7912 7.97572 39.5288 8.8407 39.0039 9.49154C38.479 10.1382 37.761 10.4615 36.8499 10.4615C35.9975 10.4615 35.3529 10.1004 34.9163 9.37817ZM34.8911 6.77693V7.6776C34.8911 8.21086 35.0632 8.66435 35.4075 9.03805C35.756 9.40756 36.1969 9.59231 36.7302 9.59231C37.3558 9.59231 37.845 9.35297 38.1977 8.87429C38.5546 8.39562 38.7331 7.73009 38.7331 6.8777C38.7331 6.15969 38.5672 5.59703 38.2355 5.18973C37.9038 4.78244 37.4545 4.57879 36.8877 4.57879C36.2872 4.57879 35.8043 4.78874 35.439 5.20863C35.0737 5.62432 34.8911 6.14709 34.8911 6.77693Z" fill="#797979"/>
<path d="M27.9879 10.0774V8.96888C28.5505 9.38457 29.1699 9.59242 29.8459 9.59242C30.7529 9.59242 31.2064 9.29009 31.2064 8.68545C31.2064 8.51329 31.1665 8.36843 31.0867 8.25086C31.0111 8.12909 30.9061 8.02202 30.7718 7.92964C30.6416 7.83726 30.4862 7.75538 30.3057 7.684C30.1293 7.60842 29.9383 7.53074 29.7325 7.45096C29.447 7.33759 29.1951 7.22422 28.9767 7.11085C28.7626 6.99328 28.582 6.86311 28.4351 6.72035C28.2923 6.57339 28.1831 6.40753 28.1076 6.22278C28.0362 6.03802 28.0005 5.82178 28.0005 5.57404C28.0005 5.27172 28.0698 5.00509 28.2083 4.77415C28.3469 4.53901 28.5316 4.34376 28.7626 4.18839C28.9935 4.02884 29.256 3.90917 29.5499 3.82939C29.848 3.74961 30.1545 3.70972 30.4695 3.70972C31.0279 3.70972 31.5276 3.80629 31.9685 3.99944V5.04498C31.494 4.73426 30.9481 4.5789 30.3309 4.5789C30.1377 4.5789 29.9635 4.60199 29.8081 4.64818C29.6528 4.69017 29.5184 4.75105 29.405 4.83083C29.2959 4.91061 29.2098 5.00719 29.1468 5.12056C29.088 5.22973 29.0586 5.3515 29.0586 5.48586C29.0586 5.65382 29.088 5.79449 29.1468 5.90786C29.2098 6.02123 29.3001 6.122 29.4176 6.21018C29.5352 6.29836 29.678 6.37814 29.8459 6.44952C30.0139 6.5209 30.2049 6.59858 30.4191 6.68256C30.7046 6.79173 30.9607 6.9051 31.1875 7.02267C31.4142 7.13604 31.6074 7.26621 31.7669 7.41317C31.9265 7.55594 32.0482 7.72179 32.1322 7.91075C32.2204 8.0997 32.2645 8.32434 32.2645 8.58467C32.2645 8.90379 32.1931 9.18092 32.0503 9.41606C31.9118 9.6512 31.7249 9.84645 31.4898 10.0018C31.2547 10.1572 30.9838 10.2726 30.6773 10.3482C30.3708 10.4238 30.0496 10.4616 29.7136 10.4616C29.0502 10.4616 28.475 10.3335 27.9879 10.0774Z" fill="#797979"/>
<path d="M26.2876 9.79397C26.2876 12.1622 25.1539 13.3463 22.8865 13.3463C22.0887 13.3463 21.3917 13.1951 20.7954 12.8928V11.8598C21.5218 12.2629 22.2146 12.4645 22.8739 12.4645C24.4611 12.4645 25.2547 11.6205 25.2547 9.93253V9.22711H25.2295C24.7382 10.0501 23.9992 10.4616 23.0124 10.4616C22.2104 10.4616 21.5638 10.1761 21.0725 9.60501C20.5855 9.02976 20.3419 8.25926 20.3419 7.2935C20.3419 6.19758 20.6044 5.3263 21.1292 4.67967C21.6583 4.03303 22.3805 3.70972 23.2959 3.70972C24.165 3.70972 24.8096 4.05823 25.2295 4.75525H25.2547V3.86088H26.2876V9.79397ZM25.2547 7.39428V6.44322C25.2547 5.93095 25.0804 5.49216 24.7319 5.12686C24.3876 4.76155 23.9572 4.5789 23.4407 4.5789C22.8025 4.5789 22.3028 4.81194 21.9417 5.27802C21.5806 5.7399 21.4 6.38863 21.4 7.22422C21.4 7.94224 21.5722 8.51749 21.9165 8.94998C22.265 9.37827 22.7248 9.59242 23.2959 9.59242C23.8753 9.59242 24.3456 9.38667 24.7067 8.97517C25.072 8.56368 25.2547 8.03671 25.2547 7.39428Z" fill="#797979"/>
<path d="M18.8304 10.3104H17.7974V6.63217C17.7974 5.26332 17.2977 4.5789 16.2984 4.5789C15.7819 4.5789 15.3536 4.77415 15.0135 5.16465C14.6776 5.55095 14.5097 6.04012 14.5097 6.63217V10.3104H13.4767V3.86088H14.5097V4.93161H14.5348C15.0219 4.11701 15.7273 3.70972 16.6511 3.70972C17.3565 3.70972 17.8961 3.93856 18.2698 4.39624C18.6435 4.84973 18.8304 5.50686 18.8304 6.36764V10.3104Z" fill="#797979"/>
<path d="M12.3618 3.86084L9.39521 11.3433C8.86615 12.6786 8.12294 13.3462 7.16558 13.3462C6.89685 13.3462 6.67221 13.3189 6.49165 13.2643V12.3385C6.7142 12.4141 6.91784 12.4518 7.1026 12.4518C7.62327 12.4518 8.01377 12.1411 8.2741 11.5197L8.79057 10.2978L6.27121 3.86084H7.41752L9.16217 8.82397C9.18317 8.88696 9.22726 9.05072 9.29444 9.31525H9.33223C9.35322 9.21447 9.39521 9.05491 9.4582 8.83657L11.291 3.86084H12.3618Z" fill="#797979"/>
<path d="M6.66186 2.23592H4.05433V10.3105H2.9962V2.23592H0.394958V1.27856H6.66186V2.23592Z" fill="#797979"/>
</svg>
