<svg width="62" height="15" viewBox="0 0 62 15" fill="none" xmlns="http://www.w3.org/2000/svg">
<path d="M61.8311 10.9695H60.6299V6.69214C60.6299 5.10034 60.0488 4.30444 58.8867 4.30444C58.2861 4.30444 57.7881 4.53149 57.3926 4.9856C57.002 5.43481 56.8066 6.00366 56.8066 6.69214V10.9695H55.6055V3.46948H56.8066V4.7146H56.8359C57.4023 3.76733 58.2227 3.2937 59.2969 3.2937C60.1172 3.2937 60.7446 3.55981 61.1792 4.09204C61.6138 4.61938 61.8311 5.38354 61.8311 6.38452V10.9695Z" fill="#5475A2"/>
<path d="M53.1738 10.3689C53.1738 13.1228 51.8555 14.4998 49.2188 14.4998C48.291 14.4998 47.4805 14.324 46.7871 13.9724V12.7712C47.6318 13.24 48.4375 13.4744 49.2041 13.4744C51.0498 13.4744 51.9727 12.4929 51.9727 10.53V9.70972H51.9434C51.3721 10.6667 50.5127 11.1453 49.3652 11.1453C48.4326 11.1453 47.6807 10.8132 47.1094 10.1492C46.543 9.48022 46.2598 8.58423 46.2598 7.46118C46.2598 6.18677 46.5649 5.17358 47.1753 4.42163C47.7905 3.66968 48.6304 3.2937 49.6948 3.2937C50.7056 3.2937 51.4551 3.69897 51.9434 4.50952H51.9727V3.46948H53.1738V10.3689ZM51.9727 7.57837V6.47241C51.9727 5.87671 51.77 5.36646 51.3647 4.94165C50.9644 4.51685 50.4639 4.30444 49.8633 4.30444C49.1211 4.30444 48.54 4.57544 48.1201 5.11743C47.7002 5.65454 47.4902 6.40894 47.4902 7.38062C47.4902 8.21558 47.6904 8.88452 48.0908 9.38745C48.4961 9.8855 49.0308 10.1345 49.6948 10.1345C50.3687 10.1345 50.9155 9.89526 51.3354 9.41675C51.7603 8.93823 51.9727 8.32544 51.9727 7.57837Z" fill="#5475A2"/>
<path d="M43.7549 1.56519C43.54 1.56519 43.3569 1.49194 43.2056 1.34546C43.0542 1.19897 42.9785 1.01343 42.9785 0.788818C42.9785 0.564209 43.0542 0.378662 43.2056 0.232178C43.3569 0.0808105 43.54 0.00512695 43.7549 0.00512695C43.9746 0.00512695 44.1602 0.0808105 44.3115 0.232178C44.4678 0.378662 44.5459 0.564209 44.5459 0.788818C44.5459 1.00366 44.4678 1.18677 44.3115 1.33813C44.1602 1.4895 43.9746 1.56519 43.7549 1.56519ZM44.3408 10.9695H43.1396V3.46948H44.3408V10.9695Z" fill="#5475A2"/>
<path d="M36.3135 10.6985V9.40942C36.9678 9.89282 37.688 10.1345 38.4741 10.1345C39.5288 10.1345 40.0562 9.78296 40.0562 9.07983C40.0562 8.87964 40.0098 8.71118 39.917 8.57446C39.8291 8.43286 39.707 8.30835 39.5508 8.20093C39.3994 8.09351 39.2188 7.99829 39.0088 7.91528C38.8037 7.82739 38.5815 7.73706 38.3423 7.64429C38.0103 7.51245 37.7173 7.38062 37.4634 7.24878C37.2144 7.11206 37.0044 6.96069 36.8335 6.79468C36.6675 6.62378 36.5405 6.43091 36.4526 6.21606C36.3696 6.00122 36.3281 5.74976 36.3281 5.46167C36.3281 5.11011 36.4087 4.80005 36.5698 4.53149C36.731 4.25806 36.9458 4.03101 37.2144 3.85034C37.4829 3.66479 37.7881 3.52563 38.1299 3.43286C38.4766 3.34009 38.833 3.2937 39.1992 3.2937C39.8486 3.2937 40.4297 3.40601 40.9424 3.63062V4.84644C40.3906 4.48511 39.7559 4.30444 39.0381 4.30444C38.8135 4.30444 38.6108 4.3313 38.4302 4.38501C38.2495 4.43384 38.0933 4.50464 37.9614 4.59741C37.8345 4.69019 37.7344 4.80249 37.6611 4.93433C37.5928 5.06128 37.5586 5.20288 37.5586 5.35913C37.5586 5.55444 37.5928 5.71802 37.6611 5.84985C37.7344 5.98169 37.8394 6.09888 37.9761 6.20142C38.1128 6.30396 38.2788 6.39673 38.4741 6.47974C38.6694 6.56274 38.8916 6.65308 39.1406 6.75073C39.4727 6.87769 39.7705 7.00952 40.0342 7.14624C40.2979 7.27808 40.5225 7.42944 40.708 7.60034C40.8936 7.76636 41.0352 7.95923 41.1328 8.17896C41.2354 8.39868 41.2866 8.65991 41.2866 8.96265C41.2866 9.33374 41.2036 9.65601 41.0376 9.92944C40.8765 10.2029 40.6592 10.4299 40.3857 10.6106C40.1123 10.7913 39.7974 10.9255 39.4409 11.0134C39.0845 11.1013 38.7109 11.1453 38.3203 11.1453C37.5488 11.1453 36.8799 10.9963 36.3135 10.6985Z" fill="#5475A2"/>
<path d="M34.9438 7.51978H29.6484C29.668 8.35474 29.8926 8.99927 30.3223 9.45337C30.752 9.90747 31.3428 10.1345 32.0947 10.1345C32.9395 10.1345 33.7158 9.8562 34.4238 9.29956V10.4275C33.7646 10.906 32.8931 11.1453 31.8091 11.1453C30.7495 11.1453 29.917 10.8059 29.3115 10.1272C28.7061 9.4436 28.4033 8.48413 28.4033 7.24878C28.4033 6.08179 28.7329 5.13208 29.3921 4.39966C30.0562 3.66235 30.8789 3.2937 31.8604 3.2937C32.8418 3.2937 33.6011 3.61108 34.1382 4.24585C34.6753 4.88062 34.9438 5.76196 34.9438 6.88989V7.51978ZM33.7134 6.50171C33.7085 5.80835 33.54 5.2688 33.208 4.88306C32.8809 4.49731 32.4243 4.30444 31.8384 4.30444C31.272 4.30444 30.791 4.50708 30.3955 4.91235C30 5.31763 29.7559 5.84741 29.6631 6.50171H33.7134Z" fill="#5475A2"/>
<path d="M18.5596 10.9695V0.466553H21.46C25.1611 0.466553 27.0117 2.1731 27.0117 5.58618C27.0117 7.20728 26.4966 8.51099 25.4663 9.49731C24.4409 10.4788 23.0664 10.9695 21.3428 10.9695H18.5596ZM19.79 1.57983V9.8562H21.3574C22.7344 9.8562 23.8062 9.48755 24.5728 8.75024C25.3394 8.01294 25.7227 6.96802 25.7227 5.61548C25.7227 2.92505 24.292 1.57983 21.4307 1.57983H19.79Z" fill="#5475A2"/>
<path d="M12.7002 0.466553V1.52124H11.6748V9.91479H12.7002V10.9695H9.41895V9.91479H10.4443V1.52124H9.41895V0.466553H12.7002Z" fill="#5475A2"/>
<path d="M7.81494 6.72144C7.81494 9.67065 6.48438 11.1453 3.82324 11.1453C1.27441 11.1453 0 9.72681 0 6.88989V0.466553H1.23047V6.80933C1.23047 8.96265 2.13867 10.0393 3.95508 10.0393C5.70801 10.0393 6.58447 8.99927 6.58447 6.91919V0.466553H7.81494V6.72144Z" fill="#5475A2"/>
</svg>
