<svg width="162" height="14" viewBox="0 0 162 14" fill="none" xmlns="http://www.w3.org/2000/svg">
<path d="M161.742 10.5985H160.197L157.16 7.2931H157.133V10.5985H156.032V0.413574H157.133V6.86985H157.16L160.049 3.71897H161.494L158.302 7.0378L161.742 10.5985Z" fill="#797979"/>
<path d="M154.836 4.83431C154.643 4.68651 154.366 4.61261 154.003 4.61261C153.533 4.61261 153.139 4.83431 152.821 5.27772C152.507 5.72112 152.35 6.32577 152.35 7.09165V10.5986H151.248V3.71907H152.35V5.13663H152.377C152.534 4.65292 152.774 4.27669 153.096 4.00796C153.418 3.73475 153.779 3.59814 154.178 3.59814C154.464 3.59814 154.684 3.6295 154.836 3.6922V4.83431Z" fill="#797979"/>
<path d="M146.062 10.7599C145.045 10.7599 144.232 10.4396 143.623 9.79915C143.018 9.15419 142.716 8.30097 142.716 7.23948C142.716 6.08394 143.032 5.18145 143.663 4.53201C144.295 3.88258 145.148 3.55786 146.223 3.55786C147.249 3.55786 148.048 3.87362 148.621 4.50514C149.199 5.13666 149.488 6.01228 149.488 7.13199C149.488 8.22931 149.177 9.10941 148.554 9.77228C147.936 10.4307 147.105 10.7599 146.062 10.7599ZM146.142 4.48498C145.435 4.48498 144.875 4.72684 144.463 5.21056C144.051 5.6898 143.845 6.35267 143.845 7.19917C143.845 8.01433 144.053 8.65704 144.47 9.12732C144.886 9.5976 145.444 9.83274 146.142 9.83274C146.855 9.83274 147.401 9.60208 147.782 9.14076C148.167 8.67944 148.359 8.02328 148.359 7.1723C148.359 6.31236 148.167 5.64949 147.782 5.18369C147.401 4.71789 146.855 4.48498 146.142 4.48498Z" fill="#797979"/>
<path d="M141.95 3.71899L139.888 10.5985H138.745L137.328 5.67402C137.274 5.4859 137.238 5.27316 137.22 5.03578H137.194C137.18 5.19702 137.133 5.40528 137.052 5.66058L135.514 10.5985H134.412L132.329 3.71899H133.485L134.909 8.89207C134.954 9.04883 134.985 9.25486 135.003 9.51016H135.057C135.071 9.31309 135.111 9.10258 135.178 8.87864L136.764 3.71899H137.771L139.196 8.90551C139.24 9.07123 139.274 9.27726 139.296 9.52359H139.35C139.359 9.34892 139.397 9.14289 139.464 8.90551L140.862 3.71899H141.95Z" fill="#797979"/>
<path d="M126.324 9.60432H126.297V13.7629H125.195V3.7191H126.297V4.92839H126.324C126.866 4.0147 127.658 3.55786 128.702 3.55786C129.589 3.55786 130.281 3.8669 130.778 4.48498C131.275 5.09859 131.524 5.9227 131.524 6.95731C131.524 8.10838 131.244 9.03103 130.684 9.72525C130.124 10.415 129.358 10.7599 128.386 10.7599C127.495 10.7599 126.807 10.3747 126.324 9.60432ZM126.297 6.82967V7.79038C126.297 8.3592 126.48 8.84291 126.848 9.24153C127.219 9.63567 127.69 9.83274 128.259 9.83274C128.926 9.83274 129.448 9.57745 129.824 9.06686C130.205 8.55627 130.395 7.84637 130.395 6.93716C130.395 6.17127 130.218 5.57111 129.864 5.13666C129.51 4.70221 129.031 4.48498 128.427 4.48498C127.786 4.48498 127.271 4.70893 126.881 5.15681C126.492 5.60022 126.297 6.15784 126.297 6.82967Z" fill="#797979"/>
<path d="M122.931 6.70202C122.931 9.40725 121.71 10.7599 119.269 10.7599C116.931 10.7599 115.762 9.45875 115.762 6.85654V0.9646H116.891V6.78264C116.891 8.75781 117.724 9.7454 119.39 9.7454C120.998 9.7454 121.802 8.7914 121.802 6.88341V0.9646H122.931V6.70202Z" fill="#797979"/>
<path d="M110.489 10.5313C110.229 10.6747 109.886 10.7463 109.461 10.7463C108.256 10.7463 107.654 10.0745 107.654 8.73083V4.65955H106.471V3.71899H107.654V2.03942L108.756 1.68335V3.71899H110.489V4.65955H108.756V8.536C108.756 8.99732 108.834 9.32652 108.991 9.52359C109.147 9.72066 109.407 9.81919 109.77 9.81919C110.048 9.81919 110.287 9.74305 110.489 9.59077V10.5313Z" fill="#797979"/>
<path d="M106.209 10.5986H104.959L103.938 7.89787H99.8532L98.8925 10.5986H97.6362L101.331 0.9646H102.5L106.209 10.5986ZM103.568 6.88341L102.057 2.77854C102.008 2.64417 101.958 2.42919 101.909 2.13358H101.882C101.837 2.40679 101.786 2.62178 101.728 2.77854L100.229 6.88341H103.568Z" fill="#797979"/>
<path d="M93.6328 4.83431C93.4402 4.68651 93.1625 4.61261 92.7998 4.61261C92.3295 4.61261 91.9353 4.83431 91.6173 5.27772C91.3038 5.72112 91.1471 6.32577 91.1471 7.09165V10.5986H90.0453V3.71907H91.1471V5.13663H91.1739C91.3307 4.65292 91.5703 4.27669 91.8928 4.00796C92.2153 3.73475 92.5758 3.59814 92.9744 3.59814C93.2611 3.59814 93.4805 3.6295 93.6328 3.6922V4.83431Z" fill="#797979"/>
<path d="M88.3717 7.43431H83.5144C83.5323 8.2002 83.7383 8.79141 84.1324 9.20794C84.5266 9.62447 85.0685 9.83274 85.7583 9.83274C86.5331 9.83274 87.2453 9.57745 87.8947 9.06686V10.1015C87.29 10.5404 86.4906 10.7599 85.4963 10.7599C84.5243 10.7599 83.7607 10.4486 83.2053 9.82602C82.6499 9.19898 82.3723 8.31889 82.3723 7.18574C82.3723 6.11529 82.6746 5.24415 83.2792 4.57232C83.8883 3.89602 84.643 3.55786 85.5433 3.55786C86.4435 3.55786 87.14 3.84899 87.6327 4.43124C88.1253 5.01349 88.3717 5.82192 88.3717 6.85654V7.43431ZM87.243 6.50047C87.2385 5.86447 87.084 5.36956 86.7794 5.01573C86.4794 4.6619 86.0606 4.48498 85.5231 4.48498C85.0036 4.48498 84.5624 4.67086 84.1996 5.0426C83.8368 5.41435 83.6129 5.9003 83.5278 6.50047H87.243Z" fill="#797979"/>
<path d="M80.7602 10.5986H79.6584V6.67515C79.6584 5.21504 79.1254 4.48498 78.0594 4.48498C77.5085 4.48498 77.0517 4.69325 76.6889 5.10979C76.3306 5.52184 76.1514 6.04363 76.1514 6.67515V10.5986H75.0496V3.7191H76.1514V4.86121H76.1783C76.6978 3.99231 77.4503 3.55786 78.4356 3.55786C79.1881 3.55786 79.7636 3.80196 80.1622 4.29015C80.5609 4.77387 80.7602 5.47481 80.7602 6.39298V10.5986Z" fill="#797979"/>
<path d="M72.8188 10.0477C72.8188 12.5738 71.6095 13.8368 69.1909 13.8368C68.34 13.8368 67.5965 13.6756 66.9605 13.3531V12.2513C67.7353 12.6813 68.4743 12.8963 69.1775 12.8963C70.8705 12.8963 71.717 11.996 71.717 10.1955V9.44308H71.6901C71.1661 10.3209 70.3778 10.7599 69.3253 10.7599C68.4698 10.7599 67.7801 10.4553 67.2561 9.84618C66.7365 9.23257 66.4767 8.4107 66.4767 7.38057C66.4767 6.21158 66.7567 5.28222 67.3165 4.59248C67.8809 3.90273 68.6512 3.55786 69.6276 3.55786C70.5547 3.55786 71.2423 3.92961 71.6901 4.6731H71.717V3.7191H72.8188V10.0477ZM71.717 7.48806V6.4736C71.717 5.92718 71.5311 5.45914 71.1594 5.06948C70.7921 4.67982 70.333 4.48498 69.7821 4.48498C69.1014 4.48498 68.5684 4.73356 68.1832 5.23071C67.798 5.72339 67.6054 6.41537 67.6054 7.30666C67.6054 8.07255 67.7891 8.68615 68.1563 9.14748C68.5281 9.60432 69.0185 9.83274 69.6276 9.83274C70.2457 9.83274 70.7473 9.61328 71.1325 9.17435C71.5222 8.73542 71.717 8.17332 71.717 7.48806Z" fill="#797979"/>
<path d="M64.1795 1.97225C63.9824 1.97225 63.8144 1.90507 63.6756 1.77071C63.5367 1.63634 63.4673 1.46614 63.4673 1.26012C63.4673 1.05409 63.5367 0.883892 63.6756 0.749527C63.8144 0.610682 63.9824 0.54126 64.1795 0.54126C64.381 0.54126 64.5512 0.610682 64.69 0.749527C64.8334 0.883892 64.905 1.05409 64.905 1.26012C64.905 1.45719 64.8334 1.62514 64.69 1.76399C64.5512 1.90283 64.381 1.97225 64.1795 1.97225ZM64.7169 10.5985H63.6151V3.71901H64.7169V10.5985Z" fill="#797979"/>
<path d="M57.3539 10.35V9.16763C57.954 9.61104 58.6146 9.83274 59.3357 9.83274C60.3032 9.83274 60.7869 9.51026 60.7869 8.86531C60.7869 8.68167 60.7443 8.52715 60.6592 8.40175C60.5786 8.27186 60.4667 8.15765 60.3233 8.05911C60.1845 7.96058 60.0188 7.87324 59.8262 7.7971C59.6381 7.71648 59.4343 7.63362 59.2148 7.54852C58.9103 7.42759 58.6415 7.30667 58.4086 7.18574C58.1802 7.06033 57.9876 6.92148 57.8308 6.7692C57.6786 6.61244 57.5621 6.43553 57.4815 6.23846C57.4054 6.04139 57.3673 5.81073 57.3673 5.54647C57.3673 5.224 57.4412 4.93959 57.589 4.69325C57.7368 4.44244 57.9339 4.23417 58.1802 4.06845C58.4265 3.89825 58.7065 3.77061 59.02 3.68551C59.338 3.60041 59.6649 3.55786 60.0009 3.55786C60.5965 3.55786 61.1295 3.66088 61.5998 3.8669V4.98214C61.0937 4.6507 60.5114 4.48498 59.8531 4.48498C59.647 4.48498 59.4612 4.50962 59.2954 4.55889C59.1297 4.60367 58.9864 4.66862 58.8655 4.75372C58.749 4.83881 58.6572 4.94183 58.59 5.06276C58.5273 5.17921 58.496 5.30909 58.496 5.45242C58.496 5.63157 58.5273 5.78161 58.59 5.90254C58.6572 6.02347 58.7535 6.13097 58.8789 6.22502C59.0043 6.31908 59.1566 6.40418 59.3357 6.48032C59.5149 6.55646 59.7187 6.63932 59.9471 6.72889C60.2517 6.84534 60.5249 6.96627 60.7667 7.09168C61.0086 7.21261 61.2146 7.35145 61.3848 7.50821C61.555 7.6605 61.6849 7.83741 61.7745 8.03896C61.8685 8.24051 61.9156 8.48013 61.9156 8.75782C61.9156 9.09821 61.8394 9.39381 61.6871 9.64463C61.5393 9.89545 61.34 10.1037 61.0892 10.2694C60.8384 10.4351 60.5495 10.5583 60.2226 10.6389C59.8956 10.7196 59.553 10.7599 59.1947 10.7599C58.487 10.7599 57.8734 10.6233 57.3539 10.35Z" fill="#797979"/>
<path d="M56.0972 7.43431H51.2399C51.2578 8.2002 51.4638 8.79141 51.858 9.20794C52.2521 9.62447 52.7941 9.83274 53.4838 9.83274C54.2586 9.83274 54.9708 9.57745 55.6202 9.06686V10.1015C55.0156 10.5404 54.2161 10.7599 53.2218 10.7599C52.2499 10.7599 51.4862 10.4486 50.9308 9.82602C50.3755 9.19898 50.0978 8.31889 50.0978 7.18574C50.0978 6.11529 50.4001 5.24415 51.0047 4.57232C51.6139 3.89602 52.3686 3.55786 53.2688 3.55786C54.1691 3.55786 54.8655 3.84899 55.3582 4.43124C55.8509 5.01349 56.0972 5.82192 56.0972 6.85654V7.43431ZM54.9685 6.50047C54.9641 5.86447 54.8095 5.36956 54.505 5.01573C54.2049 4.6619 53.7861 4.48498 53.2487 4.48498C52.7291 4.48498 52.2879 4.67086 51.9252 5.0426C51.5624 5.41435 51.3384 5.9003 51.2533 6.50047H54.9685Z" fill="#797979"/>
<path d="M41.0685 10.5986V0.9646H43.7289C47.1239 0.9646 48.8214 2.52996 48.8214 5.66068C48.8214 7.14766 48.3489 8.34352 47.4038 9.24825C46.4633 10.1485 45.2025 10.5986 43.6214 10.5986H41.0685ZM42.1972 1.98578V9.57744H43.6349C44.8979 9.57744 45.881 9.23929 46.5842 8.56298C47.2874 7.88667 47.639 6.9282 47.639 5.68755C47.639 3.2197 46.3267 1.98578 43.702 1.98578H42.1972Z" fill="#797979"/>
<path d="M35.8278 10.5986H34.4505L32.2335 6.91028C32.1663 6.79831 32.0924 6.63931 32.0118 6.43328H31.9849C31.9401 6.5363 31.864 6.6953 31.7565 6.91028L29.4723 10.5986H28.0883L31.3131 5.75474L28.3436 0.9646H29.7276L31.696 4.35062C31.8259 4.57456 31.9401 4.7985 32.0387 5.02244H32.0655C32.2089 4.72684 32.3343 4.49394 32.4418 4.32374L34.4908 0.9646H35.7875L32.7575 5.7413L35.8278 10.5986Z" fill="#797979"/>
<path d="M26.7649 6.70202C26.7649 9.40725 25.5445 10.7599 23.1035 10.7599C20.7655 10.7599 19.5965 9.45875 19.5965 6.85654V0.9646H20.7252V6.78264C20.7252 8.75781 21.5583 9.7454 23.2244 9.7454C24.8323 9.7454 25.6363 8.7914 25.6363 6.88341V0.9646H26.7649V6.70202Z" fill="#797979"/>
<path d="M17.5807 7.19918H13.9125V6.33252H17.5807V7.19918Z" fill="#797979"/>
<path d="M12.6096 0.9646V1.93203H11.669V9.63119H12.6096V10.5986H9.59976V9.63119H10.5403V1.93203H9.59976V0.9646H12.6096Z" fill="#797979"/>
<path d="M8.12874 6.70202C8.12874 9.40725 6.90825 10.7599 4.46727 10.7599C2.12931 10.7599 0.960327 9.45875 0.960327 6.85654V0.9646H2.089V6.78264C2.089 8.75781 2.92207 9.7454 4.5882 9.7454C6.19611 9.7454 7.00007 8.7914 7.00007 6.88341V0.9646H8.12874V6.70202Z" fill="#797979"/>
</svg>
