<svg width="13" height="16" viewBox="0 0 13 16" fill="none" xmlns="http://www.w3.org/2000/svg">
<path d="M5.83934 14.1412L5.621 13.5823L5.83934 14.1412ZM2.29032 14.8227L1.99032 15.3423H1.99032L2.29032 14.8227ZM1.10601 11.4084L0.512849 11.4987L1.10601 11.4084ZM1.53498 9.1316L2.0546 9.4316L1.53498 9.1316ZM1.0239 10.2141L0.434271 10.103H0.434271L1.0239 10.2141ZM7.5966 12.6313L8.11621 12.9313L7.5966 12.6313ZM6.91466 13.6151L7.30568 14.0702L7.30568 14.0702L6.91466 13.6151ZM4.85831 3.37543L4.33869 3.07543L4.85831 3.37543ZM10.4003 6.57511L7.07698 12.3313L8.11621 12.9313L11.4395 7.17511L10.4003 6.57511ZM2.0546 9.4316L5.37792 3.67543L4.33869 3.07543L1.01536 8.8316L2.0546 9.4316ZM5.621 13.5823C4.66331 13.9565 4.00551 14.2119 3.49628 14.3308C3.00273 14.4462 2.76486 14.4038 2.59032 14.3031L1.99032 15.3423C2.54412 15.662 3.14053 15.6463 3.76929 15.4994C4.38237 15.3561 5.13492 15.0605 6.05768 14.7L5.621 13.5823ZM0.512849 11.4987C0.662015 12.4781 0.782292 13.2776 0.964785 13.8802C1.15195 14.4982 1.43652 15.0226 1.99032 15.3423L2.59032 14.3031C2.41578 14.2023 2.26018 14.0175 2.11327 13.5324C1.96169 13.0319 1.85398 12.3345 1.69917 11.318L0.512849 11.4987ZM1.01536 8.8316C0.731882 9.32261 0.512736 9.68655 0.434271 10.103L1.61352 10.3252C1.64541 10.156 1.7302 9.99347 2.0546 9.4316L1.01536 8.8316ZM1.69917 11.318C1.60148 10.6766 1.58163 10.4944 1.61352 10.3252L0.434271 10.103C0.355805 10.5195 0.427483 10.9382 0.512849 11.4987L1.69917 11.318ZM7.07698 12.3313C6.75259 12.8931 6.65427 13.0478 6.52364 13.1601L7.30568 14.0702C7.62712 13.794 7.83273 13.4223 8.11621 12.9313L7.07698 12.3313ZM6.05768 14.7C6.58577 14.4937 6.98425 14.3464 7.30568 14.0702L6.52364 13.1601C6.39302 13.2723 6.2253 13.3462 5.621 13.5823L6.05768 14.7ZM9.33895 2.61408C10.068 3.035 10.5619 3.32161 10.9032 3.58497C11.2307 3.83769 11.3439 4.0148 11.3901 4.18718L12.5492 3.8766C12.4078 3.34888 12.0701 2.96971 11.6363 2.63496C11.2163 2.31085 10.6386 1.9788 9.93895 1.57484L9.33895 2.61408ZM11.4395 7.17511C11.8435 6.47543 12.1778 5.89903 12.3794 5.40835C12.5877 4.90156 12.6906 4.40432 12.5492 3.8766L11.3901 4.18718C11.4363 4.35957 11.4268 4.56957 11.2695 4.95218C11.1056 5.35089 10.8212 5.84605 10.4003 6.57511L11.4395 7.17511ZM9.93895 1.57484C9.23927 1.17088 8.66288 0.836632 8.1722 0.634961C7.66541 0.42667 7.16817 0.323773 6.64045 0.465175L6.95103 1.62429C7.12342 1.5781 7.33342 1.58762 7.71602 1.74487C8.11474 1.90874 8.6099 2.19315 9.33895 2.61408L9.93895 1.57484ZM5.37792 3.67543C5.79884 2.94637 6.08546 2.45249 6.34882 2.11121C6.60154 1.78373 6.77864 1.67048 6.95103 1.62429L6.64045 0.465175C6.11273 0.606578 5.73355 0.944309 5.3988 1.37809C5.0747 1.79808 4.74265 2.37575 4.33869 3.07543L5.37792 3.67543ZM11.2199 6.35549L5.15831 2.85582L4.55831 3.89505L10.6199 7.39472L11.2199 6.35549Z" fill="#2D264B"/>
</svg>
