<svg width="9" height="5" viewBox="0 0 9 5" fill="none" xmlns="http://www.w3.org/2000/svg">
<path d="M8.82993 1.00014C9.05813 0.769901 9.05647 0.398264 8.82623 0.170068C8.59599 -0.0581278 8.22435 -0.0564697 7.99615 0.173771L6.6287 1.55349C6.07372 2.11344 5.69177 2.49754 5.36814 2.75745C5.05377 3.00992 4.85185 3.09653 4.671 3.11958C4.55745 3.13405 4.44255 3.13405 4.329 3.11958C4.14815 3.09653 3.94623 3.00992 3.63186 2.75745C3.30823 2.49754 2.92628 2.11344 2.3713 1.55349L1.00385 0.173771C0.77565 -0.0564701 0.404013 -0.0581281 0.173772 0.170068C-0.0564699 0.398264 -0.0581274 0.7699 0.170068 1.00014L1.56216 2.40471C2.08647 2.93373 2.51498 3.36611 2.89679 3.67274C3.29383 3.9916 3.69683 4.22241 4.18057 4.28407C4.39268 4.31111 4.60732 4.31111 4.81943 4.28407C5.30317 4.22241 5.70617 3.9916 6.10321 3.67274C6.48502 3.36611 6.91353 2.93374 7.43784 2.40471L8.82993 1.00014Z" fill="#2D264B"/>
</svg>
