<svg width="15" height="15" viewBox="0 0 15 15" fill="none" xmlns="http://www.w3.org/2000/svg">
<path d="M14.25 0H9C8.44469 0.00188087 7.90996 0.210424 7.5 0.585C7.09004 0.210424 6.55531 0.00188087 6 0H0.75C0.551088 0 0.360322 0.0790176 0.21967 0.21967C0.0790176 0.360322 0 0.551088 0 0.75V12C0 12.1989 0.0790176 12.3897 0.21967 12.5303C0.360322 12.671 0.551088 12.75 0.75 12.75H5.0685C5.46613 12.7509 5.8473 12.9089 6.129 13.1895L6.96975 14.0303C6.9765 14.037 6.9855 14.0393 6.99225 14.046C7.05675 14.106 7.12875 14.1585 7.21275 14.193H7.21425C7.39722 14.2688 7.60278 14.2688 7.78575 14.193H7.78725C7.87125 14.1585 7.94325 14.1053 8.00775 14.046C8.0145 14.0393 8.0235 14.037 8.03025 14.0303L8.871 13.1895C9.1527 12.9089 9.53387 12.7509 9.9315 12.75H14.25C14.4489 12.75 14.6397 12.671 14.7803 12.5303C14.921 12.3897 15 12.1989 15 12V0.75C15 0.551088 14.921 0.360322 14.7803 0.21967C14.6397 0.0790176 14.4489 0 14.25 0ZM13.5 11.25H9.9315C9.33216 11.2517 8.74687 11.4316 8.25 11.7667V2.25C8.25 1.83675 8.586 1.5 9 1.5H13.5V11.25Z" fill="#797979"/>
</svg>
