<svg width="5" height="9" viewBox="0 0 5 9" fill="none" xmlns="http://www.w3.org/2000/svg">
<path d="M1.00014 0.170068C0.769901 -0.0581278 0.398264 -0.0564697 0.170068 0.173771C-0.0581278 0.404013 -0.0564697 0.775649 0.173771 1.00385L1.55349 2.3713C2.11344 2.92628 2.49754 3.30823 2.75745 3.63186C3.00992 3.94623 3.09653 4.14815 3.11958 4.329C3.13405 4.44255 3.13405 4.55745 3.11958 4.671C3.09653 4.85185 3.00992 5.05377 2.75745 5.36814C2.49754 5.69177 2.11344 6.07372 1.55349 6.6287L0.173771 7.99615C-0.0564697 8.22435 -0.0581278 8.59599 0.170068 8.82623C0.398264 9.05647 0.769901 9.05813 1.00014 8.82993L2.40471 7.43784C2.93373 6.91353 3.36611 6.48502 3.67274 6.10321C3.9916 5.70617 4.22241 5.30317 4.28407 4.81943C4.31111 4.60732 4.31111 4.39268 4.28407 4.18057C4.22241 3.69683 3.9916 3.29383 3.67274 2.89679C3.36611 2.51498 2.93374 2.08647 2.40471 1.56216L1.00014 0.170068Z" fill="#2D264B"/>
</svg>
