<svg width="5" height="8" viewBox="0 0 5 8" fill="none" xmlns="http://www.w3.org/2000/svg">
<path fill-rule="evenodd" clip-rule="evenodd" d="M2.5 8C2.24312 8 2.03488 7.77614 2.03488 7.5L2.03488 1.27497C1.89758 1.40722 1.73204 1.58614 1.50658 1.83067L0.795467 2.60197C0.61464 2.7981 0.320147 2.79952 0.1377 2.60513C-0.0447478 2.41074 -0.0460615 2.09416 0.134765 1.89803L0.864157 1.1069C1.13209 0.816268 1.36045 0.568562 1.56618 0.390953C1.78391 0.202983 2.02086 0.0528357 2.31367 0.0127146C2.4374 -0.0042374 2.56261 -0.00423739 2.68633 0.0127147C2.97914 0.0528362 3.21609 0.202983 3.43382 0.390953C3.63955 0.568565 3.86791 0.816273 4.13585 1.10691L4.86524 1.89803C5.04606 2.09416 5.04475 2.41074 4.8623 2.60513C4.67985 2.79952 4.38536 2.7981 4.20453 2.60197L3.49342 1.83067C3.26796 1.58613 3.10242 1.40722 2.96512 1.27497L2.96512 7.5C2.96512 7.77614 2.75688 8 2.5 8Z" fill="#202244"/>
</svg>
