<svg width="21" height="14" viewBox="0 0 21 14" fill="none" xmlns="http://www.w3.org/2000/svg">
<path d="M20.7434 6.37927L17.0895 2.72534C13.4566 -0.908447 7.54343 -0.908447 3.9105 2.72534L0.256578 6.37927C-0.0855261 6.72137 -0.0855261 7.27437 0.256578 7.61648L3.9105 11.2704C5.72697 13.0869 8.11304 13.996 10.5 13.996C12.8869 13.996 15.273 13.0869 17.0895 11.2704L20.7434 7.61648C21.0855 7.27437 21.0855 6.72137 20.7434 6.37927ZM10.5 11.3728C8.08766 11.3728 6.12506 9.41018 6.12506 6.99785C6.12506 4.58553 8.08766 2.62293 10.5 2.62293C12.9123 2.62293 14.8749 4.58553 14.8749 6.99785C14.8749 9.41018 12.9123 11.3728 10.5 11.3728Z" fill="#797979"/>
</svg>
