<svg width="13" height="16" viewBox="0 0 13 16" fill="none" xmlns="http://www.w3.org/2000/svg">
<path d="M5.83934 14.1412L5.65739 13.6754L5.83934 14.1412ZM2.29032 14.8227L2.04032 15.2557H2.04032L2.29032 14.8227ZM1.10601 11.4084L0.611709 11.4837L1.10601 11.4084ZM1.53498 9.1316L1.96799 9.3816L1.53498 9.1316ZM1.0239 10.2141L0.532542 10.1215H0.532542L1.0239 10.2141ZM7.5966 12.6313L8.02961 12.8813L7.5966 12.6313ZM6.91466 13.6151L7.24051 13.9944V13.9944L6.91466 13.6151ZM4.85831 3.37543L4.42529 3.12543L4.85831 3.37543ZM10.4869 6.62511L7.16359 12.3813L8.02961 12.8813L11.3529 7.12511L10.4869 6.62511ZM1.96799 9.3816L5.29132 3.62543L4.42529 3.12543L1.10197 8.8816L1.96799 9.3816ZM5.65739 13.6754C4.70261 14.0485 4.03692 14.3072 3.51903 14.4282C3.01421 14.5462 2.74646 14.5087 2.54032 14.3897L2.04032 15.2557C2.56251 15.5572 3.12905 15.5463 3.74654 15.402C4.35096 15.2608 5.09561 14.9685 6.02129 14.6069L5.65739 13.6754ZM0.611709 11.4837C0.761346 12.4661 0.880575 13.2572 1.06049 13.8512C1.2443 14.4581 1.51812 14.9542 2.04032 15.2557L2.54032 14.3897C2.33417 14.2706 2.16783 14.0575 2.01756 13.5614C1.8634 13.0524 1.75465 12.3465 1.60031 11.3331L0.611709 11.4837ZM1.10197 8.8816C0.815075 9.37851 0.607126 9.72567 0.532542 10.1215L1.51525 10.3067C1.55102 10.1168 1.64701 9.93756 1.96799 9.3816L1.10197 8.8816ZM1.60031 11.3331C1.50365 10.6984 1.47948 10.4965 1.51525 10.3067L0.532542 10.1215C0.457958 10.5174 0.525316 10.9164 0.611709 11.4837L1.60031 11.3331ZM7.16359 12.3813C6.8426 12.9372 6.73534 13.11 6.58881 13.2359L7.24051 13.9944C7.54604 13.7319 7.74272 13.3782 8.02961 12.8813L7.16359 12.3813ZM6.02129 14.6069C6.55573 14.3981 6.93498 14.2569 7.24051 13.9944L6.58881 13.2359C6.44229 13.3618 6.25534 13.4418 5.65739 13.6754L6.02129 14.6069ZM9.38895 2.52747C10.1156 2.94698 10.6164 3.23738 10.9643 3.50581C11.3006 3.76536 11.4326 3.9593 11.4867 4.1613L12.4526 3.90248C12.3191 3.40437 12.0001 3.04204 11.5752 2.71413C11.1618 2.39508 10.5911 2.06682 9.88895 1.66145L9.38895 2.52747ZM11.3529 7.12511C11.7583 6.42298 12.0884 5.85336 12.2869 5.37034C12.491 4.8739 12.5861 4.40059 12.4526 3.90248L11.4867 4.1613C11.5408 4.3633 11.5235 4.59724 11.362 4.99019C11.195 5.39657 10.9064 5.8985 10.4869 6.62511L11.3529 7.12511ZM9.88895 1.66145C9.18683 1.25607 8.6172 0.925974 8.13418 0.727454C7.63774 0.523416 7.16444 0.4283 6.66633 0.561768L6.92515 1.52769C7.12715 1.47357 7.36108 1.49088 7.75404 1.65238C8.16042 1.8194 8.66234 2.10796 9.38895 2.52747L9.88895 1.66145ZM5.29132 3.62543C5.71083 2.89882 6.00123 2.39795 6.26965 2.05012C6.52921 1.71378 6.72315 1.58182 6.92515 1.52769L6.66633 0.561768C6.16822 0.695236 5.80588 1.01426 5.47797 1.43918C5.15893 1.85262 4.83067 2.4233 4.42529 3.12543L5.29132 3.62543ZM11.1699 6.4421L5.10831 2.94242L4.60831 3.80844L10.6699 7.30812L11.1699 6.4421Z" fill="#2D264B"/>
</svg>
