<svg width="23" height="19" viewBox="0 0 23 19" fill="none" xmlns="http://www.w3.org/2000/svg">
<path d="M6.20041 5.16701H16.5344V6.20041H6.20041V5.16701ZM6.20041 9.30061H13.4342V8.26721H6.20041V9.30061ZM22.7348 7.23381C22.7502 8.36531 22.4912 9.48369 21.9801 10.4933C21.469 11.5029 20.721 12.3737 19.8 13.0312L11.3674 18.6012V14.4676H7.23381C5.31528 14.4676 3.47534 13.7055 2.11873 12.3489C0.762131 10.9923 0 9.15234 0 7.23381C0 5.31528 0.762131 3.47534 2.11873 2.11873C3.47534 0.762131 5.31528 2.85883e-08 7.23381 0H15.501C17.4195 0 19.2595 0.762131 20.6161 2.11873C21.9727 3.47534 22.7348 5.31528 22.7348 7.23381ZM20.668 7.23381C20.668 5.86343 20.1236 4.54919 19.1546 3.58018C18.1856 2.61118 16.8714 2.0668 15.501 2.0668H7.23381C5.86343 2.0668 4.54919 2.61118 3.58018 3.58018C2.61118 4.54919 2.0668 5.86343 2.0668 7.23381C2.0668 8.60419 2.61118 9.91843 3.58018 10.8874C4.54919 11.8564 5.86343 12.4008 7.23381 12.4008H13.4342V14.757L18.6012 11.3674C19.256 10.8985 19.7865 10.277 20.1466 9.55662C20.5068 8.83629 20.6858 8.03897 20.668 7.23381Z" fill="#797979"/>
</svg>
