<svg width="5" height="8" viewBox="0 0 5 8" fill="none" xmlns="http://www.w3.org/2000/svg">
<path fill-rule="evenodd" clip-rule="evenodd" d="M2.5 8.00098C2.24312 8.00098 2.03488 7.77712 2.03488 7.50098L2.03488 1.27595C1.89758 1.4082 1.73204 1.58711 1.50658 1.83165L0.795467 2.60295C0.61464 2.79908 0.320147 2.80049 0.1377 2.6061C-0.0447478 2.41171 -0.0460615 2.09514 0.134765 1.899L0.864157 1.10788C1.13209 0.817244 1.36045 0.569539 1.56618 0.391929C1.78391 0.203959 2.02086 0.0538122 2.31367 0.0136912C2.4374 -0.00326084 2.56261 -0.00326083 2.68633 0.0136912C2.97914 0.0538128 3.21609 0.203959 3.43382 0.391929C3.63955 0.569541 3.86791 0.81725 4.13585 1.10789L4.86524 1.899C5.04606 2.09514 5.04475 2.41172 4.8623 2.6061C4.67985 2.80049 4.38536 2.79908 4.20453 2.60295L3.49342 1.83165C3.26796 1.58711 3.10242 1.4082 2.96512 1.27595L2.96512 7.50098C2.96512 7.77712 2.75688 8.00098 2.5 8.00098Z" fill="#202244"/>
</svg>
