<svg width="46" height="37" viewBox="0 0 46 37" fill="none" xmlns="http://www.w3.org/2000/svg">
<path d="M37.7397 13.9389C37.1417 6.15041 30.7592 0 23 0C16.3629 0 10.6654 4.41309 8.82707 10.8494C3.58307 12.7129 0 17.7987 0 23.5455C0 30.964 5.89621 37 13.1429 37H34.5C40.8414 37 46 31.7191 46 25.2273C46 19.9312 42.5993 15.3853 37.7397 13.9389ZM31.0894 19.1441C30.8348 19.7715 30.2351 20.1818 29.5714 20.1818H26.2857V26.9091C26.2857 28.7658 24.8137 30.2727 23 30.2727C21.1863 30.2727 19.7143 28.7658 19.7143 26.9091V20.1818H16.4286C15.7649 20.1818 15.1652 19.7715 14.9106 19.1441C14.6559 18.5151 14.7972 17.792 15.2671 17.311L21.8385 10.5837C22.1589 10.2557 22.5794 10.0909 23 10.0909C23.4206 10.0909 23.8411 10.2557 24.1615 10.5837L30.7329 17.311C31.2028 17.792 31.3441 18.5151 31.0894 19.1441Z" fill="#5475A2"/>
</svg>
